<svg width="113" height="114" viewBox="0 0 113 114" fill="none" xmlns="http://www.w3.org/2000/svg">
<mask id="mask0_301_182" style="mask-type:luminance" maskUnits="userSpaceOnUse" x="0" y="0" width="113" height="114">
<path d="M0 0.17334H113V113.173H0V0.17334Z" fill="white"/>
</mask>
<g mask="url(#mask0_301_182)">
<path d="M100.114 26.2899C100.114 26.2899 24.5539 26.2899 11.5261 26.2899C7.70439 26.2899 4.30924 25.5238 4.30924 21.9372L100.114 17.5844V8.87887C100.114 1.67069 94.2635 0.17334 87.0553 0.17334L8.79694 13.2316C1.82381 14.7812 0 17.7367 0 21.9372V100.287C0 107.495 5.85012 113.345 13.0583 113.345H100.114C107.322 113.345 113.172 107.495 113.172 100.287V39.3482C113.172 32.14 107.322 26.2899 100.114 26.2899ZM95.7608 78.5231C90.9554 78.5231 87.0553 74.623 87.0553 69.8176C87.0553 65.0121 90.9554 61.112 95.7608 61.112C100.566 61.112 104.466 65.0121 104.466 69.8176C104.466 74.623 100.566 78.5231 95.7608 78.5231Z" fill="white"/>
</g>
</svg>
