<svg width="132" height="120" viewBox="0 0 132 120" fill="none" xmlns="http://www.w3.org/2000/svg">
<mask id="mask0_301_204" style="mask-type:luminance" maskUnits="userSpaceOnUse" x="0" y="0" width="132" height="120">
<path d="M0 0.894531H132V119.895H0V0.894531Z" fill="white"/>
</mask>
<g mask="url(#mask0_301_204)">
<path d="M129.532 100.668H123.679V98.7556C123.679 98.4345 123.617 98.1257 123.495 97.829C123.372 97.5324 123.197 97.2706 122.97 97.0436C122.743 96.8165 122.481 96.6416 122.184 96.5187C121.888 96.3959 121.579 96.3344 121.258 96.3344H100.884C100.252 96.3354 99.6266 96.3964 99.0068 96.5172C98.387 96.638 97.7843 96.8166 97.1988 97.0528C96.6132 97.2891 96.0553 97.5787 95.5253 97.9218C94.9952 98.2649 94.5024 98.6552 94.0471 99.0927C93.5917 99.5301 93.1821 100.007 92.818 100.523C92.454 101.039 92.1422 101.584 91.8827 102.16C91.6232 102.736 91.4207 103.331 91.2751 103.945C91.1296 104.56 91.0437 105.182 91.0174 105.813H11.906C11.4425 105.813 10.9834 105.768 10.5287 105.678C10.0741 105.587 9.63258 105.453 9.20427 105.276C8.77596 105.099 8.36905 104.882 7.98353 104.624C7.59802 104.367 7.2413 104.074 6.91337 103.746C6.58545 103.419 6.29261 103.062 6.03487 102.677C5.77712 102.292 5.55942 101.885 5.38175 101.457C5.20408 101.029 5.06985 100.587 4.97908 100.133C4.8883 99.6782 4.84271 99.2192 4.84232 98.7556V92.7027C4.84271 92.239 4.88829 91.7798 4.97905 91.3251C5.0698 90.8703 5.20399 90.4288 5.38163 90.0005C5.55926 89.5721 5.77693 89.1652 6.03463 88.7797C6.29233 88.3942 6.58512 88.0375 6.91301 87.7097C7.24089 87.3818 7.59758 87.089 7.98308 86.8313C8.36858 86.5736 8.77549 86.3559 9.20381 86.1783C9.63214 86.0007 10.0737 85.8665 10.5284 85.7757C10.9831 85.685 11.4423 85.6394 11.906 85.639H50.0393C50.8096 85.6216 51.571 85.5303 52.3235 85.3651C53.0761 85.2 53.8057 84.9639 54.5125 84.6571C55.2192 84.3503 55.8898 83.9783 56.5243 83.5413C57.1589 83.1042 57.7454 82.6103 58.2841 82.0594C58.8227 81.5084 59.3033 80.9109 59.7259 80.2667C60.1486 79.6224 60.5053 78.9436 60.7961 78.2301C61.0869 77.5167 61.3065 76.7819 61.4546 76.0258C61.6028 75.2697 61.6769 74.5064 61.6769 73.736C61.6769 72.9655 61.6028 72.2022 61.4546 71.4461C61.3065 70.69 61.0869 69.9553 60.7961 69.2418C60.5053 68.5283 60.1486 67.8495 59.7259 67.2052C59.3033 66.561 58.8227 65.9635 58.2841 65.4126C57.7454 64.8616 57.1589 64.3677 56.5243 63.9306C55.8898 63.4936 55.2192 63.1217 54.5125 62.8148C53.8057 62.508 53.0761 62.272 52.3235 62.1068C51.571 61.9416 50.8096 61.8503 50.0393 61.8329H25.0166C24.5532 61.8321 24.0942 61.7862 23.6398 61.6952C23.1854 61.6041 22.7442 61.4697 22.3162 61.2919C21.8883 61.1141 21.4817 60.8963 21.0966 60.6385C20.7114 60.3808 20.3551 60.088 20.0275 59.7601C19.6999 59.4323 19.4074 59.0757 19.15 58.6903C18.8926 58.3049 18.6751 57.8982 18.4977 57.4701C18.3202 57.0419 18.1862 56.6006 18.0955 56.1461C18.0049 55.6916 17.9593 55.2327 17.9589 54.7692V49.9269C17.9593 49.4635 18.0049 49.0045 18.0955 48.55C18.1862 48.0955 18.3202 47.6542 18.4977 47.2261C18.6751 46.7979 18.8926 46.3912 19.15 46.0058C19.4074 45.6204 19.6999 45.2638 20.0275 44.936C20.3551 44.6081 20.7114 44.3153 21.0966 44.0576C21.4817 43.7998 21.8883 43.582 22.3162 43.4042C22.7442 43.2264 23.1854 43.092 23.6398 43.0009C24.0942 42.9099 24.5532 42.864 25.0166 42.8632H73.8453C74.6266 42.8624 75.4003 42.7855 76.1665 42.6325C76.9327 42.4796 77.6766 42.2535 78.3983 41.9542C79.12 41.655 79.8056 41.2883 80.4552 40.8542C81.1048 40.4201 81.7059 39.9269 82.2585 39.3746C82.8111 38.8223 83.3046 38.2214 83.739 37.572C84.1735 36.9227 84.5405 36.2372 84.8401 35.5157C85.1397 34.7941 85.3662 34.0503 85.5196 33.2842C85.6729 32.5181 85.7502 31.7445 85.7514 30.9632V22.2833C85.7502 21.502 85.6729 20.7283 85.5196 19.9623C85.3662 19.1962 85.1397 18.4524 84.8401 17.7308C84.5405 17.0093 84.1735 16.3238 83.739 15.6744C83.3046 15.0251 82.8111 14.4242 82.2585 13.8719C81.7059 13.3196 81.1048 12.8264 80.4552 12.3923C79.8056 11.9582 79.12 11.5915 78.3983 11.2923C77.6766 10.993 76.9327 10.7669 76.1665 10.6139C75.4003 10.461 74.6266 10.3841 73.8453 10.3833H40.9357C40.9098 9.75217 40.8242 9.12922 40.679 8.51446C40.5337 7.8997 40.3314 7.30433 40.0721 6.72834C39.8127 6.15234 39.5011 5.6062 39.1371 5.08993C38.7731 4.57365 38.3634 4.09662 37.9081 3.65883C37.4527 3.22105 36.9599 2.83048 36.4297 2.48712C35.8994 2.14376 35.3415 1.85386 34.7557 1.61742C34.1699 1.38097 33.567 1.20228 32.947 1.08136C32.327 0.960425 31.7012 0.899453 31.0695 0.898438H10.6955C10.3744 0.898437 10.0656 0.959871 9.76893 1.08274C9.4723 1.2056 9.21048 1.38055 8.98345 1.60758C8.75642 1.83461 8.58147 2.09643 8.45861 2.39306C8.33574 2.68968 8.27431 2.99853 8.27431 3.3196V5.23836H2.42116C2.10009 5.23836 1.79125 5.2998 1.49462 5.42266C1.198 5.54553 0.936169 5.72048 0.709141 5.9475C0.482113 6.17453 0.307166 6.43636 0.1843 6.73299C0.0614332 7.02961 0 7.33846 0 7.65952V17.9494C1.33959e-07 18.2705 0.0614335 18.5794 0.1843 18.876C0.307167 19.1726 0.482114 19.4344 0.709141 19.6615C0.936169 19.8885 1.198 20.0634 1.49462 20.1863C1.79125 20.3092 2.10009 20.3706 2.42116 20.3706H8.27431V22.2833C8.27431 22.6044 8.33574 22.9132 8.45861 23.2099C8.58147 23.5065 8.75642 23.7683 8.98345 23.9953C9.21048 24.2224 9.4723 24.3973 9.76893 24.5202C10.0656 24.643 10.3744 24.7045 10.6955 24.7045H31.0695C31.701 24.7035 32.3266 24.6426 32.9463 24.5217C33.5661 24.4009 34.1688 24.2224 34.7544 23.9861C35.3399 23.7499 35.8978 23.4602 36.4279 23.1171C36.958 22.774 37.4507 22.3837 37.906 21.9463C38.3614 21.5088 38.7711 21.0321 39.1351 20.5162C39.4992 20.0002 39.8109 19.4544 40.0705 18.8788C40.33 18.3031 40.5325 17.7081 40.678 17.0936C40.8236 16.4792 40.9095 15.8565 40.9357 15.2256H73.8453C74.3088 15.226 74.7677 15.2716 75.2222 15.3622C75.6767 15.4529 76.118 15.5869 76.5462 15.7644C76.9743 15.9418 77.381 16.1593 77.7664 16.4167C78.1518 16.6741 78.5084 16.9666 78.8362 17.2942C79.1641 17.6218 79.4569 17.9781 79.7146 18.3633C79.9724 18.7484 80.1902 19.155 80.368 19.5829C80.5458 20.0109 80.6802 20.4521 80.7713 20.9065C80.8623 21.3609 80.9083 21.8199 80.9091 22.2833V30.9632C80.9083 31.4266 80.8623 31.8855 80.7713 32.34C80.6803 32.7944 80.5458 33.2356 80.368 33.6636C80.1902 34.0915 79.9724 34.4981 79.7147 34.8832C79.4569 35.2684 79.1641 35.6247 78.8362 35.9523C78.5084 36.2799 78.1518 36.5724 77.7664 36.8298C77.3811 37.0872 76.9743 37.3047 76.5462 37.4821C76.118 37.6596 75.6767 37.7936 75.2222 37.8843C74.7677 37.9749 74.3088 38.0205 73.8453 38.0208H25.0166C24.2353 38.022 23.4617 38.0993 22.6956 38.2527C21.9295 38.406 21.1857 38.6325 20.4641 38.9321C19.7426 39.2317 19.0571 39.5988 18.4077 40.0332C17.7584 40.4676 17.1575 40.9611 16.6052 41.5137C16.0529 42.0663 15.5597 42.6674 15.1256 43.317C14.6915 43.9666 14.3248 44.6522 14.0256 45.3739C13.7263 46.0956 13.5002 46.8395 13.3472 47.6057C13.1943 48.3719 13.1174 49.1456 13.1166 49.9269V54.7692C13.1174 55.5505 13.1943 56.3242 13.3472 57.0904C13.5002 57.8565 13.7263 58.6005 14.0256 59.3222C14.3248 60.0439 14.6915 60.7295 15.1256 61.3791C15.5597 62.0287 16.0529 62.6298 16.6052 63.1824C17.1575 63.735 17.7584 64.2285 18.4077 64.6629C19.0571 65.0973 19.7426 65.4644 20.4641 65.764C21.1857 66.0636 21.9295 66.2901 22.6956 66.4435C23.4617 66.5968 24.2353 66.6741 25.0166 66.6753H50.0393C50.4942 66.6886 50.9436 66.7453 51.3876 66.8455C51.8315 66.9457 52.2618 67.0875 52.6783 67.2708C53.0949 67.4542 53.49 67.6757 53.8638 67.9354C54.2375 68.1952 54.5829 68.4883 54.9 68.8148C55.217 69.1413 55.4999 69.4951 55.7486 69.8763C55.9973 70.2574 56.2071 70.6589 56.3782 71.0806C56.5493 71.5023 56.6784 71.9366 56.7656 72.3832C56.8527 72.8299 56.8963 73.2808 56.8963 73.736C56.8963 74.1911 56.8527 74.642 56.7656 75.0887C56.6784 75.5354 56.5493 75.9696 56.3782 76.3913C56.2071 76.8131 55.9973 77.2145 55.7486 77.5957C55.4999 77.9768 55.217 78.3307 54.9 78.6571C54.5829 78.9836 54.2375 79.2768 53.8638 79.5365C53.49 79.7962 53.0949 80.0178 52.6783 80.2011C52.2618 80.3845 51.8315 80.5262 51.3876 80.6264C50.9436 80.7266 50.4942 80.7834 50.0393 80.7967H11.906C11.1245 80.7975 10.3505 80.8744 9.58413 81.0274C8.81772 81.1805 8.07357 81.4067 7.35168 81.7062C6.62978 82.0057 5.94398 82.3726 5.29426 82.8069C4.64455 83.2413 4.04337 83.7348 3.49074 84.2874C2.93811 84.84 2.44461 85.4412 2.01025 86.0909C1.57588 86.7406 1.20898 87.4264 0.909527 88.1483C0.610078 88.8702 0.383827 89.6144 0.230772 90.3808C0.0777179 91.1472 0.000793758 91.9212 0 92.7027V98.7556C0.00118985 99.5369 0.0784572 100.311 0.231802 101.077C0.385147 101.843 0.611632 102.587 0.911258 103.308C1.21088 104.03 1.57791 104.715 2.01234 105.364C2.44677 106.014 2.94028 106.615 3.49287 107.167C4.04547 107.719 4.64656 108.213 5.29614 108.647C5.94573 109.081 6.63137 109.447 7.35307 109.747C8.07477 110.046 8.8187 110.272 9.58487 110.425C10.351 110.578 11.1248 110.655 11.906 110.656H91.0174C91.0433 111.287 91.1289 111.91 91.2741 112.524C91.4194 113.139 91.6217 113.735 91.881 114.311C92.1404 114.887 92.452 115.433 92.816 115.949C93.18 116.465 93.5897 116.942 94.045 117.38C94.5004 117.818 94.9932 118.208 95.5235 118.552C96.0537 118.895 96.6117 119.185 97.1974 119.421C97.7832 119.658 98.3861 119.837 99.0061 119.958C99.6261 120.078 100.252 120.139 100.884 120.14H121.258C121.579 120.14 121.888 120.079 122.184 119.956C122.481 119.833 122.743 119.658 122.97 119.431C123.197 119.204 123.372 118.942 123.495 118.646C123.617 118.349 123.679 118.04 123.679 117.719V115.801H129.532C129.853 115.801 130.162 115.739 130.458 115.616C130.755 115.493 131.017 115.318 131.244 115.091C131.471 114.864 131.646 114.603 131.769 114.306C131.892 114.009 131.953 113.7 131.953 113.379V103.089C131.953 102.768 131.892 102.46 131.769 102.163C131.646 101.866 131.471 101.604 131.244 101.377C131.017 101.15 130.755 100.975 130.458 100.853C130.162 100.73 129.853 100.668 129.532 100.668ZM4.84232 15.5283V10.0807H8.27431V15.5283H4.84232ZM36.1176 14.8201C36.116 15.4887 35.9868 16.1318 35.73 16.7491C35.4732 17.3665 35.1083 17.9114 34.6352 18.384C34.1621 18.8565 33.6167 19.2208 32.999 19.4769C32.3813 19.7329 31.7382 19.8614 31.0695 19.8622H13.1166V5.74075H31.0695C31.7382 5.74155 32.3813 5.86999 32.999 6.12605C33.6167 6.38212 34.1621 6.74641 34.6352 7.21894C35.1083 7.69146 35.4732 8.23641 35.73 8.85378C35.9868 9.47115 36.116 10.1142 36.1176 10.7828L36.1176 14.8201ZM118.837 115.298H100.884C100.215 115.297 99.5718 115.169 98.9541 114.913C98.3364 114.657 97.7911 114.292 97.318 113.82C96.8449 113.347 96.4799 112.802 96.2231 112.185C95.9663 111.568 95.8371 110.925 95.8355 110.256V106.219C95.8363 105.55 95.965 104.907 96.2215 104.289C96.478 103.671 96.8429 103.126 97.3162 102.653C97.7895 102.18 98.3351 101.816 98.9532 101.56C99.5712 101.305 100.215 101.177 100.884 101.177H118.837V115.298ZM127.111 110.958H123.679V105.511H127.111V110.958Z" fill="white"/>
</g>
</svg>
