<svg width="46" height="46" viewBox="0 0 46 46" fill="none" xmlns="http://www.w3.org/2000/svg">
<mask id="mask0_326_352" style="mask-type:luminance" maskUnits="userSpaceOnUse" x="0" y="0" width="46" height="46">
<path d="M0 0H45.7834V46H0V0Z" fill="white"/>
</mask>
<g mask="url(#mask0_326_352)">
<path d="M23 0C10.2987 0 0 10.2987 0 23C0 35.7013 10.2987 46 23 46C35.7013 46 46 35.7013 46 23C46 10.2987 35.7013 0 23 0ZM35.9442 19.4501L22.4871 32.9073C21.8392 33.5552 20.9619 33.9196 20.044 33.9196C19.1397 33.9196 18.2623 33.5552 17.6144 32.9073L10.8926 26.1854C9.54284 24.8357 9.54284 22.6626 10.8926 21.3128C12.2424 19.9765 14.402 19.9765 15.7518 21.3128L20.044 25.6185L31.0716 14.591C32.4214 13.2412 34.5945 13.2412 35.9442 14.591C37.2805 15.9272 37.2805 18.1004 35.9442 19.4501Z" fill="#39B54A"/>
<path d="M35.9442 19.4501L22.4871 32.9073C21.8392 33.5551 20.9618 33.9196 20.044 33.9196C19.1396 33.9196 18.2623 33.5551 17.6144 32.9073L10.8926 26.1854C9.54281 24.8357 9.54281 22.6625 10.8926 21.3128C12.2423 19.9765 14.402 19.9765 15.7517 21.3128L20.044 25.6185L31.0716 14.5909C32.4213 13.2412 34.5945 13.2412 35.9442 14.5909C37.2805 15.9272 37.2805 18.1003 35.9442 19.4501Z" fill="white"/>
</g>
</svg>
