<?xml version="1.0" encoding="UTF-8"?>
<svg version="1.1" xmlns="http://www.w3.org/2000/svg" width="200" height="200">
<path d="M0 0 C1.24500778 0.00821777 1.24500778 0.00821777 2.51516724 0.01660156 C15.47836818 0.13133257 27.27716669 1.16864104 39.1875 6.6875 C40.21472168 7.1530127 40.21472168 7.1530127 41.26269531 7.62792969 C49.90202556 11.65032313 57.7081236 16.78599869 65.1875 22.6875 C65.81914062 23.16574219 66.45078125 23.64398437 67.1015625 24.13671875 C72.64228301 28.55158509 76.87872901 34.10603153 81.1875 39.6875 C81.80882812 40.4815625 82.43015625 41.275625 83.0703125 42.09375 C95.86035032 59.30007891 101.17668162 79.34590428 100.875 100.5 C100.86952148 101.33000519 100.86404297 102.16001038 100.85839844 103.01516724 C100.74356357 115.9901025 99.68625756 127.75996247 94.1875 139.6875 C93.88779297 140.36167969 93.58808594 141.03585938 93.27929688 141.73046875 C82.43419809 165.53902956 62.43106125 184.83097907 38.1875 194.6875 C32.92704225 196.59707657 27.5773064 198.1882665 22.1875 199.6875 C21.32632568 199.95469849 21.32632568 199.95469849 20.44775391 200.22729492 C17.18926565 200.89074819 13.93819396 200.93043992 10.625 200.99609375 C9.88528961 201.01140137 9.14557922 201.02670898 8.38345337 201.04248047 C-7.82918111 201.31549966 -22.72241749 201.39338545 -37.8125 194.6875 C-38.8034668 194.26259277 -38.8034668 194.26259277 -39.81445312 193.82910156 C-64.90635619 182.8655223 -84.66085274 162.18640329 -94.75 136.8125 C-95.49096953 134.78962502 -96.17130055 132.74417749 -96.8125 130.6875 C-97.19547241 129.60795044 -97.19547241 129.60795044 -97.58618164 128.5065918 C-100.47254665 119.53299555 -100.40769514 110.58185258 -100.375 101.25 C-100.3745166 100.40500946 -100.3740332 99.56001892 -100.37353516 98.68942261 C-100.32127733 85.56913171 -99.38937448 73.75361506 -93.8125 61.6875 C-93.50747559 61.00800293 -93.20245117 60.32850586 -92.88818359 59.62841797 C-81.46705727 34.83216088 -61.16225765 15.62662651 -35.8125 5.6875 C-23.74874331 1.3495407 -12.78814238 -0.18237355 0 0 Z " fill="#000000" transform="translate(99.8125,-0.6875)"/>
<path d="M0 0 C39.78439044 0 39.78439044 0 51.7265625 11.43359375 C58.74582421 19.3573995 60.87438845 27.02935964 60.3828125 37.5234375 C59.30643025 47.29874566 55.11808445 55.73230497 47.4609375 62.1171875 C31.81865479 73.23751238 22.11147359 70 0 70 C0 46.9 0 23.8 0 0 Z " fill="#F3F3F3" transform="translate(13,61)"/>
<path d="M0 0 C35 0 35 0 43 4 C43 4.66 43 5.32 43 6 C43.73992187 6.24234375 44.47984375 6.4846875 45.2421875 6.734375 C51.57510685 9.6407006 56.53258497 16.61374934 59 23 C61.55054233 33.56394839 60.6277875 43.83276125 55.125 53.1875 C54.073125 54.5796875 54.073125 54.5796875 53 56 C51.948125 57.485 51.948125 57.485 50.875 59 C45.30920153 65.50770282 38.09786787 67.97553303 30 70 C20.1 70 10.2 70 0 70 C0 46.9 0 23.8 0 0 Z " fill="#F5F5F5" transform="translate(129,61)"/>
<path d="M0 0 C11.78782656 0 18.75816398 0.10384805 27 8 C30.11305727 13.15600111 30.91346708 18.10306253 30 24 C27.79959309 30.58939059 23.98450594 35.15849633 18.0625 38.8125 C14 40 14 40 0 40 C0 26.8 0 13.6 0 0 Z " fill="#090909" transform="translate(144,76)"/>
<path d="M0 0 C15.89041096 0 15.89041096 0 23 5 C27.36554799 9.36554799 29.28422617 14.10044586 29.5 20.25 C29.3906129 26.47665046 27.1436826 30.45468386 23 35 C15.82755566 40.4647195 9.34588857 39 0 39 C0 26.13 0 13.26 0 0 Z " fill="#030303" transform="translate(29,76)"/>
<path d="M0 0 C14.52 0 29.04 0 44 0 C44 3.63 44 7.26 44 11 C29.48 11 14.96 11 0 11 C0 7.37 0 3.74 0 0 Z " fill="#EFEFEF" transform="translate(75,131)"/>
</svg>
