<?xml version="1.0" encoding="UTF-8"?>
<svg version="1.1" xmlns="http://www.w3.org/2000/svg" width="200" height="200">
<path d="M0 0 C0.76441406 0.53238281 1.52882812 1.06476562 2.31640625 1.61328125 C2.87199219 2.07089844 3.42757812 2.52851563 4 3 C4 3.66 4 4.32 4 5 C4.5465625 5.20238281 5.093125 5.40476562 5.65625 5.61328125 C8.93495041 7.553179 11.10172649 10.28931389 13.5 13.1875 C14.20962891 14.01604492 14.20962891 14.01604492 14.93359375 14.86132812 C18.15159161 18.69885743 20.6280484 22.58847218 23 27 C23.75603516 28.39412109 23.75603516 28.39412109 24.52734375 29.81640625 C36.72888825 53.57730869 40.46065143 82.18976784 32.34960938 108.07568359 C29.58121679 116.00144667 25.93813869 123.59420822 22 131 C21.34 131 20.68 131 20 131 C19.67 132.65 19.34 134.3 19 136 C18.34 136 17.68 136 17 136 C16.73445312 136.58265625 16.46890625 137.1653125 16.1953125 137.765625 C11.9324573 145.73409942 3.4666846 153.97583334 -4 159 C-4.66 159 -5.32 159 -6 159 C-6 159.66 -6 160.32 -6 161 C-7.65 161.33 -9.3 161.66 -11 162 C-11 162.66 -11 163.32 -11 164 C-36.41945228 177.4050911 -63.7766134 182.44266961 -92 175 C-100.70236336 172.27321854 -108.96245786 168.27408123 -117 164 C-117 163.34 -117 162.68 -117 162 C-118.65 161.67 -120.3 161.34 -122 161 C-122 160.34 -122 159.68 -122 159 C-122.58265625 158.73445312 -123.1653125 158.46890625 -123.765625 158.1953125 C-131.95357231 153.81504698 -140.58208611 145.0995088 -145 137 C-145.66 136.67 -146.32 136.34 -147 136 C-147.625 133.4375 -147.625 133.4375 -148 131 C-148.66 131 -149.32 131 -150 131 C-164.13321861 104.56640094 -168.53342758 75.15969782 -159.8984375 46.078125 C-157.37120583 38.61056304 -154.02161244 31.77178728 -150 25 C-149.34 25 -148.68 25 -148 25 C-147.67 23.35 -147.34 21.7 -147 20 C-146.34 20 -145.68 20 -145 20 C-144.75121094 19.44699219 -144.50242188 18.89398438 -144.24609375 18.32421875 C-134.33669015 -0.15883813 -112.68331139 -12.60755823 -93.421875 -19 C-60.30115892 -28.67911338 -26.85593747 -20.41399461 0 0 Z " fill="#B2F7B8" transform="translate(164,22)"/>
<path d="M0 0 C2.56973467 0.73545491 4.52111221 1.64022512 6.81420898 2.99951172 C7.9840332 3.68557495 7.9840332 3.68557495 9.17749023 4.38549805 C9.99475586 4.87429443 10.81202148 5.36309082 11.65405273 5.86669922 C12.5009668 6.36516357 13.34788086 6.86362793 14.22045898 7.37719727 C16.6810007 8.82618815 19.13649647 10.28344054 21.59155273 11.74169922 C23.75566068 13.01698716 25.92314789 14.28620953 28.09155273 15.55419922 C29.47987305 16.36630859 29.47987305 16.36630859 30.89624023 17.19482422 C34.53840103 19.2851078 38.23319685 21.27284698 41.92749023 23.26904297 C45.37541948 25.17500972 48.74474321 27.1972672 52.10717773 29.24951172 C55.23896235 31.13055217 58.41962535 32.92916929 61.59155273 34.74169922 C61.59155273 43.98169922 61.59155273 53.22169922 61.59155273 62.74169922 C58.62155273 64.39169922 55.65155273 66.04169922 52.59155273 67.74169922 C50.81405392 68.79301027 49.04168861 69.85315473 47.27905273 70.92919922 C45.72366912 71.8784591 44.16165733 72.81699167 42.59155273 73.74169922 C41.91737305 74.15033203 41.24319336 74.55896484 40.54858398 74.97998047 C38.13435448 75.91965063 37.02449639 75.45124188 34.59155273 74.74169922 C34.64504883 74.06179932 34.69854492 73.38189941 34.75366211 72.68139648 C35.9632155 60.30146346 35.9632155 60.30146346 32.31225586 48.91503906 C28.7308548 45.91642963 24.40346395 44.39745824 20.07446289 42.76708984 C15.48785997 40.87291755 11.29686546 38.25623786 7.02905273 35.74169922 C5.24607132 34.7193423 3.46222776 33.69848738 1.67749023 32.67919922 C-2.85300351 30.0708879 -7.36109897 27.42771419 -11.84594727 24.74169922 C-12.42997314 24.39236328 -13.01399902 24.04302734 -13.61572266 23.68310547 C-15.22065608 22.71472891 -16.81479461 21.72853033 -18.40844727 20.74169922 C-19.51317383 20.06107422 -20.61790039 19.38044922 -21.75610352 18.67919922 C-24.40844727 16.74169922 -24.40844727 16.74169922 -25.40844727 13.74169922 C-24.9248877 13.4597168 -24.44132812 13.17773438 -23.94311523 12.88720703 C-21.72211101 11.59060356 -19.50277325 10.29117298 -17.28344727 8.99169922 C-16.52290039 8.54826172 -15.76235352 8.10482422 -14.97875977 7.64794922 C-14.23110352 7.20966797 -13.48344727 6.77138672 -12.71313477 6.31982422 C-11.60663574 5.67303711 -11.60663574 5.67303711 -10.4777832 5.01318359 C-8.62426276 3.87430506 -6.90943296 2.64868296 -5.16625977 1.35107422 C-2.40844727 -0.25830078 -2.40844727 -0.25830078 0 0 Z " fill="#030403" transform="translate(100.408447265625,28.25830078125)"/>
<path d="M0 0 C0 9.9 0 19.8 0 30 C-1.98 30.99 -3.96 31.98 -6 33 C-7.35413975 33.74513759 -8.70126563 34.50324814 -10.0390625 35.27734375 C-10.77447266 35.70249268 -11.50988281 36.1276416 -12.26757812 36.56567383 C-13.04552734 37.01837646 -13.82347656 37.4710791 -14.625 37.9375 C-15.44677734 38.41405029 -16.26855469 38.89060059 -17.11523438 39.3815918 C-24.13471199 43.46588096 -31.09245209 47.64969461 -38.04345703 51.84912109 C-43.25952862 54.98954662 -48.5057831 58.00220191 -53.90625 60.81640625 C-56.07939403 61.95944484 -56.07939403 61.95944484 -58.03125 63.71484375 C-60 65 -60 65 -61.9296875 64.85546875 C-64.43088971 63.82195312 -66.75811029 62.62705536 -69.125 61.3125 C-70.42824219 60.59513672 -70.42824219 60.59513672 -71.7578125 59.86328125 C-72.82773438 59.24839844 -73.89765625 58.63351563 -75 58 C-75.84965332 57.66258789 -76.69930664 57.32517578 -77.57470703 56.97753906 C-80.61098769 55.59374029 -82.68292868 54.41601416 -85 52 C-86.24632125 47.02723131 -85.94792984 42.19682645 -85.625 37.125 C-85.57478889 35.75537051 -85.52917008 34.38556449 -85.48828125 33.015625 C-85.37056838 29.6725795 -85.20639699 26.3385507 -85 23 C-81.2734375 21.859375 -81.2734375 21.859375 -78.8125 23.125 C-77.884375 23.74375 -76.95625 24.3625 -76 25 C-74.46393764 25.8642044 -72.92179437 26.71765445 -71.375 27.5625 C-68.82282702 28.96053332 -66.42639961 30.38240026 -64 32 C-56.74972596 31.58569863 -49.51016217 26.25093993 -43.3125 22.75 C-42.62551025 22.36303955 -41.93852051 21.9760791 -41.23071289 21.57739258 C-35.65613501 18.41629719 -30.19759074 15.0951978 -24.7578125 11.70703125 C-22.6274673 10.38838982 -20.49305584 9.1072676 -18.3125 7.875 C-16.36119431 6.77048734 -14.42621207 5.63444889 -12.53515625 4.4296875 C-11.65730469 3.87539062 -10.77945313 3.32109375 -9.875 2.75 C-9.06804687 2.22921875 -8.26109375 1.7084375 -7.4296875 1.171875 C-5 0 -5 0 0 0 Z " fill="#030403" transform="translate(162,107)"/>
<path d="M0 0 C2.4450249 1.14309169 4.59842039 2.28038205 6.875 3.6875 C7.4848877 4.05254639 8.09477539 4.41759277 8.72314453 4.79370117 C9.9334006 5.52059375 11.14038673 6.25296341 12.34375 6.99121094 C13.77737495 7.86440349 15.2308371 8.70486892 16.6875 9.5390625 C18.875 10.8125 18.875 10.8125 22 13 C22 13.99 22 14.98 22 16 C20.05859375 17.46484375 20.05859375 17.46484375 17.4375 18.9375 C16.52871094 19.45570312 15.61992188 19.97390625 14.68359375 20.5078125 C13.79800781 21.00023438 12.91242188 21.49265625 12 22 C10.66609338 22.76984085 9.3326652 23.54051213 8 24.3125 C6.35083372 25.24015603 4.69240542 26.15379729 3 27 C2.67 50.1 2.34 73.2 2 97 C0.515 97.495 0.515 97.495 -1 98 C-9.13770374 93.93114813 -17.07020584 89.46050921 -25 85 C-25 60.58 -25 36.16 -25 11 C-23.02 10.01 -21.04 9.02 -19 8 C-17.82612704 7.36735945 -16.65797345 6.72379366 -15.5 6.0625 C-14.91347656 5.72863281 -14.32695313 5.39476562 -13.72265625 5.05078125 C-12.06839984 4.04172235 -10.49907442 2.89727916 -8.9375 1.75 C-5.44826892 -0.32869086 -4.00712996 -0.41951902 0 0 Z " fill="#030403" transform="translate(63,52)"/>
</svg>
