<?xml version="1.0" encoding="UTF-8"?>
<svg version="1.1" xmlns="http://www.w3.org/2000/svg" width="445" height="418">
<path d="M0 0 C1.52657227 0.01353516 1.52657227 0.01353516 3.08398438 0.02734375 C5.57692555 0.05075165 8.06974442 0.08661711 10.5625 0.125 C10.5625 5.405 10.5625 10.685 10.5625 16.125 C8.9125 16.125 7.2625 16.125 5.5625 16.125 C5.8925 11.835 6.2225 7.545 6.5625 3.125 C4.81462388 6.62075223 4.28614198 8.12918307 4 11.8125 C3.66214413 16.02535587 3.66214413 16.02535587 2.5625 17.125 C1.99191715 20.01930368 1.47625893 22.90253514 1 25.8125 C0.86142578 26.61623047 0.72285156 27.41996094 0.58007812 28.24804688 C-0.1408172 32.59117489 -0.60174641 36.70462913 -0.4375 41.125 C-1.4275 41.455 -2.4175 41.785 -3.4375 42.125 C-3.251875 43.0325 -3.06625 43.94 -2.875 44.875 C-2.48015379 47.80814324 -2.49058428 49.3894657 -3.4375 52.125 C-4.0975 52.125 -4.7575 52.125 -5.4375 52.125 C-5.4375 55.095 -5.4375 58.065 -5.4375 61.125 C-6.0975 61.125 -6.7575 61.125 -7.4375 61.125 C-7.4375 61.785 -7.4375 62.445 -7.4375 63.125 C-6.7775 63.125 -6.1175 63.125 -5.4375 63.125 C-5.7675 65.765 -6.0975 68.405 -6.4375 71.125 C-7.4275 71.125 -8.4175 71.125 -9.4375 71.125 C-8.4475 71.455 -7.4575 71.785 -6.4375 72.125 C-6.7675 74.435 -7.0975 76.745 -7.4375 79.125 C-8.0975 79.125 -8.7575 79.125 -9.4375 79.125 C-9.21578125 79.63933594 -8.9940625 80.15367188 -8.765625 80.68359375 C-8.28430277 84.26486034 -9.79786945 86.96457122 -11.1875 90.1875 C-14.32834471 97.92937498 -15.71556752 105.49749678 -16.796875 113.75 C-17.50322348 119.02656345 -18.75248087 124.06994262 -20.4375 129.125 C-21.39702155 135.2991549 -21.48011344 141.39303468 -21.32104492 147.62524414 C-20.82734232 168.03670802 -20.82734232 168.03670802 -28.125 176.4375 C-30.72076538 179.45420031 -31.07564202 181.23502675 -31.4375 185.125 C-31.7675 185.455 -32.0975 185.785 -32.4375 186.125 C-32.92698035 188.27977147 -33.36327738 190.44666219 -33.77734375 192.6171875 C-33.90436172 193.27776154 -34.0313797 193.93833557 -34.1622467 194.618927 C-34.57013082 196.74527474 -34.97256718 198.87261456 -35.375 201 C-35.64223441 202.39589918 -35.90980871 203.79173333 -36.17773438 205.1875 C-36.9396871 209.16505055 -37.68899911 213.1448966 -38.4375 217.125 C-38.64777832 218.22320068 -38.85805664 219.32140137 -39.07470703 220.45288086 C-39.25759277 221.42362549 -39.44047852 222.39437012 -39.62890625 223.39453125 C-39.86589233 224.64133667 -39.86589233 224.64133667 -40.10766602 225.91333008 C-40.53122535 228.38077809 -40.53122535 228.38077809 -40.4375 231.9375 C-40.4375 235.39634836 -41.1871101 237.92087587 -42.4375 241.125 C-42.7675 241.125 -43.0975 241.125 -43.4375 241.125 C-43.57849121 241.82995605 -43.71948242 242.53491211 -43.86474609 243.26123047 C-47.05566406 259.21582031 -50.24658203 275.17041016 -53.4375 291.125 C-53.68318726 292.35391968 -53.68318726 292.35391968 -53.93383789 293.60766602 C-54.27888093 295.33221221 -54.62444734 297.05665375 -54.97045898 298.78100586 C-55.6700725 302.2699749 -56.36752396 305.75865484 -57.03515625 309.25390625 C-57.18855469 310.05699219 -57.34195313 310.86007812 -57.5 311.6875 C-57.73396484 312.92693359 -57.73396484 312.92693359 -57.97265625 314.19140625 C-58.4375 316.125 -58.4375 316.125 -59.4375 317.125 C-59.4065625 318.7646875 -59.4065625 318.7646875 -59.375 320.4375 C-59.4375 324.125 -59.4375 324.125 -60.43359375 326.08886719 C-61.57955778 328.41312304 -61.64488395 329.81955931 -61.5625 332.390625 C-61.53929687 333.60298828 -61.53929687 333.60298828 -61.515625 334.83984375 C-61.46402272 336.51433781 -61.41194843 338.1888174 -61.359375 339.86328125 C-61.2553446 345.33354654 -61.88766504 349.87009084 -63.4375 355.125 C-64.0975 355.125 -64.7575 355.125 -65.4375 355.125 C-64.4475 349.185 -63.4575 343.245 -62.4375 337.125 C-63.0975 337.125 -63.7575 337.125 -64.4375 337.125 C-64.24285156 337.66125 -64.04820312 338.1975 -63.84765625 338.75 C-63.30639419 341.8841651 -64.01692499 344.07406664 -64.875 347.125 C-65.8804125 350.73186098 -66.4375 353.34230047 -66.4375 357.125 C-65.7775 357.125 -65.1175 357.125 -64.4375 357.125 C-64.74494141 358.30255859 -64.74494141 358.30255859 -65.05859375 359.50390625 C-65.46271484 361.07978516 -65.46271484 361.07978516 -65.875 362.6875 C-66.14183594 363.72003906 -66.40867188 364.75257813 -66.68359375 365.81640625 C-68.06233689 371.86715983 -68.60299995 377.83572974 -68.75390625 384.02734375 C-68.7850779 385.11119102 -68.7850779 385.11119102 -68.81687927 386.2169342 C-68.88165426 388.4987037 -68.9409203 390.78057667 -69 393.0625 C-69.04325397 394.62045291 -69.08687031 396.1783958 -69.13085938 397.73632812 C-69.23726039 401.53244922 -69.33872499 405.32867314 -69.4375 409.125 C-72.4075 409.455 -75.3775 409.785 -78.4375 410.125 C-79.0975 412.765 -79.7575 415.405 -80.4375 418.125 C-85.1875 417.25 -85.1875 417.25 -87.4375 416.125 C-88.76610925 415.77330932 -90.09908328 415.43729724 -91.4375 415.125 C-91.4375 414.795 -91.4375 414.465 -91.4375 414.125 C-92.4275 413.4134375 -92.4275 413.4134375 -93.4375 412.6875 C-94.4275 411.9140625 -94.4275 411.9140625 -95.4375 411.125 C-95.4375 410.465 -95.4375 409.805 -95.4375 409.125 C-96.30375 408.8775 -97.17 408.63 -98.0625 408.375 C-101.64810064 407.04699976 -104.40077987 405.43869152 -107.4375 403.125 C-107.4375 402.465 -107.4375 401.805 -107.4375 401.125 C-108.18 400.856875 -108.9225 400.58875 -109.6875 400.3125 C-112.32811949 399.17223249 -114.29302844 398.03119694 -116.4375 396.125 C-116.4375 395.465 -116.4375 394.805 -116.4375 394.125 C-117.035625 394.021875 -117.63375 393.91875 -118.25 393.8125 C-120.73611534 393.03114947 -121.66693442 391.97604584 -123.4375 390.125 C-124.0975 390.125 -124.7575 390.125 -125.4375 390.125 C-125.53933594 389.50882812 -125.64117187 388.89265625 -125.74609375 388.2578125 C-126.72583051 385.23557368 -128.84698947 384.43042378 -131.40234375 382.74609375 C-134.66415358 380.1479151 -136.97093984 376.85901979 -139.4453125 373.52734375 C-141.55363959 370.98494932 -143.85467065 369.16851099 -146.4375 367.125 C-147.77966975 365.13091923 -149.1147113 363.13198975 -150.4375 361.125 C-151.0975 361.125 -151.7575 361.125 -152.4375 361.125 C-152.52 360.568125 -152.6025 360.01125 -152.6875 359.4375 C-153.67255027 356.40026168 -155.39712422 354.57345094 -157.4375 352.125 C-158.79028115 350.13810269 -160.12318305 348.13754782 -161.4375 346.125 C-162.18 345.073125 -162.9225 344.02125 -163.6875 342.9375 C-165.4375 340.125 -165.4375 340.125 -165.4375 337.125 C-166.0975 337.125 -166.7575 337.125 -167.4375 337.125 C-167.4375 336.135 -167.4375 335.145 -167.4375 334.125 C-168.4275 334.455 -169.4175 334.785 -170.4375 335.125 C-172.4375 327.125 -172.4375 327.125 -172.87890625 324.921875 C-173.06324219 324.32890625 -173.24757812 323.7359375 -173.4375 323.125 C-174.0975 322.795 -174.7575 322.465 -175.4375 322.125 C-175.4375 321.135 -175.4375 320.145 -175.4375 319.125 C-176.4275 318.795 -177.4175 318.465 -178.4375 318.125 C-179 316.25 -179 316.25 -179.4375 314.125 C-180.4275 312.64 -180.4275 312.64 -181.4375 311.125 C-181.4375 310.465 -181.4375 309.805 -181.4375 309.125 C-182.43885571 306.53816442 -183.07018357 305.34962812 -185.46875 303.8828125 C-187.4375 302.125 -187.4375 302.125 -188.046875 299.20703125 C-188.09328125 298.12808594 -188.1396875 297.04914063 -188.1875 295.9375 C-188.27257812 294.30748047 -188.27257812 294.30748047 -188.359375 292.64453125 C-188.38515625 291.81308594 -188.4109375 290.98164063 -188.4375 290.125 C-189.0975 290.125 -189.7575 290.125 -190.4375 290.125 C-190.251875 289.444375 -190.06625 288.76375 -189.875 288.0625 C-189.35226057 284.55267809 -189.82371423 281.60311937 -190.4375 278.125 C-191.0975 278.125 -191.7575 278.125 -192.4375 278.125 C-192.63859375 276.38863281 -192.63859375 276.38863281 -192.84375 274.6171875 C-193.44567899 269.79963609 -194.369412 265.05669221 -195.33203125 260.30078125 C-197.13941092 251.04480657 -197.58905295 241.88089575 -197.5703125 232.46484375 C-197.57126923 231.3937587 -197.57222595 230.32267365 -197.57321167 229.21913147 C-197.57388751 226.97624655 -197.57207518 224.7333596 -197.56787109 222.49047852 C-197.56246652 219.04113467 -197.56786052 215.59191823 -197.57421875 212.14257812 C-197.57355879 209.95833304 -197.57227935 207.77408804 -197.5703125 205.58984375 C-197.57233673 204.55456039 -197.57436096 203.51927704 -197.57644653 202.45262146 C-197.57329437 201.50395706 -197.57014221 200.55529266 -197.56689453 199.57788086 C-197.56609894 198.73978378 -197.56530334 197.90168671 -197.56448364 197.03819275 C-197.4375 195.125 -197.4375 195.125 -196.4375 194.125 C-196.458125 193.09375 -196.47875 192.0625 -196.5 191 C-196.43500668 186.97041438 -195.56626459 183.97607917 -194.4375 180.125 C-194.1191674 177.7336234 -193.88324747 175.34930633 -193.68359375 172.9453125 C-193.4375 171.125 -193.4375 171.125 -192.4375 170.125 C-192.4375 169.135 -192.4375 168.145 -192.4375 167.125 C-191.82099568 165.37732033 -191.14870239 163.64883076 -190.4375 161.9375 C-189.880625 160.58591797 -189.880625 160.58591797 -189.3125 159.20703125 C-188.879375 158.17642578 -188.879375 158.17642578 -188.4375 157.125 C-189.0975 156.795 -189.7575 156.465 -190.4375 156.125 C-189.4475 156.125 -188.4575 156.125 -187.4375 156.125 C-187.4375 155.135 -187.4375 154.145 -187.4375 153.125 C-188.0975 152.795 -188.7575 152.465 -189.4375 152.125 C-188.9425 151.67125 -188.4475 151.2175 -187.9375 150.75 C-186.21140663 149.24864481 -186.21140663 149.24864481 -186.4375 147.125 C-185.7775 147.125 -185.1175 147.125 -184.4375 147.125 C-184.4375 146.465 -184.4375 145.805 -184.4375 145.125 C-185.0975 144.795 -185.7575 144.465 -186.4375 144.125 C-185.82390625 143.58101562 -185.2103125 143.03703125 -184.578125 142.4765625 C-182.21265352 139.87799712 -181.31130122 137.80897027 -180.1875 134.5 C-179.85234375 133.53835937 -179.5171875 132.57671875 -179.171875 131.5859375 C-178.34218262 129.23361444 -178.34218262 129.23361444 -178.4375 127.125 C-177.4475 126.63 -177.4475 126.63 -176.4375 126.125 C-175.94896538 124.10572355 -175.46308249 122.08562919 -175.0078125 120.05859375 C-174.31964496 117.72542296 -173.29400013 116.65863054 -171.4375 115.125 C-170.9425 113.64 -170.9425 113.64 -170.4375 112.125 C-169.7775 112.125 -169.1175 112.125 -168.4375 112.125 C-169.0975 110.805 -169.7575 109.485 -170.4375 108.125 C-167.9625 107.63 -167.9625 107.63 -165.4375 107.125 C-164.36715507 102.9915443 -164.36715507 102.9915443 -165.4375 99.125 C-160.67915887 92.45611282 -155.71820661 86.10859138 -150.1875 80.0625 C-149.69282227 79.51505127 -149.19814453 78.96760254 -148.68847656 78.40356445 C-145.83969041 75.34001923 -143.06990842 73.16861914 -139.4375 71.125 C-137.38789779 68.84115754 -135.74721143 66.74442286 -134.375 64 C-133.28488565 61.8197713 -132.35954204 60.63517589 -130.4375 59.125 C-129.426875 58.815625 -128.41625 58.50625 -127.375 58.1875 C-123.81408558 56.89950968 -124.00482031 56.35183593 -122.4375 53.125 C-116.61128917 48.125 -116.61128917 48.125 -113.4375 48.125 C-113.1075 47.135 -112.7775 46.145 -112.4375 45.125 C-110.87890625 43.73828125 -110.87890625 43.73828125 -109 42.4375 C-108.38253906 42.00050781 -107.76507813 41.56351563 -107.12890625 41.11328125 C-105.4375 40.125 -105.4375 40.125 -103.4375 40.125 C-103.4375 39.465 -103.4375 38.805 -103.4375 38.125 C-101.1275 36.805 -98.8175 35.485 -96.4375 34.125 C-96.4375 33.465 -96.4375 32.805 -96.4375 32.125 C-95.16910474 31.61884702 -93.89766898 31.12030901 -92.625 30.625 C-91.91730469 30.3465625 -91.20960937 30.068125 -90.48046875 29.78125 C-88.4375 29.125 -88.4375 29.125 -85.4375 29.125 C-85.4375 28.465 -85.4375 27.805 -85.4375 27.125 C-84.4475 26.465 -83.4575 25.805 -82.4375 25.125 C-81.4784375 24.3515625 -81.4784375 24.3515625 -80.5 23.5625 C-78.39127657 22.09278367 -76.93107842 21.60762808 -74.4375 21.125 C-71.352722 20.30862954 -71.352722 20.30862954 -69.125 18.125 C-66.00973627 15.8066642 -64.24192002 15.69925208 -60.4375 15.125 C-57.85945033 14.14035662 -55.33266887 13.07132781 -52.8046875 11.96484375 C-50.4375 11.125 -50.4375 11.125 -46.4375 11.125 C-46.4375 10.465 -46.4375 9.805 -46.4375 9.125 C-42.4375 8.125 -38.4375 7.125 -34.4375 6.125 C-33.76847656 5.95742187 -33.09945312 5.78984375 -32.41015625 5.6171875 C-30.83000616 5.22293223 -29.24910854 4.83167348 -27.66796875 4.44140625 C-26.66378906 4.19261719 -25.65960938 3.94382813 -24.625 3.6875 C-23.62855469 3.44128906 -22.63210937 3.19507813 -21.60546875 2.94140625 C-18.41186053 2.16268199 -18.41186053 2.16268199 -15.265625 1.03515625 C-10.12853076 -0.18621412 -5.25747366 -0.08893579 0 0 Z M-7.4375 65.125 C-6.4375 68.125 -6.4375 68.125 -6.4375 68.125 Z M-145.4375 76.125 C-144.4375 78.125 -144.4375 78.125 -144.4375 78.125 Z M-11.4375 85.125 C-10.4375 87.125 -10.4375 87.125 -10.4375 87.125 Z M-155.4375 88.125 C-156.0975 89.445 -156.7575 90.765 -157.4375 92.125 C-156.4475 91.465 -155.4575 90.805 -154.4375 90.125 C-154.7675 89.465 -155.0975 88.805 -155.4375 88.125 Z M-158.4375 92.125 C-157.4375 94.125 -157.4375 94.125 -157.4375 94.125 Z M-160.4375 95.125 C-161.0975 96.445 -161.7575 97.765 -162.4375 99.125 C-161.7775 99.125 -161.1175 99.125 -160.4375 99.125 C-160.1075 97.805 -159.7775 96.485 -159.4375 95.125 C-159.7675 95.125 -160.0975 95.125 -160.4375 95.125 Z M-23.4375 141.125 C-23.9679408 143.39360837 -24.48655434 145.66498489 -25 147.9375 C-25.29003906 149.20207031 -25.58007812 150.46664062 -25.87890625 151.76953125 C-26.70333023 155.10704409 -26.70333023 155.10704409 -25.4375 158.125 C-26.0975 158.125 -26.7575 158.125 -27.4375 158.125 C-27.80254603 159.70586048 -28.15410506 161.28983907 -28.5 162.875 C-28.69722656 163.75671875 -28.89445313 164.6384375 -29.09765625 165.546875 C-29.43575872 168.11179028 -29.24908635 169.69591639 -28.4375 172.125 C-24.29461898 162.45827761 -21.79197379 151.6685947 -22.4375 141.125 C-22.7675 141.125 -23.0975 141.125 -23.4375 141.125 Z M-30.4375 173.125 C-29.4375 175.125 -29.4375 175.125 -29.4375 175.125 Z M-42.4375 232.125 C-41.4375 234.125 -41.4375 234.125 -41.4375 234.125 Z M-188.4375 287.125 C-187.4375 289.125 -187.4375 289.125 -187.4375 289.125 Z M-67.4375 357.125 C-67.4375 360.125 -67.4375 360.125 -67.4375 360.125 Z M-68.4375 360.125 C-67.4375 364.125 -67.4375 364.125 -67.4375 364.125 Z M-69.4375 364.125 C-69.7675 365.115 -70.0975 366.105 -70.4375 367.125 C-69.7775 367.125 -69.1175 367.125 -68.4375 367.125 C-68.7675 366.135 -69.0975 365.145 -69.4375 364.125 Z M-72.4375 375.125 C-72.4375 376.775 -72.4375 378.425 -72.4375 380.125 C-72.1075 380.125 -71.7775 380.125 -71.4375 380.125 C-71.4375 378.475 -71.4375 376.825 -71.4375 375.125 C-71.7675 375.125 -72.0975 375.125 -72.4375 375.125 Z M-73.4375 384.125 C-73.7675 386.435 -74.0975 388.745 -74.4375 391.125 C-73.31233915 389.29215557 -73.31233915 389.29215557 -72.4375 387.125 C-72.7675 386.135 -73.0975 385.145 -73.4375 384.125 Z M-75.4375 393.125 C-75.7675 394.775 -76.0975 396.425 -76.4375 398.125 C-75.7775 397.795 -75.1175 397.465 -74.4375 397.125 C-74.7675 395.805 -75.0975 394.485 -75.4375 393.125 Z M-78.4375 405.125 C-77.4375 407.125 -77.4375 407.125 -77.4375 407.125 Z " fill="#75F14D" transform="translate(197.4375,-0.125)"/>
<path d="M0 0 C7.08907748 -0.10795549 13.97546673 0.02549827 21 1 C22.2375 1.144375 23.475 1.28875 24.75 1.4375 C27.80970511 1.96706435 30.13756003 2.84483135 33 4 C38.93893731 5.83073436 44.82076153 7.31341795 51 8 C51 8.66 51 9.32 51 10 C51.66386719 10.12117187 52.32773437 10.24234375 53.01171875 10.3671875 C58.33962838 11.37832363 63.09348263 12.499862 67.9375 15 C70.13649256 16.12855361 70.13649256 16.12855361 73.1875 17 C76 18 76 18 77 20 C78.32 20 79.64 20 81 20 C82.35500919 21.31129922 83.68671343 22.64691687 85 24 C88.75607554 25.97688186 91.78792342 26.19591054 96 26 C96.04125 26.61875 96.0825 27.2375 96.125 27.875 C96.41375 28.57625 96.7025 29.2775 97 30 C99.92914165 31.17082878 99.92914165 31.17082878 103 32 C103.66 32.66 104.32 33.32 105 34 C106.64991582 34.70710678 108.31562256 35.37943989 110 36 C110 36.99 110 37.98 110 39 C111.010625 39.515625 112.02125 40.03125 113.0625 40.5625 C116.78166634 42.66627086 119.43749179 45.31920281 122.37109375 48.390625 C124.99251415 50.9806135 127.87680839 52.5320035 131.25 53.9375 C133 55 133 55 133.5 56.9375 C133.665 57.618125 133.83 58.29875 134 59 C135.86655232 60.6083124 135.86655232 60.6083124 138 62 C138.45375 62.474375 138.9075 62.94875 139.375 63.4375 C141.11097047 65.21862846 141.11097047 65.21862846 144.0625 66.875 C147.26138084 69.18908401 147.89490811 70.31636037 149 74 C149.65213539 75.34050052 150.31379969 76.67661368 151 78 C151.99 77.67 152.98 77.34 154 77 C157 79 157 79 157.6875 82.125 C157.8421875 83.548125 157.8421875 83.548125 158 85 C158.66 85 159.32 85 160 85 C160 85.66 160 86.32 160 87 C160.99 87.33 161.98 87.66 163 88 C164.4477922 90.89558441 165 92.74188938 165 96 C165.66 96.33 166.32 96.66 167 97 C167.33 97.99 167.66 98.98 168 100 C168.99 100.33 169.98 100.66 171 101 C172.16796875 102.99609375 172.16796875 102.99609375 173.1875 105.4375 C173.53167969 106.24058594 173.87585938 107.04367188 174.23046875 107.87109375 C175 110 175 110 175 112 C175.66 112.33 176.32 112.66 177 113 C178.0703125 114.55859375 178.0703125 114.55859375 179.125 116.4375 C179.65480469 117.36369141 179.65480469 117.36369141 180.1953125 118.30859375 C181 120 181 120 181 122 C181.47050781 122.43957031 181.94101562 122.87914063 182.42578125 123.33203125 C184.37951793 125.4021195 184.6649824 126.91413734 185.1875 129.6875 C185.34605469 130.49574219 185.50460937 131.30398437 185.66796875 132.13671875 C185.77753906 132.75160156 185.88710938 133.36648437 186 134 C186.66 134 187.32 134 188 134 C189.09845718 138.32059823 190.17812739 142.61667943 191 147 C191.66 147 192.32 147 193 147 C193.12375 147.9075 193.2475 148.815 193.375 149.75 C193.81946056 152.85969493 193.81946056 152.85969493 194.96875 154.921875 C196.05881137 157.11851381 196.60871643 159.10706662 197.125 161.5 C197.29257812 162.2528125 197.46015625 163.005625 197.6328125 163.78125 C198 166 198 166 198 170 C117.81 170.495 117.81 170.495 36 171 C35.67 169.68 35.34 168.36 35 167 C34.34 167.33 33.68 167.66 33 168 C32.91959473 167.35562988 32.83918945 166.71125977 32.75634766 166.04736328 C32.3829906 163.0727568 32.00402511 160.09888936 31.625 157.125 C31.49867188 156.11179688 31.37234375 155.09859375 31.2421875 154.0546875 C30.61783225 149.18471655 29.94353599 144.32705434 29.0859375 139.4921875 C28.88170166 138.33372314 28.88170166 138.33372314 28.67333984 137.15185547 C28.10543358 134.89971868 28.10543358 134.89971868 26.47119141 133.02246094 C24.70136984 130.58947026 24.54935977 129.12803944 24.375 126.1484375 C24.27445312 124.74658203 24.27445312 124.74658203 24.171875 123.31640625 C24.11515625 122.34574219 24.0584375 121.37507813 24 120.375 C23.59769307 113.65464556 22.84069642 107.59047949 20.71875 101.17822266 C19.44275819 97.31123931 18.88642374 94.08874553 19 90 C18.01 90.495 18.01 90.495 17 91 C16.83564453 89.06060547 16.83564453 89.06060547 16.66796875 87.08203125 C15.52121253 74.25269603 14.30203702 61.28334305 8.8125 49.4375 C8 47 8 47 8.5 44.75 C9.25756656 40.58338392 8.00895006 37.06479307 7 33 C6.4480006 30.58567251 5.90689087 28.16883705 5.375 25.75 C5.11460937 24.58984375 4.85421875 23.4296875 4.5859375 22.234375 C4.07072213 19.39038617 3.88100231 16.87758055 4 14 C3.34 13.67 2.68 13.34 2 13 C1.04503218 10.14142084 0.74517041 7.23879823 0.4375 4.25 C0.31181641 3.05117187 0.31181641 3.05117187 0.18359375 1.828125 C0.12300781 1.22484375 0.06242188 0.6215625 0 0 Z M10 49 C11 51 11 51 11 51 Z M27 129 C26.67 129.66 26.34 130.32 26 131 C26.66 131 27.32 131 28 131 C27.67 130.34 27.34 129.68 27 129 Z " fill="#9AF664" transform="translate(242,0)"/>
<path d="M0 0 C50.49 0 100.98 0 153 0 C153 28 153 28 152 32 C151.01 32 150.02 32 149 32 C149 32.66 149 33.32 149 34 C149.66 34.33 150.32 34.66 151 35 C150.566875 36.02480469 150.13375 37.04960937 149.6875 38.10546875 C149.12453994 39.46595556 148.56206544 40.82664335 148 42.1875 C147.71382812 42.86103516 147.42765625 43.53457031 147.1328125 44.22851562 C145.58888714 47.99642869 144.76927251 50.94063815 145 55 C144.67 55.99 144.34 56.98 144 58 C143.34 58 142.68 58 142 58 C141.92652344 58.95712891 141.92652344 58.95712891 141.8515625 59.93359375 C141.77679688 60.75988281 141.70203125 61.58617187 141.625 62.4375 C141.55539062 63.26121094 141.48578125 64.08492188 141.4140625 64.93359375 C141.27742187 65.61550781 141.14078125 66.29742187 141 67 C140.01 67.495 140.01 67.495 139 68 C138.34786708 70.02463255 138.34786708 70.02463255 138 72 C137.34 72 136.68 72 136 72 C136.31324219 72.87785156 136.31324219 72.87785156 136.6328125 73.7734375 C137.10016549 76.6073865 136.51354995 77.31925606 134.875 79.625 C132.26295359 83.4995355 130.21246822 87.48513409 128.2109375 91.703125 C126.99823551 94.00334683 125.61397048 95.96621061 124 98 C124.66 98.33 125.32 98.66 126 99 C125.84152588 99.86061035 125.68305176 100.7212207 125.51977539 101.60791016 C125.02126103 104.86124907 124.79750626 107.98624806 124.68359375 111.2734375 C124.64169922 112.42714844 124.59980469 113.58085937 124.55664062 114.76953125 C124.51732422 115.95933594 124.47800781 117.14914062 124.4375 118.375 C124.39431641 119.58800781 124.35113281 120.80101562 124.30664062 122.05078125 C124.20094549 125.03373284 124.10000567 128.01685225 124 131 C118.72 131 113.44 131 108 131 C108 133.64 108 136.28 108 139 C106.94039063 138.96519531 105.88078125 138.93039062 104.7890625 138.89453125 C103.40105748 138.86639601 102.01303537 138.83909557 100.625 138.8125 C99.92632812 138.78736328 99.22765625 138.76222656 98.5078125 138.73632812 C96.23252323 138.67021439 96.23252323 138.67021439 93 139 C92.34 139.99 91.68 140.98 91 142 C91.66 142.33 92.32 142.66 93 143 C92.01 143.33 91.02 143.66 90 144 C89.34 143.67 88.68 143.34 88 143 C88 143.66 88 144.32 88 145 C87.01 145.66 86.02 146.32 85 147 C84.61605333 149.77262255 84.39657752 152.34323528 84.3125 155.125 C84.27833984 155.87910156 84.24417969 156.63320313 84.20898438 157.41015625 C84.12645722 159.27291201 84.06155289 161.13643326 84 163 C81.36 163 78.72 163 76 163 C76 168.28 76 173.56 76 179 C68.08 179 60.16 179 52 179 C51.67 178.34 51.34 177.68 51 177 C45.19217364 178.26467106 45.19217364 178.26467106 40 181 C38.68 181 37.36 181 36 181 C35.505 175.06 35.505 175.06 35 169 C34.01 169 33.02 169 32 169 C32 167.68 32 166.36 32 165 C31.67 164.67 31.34 164.34 31 164 C30.86317663 161.83515024 30.76719503 159.66770474 30.6875 157.5 C30.31290241 149.98050417 28.79593428 142.95703464 26.9375 135.6796875 C26 132 26 132 25.5 129.1328125 C25.15057369 126.79920772 25.15057369 126.79920772 23 125 C22.96698914 123.05235915 22.94241903 121.10363061 22.98828125 119.15625 C23.0105191 115.06448645 22.54031297 111.27132463 20.9375 107.5 C19.72259737 104.26025966 19.8655218 101.42919399 20 98 C19.34 98 18.68 98 18 98 C18.020625 97.236875 18.04125 96.47375 18.0625 95.6875 C18.12942841 92.89814214 18.12942841 92.89814214 17 90 C16.87218214 87.32605036 16.95608129 84.67904143 17 82 C16.01 82 15.02 82 14 82 C14 78.7 14 75.4 14 72 C13.34 72 12.68 72 12 72 C12.18103271 71.4337793 12.36206543 70.86755859 12.54858398 70.28417969 C13.06179601 67.68731021 12.79658631 66.02711434 12.22265625 63.453125 C12.03896484 62.60878906 11.85527344 61.76445312 11.66601562 60.89453125 C11.46685547 60.02183594 11.26769531 59.14914062 11.0625 58.25 C10.86720703 57.36183594 10.67191406 56.47367187 10.47070312 55.55859375 C9.98841008 53.3706302 9.49525338 51.1850664 9 49 C9.33 52.3 9.66 55.6 10 59 C8 58 8 58 7.38598633 56.20727539 C6.99887853 53.99358681 6.85830322 51.92949084 6.82421875 49.68359375 C6.34525754 30.14810808 6.34525754 30.14810808 0.87109375 11.53125 C0 9 0 9 0 0 Z M151 24 C150.67 24.66 150.34 25.32 150 26 C150.66 26 151.32 26 152 26 C151.67 25.34 151.34 24.68 151 24 Z M150 28 C151 30 151 30 151 30 Z M122 100 C120.82226349 101.74256932 119.65816821 103.49436407 118.5 105.25 C117.8503125 106.22453125 117.200625 107.1990625 116.53125 108.203125 C114.67985009 111.05332854 114.67985009 111.05332854 115 115 C114.01 115.33 113.02 115.66 112 116 C112.99 116.33 113.98 116.66 115 117 C115.24234375 116.49210937 115.4846875 115.98421875 115.734375 115.4609375 C117.40587611 112.02793138 119.07217766 108.78648247 121.3125 105.6875 C122.1478125 104.3571875 122.1478125 104.3571875 123 103 C122.67 102.01 122.34 101.02 122 100 Z M110 119 C110.33 119.99 110.66 120.98 111 122 C111.66 120.68 112.32 119.36 113 118 C111.7763932 117.9254644 111.7763932 117.9254644 110 119 Z M24 120 C24 121.65 24 123.3 24 125 C24.33 125 24.66 125 25 125 C25 123.35 25 121.7 25 120 C24.67 120 24.34 120 24 120 Z M106 123 C107 125 107 125 107 125 Z M101 129 C101.33 129.66 101.66 130.32 102 131 C102.33 130.34 102.66 129.68 103 129 C102.34 129 101.68 129 101 129 Z M32 158 C32 159.98 32 161.96 32 164 C32.33 164 32.66 164 33 164 C33 162.02 33 160.04 33 158 C32.67 158 32.34 158 32 158 Z M73 160 C73 160.99 73 161.98 73 163 C73.99 163 74.98 163 76 163 C76 162.01 76 161.02 76 160 C75.01 160 74.02 160 73 160 Z M63 169 C62.67 169.66 62.34 170.32 62 171 C62.66 171 63.32 171 64 171 C63.67 170.34 63.34 169.68 63 169 Z M57 170 C56.67 170.66 56.34 171.32 56 172 C56.99 171.67 57.98 171.34 59 171 C58.34 170.67 57.68 170.34 57 170 Z M54 171 C53.67 171.99 53.34 172.98 53 174 C53.99 173.67 54.98 173.34 56 173 C55.34 172.34 54.68 171.68 54 171 Z " fill="#4AEA31" transform="translate(292,237)"/>
<path d="M0 0 C0.33 0 0.66 0 1 0 C1 4.95 1 9.9 1 15 C-1.64 15 -4.28 15 -7 15 C-7 20.28 -7 25.56 -7 31 C-14.92 31 -22.84 31 -31 31 C-31.33 30.34 -31.66 29.68 -32 29 C-33.65 29.33 -35.3 29.66 -37 30 C-34.71889899 26.57834849 -33.75392681 26.30950935 -30 25 C-29.071875 24.62875 -28.14375 24.2575 -27.1875 23.875 C-26.1046875 23.441875 -26.1046875 23.441875 -25 23 C-25 22.01 -25 21.02 -25 20 C-22.91796875 18.17578125 -22.91796875 18.17578125 -20.1875 16.3125 C-19.29417969 15.68988281 -18.40085937 15.06726563 -17.48046875 14.42578125 C-15 13 -15 13 -12 13 C-12 12.34 -12 11.68 -12 11 C-11.34 11 -10.68 11 -10 11 C-9.67 10.01 -9.34 9.02 -9 8 C-8.4225 7.731875 -7.845 7.46375 -7.25 7.1875 C-3.97328072 5.45812038 -2.31511712 2.87825371 0 0 Z M-10 12 C-10 12.99 -10 13.98 -10 15 C-9.01 15 -8.02 15 -7 15 C-7 14.01 -7 13.02 -7 12 C-7.99 12 -8.98 12 -10 12 Z M-20 21 C-20.33 21.66 -20.66 22.32 -21 23 C-20.34 23 -19.68 23 -19 23 C-19.33 22.34 -19.66 21.68 -20 21 Z " fill="#000000" transform="translate(375,385)"/>
<path d="M0 0 C0.99 0.33 1.98 0.66 3 1 C2.84152588 1.86061035 2.68305176 2.7212207 2.51977539 3.60791016 C2.02126103 6.86124907 1.79750626 9.98624806 1.68359375 13.2734375 C1.64169922 14.42714844 1.59980469 15.58085937 1.55664062 16.76953125 C1.51732422 17.95933594 1.47800781 19.14914062 1.4375 20.375 C1.39431641 21.58800781 1.35113281 22.80101562 1.30664062 24.05078125 C1.20094549 27.03373284 1.10000567 30.01685225 1 33 C-4.28 33 -9.56 33 -15 33 C-15 35.64 -15 38.28 -15 41 C-19.62 41 -24.24 41 -29 41 C-24.375 34.25 -24.375 34.25 -21 32 C-20.31731862 30.67479497 -19.6492959 29.34187818 -19 28 C-18.34 27.67 -17.68 27.34 -17 27 C-16.34 26.01 -15.68 25.02 -15 24 C-12.875 22.8125 -12.875 22.8125 -11 22 C-11.66 21.34 -12.32 20.68 -13 20 C-12.236875 19.814375 -11.47375 19.62875 -10.6875 19.4375 C-7.49566897 17.73024154 -6.96102218 16.19192967 -5.75390625 12.8671875 C-5 11 -5 11 -2.875 7.875 C-1.06238502 5.09565704 -0.38290001 3.25465009 0 0 Z " fill="#000000" transform="translate(415,335)"/>
<path d="M0 0 C2 2 2 2 2.13525391 5.53173828 C2.09289483 7.04492808 2.03922419 8.5578274 1.9765625 10.0703125 C1.95153656 10.86654022 1.92651062 11.66276794 1.90072632 12.48312378 C1.81843302 15.03084304 1.72188097 17.57779774 1.625 20.125 C1.56676988 21.850229 1.5094664 23.57548954 1.453125 25.30078125 C1.3128406 29.53429537 1.15976487 33.76717807 1 38 C-1.97 38 -4.94 38 -8 38 C-7.53740384 33.37403842 -7.06938924 30.13877849 -5 26 C-4.83275263 22.83304044 -4.83275263 22.83304044 -5 20 C-4.34 20 -3.68 20 -3 20 C-3.04125 18.72125 -3.0825 17.4425 -3.125 16.125 C-3.13322382 10.94399227 -2.35874389 5.99859065 -1 1 C-0.67 0.67 -0.34 0.34 0 0 Z " fill="#000000" transform="translate(127,371)"/>
<path d="M0 0 C0.66 0 1.32 0 2 0 C2.90966028 27.75513466 2.90966028 27.75513466 -3.37890625 35.75390625 C-4.75 37.1875 -4.75 37.1875 -7 39 C-7 35.81046782 -6.37229268 34.17870102 -5.1875 31.25 C-1.44933744 21.20618244 0.68189949 10.73360308 0 0 Z " fill="#000000" transform="translate(174,139)"/>
<path d="M0 0 C1.65 0 3.3 0 5 0 C5 5.28 5 10.56 5 16 C3.35 16 1.7 16 0 16 C0 10.72 0 5.44 0 0 Z " fill="#000000" transform="translate(203,0)"/>
<path d="M0 0 C0.66 0.33 1.32 0.66 2 1 C2.8515625 3.9140625 2.8515625 3.9140625 3.625 7.625 C3.88539063 8.83414062 4.14578125 10.04328125 4.4140625 11.2890625 C4.98883175 14.92926774 5.10400604 18.32196825 5 22 C3.68 22 2.36 22 1 22 C0.93941406 20.81921875 0.87882813 19.6384375 0.81640625 18.421875 C0.73197418 16.8645723 0.64732751 15.30728121 0.5625 13.75 C0.52318359 12.97269531 0.48386719 12.19539062 0.44335938 11.39453125 C0.40146484 10.64042969 0.35957031 9.88632813 0.31640625 9.109375 C0.27974854 8.41811523 0.24309082 7.72685547 0.20532227 7.01464844 C0.04820114 4.94979468 0.04820114 4.94979468 -0.58227539 2.80566406 C-0.72012451 2.20979492 -0.85797363 1.61392578 -1 1 C-0.67 0.67 -0.34 0.34 0 0 Z " fill="#000000" transform="translate(240,2)"/>
<path d="M0 0 C0 4.22153773 -1.86970719 5.30317673 -4.75 8.3125 C-8.28869261 12.02191901 -11.19957943 15.71037273 -14 20 C-15.6292274 21.70328319 -17.28641357 23.38161281 -19 25 C-15.55396542 15.21603247 -6.89916445 7.5060354 0 0 Z " fill="#000000" transform="translate(51,76)"/>
<path d="M0 0 C1.73554378 2.60331567 2.57382626 4.39807286 3.5 7.3125 C3.75394531 8.10140625 4.00789062 8.8903125 4.26953125 9.703125 C4.51058594 10.46109375 4.75164063 11.2190625 5 12 C5.5878125 13.7634375 5.5878125 13.7634375 6.1875 15.5625 C6.455625 16.366875 6.72375 17.17125 7 18 C6.01 18 5.02 18 4 18 C1.31907309 15.31907309 1.61329743 13.60832637 1.375 9.875 C1.30023438 8.77929688 1.22546875 7.68359375 1.1484375 6.5546875 C1.07496094 5.29011719 1.07496094 5.29011719 1 4 C0.34 4 -0.32 4 -1 4 C-0.67 2.68 -0.34 1.36 0 0 Z " fill="#000000" transform="translate(8,286)"/>
<path d="M0 0 C0.33 0 0.66 0 1 0 C1 4.62 1 9.24 1 14 C-0.98 14 -2.96 14 -5 14 C-4.72285156 13.32453125 -4.44570313 12.6490625 -4.16015625 11.953125 C-3.79792969 11.06109375 -3.43570312 10.1690625 -3.0625 9.25 C-2.52302734 7.92742187 -2.52302734 7.92742187 -1.97265625 6.578125 C-1.14643424 4.38813896 -0.50630057 2.28101729 0 0 Z " fill="#000000" transform="translate(431,306)"/>
<path d="M0 0 C0.99 0.495 0.99 0.495 2 1 C2.31241371 3.54941373 2.51303421 6.00361513 2.625 8.5625 C2.66367187 9.27341797 2.70234375 9.98433594 2.7421875 10.71679688 C2.83671783 12.47742425 2.91945817 14.23867728 3 16 C2.34 16 1.68 16 1 16 C-0.06723961 12.53777385 -0.10173486 9.35960734 -0.0625 5.75 C-0.04896484 4.13351562 -0.04896484 4.13351562 -0.03515625 2.484375 C-0.02355469 1.66453125 -0.01195312 0.8446875 0 0 Z " fill="#000000" transform="translate(306,320)"/>
<path d="M0 0 C2.52480693 2.52480693 2.55738633 4.13823034 3.125 7.625 C3.29257812 8.62789063 3.46015625 9.63078125 3.6328125 10.6640625 C3.75398438 11.43492187 3.87515625 12.20578125 4 13 C3.01 12.67 2.02 12.34 1 12 C-0.61729417 8.32433144 -0.06546005 3.92760325 0 0 Z " fill="#000000" transform="translate(315,363)"/>
<path d="M0 0 C0.66 0 1.32 0 2 0 C1.55037804 1.96035175 1.09001752 3.91824309 0.625 5.875 C0.36976563 6.96554687 0.11453125 8.05609375 -0.1484375 9.1796875 C-1 12 -1 12 -3 14 C-3.33 12.68 -3.66 11.36 -4 10 C-3.34 10 -2.68 10 -2 10 C-1.34 6.7 -0.68 3.4 0 0 Z " fill="#000000" transform="translate(131,357)"/>
<path d="M0 0 C0.33 0 0.66 0 1 0 C1 2.97 1 5.94 1 9 C0.01 9 -0.98 9 -2 9 C-1.125 2.25 -1.125 2.25 0 0 Z " fill="#000000" transform="translate(444,271)"/>
<path d="M0 0 C0.33 0 0.66 0 1 0 C1.05449838 1.72880982 1.09301688 3.45812712 1.125 5.1875 C1.14820313 6.15042969 1.17140625 7.11335938 1.1953125 8.10546875 C0.9913544 11.12812778 0.26874632 13.26769985 -1 16 C-2.22602512 12.32192463 -1.70295577 10.11756073 -1.0625 6.3125 C-0.86785156 5.13300781 -0.67320312 3.95351562 -0.47265625 2.73828125 C-0.31667969 1.83464844 -0.16070312 0.93101563 0 0 Z " fill="#000000" transform="translate(181,112)"/>
<path d="M0 0 C0.66 0.66 1.32 1.32 2 2 C1.9765625 4.1640625 1.9765625 4.1640625 1.625 6.625 C1.51414062 7.44226563 1.40328125 8.25953125 1.2890625 9.1015625 C1.19367188 9.72804688 1.09828125 10.35453125 1 11 C0.34 11 -0.32 11 -1 11 C-1 9.02 -1 7.04 -1 5 C-0.34 5 0.32 5 1 5 C0.67 3.35 0.34 1.7 0 0 Z " fill="#000000" transform="translate(443,258)"/>
<path d="M0 0 C2.83374881 3.20336822 3.5205537 5.78087253 4 10 C1.16625119 6.79663178 0.4794463 4.21912747 0 0 Z " fill="#000000" transform="translate(267,134)"/>
<path d="M0 0 C3.00617269 3.00617269 2.59585316 5.82381598 3 10 C0.70366176 6.55549263 0.45983515 4.06187717 0 0 Z " fill="#000000" transform="translate(323,406)"/>
<path d="M0 0 C2.97 0 5.94 0 9 0 C9 0.33 9 0.66 9 1 C6.03 1 3.06 1 0 1 C0 0.67 0 0.34 0 0 Z " fill="#000000" transform="translate(279,171)"/>
<path d="M0 0 C1.98 0.99 1.98 0.99 4 2 C2.68 2.33 1.36 2.66 0 3 C0 2.01 0 1.02 0 0 Z " fill="#000000" transform="translate(67,55)"/>
<path d="M0 0 C0.33 0 0.66 0 1 0 C1 2.64 1 5.28 1 8 C0.67 8 0.34 8 0 8 C0 5.36 0 2.72 0 0 Z " fill="#000000" transform="translate(163,195)"/>
<path d="M0 0 C2.64 0 5.28 0 8 0 C8 0.33 8 0.66 8 1 C5.36 1 2.72 1 0 1 C0 0.67 0 0.34 0 0 Z " fill="#000000" transform="translate(432,175)"/>
<path d="M0 0 C0.33 0 0.66 0 1 0 C1 1.65 1 3.3 1 5 C0.67 5 0.34 5 0 5 C0 3.35 0 1.7 0 0 Z " fill="#000000" transform="translate(305,311)"/>
<path d="M0 0 C1 4 1 4 1 4 Z " fill="#000000" transform="translate(162,203)"/>
<path d="M0 0 C1 4 1 4 1 4 Z " fill="#000000" transform="translate(260,91)"/>
<path d="M0 0 C1 4 1 4 1 4 Z " fill="#000100" transform="translate(195,43)"/>
<path d="M0 0 C1 4 1 4 1 4 Z " fill="#000000" transform="translate(249,39)"/>
<path d="M0 0 C0.33 0.66 0.66 1.32 1 2 C0.34 1.67 -0.32 1.34 -1 1 C-0.67 0.67 -0.34 0.34 0 0 Z " fill="#000000" transform="translate(56,373)"/>
<path d="" fill="#000000" transform="translate(0,0)"/>
<path d="M0 0 C0.99 0.495 0.99 0.495 2 1 C1.01 1.495 1.01 1.495 0 2 C0 1.34 0 0.68 0 0 Z " fill="#000000" transform="translate(55,71)"/>
<path d="M0 0 C0.99 0.495 0.99 0.495 2 1 C1.01 1.495 1.01 1.495 0 2 C0 1.34 0 0.68 0 0 Z " fill="#000000" transform="translate(59,67)"/>
<path d="M0 0 C0.33 0.66 0.66 1.32 1 2 C0.34 1.67 -0.32 1.34 -1 1 C-0.67 0.67 -0.34 0.34 0 0 Z " fill="#000000" transform="translate(84,43)"/>
<path d="M0 0 C2 1 2 1 2 1 Z " fill="#000000" transform="translate(334,417)"/>
<path d="" fill="#000002" transform="translate(0,0)"/>
<path d="M0 0 C2 1 2 1 2 1 Z " fill="#000000" transform="translate(87,402)"/>
<path d="" fill="#000000" transform="translate(0,0)"/>
<path d="" fill="#000000" transform="translate(0,0)"/>
<path d="" fill="#000000" transform="translate(0,0)"/>
<path d="" fill="#000000" transform="translate(0,0)"/>
<path d="" fill="#000000" transform="translate(0,0)"/>
<path d="M0 0 C2 1 2 1 2 1 Z " fill="#000000" transform="translate(23,116)"/>
<path d="M0 0 C2 1 2 1 2 1 Z " fill="#010200" transform="translate(99,33)"/>
<path d="M0 0 C2 1 2 1 2 1 Z " fill="#000000" transform="translate(319,19)"/>
<path d="" fill="#000000" transform="translate(0,0)"/>
<path d="" fill="#000000" transform="translate(0,0)"/>
<path d="" fill="#000000" transform="translate(0,0)"/>
<path d="" fill="#000000" transform="translate(0,0)"/>
<path d="" fill="#000100" transform="translate(0,0)"/>
<path d="" fill="#000100" transform="translate(0,0)"/>
<path d="" fill="#000100" transform="translate(0,0)"/>
<path d="" fill="#030000" transform="translate(0,0)"/>
<path d="" fill="#000000" transform="translate(0,0)"/>
<path d="" fill="#000000" transform="translate(0,0)"/>
<path d="" fill="#000000" transform="translate(0,0)"/>
<path d="" fill="#000000" transform="translate(0,0)"/>
<path d="" fill="#000000" transform="translate(0,0)"/>
<path d="" fill="#000000" transform="translate(0,0)"/>
<path d="" fill="#000200" transform="translate(0,0)"/>
<path d="" fill="#000100" transform="translate(0,0)"/>
<path d="" fill="#000100" transform="translate(0,0)"/>
<path d="" fill="#000000" transform="translate(0,0)"/>
</svg>
