<svg width="46" height="46" viewBox="0 0 46 46" fill="none" xmlns="http://www.w3.org/2000/svg">
<mask id="mask0_328_370" style="mask-type:luminance" maskUnits="userSpaceOnUse" x="0" y="0" width="46" height="46">
<path d="M0 0H45.7259V46H0V0Z" fill="white"/>
</mask>
<g mask="url(#mask0_328_370)">
<path d="M22.8203 0.000197582C22.5658 -0.0034046 22.3205 0.0422476 22.0843 0.137154C21.8481 0.232059 21.6394 0.368866 21.4581 0.547574C21.2769 0.726281 21.1371 0.933043 21.0389 1.16786C20.9406 1.40268 20.8915 1.64735 20.8915 1.90189C20.8915 2.15643 20.9406 2.4011 21.0389 2.63592C21.1371 2.87074 21.2769 3.0775 21.4581 3.25621C21.6394 3.43491 21.8481 3.57172 22.0843 3.66663C22.3205 3.76153 22.5658 3.80718 22.8203 3.80358C33.3453 3.80358 41.8372 12.2955 41.8372 22.8205C41.8372 33.3455 33.3453 41.8374 22.8203 41.8374C22.5658 41.8338 22.3205 41.8795 22.0843 41.9744C21.8481 42.0693 21.6394 42.2061 21.4581 42.3848C21.2769 42.5635 21.1371 42.7703 21.0389 43.0051C20.9406 43.2399 20.8915 43.4846 20.8915 43.7391C20.8915 43.9937 20.9406 44.2383 21.0389 44.4732C21.1371 44.708 21.2769 44.9147 21.4581 45.0934C21.6394 45.2722 21.8481 45.409 22.0843 45.5039C22.3205 45.5988 22.5658 45.6444 22.8203 45.6408C35.4009 45.6408 45.6406 35.4011 45.6406 22.8205C45.6406 10.2399 35.4009 0.000197582 22.8203 0.000197582ZM14.8273 1.59361C14.5711 1.59212 14.3247 1.6404 14.0881 1.73846C13.8553 1.83466 13.6497 1.97172 13.4713 2.14963C13.2929 2.32754 13.1553 2.5328 13.0585 2.7654C12.9617 2.99799 12.9131 3.24026 12.9126 3.49219C12.912 3.74413 12.9597 3.98659 13.0556 4.21958C13.1518 4.45289 13.2889 4.65888 13.4671 4.83758C13.6453 5.01627 13.8509 5.15403 14.084 5.25087C14.317 5.34771 14.5597 5.39624 14.8121 5.39646C15.0644 5.39668 15.3072 5.34857 15.5404 5.25214C15.7737 5.15595 15.9797 5.01877 16.1584 4.84058C16.3371 4.66238 16.4748 4.45677 16.5717 4.22373C16.6685 3.9907 16.7171 3.748 16.7173 3.49565C16.7175 3.24329 16.6694 3.00051 16.573 2.76731C16.4265 2.41393 16.1946 2.13053 15.8772 1.91711C15.5597 1.70368 15.2098 1.59585 14.8273 1.59361ZM8.05619 6.1287C7.52093 6.12151 7.06408 6.30722 6.68564 6.68584C6.50736 6.86415 6.36999 7.06978 6.27351 7.30274C6.17703 7.5357 6.12879 7.77825 6.12879 8.03039C6.12879 8.28254 6.17703 8.52509 6.27351 8.75805C6.36999 8.991 6.50736 9.19664 6.68564 9.37495C6.86395 9.55322 7.06958 9.6906 7.30254 9.78708C7.5355 9.88356 7.77805 9.9318 8.03019 9.9318C8.28234 9.9318 8.52489 9.88356 8.75785 9.78708C8.9908 9.6906 9.19644 9.55322 9.37475 9.37495C9.55303 9.19664 9.6904 8.991 9.78688 8.75805C9.88336 8.52509 9.9316 8.28254 9.9316 8.03039C9.9316 7.77825 9.88336 7.5357 9.78688 7.30274C9.6904 7.06978 9.55303 6.86415 9.37475 6.68584C9.01067 6.32158 8.57115 6.13587 8.05619 6.1287ZM3.53596 12.9146C3.14401 12.9062 2.78391 13.0092 2.45564 13.2235C2.12738 13.4378 1.88825 13.7261 1.73827 14.0883C1.64173 14.3213 1.59344 14.5639 1.59341 14.8161C1.59337 15.0682 1.64159 15.3108 1.73806 15.5438C1.83454 15.7768 1.97192 15.9825 2.15021 16.1608C2.32851 16.3392 2.53414 16.4766 2.76711 16.5732C3.00032 16.6696 3.2431 16.7177 3.49545 16.7175C3.74781 16.7172 3.9905 16.6687 4.22354 16.5719C4.45657 16.475 4.66219 16.3373 4.84038 16.1586C5.01857 15.9799 5.15576 15.7739 5.25194 15.5406C5.34837 15.3074 5.39648 15.0646 5.39626 14.8123C5.39604 14.5599 5.34751 14.3172 5.25067 14.0842C5.15383 13.8511 5.01607 13.6455 4.83738 13.4673C4.65869 13.2891 4.45269 13.1519 4.21938 13.0558C4.00036 12.9662 3.77255 12.9192 3.53596 12.9146ZM34.1933 15.1952C33.6798 15.2105 33.244 15.4024 32.8859 15.7709L20.9186 27.7382L16.5581 23.3776C16.3811 23.1933 16.1753 23.0504 15.9407 22.949C15.7061 22.8477 15.4611 22.7957 15.2055 22.7931C14.95 22.7905 14.7039 22.8375 14.4673 22.9341C14.2307 23.0307 14.0221 23.1693 13.8413 23.35C13.6606 23.5307 13.522 23.7394 13.4254 23.976C13.3288 24.2126 13.2818 24.4586 13.2844 24.7142C13.287 24.9697 13.339 25.2148 13.4404 25.4494C13.5418 25.684 13.6846 25.8898 13.869 26.0668L19.5741 31.7718C19.7524 31.9501 19.958 32.0874 20.191 32.1839C20.4239 32.2804 20.6665 32.3286 20.9186 32.3286C21.1708 32.3286 21.4133 32.2804 21.6463 32.1839C21.8792 32.0874 22.0849 31.9501 22.2632 31.7718L35.575 18.46C35.8563 18.1866 36.0357 17.8577 36.1135 17.4733C36.1913 17.0889 36.1537 16.7162 36.0009 16.355C35.848 15.9938 35.6066 15.7073 35.2765 15.4955C34.9464 15.2837 34.5853 15.1836 34.1933 15.1952ZM1.90169 20.9188C1.64951 20.9188 1.40693 20.9671 1.17395 21.0636C0.940963 21.1601 0.735312 21.2975 0.556993 21.4758C0.378674 21.6541 0.241263 21.8598 0.144758 22.0928C0.0482524 22.3257 0 22.5683 0 22.8205C-3.80336e-07 23.0727 0.0482515 23.3153 0.144757 23.5483C0.241262 23.7812 0.378674 23.9869 0.556992 24.1652C0.73531 24.3435 0.940961 24.4809 1.17395 24.5774C1.40693 24.6739 1.64951 24.7222 1.90169 24.7222C2.15387 24.7222 2.39645 24.6739 2.62944 24.5774C2.86242 24.4809 3.06807 24.3435 3.24639 24.1652C3.42471 23.9869 3.56212 23.7812 3.65863 23.5483C3.75513 23.3153 3.80338 23.0727 3.80339 22.8205C3.80338 22.5683 3.75513 22.3257 3.65863 22.0928C3.56212 21.8598 3.42471 21.6541 3.24639 21.4758C3.06807 21.2975 2.86242 21.1601 2.62944 21.0636C2.39645 20.9671 2.15387 20.9188 1.90169 20.9188ZM3.50625 28.923C3.25011 28.9215 3.00373 28.9698 2.76711 29.0679C2.53414 29.1644 2.32851 29.3019 2.15021 29.4802C1.97192 29.6585 1.83454 29.8642 1.73806 30.0972C1.64159 30.3302 1.59337 30.5728 1.59341 30.825C1.59344 31.0772 1.64173 31.3197 1.73827 31.5527C1.83445 31.786 1.97164 31.992 2.14983 32.1707C2.32802 32.3494 2.53363 32.4871 2.76667 32.584C2.99971 32.6808 3.2424 32.7294 3.49476 32.7296C3.74711 32.7298 3.98989 32.6817 4.2231 32.5853C4.45607 32.4887 4.6617 32.3513 4.83999 32.1729C5.01829 31.9946 5.15567 31.7889 5.25215 31.5559C5.34862 31.3229 5.39684 31.0803 5.3968 30.8282C5.39677 30.576 5.34848 30.3334 5.25194 30.1004C5.10609 29.7463 4.87442 29.4622 4.55692 29.2481C4.23943 29.0339 3.8892 28.9256 3.50625 28.923ZM8.05619 35.7089C7.52093 35.7017 7.06408 35.8875 6.68564 36.2661C6.50736 36.4444 6.36999 36.65 6.27351 36.883C6.17703 37.1159 6.12879 37.3585 6.12879 37.6106C6.12879 37.8628 6.17703 38.1053 6.27351 38.3383C6.36999 38.5712 6.50736 38.7769 6.68564 38.9552C6.86395 39.1335 7.06958 39.2708 7.30254 39.3673C7.5355 39.4638 7.77805 39.512 8.03019 39.512C8.28234 39.512 8.52489 39.4638 8.75785 39.3673C8.9908 39.2708 9.19644 39.1335 9.37475 38.9552C9.55303 38.7769 9.6904 38.5712 9.78688 38.3383C9.88336 38.1053 9.9316 37.8628 9.9316 37.6106C9.9316 37.3585 9.88336 37.1159 9.78688 36.883C9.6904 36.65 9.55303 36.4444 9.37475 36.2661C9.01067 35.9018 8.57116 35.7161 8.05619 35.7089ZM14.857 40.244C14.465 40.2356 14.1049 40.3386 13.7767 40.5529C13.4484 40.7672 13.2093 41.0555 13.0593 41.4177C12.9627 41.6507 12.9145 41.8933 12.9144 42.1455C12.9144 42.3976 12.9626 42.6402 13.0591 42.8732C13.1556 43.1062 13.2929 43.3119 13.4712 43.4902C13.6495 43.6686 13.8552 43.806 14.0881 43.9026C14.3211 43.9991 14.5637 44.0474 14.8159 44.0474C15.068 44.0474 15.3106 43.9992 15.5436 43.9028C15.7766 43.8063 15.9823 43.6689 16.1606 43.4906C16.339 43.3123 16.4764 43.1067 16.573 42.8737C16.6695 42.6407 16.7178 42.3982 16.7178 42.146C16.7179 41.8938 16.6696 41.6512 16.5732 41.4182C16.4767 41.1852 16.3393 40.9795 16.161 40.8012C15.9827 40.6229 15.7771 40.4854 15.5441 40.3889C15.3241 40.2976 15.0951 40.2493 14.857 40.244Z" fill="#FFDE59"/>
</g>
</svg>
