<svg width="34" height="34" viewBox="0 0 34 34" fill="none" xmlns="http://www.w3.org/2000/svg">
<rect x="0.523926" y="0.0725098" width="33.3333" height="33.3333" rx="6.25" fill="white"/>
<path d="M7.74615 26.8225V5.98917H12.0517V23.0725H18.3017V26.8225H7.74615Z" fill="#215AEB"/>
<path d="M27.0517 6.70361L27.0517 27.5369H22.7461L22.7461 10.4536H16.4961V6.70361H27.0517Z" fill="#215AEB" fill-opacity="0.5"/>
<path opacity="0.25" d="M21.0364 14.7558L17.6073 16.7392L14.1781 14.7558C14.2488 14.6342 14.3491 14.5324 14.4698 14.46L17.1906 12.8892C17.4489 12.7433 17.7656 12.7433 18.0239 12.8892L20.7448 14.46C20.8656 14.5321 20.966 14.6342 21.0364 14.7558Z" fill="#215AEB"/>
<path opacity="0.5" d="M17.6075 16.7392V20.6975C17.4761 20.6972 17.3465 20.6673 17.2283 20.61L14.4825 19.0225C14.3559 18.9495 14.2508 18.8444 14.1777 18.7179C14.1045 18.5914 14.0659 18.4478 14.0658 18.3017V15.1767C14.0665 15.0291 14.1052 14.8841 14.1783 14.7559L17.6075 16.7392Z" fill="#215AEB"/>
<path d="M21.1491 15.1767V18.3017C21.1489 18.4478 21.1104 18.5914 21.0372 18.7179C20.9641 18.8444 20.859 18.9495 20.7324 19.0225L17.9741 20.6142C17.8595 20.6684 17.7341 20.6967 17.6074 20.6975V16.7392L21.0366 14.7559C21.1095 14.8842 21.1483 15.0292 21.1491 15.1767Z" fill="#215AEB"/>
<line x1="24.8988" y1="7.98926" x2="24.8988" y2="25.4893" stroke="#215AEB" stroke-opacity="0.5" stroke-width="0.416667" stroke-dasharray="2.08 2.08"/>
<line x1="18.0239" y1="8.19743" x2="25.1073" y2="8.19743" stroke="#215AEB" stroke-opacity="0.5" stroke-width="0.416667" stroke-dasharray="2.08 2.08"/>
</svg>
