<?xml version="1.0" encoding="UTF-8"?>
<svg version="1.1" xmlns="http://www.w3.org/2000/svg" width="1200" height="628">
<path d="M0 0 C396 0 792 0 1200 0 C1200 207.24 1200 414.48 1200 628 C804 628 408 628 0 628 C0 420.76 0 213.52 0 0 Z " fill="#000000" transform="translate(0,0)"/>
<path d="M0 0 C2.83659695 3.41957136 5.26018796 6.89192858 7.546875 10.69921875 C8.21847656 11.81232422 8.89007812 12.92542969 9.58203125 14.07226562 C9.93475098 14.66048096 10.2874707 15.24869629 10.65087891 15.85473633 C12.54646901 19.01559703 14.45388827 22.16931802 16.359375 25.32421875 C16.74863159 25.96946503 17.13788818 26.6147113 17.53894043 27.2795105 C21.32054262 33.54361244 25.15588551 39.774091 29 46 C34.57648722 55.04160957 40.11631635 64.10449621 45.625 73.1875 C45.98189911 73.77593689 46.33879822 74.36437378 46.70651245 74.97064209 C48.47021051 77.87882133 50.23347524 80.78726305 51.99658203 83.69580078 C59.89298807 96.71919334 67.82061596 109.72245575 75.8125 122.6875 C81.45015372 131.83406114 87.05321742 141.00073305 92.625 150.1875 C92.9816272 150.7754837 93.33825439 151.36346741 93.70568848 151.9692688 C95.46966217 154.87790521 97.23319793 157.7868069 98.99658203 160.69580078 C106.89298807 173.71919334 114.82061596 186.72245575 122.8125 199.6875 C128.45015468 208.83406271 134.05308184 218.00081414 139.625 227.1875 C139.97763916 227.76883698 140.33027832 228.35017395 140.69360352 228.9491272 C143.12981059 232.96563535 145.56493129 236.98280163 148 241 C150.60228728 245.29281067 153.20654957 249.5844122 155.8125 253.875 C156.3811377 254.8136792 156.94977539 255.7523584 157.53564453 256.71948242 C160.26648175 261.21355369 163.03830496 265.65426829 166 270 C164.5158627 273.48654476 162.53785948 275.64191072 159.8125 278.25 C156.25039433 281.72661513 152.93471151 285.30351872 149.69921875 289.08203125 C147.41097389 291.66485476 144.96462824 294.06382497 142.48046875 296.45703125 C140.78164495 298.13707372 140.78164495 298.13707372 139 301 C138.34 301 137.68 301 137 301 C136.74605469 301.58265625 136.49210938 302.1653125 136.23046875 302.765625 C134.86679667 305.24188033 133.35774797 306.80520626 131.3125 308.75 C128.55768063 311.4302304 125.94075141 314.14581567 123.4375 317.0625 C120.67757813 320.27302136 117.76908985 323.25357247 114.75 326.21875 C112.91757513 328.08389674 111.20646865 330.01927746 109.5 332 C106.71760668 335.22956367 103.78980571 338.23322653 100.75 341.21875 C98.91757513 343.08389674 97.20646865 345.01927746 95.5 347 C93.2544206 349.60647609 90.95448488 352.08934521 88.5 354.5 C86.06610268 356.89053167 83.78644441 359.35046262 81.5625 361.9375 C81.00071045 362.56241333 80.4389209 363.18732666 79.86010742 363.83117676 C77.98698885 365.92420708 77.98698885 365.92420708 76.59863281 368.1192627 C74.24076258 371.22605855 71.99874236 373.53912116 68.08200073 374.44226074 C62.13884224 375.14914996 56.15830799 374.91634958 50.1875 374.78125 C48.24839621 374.7663141 46.30926206 374.75493346 44.37011719 374.74694824 C39.28614773 374.71652005 34.20403029 374.63803859 29.12078857 374.54931641 C23.92583262 374.46722287 18.730575 374.4308867 13.53515625 374.390625 C3.35596069 374.30503434 -6.82186517 374.16864132 -17 374 C-16.03664846 372.87334952 -15.07291082 371.74702916 -14.10900879 370.62084961 C-13.30404842 369.67996742 -13.30404842 369.67996742 -12.48282623 368.72007751 C-10.97096066 366.96631439 -9.42869673 365.25047922 -7.84375 363.5625 C-7.30306885 362.98508057 -6.7623877 362.40766113 -6.20532227 361.81274414 C-5.36118774 360.91543579 -5.36118774 360.91543579 -4.5 360 C-3.90050537 359.3598999 -3.30101074 358.7197998 -2.68334961 358.06030273 C-0.79021195 356.03896719 1.10472571 354.01933213 3 352 C5.48086071 349.35574841 7.96027871 346.71016159 10.4375 344.0625 C11.02877686 343.43069824 11.62005371 342.79889648 12.22924805 342.14794922 C15.68979181 338.43878195 19.05700238 334.66792167 22.36328125 330.8203125 C25.05235897 327.82959599 27.94623302 325.04627098 30.80859375 322.22265625 C33.42101068 319.5729856 35.83302621 316.78827197 38.25390625 313.96484375 C40.7235936 311.18575486 43.37903322 308.61139504 46.02734375 306.00390625 C48.57337829 303.41753849 50.92021557 300.6846472 53.28515625 297.93359375 C55.47170885 295.46811872 57.80633544 293.18008332 60.15844727 290.87402344 C61.92950394 289.07173907 63.57716838 287.21315613 65.21875 285.29296875 C67.72920596 282.40115244 70.30953723 279.61957077 73 276.89453125 C73.98806641 275.88422852 73.98806641 275.88422852 74.99609375 274.85351562 C76.35326386 273.47121274 77.72082947 272.09905333 79.09765625 270.73632812 C79.74605469 270.06666016 80.39445313 269.39699219 81.0625 268.70703125 C81.94615234 267.81721558 81.94615234 267.81721558 82.84765625 266.90942383 C84.25243072 265.00574604 84.25243072 265.00574604 83.77709961 262.45507812 C82.7620182 259.24814797 81.25938359 256.59302905 79.5625 253.6875 C79.20470459 253.07342285 78.84690918 252.4593457 78.47827148 251.82666016 C75.52543581 246.79787997 72.44116524 241.85383484 69.33056641 236.92163086 C65.12606786 230.24239148 61.02821368 223.49925192 56.9375 216.75 C56.57827454 216.15748444 56.21904907 215.56496887 55.84893799 214.95449829 C53.99107561 211.88982683 52.13397216 208.8246965 50.27734375 205.75927734 C46.86263209 200.12173667 43.44362532 194.48680338 40.02371216 188.85241699 C38.97691057 187.12744279 37.93070436 185.40210733 36.88452148 183.67675781 C32.89079296 177.0951483 28.87152646 170.52989791 24.83276367 163.97583008 C22.44179851 160.09365685 20.06303026 156.20413008 17.6875 152.3125 C16.73959625 150.76040878 15.79167921 149.20832567 14.84375 147.65625 C14.13412109 146.49416016 14.13412109 146.49416016 13.41015625 145.30859375 C12.05540572 143.09070577 10.69976964 140.87336223 9.34375 138.65625 C5.47539152 132.33069078 1.60884869 126.00409474 -2.2421875 119.66796875 C-9.85871515 107.13677756 -17.51827937 94.6329992 -25.2109375 82.1484375 C-25.8203418 81.14780273 -26.42974609 80.14716797 -27.05761719 79.11621094 C-28.4445924 76.89105362 -29.85582225 74.71652193 -31.32519531 72.54785156 C-31.70519684 71.97209381 -32.08519836 71.39633606 -32.47671509 70.8031311 C-33.54220208 69.19135764 -34.62724613 67.59256252 -35.71337891 65.99462891 C-37 63 -37 63 -36.36499023 59.88085938 C-35.19584928 57.41334671 -34.02161892 55.10645474 -32.55859375 52.8046875 C-32.06552734 52.01989014 -31.57246094 51.23509277 -31.06445312 50.42651367 C-30.52755859 49.58451416 -29.99066406 48.74251465 -29.4375 47.875 C-28.26819879 46.01515998 -27.10030735 44.15443312 -25.93359375 42.29296875 C-25.30437012 41.29056152 -24.67514648 40.2881543 -24.02685547 39.25537109 C-20.297483 33.26555509 -16.65239479 27.22445205 -13 21.1875 C-8.70969536 14.0976777 -4.41620612 7.01245229 0 0 Z " fill="#FDFDFD" transform="translate(600,127)"/>
<path d="M0 0 C3.73917859 1.24639286 4.06227022 2.30713803 6.01171875 5.65234375 C6.88993286 7.14048584 6.88993286 7.14048584 7.78588867 8.65869141 C8.72718628 10.28170166 8.72718628 10.28170166 9.6875 11.9375 C11.02975793 14.215743 12.37352582 16.49304377 13.71875 18.76953125 C14.23933235 19.65357635 14.23933235 19.65357635 14.77043152 20.55548096 C19.30498212 28.24283293 24.02046205 35.81858128 28.71948242 43.40600586 C29.95399613 45.40326763 31.18378985 47.40345854 32.40771484 49.40722656 C33.37885541 50.9885686 34.36510317 52.56092064 35.37744141 54.11621094 C36.98997134 56.67667959 38.0033 58.46540014 37.984375 61.53125 C36.71026078 64.72664758 35.06823314 67.5938271 33.25 70.5 C32.85441895 71.14598145 32.45883789 71.79196289 32.05126953 72.45751953 C30.7092362 74.64364413 29.35559711 76.82226268 28 79 C27.01281425 80.59101767 26.02584185 82.18216774 25.0390625 83.7734375 C23.43196805 86.36489935 21.82456533 88.95615984 20.21508789 91.54614258 C15.97267407 98.3873921 11.81645029 105.27728792 7.6875 112.1875 C1.91772135 121.84124131 -3.93867824 131.43759792 -9.84741211 141.00683594 C-15.81309666 150.67508244 -21.71142334 160.3833579 -27.59326172 170.1027832 C-28.27146973 171.22257568 -28.94967773 172.34236816 -29.6484375 173.49609375 C-30.24833496 174.48794678 -30.84823242 175.4797998 -31.46630859 176.50170898 C-32.60612217 178.35839672 -33.79150897 180.18726346 -35 182 C-35.07907102 184.84655664 -34.4795643 186.44748789 -32.61328125 188.59765625 C-31.41032017 189.78439763 -30.19168104 190.95537763 -28.9609375 192.11328125 C-27.01120608 193.98921805 -25.25754718 195.94422648 -23.5 198 C-21.2544206 200.60647609 -18.95448488 203.08934521 -16.5 205.5 C-14.18615566 207.77816833 -11.99501467 210.10307411 -9.875 212.5625 C-9.30096436 213.18431152 -8.72692871 213.80612305 -8.13549805 214.44677734 C-6.46244934 216.44709098 -5.22659678 218.24076652 -3.89624023 220.44750977 C-0.20555474 225.96982567 3.59022784 230.17290795 10.23449707 231.78457642 C19.00830479 232.86359009 27.81429992 232.66346412 36.63348389 232.42486572 C40.28727315 232.34125053 43.94110206 232.33837148 47.59570312 232.328125 C54.73246915 232.29650146 61.86523548 232.17706848 69 232 C68.0691211 233.26573312 67.13475536 234.52890222 66.19897461 235.79101562 C65.67903427 236.4947229 65.15909393 237.19843018 64.62339783 237.92346191 C62.18322557 241.04476129 59.41307648 243.75783944 56.5625 246.5 C52.38899129 250.58875547 48.38951731 254.71901295 44.60546875 259.17578125 C42.19339758 261.91650445 39.57316628 264.43566865 36.97265625 266.99609375 C34.42662171 269.58246151 32.07978443 272.3153528 29.71484375 275.06640625 C27.50440699 277.55881216 25.14158441 279.86997567 22.765625 282.203125 C20.24751953 284.76579871 17.91377295 287.47456431 15.578125 290.203125 C15.05734375 290.79609375 14.5365625 291.3890625 14 292 C13.43345703 292.78032593 13.43345703 292.78032593 12.85546875 293.57641602 C10.05388224 295.72589641 7.13340518 295.52647788 3.734375 295.57421875 C2.66694061 295.59631157 2.66694061 295.59631157 1.57794189 295.61885071 C0.07176429 295.64278855 -1.43456908 295.65821885 -2.94091797 295.66577148 C-5.2302997 295.68731462 -7.51288341 295.76742275 -9.80078125 295.84960938 C-20.47878958 296.04493522 -20.47878958 296.04493522 -24.484375 293.29345703 C-26.23676388 291.28071589 -27.5949813 289.26218695 -29 287 C-30.13612454 285.80357063 -31.29980789 284.6321489 -32.5 283.5 C-35.59356643 280.46167583 -38.42105507 277.2523468 -41.25 273.96875 C-42.93798286 272.06976929 -44.68769734 270.27994012 -46.5 268.5 C-49.59356643 265.46167583 -52.42105507 262.2523468 -55.25 258.96875 C-56.93798286 257.06976929 -58.68769734 255.27994012 -60.5 253.5 C-63.59356643 250.46167583 -66.42105507 247.2523468 -69.25 243.96875 C-70.93798286 242.06976929 -72.68769734 240.27994012 -74.5 238.5 C-77.59356643 235.46167583 -80.42105507 232.2523468 -83.25 228.96875 C-84.93798286 227.06976929 -86.68769734 225.27994012 -88.5 223.5 C-91.59356643 220.46167583 -94.42105507 217.2523468 -97.25 213.96875 C-99.47553687 211.46502102 -101.84916338 209.13913619 -104.23828125 206.79296875 C-106.75425761 204.2323631 -109.0786081 201.51875975 -111.421875 198.80078125 C-113.19649815 196.7757781 -115.05776935 194.86454143 -117 193 C-115.71083853 189.57043686 -114.22142892 186.51452777 -112.3046875 183.39453125 C-111.76183105 182.50677002 -111.21897461 181.61900879 -110.65966797 180.7043457 C-109.77625732 179.27288208 -109.77625732 179.27288208 -108.875 177.8125 C-108.25898926 176.80727295 -107.64297852 175.8020459 -107.00830078 174.76635742 C-105.00999411 171.5081397 -103.00576707 168.25362978 -101 165 C-100.3296875 163.91203125 -99.659375 162.8240625 -98.96875 161.703125 C-98.2984375 160.61515625 -97.628125 159.5271875 -96.9375 158.40625 C-95.9319104 156.77405518 -95.9319104 156.77405518 -94.90600586 155.10888672 C-93.54784042 152.90454127 -92.18927676 150.70044113 -90.83032227 148.49658203 C-86.28287745 141.11284148 -81.80077642 133.69300072 -77.35571289 126.24731445 C-73.89597648 120.46360485 -70.370521 114.72370178 -66.8125 109 C-61.67784849 100.73919681 -56.60524832 92.44208466 -51.5625 84.125 C-51.20073669 83.5284259 -50.83897339 82.93185181 -50.46624756 82.31719971 C-48.66100465 79.3399719 -46.85626793 76.36243763 -45.05175781 73.38476562 C-30.17226197 48.83820085 -15.12615088 24.3952423 0 0 Z " fill="#FDFDFD" transform="translate(552,206)"/>
</svg>
