<?xml version="1.0" encoding="UTF-8"?>
<svg version="1.1" xmlns="http://www.w3.org/2000/svg" width="512" height="512">
<path d="M0 0 C0.92413696 -0.00287018 1.84827393 -0.00574036 2.80041504 -0.00869751 C4.74341448 -0.01072805 6.68643484 -0.00526934 8.62939453 0.00732422 C11.58543062 0.02339228 14.54009964 0.00744093 17.49609375 -0.01171875 C19.39323215 -0.00973614 21.29036971 -0.00589209 23.1875 0 C24.06168579 -0.00607269 24.93587158 -0.01214539 25.83654785 -0.0184021 C32.20551819 0.05377342 38.12580753 0.86977304 43.15234375 5.15234375 C43.60738281 5.74917969 44.06242187 6.34601562 44.53125 6.9609375 C45.00433594 7.56035156 45.47742188 8.15976562 45.96484375 8.77734375 C48.41918167 12.30173903 48.20936032 14.8831823 48.19140625 19.15625 C48.18890869 20.36941895 48.18641113 21.58258789 48.18383789 22.83251953 C48.17473389 24.38052246 48.16562988 25.92852539 48.15625 27.5234375 C48.135625 32.4321875 48.115 37.3409375 48.09375 42.3984375 C61.29375 42.3984375 74.49375 42.3984375 88.09375 42.3984375 C87.93628699 33.54343727 87.93628699 33.54343727 87.73339844 24.68945312 C87.65730688 16.18192595 88.25791554 10.33794317 94.40625 4.0234375 C100.57013638 0.29643643 106.66833568 0.09019974 113.68359375 0.09765625 C115.03862755 0.09122856 115.03862755 0.09122856 116.42103577 0.08467102 C118.32291835 0.07895319 120.22482279 0.07840858 122.12670898 0.08276367 C125.01910064 0.08592422 127.91046881 0.06243053 130.80273438 0.03710938 C132.65885289 0.03483601 134.51497413 0.03413306 136.37109375 0.03515625 C137.22654282 0.0259465 138.08199188 0.01673676 138.96336365 0.00724792 C145.84128489 0.05964186 151.39599545 1.24023386 156.90625 5.6484375 C162.87086688 13.146813 162.46931726 20.06849321 162.28125 29.3359375 C162.219375 33.6465625 162.1575 37.9571875 162.09375 42.3984375 C174.96375 42.3984375 187.83375 42.3984375 201.09375 42.3984375 C200.9755799 33.82770909 200.9755799 33.82770909 200.82348633 25.25756836 C200.7677848 17.23714712 201.18962145 12.04934196 206.28125 5.6484375 C212.58294816 0.60707897 218.97125578 -0.05560009 226.74609375 0 C227.64566299 -0.00287018 228.54523224 -0.00574036 229.47206116 -0.00869751 C231.36378615 -0.0107278 233.25553264 -0.00527086 235.1472168 0.00732422 C238.01985326 0.02337383 240.89107894 0.00744989 243.76367188 -0.01171875 C245.61198223 -0.00973577 247.46029172 -0.00589095 249.30859375 0 C250.15574448 -0.00607269 251.0028952 -0.01214539 251.87571716 -0.0184021 C258.38983446 0.05723995 265.02280664 0.9505841 270.25 5.1171875 C270.6934375 5.705 271.136875 6.2928125 271.59375 6.8984375 C272.0578125 7.48625 272.521875 8.0740625 273 8.6796875 C275.36993831 12.40387628 275.21015009 15.74281622 275.19140625 20.03515625 C275.18818359 21.33388672 275.18496094 22.63261719 275.18164062 23.97070312 C275.17328531 25.34244858 275.16482037 26.71419337 275.15625 28.0859375 C275.15123335 29.46939945 275.14667073 30.85286313 275.14257812 32.23632812 C275.13077529 35.62374145 275.11431019 39.01106783 275.09375 42.3984375 C276.16753906 42.36363281 277.24132812 42.32882813 278.34765625 42.29296875 C279.78383839 42.26480832 281.22003762 42.23751059 282.65625 42.2109375 C283.36072266 42.18580078 284.06519531 42.16066406 284.79101562 42.13476562 C291.09011088 42.04768136 295.28528508 43.72673219 300.71875 46.9609375 C306.43940446 52.8321355 308.65726658 59.60904116 308.71585083 67.68684387 C308.69787445 68.68882309 308.67989807 69.69080231 308.66137695 70.72314453 C308.66210709 71.80725113 308.66283722 72.89135773 308.66358948 74.00831604 C308.66013219 77.55815313 308.6213571 81.1066448 308.58203125 84.65625 C308.57269657 87.13059777 308.56558356 89.60495484 308.56059265 92.07931519 C308.54157479 98.56662873 308.49251797 105.05337547 308.43707275 111.54046631 C308.38576819 118.17013346 308.3630547 124.79987341 308.33789062 131.4296875 C308.28439478 144.41955891 308.19650062 157.40886222 308.09375 170.3984375 C321.29375 170.7284375 334.49375 171.0584375 348.09375 171.3984375 C347.93611742 162.1693164 347.93611742 162.1693164 347.73339844 152.94116211 C347.62690158 140.57464392 347.62690158 140.57464392 352.09375 135.3984375 C358.15675622 130.26250195 363.60255053 129.66771711 371.34765625 129.76953125 C372.40734116 129.76711929 373.46702606 129.76470734 374.55882263 129.76222229 C376.78852092 129.76319752 379.0182444 129.7765132 381.24780273 129.80151367 C384.64976621 129.83587202 388.04913603 129.82214089 391.45117188 129.80273438 C393.62501099 129.80963227 395.79884345 129.81930414 397.97265625 129.83203125 C398.983246 129.82707138 399.99383575 129.82211151 401.03504944 129.81700134 C408.48534009 129.9405893 412.94686645 131.33660486 418.40625 136.6484375 C422.81611368 143.83488201 422.34552909 151.7455669 422.21875 159.8984375 C422.20972656 161.00703125 422.20070313 162.115625 422.19140625 163.2578125 C422.16801167 165.97158342 422.13523175 168.68489295 422.09375 171.3984375 C423.54394531 171.31142578 423.54394531 171.31142578 425.0234375 171.22265625 C433.3372626 170.9345534 440.26497598 171.07301298 447.09375 176.3984375 C451.60305882 181.14799638 454.20627163 185.34554879 454.24092102 191.99528503 C454.25165398 193.41032822 454.25165398 193.41032822 454.26260376 194.85395813 C454.26663712 196.40387703 454.26663712 196.40387703 454.27075195 197.98510742 C454.28060875 199.61971924 454.28060875 199.61971924 454.29066467 201.28735352 C454.31040842 204.9012051 454.32206319 208.5150151 454.33203125 212.12890625 C454.33610678 213.36284937 454.3401823 214.59679249 454.34438133 215.86812782 C454.36309548 221.72647697 454.37765945 227.58480977 454.3859933 233.44318312 C454.39575529 240.19317175 454.42204876 246.94283155 454.46249419 253.69270438 C454.49637019 259.54836586 454.50814473 265.40391771 454.51219749 271.25966835 C454.51706648 273.74551942 454.52868923 276.2313669 454.54723549 278.71715355 C454.57160364 282.19996604 454.5706655 285.68192313 454.5637207 289.16479492 C454.57653076 290.18795303 454.58934082 291.21111115 454.60253906 292.26527405 C454.55012614 299.49232821 453.12520672 304.88547424 448.34765625 310.421875 C447.78949219 310.86789062 447.23132813 311.31390625 446.65625 311.7734375 C446.10066406 312.23492187 445.54507812 312.69640625 444.97265625 313.171875 C440.90946287 315.82435467 437.33646818 316.64818384 432.51921082 316.63894653 C430.85551956 316.64307053 430.85551956 316.64307053 429.15821838 316.64727783 C427.95124802 316.64008728 426.74427765 316.63289673 425.50073242 316.62548828 C423.58306061 316.62592636 423.58306061 316.62592636 421.62664795 316.62637329 C418.12906518 316.62694628 414.63162004 316.61520072 411.1340692 316.60122538 C407.47588664 316.58870905 403.8177008 316.58754681 400.15950012 316.58517456 C393.23581465 316.57896244 386.31219247 316.56255526 379.38853484 316.54247558 C371.50466003 316.52010824 363.62078217 316.50912105 355.73688352 316.49908471 C339.52246866 316.47818879 323.30811741 316.44301803 307.09375 316.3984375 C307.42375 317.0584375 307.75375 317.7184375 308.09375 318.3984375 C308.19202151 319.85234914 308.22877512 321.31064911 308.23419189 322.76786804 C308.23990204 323.6860582 308.24561218 324.60424835 308.25149536 325.55026245 C308.25261322 326.56065582 308.25373108 327.57104919 308.25488281 328.61206055 C308.25984772 329.67400131 308.26481262 330.73594208 308.26992798 331.83006287 C308.28457835 335.35676717 308.29135723 338.88342646 308.296875 342.41015625 C308.30262512 344.85675559 308.30838287 347.30335492 308.31414795 349.74995422 C308.32466683 354.88726004 308.33050335 360.02455016 308.33398438 365.16186523 C308.33946376 371.74149601 308.3634764 378.32091928 308.39195633 384.90048504 C308.41059254 389.95771385 308.4157889 395.01489285 308.41732025 400.07215309 C308.42034626 402.49741561 308.42837302 404.92267726 308.44150543 407.34790611 C308.45858216 410.74471097 308.45668114 414.14101129 308.45019531 417.5378418 C308.4594101 418.53811401 308.46862488 419.53838623 308.4781189 420.56896973 C308.42800847 428.95757216 306.39119567 434.61122025 300.703125 440.890625 C295.25857533 445.99158659 288.75492696 446.52018604 281.64172363 446.53887939 C279.68596153 446.54744461 279.68596153 446.54744461 277.69068909 446.55618286 C276.2527772 446.55742805 274.8148652 446.55855318 273.37695312 446.55957031 C271.85725281 446.56420137 270.33755365 446.56922642 268.81785583 446.57461548 C264.69604725 446.58770955 260.57425494 446.59417802 256.45242882 446.59862614 C253.87689878 446.60156034 251.30137315 446.60566569 248.72584534 446.61013031 C240.6660888 446.62379435 232.60634239 446.63346763 224.54657507 446.6373322 C215.24462795 446.64181719 205.94282746 446.65939004 196.64092493 446.6883328 C189.4475965 446.70993803 182.25430938 446.72003578 175.06094885 446.72137332 C170.76555583 446.72242173 166.47030086 446.72833781 162.17494202 446.74619293 C158.13656957 446.7626547 154.09843926 446.76483844 150.06004524 446.75605392 C148.57858189 446.75528266 147.09710562 446.75963807 145.61567497 446.76951218 C143.59241491 446.78220656 141.5690578 446.7745723 139.54577637 446.76593018 C138.41385612 446.76739674 137.28193588 446.7688633 136.11571503 446.7703743 C132.7140843 446.35170908 130.83036648 445.42884144 128.09375 443.3984375 C126.66712781 440.54519313 126.78341132 438.56389201 127.09375 435.3984375 C128.7147522 432.73748875 128.7147522 432.73748875 131.09375 430.3984375 C134.01107788 429.77875423 134.01107788 429.77875423 137.47021484 429.78611755 C139.43870392 429.7718573 139.43870392 429.7718573 141.44696045 429.75730896 C142.89954052 429.77194018 144.35211617 429.78701552 145.8046875 429.80249023 C147.33571801 429.80058632 148.86674713 429.7964309 150.39776611 429.79019165 C153.69369134 429.78139829 156.98909026 429.78816076 160.28497314 429.80685234 C165.49529592 429.83591858 170.70516414 429.82815896 175.91552734 429.81495667 C186.03416545 429.79428495 196.15258407 429.80989948 206.27120972 429.83042908 C219.15115794 429.85556537 232.0309842 429.86845816 244.91093636 429.84047276 C250.09167338 429.83050783 255.27186742 429.84067397 260.45254517 429.86638057 C263.67370765 429.87853878 266.89469997 429.87435512 270.11586761 429.86580276 C271.61065812 429.86526699 273.10546921 429.87162348 274.60019684 429.88534355 C276.63914858 429.90315192 278.67828212 429.89416363 280.71728516 429.8837738 C282.42955795 429.88798419 282.42955795 429.88798419 284.17642212 429.89227962 C287.78212365 429.28191035 288.95958137 428.33385667 291.09375 425.3984375 C291.68018223 423.27817327 291.68018223 423.27817327 291.58822632 420.98936462 C291.5966153 420.11312943 291.60500427 419.23689423 291.61364746 418.33410645 C291.60240845 417.38072388 291.59116943 416.42734131 291.57958984 415.44506836 C291.58338654 414.43493179 291.58718323 413.42479523 291.59109497 412.38404846 C291.59850741 409.04347739 291.577109 405.70377509 291.5546875 402.36328125 C291.55230358 400.04448041 291.55139764 397.72567762 291.5519104 395.40687561 C291.54878128 390.54708772 291.53220584 385.68759461 291.50537109 380.82788086 C291.47137239 374.59095042 291.46374299 368.35434376 291.46526146 362.1173315 C291.46471828 357.32960404 291.45375972 352.5419477 291.43925858 347.75424385 C291.43288381 345.45408224 291.4289501 343.15391256 291.42747116 340.8537426 C291.42314649 337.64315868 291.40566375 334.43292177 291.38427734 331.22241211 C291.38518372 330.26700531 291.38609009 329.31159851 291.38702393 328.32723999 C291.37422897 327.01711693 291.37422897 327.01711693 291.36117554 325.68052673 C291.35782385 324.92155562 291.35447216 324.16258451 291.35101891 323.38061428 C291.20119338 321.07969479 291.20119338 321.07969479 289.09375 318.3984375 C286.01458427 317.37204892 283.91724972 317.2711217 280.69136906 317.26700974 C279.56272594 317.26316859 278.43408281 317.25932745 277.27123839 317.2553699 C275.40327444 317.25666963 275.40327444 317.25666963 273.49757385 317.25799561 C272.17884543 317.25502448 270.86011701 317.25205336 269.50142711 317.2489922 C265.83321539 317.24091308 262.16502321 317.23913213 258.49680364 317.23839474 C254.54377235 317.23654581 250.59075124 317.22899938 246.63772583 317.22225952 C237.99121784 317.2086701 229.34471449 317.20265079 220.6981976 317.19824886 C215.30215878 317.19548797 209.90612176 317.19125095 204.51008415 317.18674469 C189.57762165 317.17455218 174.64516059 317.16425221 159.71269321 317.1608696 C158.75676639 317.16065003 157.80083957 317.16043047 156.81594526 317.16020425 C155.8577032 317.15998597 154.89946114 317.15976769 153.91218144 317.1595428 C151.97034426 317.15909933 150.02850709 317.15865277 148.08666992 317.15820312 C147.1234471 317.1579817 146.16022427 317.15776027 145.16781288 317.15753213 C129.55078967 317.15358184 113.93381307 317.13612072 98.31680787 317.1128436 C82.29311588 317.08915251 66.26944729 317.0766688 50.24573749 317.07550168 C41.24488503 317.07458376 32.2440933 317.06880185 23.24325752 317.05068207 C15.58094046 317.03531144 7.9187029 317.03014265 0.25637335 317.03842017 C-3.65499263 317.04233724 -7.56619834 317.04134582 -11.47754478 317.02736282 C-15.05582963 317.01468711 -18.63383274 317.01576511 -22.21211684 317.02795354 C-24.12475402 317.03085629 -26.03739577 317.01892705 -27.94999498 317.00653148 C-29.64687128 317.01641624 -29.64687128 317.01641624 -31.37802792 317.0265007 C-32.35608015 317.02590361 -33.33413238 317.02530653 -34.34182256 317.02469134 C-37.34545793 317.46244878 -38.71110365 318.33721979 -40.90625 320.3984375 C-41.95522067 323.12216609 -42.03470907 325.70434861 -42.04669189 328.60423279 C-42.05240204 329.4355069 -42.05811218 330.26678101 -42.06399536 331.12324524 C-42.06511322 332.02673203 -42.06623108 332.93021881 -42.06738281 333.86108398 C-42.07234772 334.81924011 -42.07731262 335.77739624 -42.08242798 336.7645874 C-42.09702847 339.93290933 -42.10384726 343.10118122 -42.109375 346.26953125 C-42.11512714 348.47144065 -42.12088487 350.67335003 -42.12664795 352.8752594 C-42.13715119 357.4911421 -42.14299864 362.10700742 -42.14648438 366.72290039 C-42.1519749 372.63904673 -42.17601784 378.55496359 -42.20445633 384.47103786 C-42.22307159 389.01862767 -42.22828767 393.566162 -42.22982025 398.1137867 C-42.23284861 400.29508789 -42.24088328 402.47638807 -42.25400543 404.6576519 C-42.27104625 407.70741187 -42.26919062 410.75660831 -42.26269531 413.80639648 C-42.27651749 415.15859032 -42.27651749 415.15859032 -42.2906189 416.5381012 C-42.25881314 421.30166037 -42.04787551 424.55060726 -38.90625 428.3984375 C-36.23028659 429.7364192 -34.18553905 429.52619135 -31.18789673 429.52973938 C-29.9708757 429.53374756 -28.75385468 429.53775574 -27.49995422 429.54188538 C-26.14401243 429.54141026 -24.78807066 429.54087414 -23.43212891 429.5402832 C-22.00976961 429.54331398 -20.58741129 429.54683521 -19.16505432 429.55081177 C-16.09791582 429.55870721 -13.03078898 429.5638481 -9.96364212 429.56710243 C-5.11483437 429.57300562 -0.26610029 429.58953918 4.58267212 429.60844421 C6.24169727 429.61478176 7.90072246 429.62110738 9.5597477 429.62742138 C10.39064769 429.63058719 11.22154768 429.633753 12.07762647 429.63701475 C23.36879521 429.67911776 34.65992986 429.71207256 45.95117188 429.72436523 C53.56385835 429.73273835 61.17636278 429.7552011 68.78895819 429.7937209 C72.81889616 429.81350725 76.84856182 429.8258777 80.87855148 429.82088661 C84.66914007 429.81624925 88.45921228 429.82999475 92.24969673 429.85789871 C93.64125054 429.86482601 95.03285756 429.86492049 96.42440987 429.85769844 C98.32341946 429.84883776 100.2224979 429.86682101 102.12142944 429.88618469 C103.1844245 429.88857305 104.24741955 429.8909614 105.34262657 429.89342213 C108.77316782 430.52315617 109.95709123 431.69795423 112.09375 434.3984375 C112.80257303 437.30628631 112.43346789 439.3409765 112.09375 442.3984375 C110.28211733 445.07275239 109.21613923 445.35764109 106.09375 446.3984375 C104.16294296 446.49789335 102.22886789 446.53776615 100.29551697 446.54560852 C98.48092987 446.55634148 98.48092987 446.55634148 96.62968445 446.56729126 C95.28689601 446.57013153 93.94410729 446.57284326 92.60131836 446.57543945 C91.18854607 446.58170543 89.77577543 446.58835235 88.36300659 446.59535217 C83.71988063 446.61638687 79.07675439 446.62675706 74.43359375 446.63671875 C72.83309983 446.64076715 71.23260608 446.6448841 69.6321125 446.64906883 C62.10894747 446.66812272 54.58579223 446.68235082 47.06260771 446.6906808 C38.39171463 446.70044091 29.72107768 446.72672734 21.05027479 446.76718169 C14.34098187 446.79740457 7.63176208 446.81215569 0.92240244 446.81546181 C-3.08092612 446.81780615 -7.08398116 446.82668509 -11.0872364 446.85192299 C-14.85890477 446.87531579 -18.63012173 446.87939245 -22.40184402 446.86916161 C-24.43243036 446.86843526 -26.46299434 446.88744944 -28.4934845 446.90722656 C-37.01962746 446.85907224 -44.5691077 445.95711836 -51.34375 440.3984375 C-51.859375 439.7384375 -52.375 439.0784375 -52.90625 438.3984375 C-53.4425 437.7384375 -53.97875 437.0784375 -54.53125 436.3984375 C-57.0390086 432.75078863 -58.15529756 430.10599708 -58.18040466 425.64337158 C-58.19037979 424.69022064 -58.20035492 423.7370697 -58.21063232 422.7550354 C-58.211297 421.71600067 -58.21196167 420.67696594 -58.21264648 419.60644531 C-58.22097 418.5068045 -58.22929352 417.4071637 -58.23786926 416.27420044 C-58.26199472 412.63328525 -58.27074512 408.99254919 -58.27734375 405.3515625 C-58.28630895 402.82053574 -58.29543077 400.28950954 -58.30470276 397.75848389 C-58.32120283 392.44899881 -58.32892759 387.13958086 -58.33178711 381.83007812 C-58.33541828 375.70649385 -58.36528456 369.58341204 -58.40719169 363.4599812 C-58.44616561 357.55679939 -58.45738164 351.65376736 -58.45851326 345.75045013 C-58.46271592 343.24505644 -58.4751519 340.73966233 -58.49603081 338.23435211 C-58.52294493 334.72512867 -58.51811791 331.21728245 -58.50561523 327.70800781 C-58.52044952 326.67707001 -58.53528381 325.6461322 -58.55056763 324.58395386 C-58.46609251 316.23969444 -55.92772414 311.48858151 -50.15625 305.5859375 C-44.1182169 301.52187676 -38.8761583 300.22941949 -31.6015625 300.32421875 C-30.53180176 300.33493408 -29.46204102 300.34564941 -28.35986328 300.35668945 C-27.5501709 300.37046631 -26.74047852 300.38424316 -25.90625 300.3984375 C-25.92196045 299.7185376 -25.9376709 299.0386377 -25.95385742 298.33813477 C-26.01680057 295.21248935 -26.05542726 292.08697792 -26.09375 288.9609375 C-26.11888672 287.89166016 -26.14402344 286.82238281 -26.16992188 285.72070312 C-26.24261625 277.79701676 -25.31230568 271.35124326 -21.15625 264.5234375 C-15.29995646 258.9924936 -8.87137217 258.94161983 -1.22265625 258.96484375 C-0.20832016 258.9596019 0.80601593 258.95436005 1.85108948 258.94895935 C3.98836353 258.94255876 6.12567289 258.9438506 8.26293945 258.95239258 C11.51773311 258.96090216 14.77077001 258.93211303 18.02539062 258.90039062 C20.10937448 258.89877829 22.19336141 258.89935675 24.27734375 258.90234375 C25.24216171 258.89110977 26.20697968 258.87987579 27.20103455 258.86830139 C34.00347745 258.93783175 39.80245703 260.05912579 44.73052979 265.05909729 C49.69887415 271.16684337 48.64083419 278.97146063 48.40625 286.3984375 C48.303125 291.0184375 48.2 295.6384375 48.09375 300.3984375 C67.89375 299.9034375 67.89375 299.9034375 88.09375 299.3984375 C88.09375 262.7684375 88.09375 226.1384375 88.09375 188.3984375 C70.93375 188.0684375 53.77375 187.7384375 36.09375 187.3984375 C31.09375 182.3984375 31.09375 182.3984375 30.46875 179.3984375 C31.33715712 175.2300833 32.70520683 173.97479534 36.09375 171.3984375 C39.46038706 170.66584241 42.76273325 170.73385375 46.19703674 170.77938843 C47.22345825 170.77314945 48.24987975 170.76691047 49.30740494 170.76048243 C52.75163263 170.74554377 56.19472974 170.7662241 59.63891602 170.78662109 C62.10604251 170.78308086 64.57316666 170.77730439 67.0402832 170.76945496 C72.3550826 170.7572644 77.66955064 170.76013708 82.98431587 170.77628708 C90.67286681 170.79936167 98.36115955 170.79204354 106.04971909 170.77675588 C118.5298315 170.75248719 131.00986127 170.74827781 143.48999023 170.75878906 C144.61014157 170.7597248 144.61014157 170.7597248 145.75292223 170.76067944 C147.2643469 170.76195076 148.77577158 170.763225 150.28719625 170.76450215 C151.03655601 170.76513453 151.78591577 170.76576691 152.5579834 170.76641846 C153.30801317 170.7670566 154.05804295 170.76769475 154.83080089 170.76835223 C163.16316042 170.77515951 171.49551878 170.77714921 179.82788086 170.77734375 C180.57404152 170.77736658 181.32020218 170.77738941 182.08897377 170.77741294 C194.52382334 170.77734373 206.95864151 170.76532264 219.39347595 170.74638426 C227.06431048 170.73541346 234.73498072 170.73626194 242.40580725 170.752324 C248.27923293 170.76401293 254.15259036 170.76103403 260.02602386 170.75269508 C262.43835025 170.75188244 264.85068463 170.75626466 267.26299095 170.76613808 C270.54798422 170.77893615 273.8324558 170.77351662 277.1174469 170.76351929 C278.07901296 170.77177746 279.04057902 170.78003564 280.03128344 170.78854406 C285.02709604 170.75735166 285.02709604 170.75735166 289.6859436 169.14604378 C291.4429102 166.96500109 291.59419585 165.85780752 291.59495544 163.07165527 C291.60478958 162.18838058 291.61462372 161.3051059 291.62475586 160.39506531 C291.61508789 159.42873672 291.60541992 158.46240814 291.59545898 157.46679688 C291.60356346 155.93718071 291.60356346 155.93718071 291.61183167 154.37666321 C291.62436225 150.99821146 291.60779859 147.62060468 291.58984375 144.2421875 C291.58999864 141.89953568 291.59148589 139.55688359 291.59425354 137.2142334 C291.59563948 132.30139863 291.58304654 127.38885511 291.56030273 122.47607422 C291.53191786 116.17066506 291.53465299 109.86574008 291.54739285 103.5602951 C291.55433937 98.72194261 291.54657244 93.88370253 291.53413582 89.04536438 C291.52961134 86.7200819 291.52929317 84.39478739 291.53320122 82.06950378 C291.53610332 78.82277585 291.51965383 75.57672112 291.49780273 72.33007812 C291.50230438 71.36374954 291.50680603 70.39742096 291.51144409 69.40180969 C291.49658714 68.07689766 291.49658714 68.07689766 291.48143005 66.72521973 C291.47900016 65.95757545 291.47657026 65.18993118 291.47406673 64.39902496 C290.97412445 61.76916893 290.20868791 61.02510394 288.09375 59.3984375 C285.54772731 58.94831315 285.54772731 58.94831315 282.62331295 59.02370739 C281.47950285 59.01650085 280.33569275 59.0092943 279.15722173 59.00186938 C277.89498441 59.00924367 276.63274708 59.01661795 275.33226013 59.0242157 C273.98228344 59.02147662 272.63230888 59.01742585 271.28233963 59.01217204 C267.56458107 59.00155403 263.84706183 59.00973416 260.12931359 59.02092254 C256.12314487 59.02974315 252.1170082 59.02132728 248.11083984 59.01506042 C240.25984065 59.00555811 232.40893318 59.01218462 224.55794077 59.02432337 C215.42262274 59.03792341 206.28732673 59.0363073 197.15200115 59.03419004 C180.85725598 59.0309981 164.56255449 59.04267992 148.26782227 59.06225586 C132.44163686 59.08126402 116.61550264 59.08834285 100.78930664 59.08276367 C83.5707604 59.07671164 66.35223669 59.07687212 49.13369232 59.0882495 C47.2991966 59.08945684 45.46470088 59.09066283 43.63020515 59.09186745 C42.72750748 59.09247099 41.82480981 59.09307452 40.89475767 59.09369635 C34.52069623 59.09758235 28.14664316 59.09717926 21.7725811 59.0952816 C14.00993201 59.09316378 6.24732784 59.09835235 -1.51530857 59.11289515 C-5.47904374 59.12015965 -9.44271333 59.12419875 -13.40645409 59.11965179 C-17.03023603 59.1155958 -20.65388217 59.12068212 -24.27764343 59.13327787 C-26.21958054 59.13762434 -28.16153185 59.13209277 -30.10346514 59.12628859 C-31.24466749 59.13212079 -32.38586985 59.13795298 -33.56165409 59.14396191 C-35.04809818 59.14526207 -35.04809818 59.14526207 -36.56457144 59.1465885 C-39.09739058 59.17128568 -39.09739058 59.17128568 -40.90625 61.3984375 C-41.82394206 64.16779431 -42.03171257 66.69994882 -42.03323364 69.60423279 C-42.03605347 70.4355069 -42.03887329 71.26678101 -42.04177856 72.12324524 C-42.03975433 73.02673203 -42.0377301 73.93021881 -42.03564453 74.86108398 C-42.03739685 75.81924011 -42.03914917 76.77739624 -42.04095459 77.7645874 C-42.04535692 80.93292043 -42.04244054 84.10119765 -42.0390625 87.26953125 C-42.03973606 89.47144074 -42.04070652 91.67335016 -42.04196167 93.8752594 C-42.0434365 98.49114693 -42.04129117 103.10701511 -42.03662109 107.72290039 C-42.03092729 113.63896191 -42.03420198 119.55497802 -42.04019356 125.47103786 C-42.04380781 130.01862429 -42.04265654 134.56619995 -42.04006577 139.1137867 C-42.03939872 141.29507515 -42.04021717 143.47636459 -42.04254532 145.6576519 C-42.0450856 148.70725972 -42.0412116 151.75679413 -42.03564453 154.80639648 C-42.03766876 155.70785904 -42.03969299 156.60932159 -42.04177856 157.5381012 C-42.02796952 161.62276808 -41.93742419 165.41451244 -40.90625 169.3984375 C-38.11087043 170.33023069 -36.4041069 170.52735309 -33.51416016 170.5402832 C-32.62959137 170.54731766 -31.74502258 170.55435211 -30.83364868 170.56159973 C-29.88049774 170.56576401 -28.9273468 170.56992828 -27.9453125 170.57421875 C-25.92707287 170.59741441 -23.90884367 170.62153164 -21.890625 170.64648438 C-18.70858762 170.6816165 -15.52693442 170.71095569 -12.34472656 170.72436523 C-9.27361601 170.73983982 -6.20362678 170.78004307 -3.1328125 170.82421875 C-2.18371002 170.82231033 -1.23460754 170.82040192 -0.25674438 170.81843567 C4.04735534 170.89810878 6.46056304 171.0078358 10.19140625 173.30932617 C12.23528404 175.55386702 12.77716017 176.40783696 12.71875 179.3984375 C12.73808594 180.3884375 12.73808594 180.3884375 12.7578125 181.3984375 C11.67078576 184.67230627 10.02685723 185.60315972 7.09375 187.3984375 C3.59706233 187.98335569 0.14379483 187.93520963 -3.39453125 187.89453125 C-4.92028023 187.8967141 -4.92028023 187.8967141 -6.47685242 187.89894104 C-8.62611762 187.8972834 -10.77539485 187.88573725 -12.92456055 187.86499023 C-16.19697149 187.83612957 -19.46775182 187.84436643 -22.74023438 187.85742188 C-24.83334114 187.85118103 -26.92644282 187.8427874 -29.01953125 187.83203125 C-29.99062332 187.83496689 -30.96171539 187.83790253 -31.9622345 187.84092712 C-39.93641154 187.73148948 -47.11419191 186.3470377 -52.90625 180.3984375 C-57.67761686 173.76192308 -58.63030213 168.17331248 -58.53735352 160.13061523 C-58.54450882 159.03999786 -58.55166412 157.94938049 -58.55903625 156.82571411 C-58.57585519 153.24405194 -58.55656016 149.66365332 -58.53515625 146.08203125 C-58.5359855 143.58057044 -58.53844702 141.07910969 -58.54246521 138.57765198 C-58.54568308 132.67637389 -58.52387913 126.77555281 -58.49251264 120.87436777 C-58.46965105 116.1782486 -58.46949491 111.48252631 -58.48266602 106.78637695 C-58.50081544 100.2919902 -58.49933069 93.79795972 -58.48045158 87.30357552 C-58.47527973 84.834499 -58.47573942 82.36540388 -58.48199654 79.89632988 C-58.48746423 76.44277141 -58.46702233 72.99029977 -58.43969727 69.53686523 C-58.44622314 68.52313339 -58.45274902 67.50940155 -58.45947266 66.46495056 C-58.36316319 59.28370224 -56.90806548 53.87705141 -52.16015625 48.375 C-51.32291016 47.70597656 -51.32291016 47.70597656 -50.46875 47.0234375 C-49.91316406 46.56195313 -49.35757813 46.10046875 -48.78515625 45.625 C-43.83230997 42.39174899 -39.39136922 42.13872964 -33.59375 42.2734375 C-32.85318359 42.28246094 -32.11261719 42.29148438 -31.34960938 42.30078125 C-29.53501533 42.32419537 -27.72058929 42.36006135 -25.90625 42.3984375 C-25.92196045 41.68824463 -25.9376709 40.97805176 -25.95385742 40.24633789 C-26.0167614 36.9846209 -26.05541537 33.72303213 -26.09375 30.4609375 C-26.11888672 29.34396484 -26.14402344 28.22699219 -26.16992188 27.07617188 C-26.24084889 19.01413449 -25.71315162 12.0875082 -20.71875 5.5234375 C-14.22073695 0.61382764 -7.87116823 -0.05467852 0 0 Z M-9.90625 18.3984375 C-10.18433217 20.92221405 -10.18433217 20.92221405 -10.1015625 23.84375 C-10.09656738 24.81328613 -10.09157227 25.78282227 -10.08642578 26.78173828 C-10.06821777 28.01649902 -10.05000977 29.25125977 -10.03125 30.5234375 C-9.99 34.4421875 -9.94875 38.3609375 -9.90625 42.3984375 C3.95375 42.3984375 17.81375 42.3984375 32.09375 42.3984375 C32.114375 38.2940625 32.135 34.1896875 32.15625 29.9609375 C32.165354 28.66486572 32.17445801 27.36879395 32.18383789 26.03344727 C32.18633545 25.02080811 32.18883301 24.00816895 32.19140625 22.96484375 C32.19664307 21.92271729 32.20187988 20.88059082 32.20727539 19.80688477 C32.36680556 17.44715003 32.36680556 17.44715003 31.09375 16.3984375 C28.23280783 16.28494589 25.39691544 16.23425258 22.53515625 16.23046875 C21.67566879 16.22714035 20.81618134 16.22381195 19.9306488 16.22038269 C18.10896339 16.2153098 16.28726864 16.21297448 14.46557617 16.21313477 C11.6715571 16.21094947 8.87793343 16.19280106 6.08398438 16.17382812 C4.31770969 16.1708941 2.55143312 16.16890936 0.78515625 16.16796875 C-0.05446152 16.16078323 -0.89407928 16.15359772 -1.75914001 16.14619446 C-6.3086776 15.95931619 -6.3086776 15.95931619 -9.90625 18.3984375 Z M104.09375 17.3984375 C104.00637355 19.25213361 103.98676847 21.10911291 103.99609375 22.96484375 C103.99859131 23.97748291 104.00108887 24.99012207 104.00366211 26.03344727 C104.01276611 27.32951904 104.02187012 28.62559082 104.03125 29.9609375 C104.051875 34.0653125 104.0725 38.1696875 104.09375 42.3984375 C117.95375 42.3984375 131.81375 42.3984375 146.09375 42.3984375 C146.135 38.4796875 146.17625 34.5609375 146.21875 30.5234375 C146.23695801 29.28867676 146.25516602 28.05391602 146.27392578 26.78173828 C146.2789209 25.81220215 146.28391602 24.84266602 146.2890625 23.84375 C146.29953613 22.84875488 146.31000977 21.85375977 146.32080078 20.82861328 C146.33754401 18.21672333 146.33754401 18.21672333 144.09375 16.3984375 C141.1645197 16.21075097 138.33146603 16.14290109 135.40234375 16.16796875 C134.11167747 16.16865608 134.11167747 16.16865608 132.79493713 16.1693573 C130.97501243 16.17238045 129.15509033 16.18026862 127.33520508 16.19262695 C124.53913276 16.21088602 121.74339134 16.21313665 118.94726562 16.21289062 C117.18228878 16.2178056 115.4173142 16.22363383 113.65234375 16.23046875 C112.81070175 16.23158157 111.96905975 16.2326944 111.10191345 16.23384094 C107.28913615 15.89423455 107.28913615 15.89423455 104.09375 17.3984375 Z M217.09375 18.3984375 C216.81566783 20.92221405 216.81566783 20.92221405 216.8984375 23.84375 C216.90343262 24.81328613 216.90842773 25.78282227 216.91357422 26.78173828 C216.93178223 28.01649902 216.94999023 29.25125977 216.96875 30.5234375 C217.01 34.4421875 217.05125 38.3609375 217.09375 42.3984375 C230.95375 42.3984375 244.81375 42.3984375 259.09375 42.3984375 C259.114375 38.2940625 259.135 34.1896875 259.15625 29.9609375 C259.165354 28.66486572 259.17445801 27.36879395 259.18383789 26.03344727 C259.18633545 25.02080811 259.18883301 24.00816895 259.19140625 22.96484375 C259.19664307 21.92271729 259.20187988 20.88059082 259.20727539 19.80688477 C259.36680556 17.44715003 259.36680556 17.44715003 258.09375 16.3984375 C255.23280783 16.28494589 252.39691544 16.23425258 249.53515625 16.23046875 C248.67566879 16.22714035 247.81618134 16.22381195 246.9306488 16.22038269 C245.10896339 16.2153098 243.28726864 16.21297448 241.46557617 16.21313477 C238.6715571 16.21094947 235.87793343 16.19280106 233.08398438 16.17382812 C231.31770969 16.1708941 229.55143312 16.16890936 227.78515625 16.16796875 C226.94553848 16.16078323 226.10592072 16.15359772 225.24085999 16.14619446 C220.6913224 15.95931619 220.6913224 15.95931619 217.09375 18.3984375 Z M364.09375 146.3984375 C364.09375 154.6484375 364.09375 162.8984375 364.09375 171.3984375 C377.95375 171.3984375 391.81375 171.3984375 406.09375 171.3984375 C406.114375 167.6446875 406.135 163.8909375 406.15625 160.0234375 C406.165354 158.84088379 406.17445801 157.65833008 406.18383789 156.43994141 C406.18633545 155.51101074 406.18883301 154.58208008 406.19140625 153.625 C406.19664307 152.67189941 406.20187988 151.71879883 406.20727539 150.73681641 C406.25017599 148.37519344 406.25017599 148.37519344 405.09375 146.3984375 C391.56375 146.3984375 378.03375 146.3984375 364.09375 146.3984375 Z M104.09375 191.3984375 C103.50182993 193.5321167 103.50182993 193.5321167 103.58581543 195.83874512 C103.57453613 196.72194931 103.56325684 197.6051535 103.55163574 198.51512146 C103.55973267 199.47628372 103.56782959 200.43744598 103.57617188 201.42773438 C103.5691626 202.44601822 103.56215332 203.46430206 103.55493164 204.51344299 C103.53731695 207.88163468 103.54898724 211.24898716 103.5625 214.6171875 C103.5598061 216.95601564 103.55592453 219.29484269 103.55090332 221.63366699 C103.54500354 226.53632262 103.55358701 231.43868682 103.57226562 236.34130859 C103.59505503 242.62986192 103.58193458 248.91773242 103.55797577 255.20626068 C103.543531 260.03608355 103.5481178 264.86574418 103.55848694 269.6955719 C103.56115786 272.01445089 103.55787168 274.33334455 103.54856873 276.65220642 C103.53842529 279.89158219 103.55387445 283.12984769 103.57617188 286.36914062 C103.56807495 287.33030289 103.55997803 288.29146515 103.55163574 289.28175354 C103.56291504 290.16495773 103.57419434 291.04816193 103.58581543 291.95812988 C103.58732353 292.72355354 103.58883163 293.4889772 103.59038544 294.27759552 C104.30966202 297.30814649 105.70404895 298.43996452 108.09375 300.3984375 C110.72704475 300.9933966 110.72704475 300.9933966 113.66603088 300.89900875 C114.80711524 300.90882304 115.9481996 300.91863733 117.12386227 300.92874902 C118.37793157 300.91914402 119.63200087 300.90953901 120.92407227 300.89964294 C122.26936462 300.9035349 123.61465287 300.9091745 124.95993137 300.91641384 C128.66023043 300.93120202 132.36010539 300.92096766 136.06039095 300.90667713 C140.04954935 300.89559016 144.03864714 300.90750237 148.02780151 300.91651917 C155.84393149 300.93046922 163.65990016 300.92288248 171.47602248 300.90784358 C180.57359702 300.89100378 189.67113115 300.89419118 198.76871645 300.89793766 C214.99851289 300.90381948 231.2282318 300.88963209 247.45800781 300.86499023 C263.21519883 300.84106852 278.97228627 300.83398556 294.72949219 300.84448242 C311.87812229 300.85588569 329.02670446 300.85782901 346.17533398 300.84338433 C348.00310961 300.84185845 349.83088525 300.84033809 351.65866089 300.83882332 C352.55801804 300.8380655 353.45737518 300.83730769 354.38398558 300.83652691 C360.72907094 300.83177951 367.07413493 300.83363875 373.41921997 300.83788872 C381.14923656 300.84280989 388.87915511 300.83685563 396.60914922 300.81699442 C400.55493888 300.80710683 404.5005791 300.80203303 408.4463768 300.80988693 C412.05609877 300.81692501 415.66551869 300.81018346 419.27520072 300.7922833 C421.20467463 300.78629975 423.13417671 300.795083 425.06363773 300.80432981 C426.20472209 300.79588987 427.34580645 300.78744993 428.52146912 300.77875423 C429.50809257 300.7777251 430.49471601 300.77669598 431.51123714 300.77563566 C434.52487837 300.3354675 435.89251813 299.46807644 438.09375 297.3984375 C439.14172178 294.67670798 439.2221965 292.09706091 439.23419189 289.19937134 C439.23990204 288.36954239 439.24561218 287.53971344 439.25149536 286.68473816 C439.25261322 285.78282242 439.25373108 284.88090668 439.25488281 283.95166016 C439.25984772 282.99511032 439.26481262 282.03856049 439.26992798 281.05302429 C439.28452982 277.88950887 439.29134788 274.72604358 439.296875 271.5625 C439.30262752 269.36298623 439.30838524 267.16347248 439.31414795 264.96395874 C439.32465192 260.3522722 439.33049873 255.74060307 439.33398438 251.12890625 C439.33947168 245.2218262 439.36350745 239.31497634 439.39195633 233.40796852 C439.41058492 228.86462736 439.41578841 224.32134167 439.41732025 219.77796555 C439.42034615 217.60028193 439.42837255 215.42259927 439.44150543 213.24495316 C439.4585723 210.19779196 439.4566841 207.15119359 439.45019531 204.10400391 C439.4594101 203.20613663 439.46862488 202.30826935 439.4781189 201.38319397 C439.44435292 196.31771749 438.94808874 192.77223144 436.09375 188.3984375 C433.51154538 187.10733519 431.66050452 187.26945677 428.76756477 187.26421642 C427.63046251 187.25975858 426.49336025 187.25530074 425.32180035 187.25070781 C423.43195788 187.25098435 423.43195788 187.25098435 421.50393677 187.25126648 C420.16037542 187.24796867 418.81681507 187.24424328 417.47325599 187.240125 C413.76858258 187.23008763 410.06392538 187.22638543 406.35924029 187.22373569 C402.36869792 187.21983785 398.37816844 187.21025925 394.38763428 187.20152283 C384.745062 187.18174506 375.10248865 187.17169115 365.45990115 187.16279504 C360.92273853 187.15841482 356.38557707 187.15304738 351.84841537 187.14780617 C336.77273615 187.13079359 321.69705767 187.11629794 306.62137032 187.10905743 C302.7077039 187.10714743 298.79403749 187.10522711 294.88037109 187.10327148 C293.90761092 187.10278774 292.93485075 187.102304 291.932613 187.1018056 C276.16354812 187.09349976 260.39455895 187.06815364 244.62552716 187.03569081 C228.44818546 187.00265794 212.2708823 186.98461214 196.09350669 186.98141319 C187.00542689 186.97924473 177.91745756 186.97044701 168.82941055 186.94495201 C161.09202929 186.92329658 153.35478531 186.9151691 145.61737718 186.92491879 C141.66749067 186.92947838 137.71788772 186.92748173 133.7680397 186.90815735 C130.15448837 186.89063041 126.54142964 186.89143707 122.92787383 186.90705464 C120.99628939 186.91058298 119.0647004 186.89432661 117.13318646 186.87745017 C115.99086871 186.88603106 114.84855095 186.89461195 113.67161751 186.90345287 C112.68390991 186.90247606 111.69620232 186.90149926 110.67856419 186.90049285 C107.36563819 187.53870266 106.17486184 188.79944482 104.09375 191.3984375 Z M-8.90625 275.3984375 C-10.18486615 277.95566979 -10.01961609 279.76580852 -10.00390625 282.625 C-10.00140869 283.55393066 -9.99891113 284.48286133 -9.99633789 285.43994141 C-9.98723389 286.62249512 -9.97812988 287.80504883 -9.96875 289.0234375 C-9.948125 292.7771875 -9.9275 296.5309375 -9.90625 300.3984375 C3.95375 300.3984375 17.81375 300.3984375 32.09375 300.3984375 C32.09375 292.1484375 32.09375 283.8984375 32.09375 275.3984375 C18.56375 275.3984375 5.03375 275.3984375 -8.90625 275.3984375 Z " fill="#FFFFFF" transform="translate(57.90625,32.6015625)"/>
</svg>
