<?xml version="1.0" encoding="UTF-8"?>
<svg version="1.1" xmlns="http://www.w3.org/2000/svg" width="2000" height="2000">
<path d="M0 0 C2.33403434 0.23228959 4.6690167 0.45079336 7.00469971 0.66583252 C58.75280757 5.46307341 109.91014963 14.53025862 160.28936768 27.22784424 C160.97323547 27.39993408 161.65710327 27.57202393 162.36169434 27.74932861 C181.543655 32.59017271 200.46335105 38.15454304 219.28936768 44.22784424 C220.60021928 44.64831923 221.91109201 45.06872836 223.22198486 45.48907471 C286.83642274 65.93970311 349.81759029 92.56593872 407.42315674 126.54229736 C410.12137579 128.12905242 412.82942277 129.69789702 415.54116821 131.26139832 C429.61601925 139.37875923 443.51383816 147.68966405 457.02911377 156.71905518 C459.28296969 158.22357339 461.54484108 159.71529486 463.80889893 161.20440674 C491.34929219 179.36800886 517.93905457 198.83786654 543.46466064 219.73516846 C545.07160463 221.04970626 546.68215958 222.35982726 548.29327393 223.66925049 C558.35833157 231.85901355 568.25697461 240.19433089 577.81671143 248.97003174 C579.90804706 250.87965575 582.02195632 252.75115676 584.16436768 254.60284424 C592.48165848 261.84418161 600.51715412 269.37469281 608.25811768 277.22784424 C610.14649243 279.08716708 612.0857952 280.82172508 614.10186768 282.54034424 C621.78225547 289.14547774 628.89131498 296.45654021 635.44952393 304.16925049 C637.79433063 306.79284525 640.28587405 309.25752894 642.78936768 311.72784424 C646.4934656 315.38776427 650.04224536 319.11728219 653.42218018 323.07940674 C655.31723683 325.25991126 657.2688886 327.38166955 659.23419189 329.49884033 C663.97318407 334.6067264 668.48193847 339.82789651 672.85186768 345.25909424 C675.71863571 348.75067069 678.68730086 352.1429397 681.66436768 355.54034424 C687.27457453 361.96868936 692.6040485 368.56665635 697.81329346 375.32208252 C699.40808247 377.38111709 701.01749059 379.42813313 702.62921143 381.47393799 C710.24600798 391.16283424 717.59935924 401.00757416 724.74102783 411.05157471 C726.22433548 413.13643821 727.71517418 415.21571944 729.20733643 417.29425049 C747.18707671 442.4409741 763.79063789 468.48883638 779.28936768 495.22784424 C779.82175049 496.14549561 780.3541333 497.06314697 780.90264893 498.00860596 C789.18940558 512.34661041 796.96489778 526.92121546 804.48028564 541.67706299 C805.69143686 544.05425371 806.90564295 546.42951666 808.12579346 548.80206299 C848.43474276 627.24691867 876.95814319 712.12320585 909.60186768 900.16534424 C909.71517929 901.2587764 909.71517929 901.2587764 909.83078003 902.3742981 C910.4023806 907.98601937 910.86713269 913.60302325 911.28936768 919.22784424 C911.37550323 920.36629791 911.46163879 921.50475159 911.55038452 922.67770386 C913.27955617 946.34243481 913.65328662 969.94835276 913.60722351 993.67043686 C913.60178424 996.58505126 913.59941641 999.49965755 913.59735107 1002.41427612 C913.56724216 1029.67956945 913.24192522 1056.80591232 910.51397705 1083.95788574 C910.2868631 1086.25315606 910.07499414 1088.54937536 909.86749268 1090.84649658 C903.38946139 1162.13406141 889.08732053 1233.09153382 866.95611572 1301.17150879 C866.28397645 1303.24447146 865.61880374 1305.31955666 864.9553833 1307.39532471 C850.20105985 1353.47997037 831.73746985 1398.24473027 810.12823486 1441.53546143 C808.3529013 1445.09289128 806.60486802 1448.66333309 804.85968018 1452.23565674 C797.84058685 1466.53959972 790.29420562 1480.45412068 782.28936768 1494.22784424 C781.60580747 1495.4101299 780.92255123 1496.59259135 780.23956299 1497.77520752 C772.35816358 1511.41390225 764.45283638 1525.01797739 755.69659424 1538.11993408 C754.12162421 1540.47911022 752.56086879 1542.8473968 751.00030518 1545.21612549 C732.24935371 1573.60119555 712.32981324 1601.08347703 690.77764893 1627.40753174 C689.47527389 1629.00046288 688.17870736 1630.59813944 686.88311768 1632.19659424 C678.62455521 1642.37018568 670.09592804 1652.31005809 661.28936768 1662.01300049 C659.49333239 1664.00196926 657.72983464 1666.01347618 655.97686768 1668.04034424 C648.70730564 1676.37251047 641.16388477 1684.43457025 633.28936768 1692.19659424 C631.43004484 1694.084969 629.69548683 1696.02427177 627.97686768 1698.04034424 C621.37173417 1705.72073203 614.06067171 1712.82979154 606.34796143 1719.38800049 C603.72436666 1721.7328072 601.25968297 1724.22435062 598.78936768 1726.72784424 C595.12944764 1730.43194216 591.39992972 1733.98072192 587.43780518 1737.36065674 C585.25730065 1739.2557134 583.13554236 1741.20736516 581.01837158 1743.17266846 C575.91048552 1747.91166063 570.68931541 1752.42041503 565.25811768 1756.79034424 C561.76654123 1759.65711227 558.37427221 1762.62577742 554.97686768 1765.60284424 C548.54852255 1771.21305109 541.95055556 1776.54252506 535.19512939 1781.75177002 C533.13609482 1783.34655903 531.08907878 1784.95596715 529.04327393 1786.56768799 C519.35437768 1794.18448455 509.50963776 1801.53783581 499.46563721 1808.67950439 C497.3807737 1810.16281204 495.30149247 1811.65365074 493.22296143 1813.14581299 C468.07623781 1831.12555327 442.02837553 1847.72911446 415.28936768 1863.22784424 C414.37171631 1863.76022705 413.45406494 1864.29260986 412.50860596 1864.84112549 C398.15662106 1873.13596225 383.56729582 1880.91543015 368.79620361 1888.43634033 C365.34045356 1890.20174648 361.89677374 1891.98916749 358.45343018 1893.77862549 C326.42098559 1910.27322691 293.04419216 1924.1271327 259.22796631 1936.51544189 C257.32421237 1937.2150394 255.42314092 1937.92146858 253.52276611 1938.63018799 C175.29404516 1967.7059853 92.759596 1985.35149324 9.78936768 1993.54034424 C9.03222473 1993.61588531 8.27508179 1993.69142639 7.49499512 1993.76925659 C1.76516929 1994.3307433 -3.96977319 1994.79496196 -9.71063232 1995.22784424 C-10.82305298 1995.3139798 -11.93547363 1995.40011536 -13.081604 1995.48886108 C-36.4167311 1997.2472877 -59.68836253 1997.59180969 -83.08314514 1997.54590225 C-86.00515803 1997.54025823 -88.92716511 1997.53744009 -91.84918213 1997.53482056 C-119.04735189 1997.49937653 -146.13662079 1997.27137226 -173.21765137 1994.48431396 C-175.85413162 1994.2130815 -178.49151802 1993.95210692 -181.12908936 1993.69171143 C-252.25715613 1986.58453642 -322.62326537 1972.99423159 -390.67047119 1950.88812256 C-392.71085897 1950.22777089 -394.75371401 1949.57569171 -396.79754639 1948.92608643 C-430.17314859 1938.30335278 -462.76857533 1925.5816994 -494.71063232 1911.22784424 C-495.76299072 1910.75878662 -496.81534912 1910.289729 -497.89959717 1909.80645752 C-525.586492 1897.43293727 -552.99277322 1884.01641251 -579.17645264 1868.70001221 C-581.74538506 1867.20765551 -584.32998584 1865.74687349 -586.92156982 1864.29425049 C-632.76476125 1838.55268826 -676.23333834 1808.0030167 -716.89031982 1774.71612549 C-718.48325097 1773.41375045 -720.08092752 1772.11718392 -721.67938232 1770.82159424 C-731.85297377 1762.56303177 -741.79284618 1754.0344046 -751.49578857 1745.22784424 C-753.48475734 1743.43180895 -755.49626427 1741.66831121 -757.52313232 1739.91534424 C-765.85529855 1732.64578221 -773.91735833 1725.10236133 -781.67938232 1717.22784424 C-783.56775708 1715.3685214 -785.50705985 1713.63396339 -787.52313232 1711.91534424 C-795.20352012 1705.31021074 -802.31257962 1697.99914827 -808.87078857 1690.28643799 C-811.21559528 1687.66284322 -813.7071387 1685.19815954 -816.21063232 1682.72784424 C-819.91473025 1679.0679242 -823.46351001 1675.33840628 -826.84344482 1671.37628174 C-828.73850148 1669.19577721 -830.69015325 1667.07401892 -832.65545654 1664.95684814 C-837.39444871 1659.84896208 -841.90320312 1654.62779197 -846.27313232 1649.19659424 C-849.13990036 1645.70501779 -852.10856551 1642.31274877 -855.08563232 1638.91534424 C-860.69583917 1632.48699912 -866.02531315 1625.88903213 -871.23455811 1619.13360596 C-872.82934712 1617.07457138 -874.43875523 1615.02755534 -876.05047607 1612.98175049 C-884.2190093 1602.59102122 -892.05289251 1591.99930177 -899.71063232 1581.22784424 C-900.73009788 1579.80201602 -901.74962833 1578.37623419 -902.76922607 1576.95050049 C-909.96748305 1566.85195795 -916.89539589 1556.58793403 -923.71063232 1546.22784424 C-924.36467041 1545.24026123 -924.36467041 1545.24026123 -925.03192139 1544.23272705 C-944.96446249 1514.11345632 -962.6316863 1482.69184264 -979.02850342 1450.52471924 C-980.12850649 1448.36877708 -981.23282551 1446.21503015 -982.34197998 1444.06378174 C-1025.48097057 1360.38121841 -1055.28747449 1268.39441113 -1083.02313232 1094.22784424 C-1083.0986734 1093.49461945 -1083.17421448 1092.76139465 -1083.25204468 1092.00595093 C-1083.81782217 1086.41902712 -1084.28182548 1080.82682799 -1084.71063232 1075.22784424 C-1084.79676788 1074.12783081 -1084.88290344 1073.02781738 -1084.97164917 1071.89447021 C-1086.76822647 1048.2403625 -1087.07406938 1024.64271074 -1087.02869034 1000.92780304 C-1087.02304934 997.93380174 -1087.02022935 994.9398061 -1087.01760864 991.94580078 C-1086.9826173 964.4524482 -1086.79578031 937.06436368 -1083.96386719 909.69036865 C-1083.69686897 907.09400567 -1083.44294337 904.49657009 -1083.19061279 901.89874268 C-1074.66261714 815.05060774 -1055.22687352 729.68529706 -983.54949951 552.92022705 C-981.77416595 549.3627972 -980.02613267 545.79235538 -978.28094482 542.22003174 C-971.26185149 527.91608876 -963.71547027 514.0015678 -955.71063232 500.22784424 C-955.02707212 499.04555857 -954.34381587 497.86309713 -953.66082764 496.68048096 C-945.77942822 483.04178623 -937.87410103 469.43771108 -929.11785889 456.33575439 C-927.54288886 453.97657826 -925.98213344 451.60829168 -924.42156982 449.23956299 C-905.67178324 420.85625632 -885.75342511 393.37555699 -864.20330811 367.05255127 C-862.8887703 365.44560728 -861.57864931 363.83505233 -860.26922607 362.22393799 C-852.07946302 352.15888035 -843.74414567 342.2602373 -834.96844482 332.70050049 C-833.05882081 330.60916485 -831.18731981 328.4952556 -829.33563232 326.35284424 C-822.09429495 318.03555344 -814.56378376 310.00005779 -806.71063232 302.25909424 C-804.85130949 300.37071948 -803.11675148 298.43141671 -801.39813232 296.41534424 C-794.79299882 288.73495644 -787.48193635 281.62589694 -779.76922607 275.06768799 C-777.14563131 272.72288128 -774.68094762 270.23133786 -772.21063232 267.72784424 C-768.55071229 264.02374632 -764.82119437 260.47496655 -760.85906982 257.09503174 C-758.6785653 255.19997508 -756.55680701 253.24832332 -754.43963623 251.28302002 C-749.33175017 246.54402785 -744.11058005 242.03527345 -738.67938232 237.66534424 C-735.18780588 234.79857621 -731.79553686 231.82991106 -728.39813232 228.85284424 C-721.9697872 223.24263739 -715.37182021 217.91316341 -708.61639404 212.70391846 C-706.55735947 211.10912945 -704.51034343 209.49972133 -702.46453857 207.88800049 C-692.77564233 200.27120393 -682.93090241 192.91785267 -672.88690186 185.77618408 C-670.80203835 184.29287644 -668.72275712 182.80203774 -666.64422607 181.30987549 C-641.49675347 163.32959968 -615.44730757 146.73186945 -588.71063232 131.22784424 C-587.80361572 130.70077881 -586.89659912 130.17371338 -585.96209717 129.63067627 C-570.97589034 120.95304555 -555.69896236 112.88998469 -540.26824951 105.04034424 C-536.93407502 103.34168164 -533.60719261 101.62945892 -530.28094482 99.91534424 C-448.312282 57.97179147 -358.52656346 29.37889084 -178.01574707 0.44073486 C-175.73134357 0.22975704 -173.44882597 0.00405391 -171.16619873 -0.22528076 C-115.07394534 -5.77104526 -56.0769595 -5.64535163 0 0 Z " fill="#FF0420" transform="translate(1086.7106323242188,2.77215576171875)"/>
<path d="M0 0 C0.8362088 0.00060425 1.6724176 0.0012085 2.53396606 0.00183105 C60.09347776 0.11436053 120.04853885 13.92659327 162.3125 55.375 C193.36991027 86.72008987 206.05742455 126.37572009 205.9296875 169.80517578 C205.74952703 197.68720514 199.93169109 224.89611193 194.6875 252.1875 C194.42422913 253.56149963 194.42422913 253.56149963 194.15563965 254.96325684 C181.70997664 319.7613359 168.19073049 389.62907543 128.6875 444.1875 C127.97464844 445.19167969 127.26179688 446.19585938 126.52734375 447.23046875 C114.82865767 463.30289228 101.37049325 477.95131845 85.6875 490.1875 C84.7284375 490.9403125 83.769375 491.693125 82.78125 492.46875 C75.71440639 497.89906141 68.4210487 502.76143154 60.6875 507.1875 C59.67719727 507.76951172 59.67719727 507.76951172 58.64648438 508.36328125 C29.02999075 525.21819632 -4.59124801 534.32667434 -38.3125 538.1875 C-39.01914795 538.27223572 -39.7257959 538.35697144 -40.45385742 538.4442749 C-56.02698973 540.27758527 -71.51791261 540.58924763 -87.1875 540.5625 C-89.07219498 540.56118576 -89.07219498 540.56118576 -90.9949646 540.55984497 C-149.37806942 540.42567576 -207.71911391 526.59074382 -250.875 484.9375 C-264.63973093 470.8203293 -274.21219641 454.5403315 -281.3125 436.1875 C-281.97378906 434.54007813 -281.97378906 434.54007813 -282.6484375 432.859375 C-293.88634211 402.48297829 -292.66847397 366.70152828 -287.3125 335.1875 C-287.05509033 333.60026123 -287.05509033 333.60026123 -286.79248047 331.98095703 C-283.88122323 314.12056299 -280.08063722 296.47629675 -276.125 278.82568359 C-274.99912367 273.78427461 -273.90419084 268.73639949 -272.8125 263.6875 C-272.41820225 261.8723451 -272.02366498 260.05724221 -271.62890625 258.2421875 C-270.91352765 254.95222901 -270.19842101 251.66221231 -269.48388672 248.37207031 C-267.44208017 238.97380676 -265.38357274 229.57935891 -263.3125 220.1875 C-263.1180127 219.29772461 -262.92352539 218.40794922 -262.72314453 217.49121094 C-252.39913289 170.45400668 -234.00102469 122.12691703 -202.3125 85.1875 C-201.43749244 84.11956129 -200.56390623 83.05045712 -199.69140625 81.98046875 C-183.07491316 61.82201673 -162.90202205 46.1441467 -140.3125 33.1875 C-139.64347656 32.7961084 -138.97445312 32.4047168 -138.28515625 32.00146484 C-120.37680238 21.59777511 -100.57902708 14.34281516 -80.43164062 9.68896484 C-78.41612623 9.21202169 -76.4203714 8.68786611 -74.421875 8.14453125 C-50.32889898 1.76991245 -24.83197671 -0.03322374 0 0 Z " fill="#FFFEFE" transform="translate(796.3125,724.8125)"/>
<path d="M0 0 C2.24486103 -0.00158325 4.4897215 -0.00578239 6.73457336 -0.01239014 C12.81597172 -0.02263489 18.89668997 0.00437355 24.97797918 0.03866386 C31.36275357 0.06883864 37.74752098 0.06639058 44.13235474 0.06799316 C54.86392987 0.07537367 65.59519371 0.10508451 76.32666016 0.15039062 C87.32570515 0.19679172 98.32458836 0.22522571 109.32373047 0.23242188 C109.99979115 0.23286741 110.67585183 0.23331294 111.3723992 0.23377198 C112.73469668 0.2346573 114.09699416 0.23554135 115.45929164 0.23642412 C116.46774189 0.23708282 116.46774189 0.23708282 117.49656487 0.23775482 C118.16735144 0.23818679 118.83813801 0.23861877 119.52925145 0.23906383 C130.7003397 0.2469582 141.87139777 0.27234636 153.04245615 0.29844856 C156.8242511 0.30659756 160.60604455 0.31247388 164.38784409 0.31803894 C170.36498889 0.3279298 176.34201298 0.34850841 182.31909752 0.37691498 C184.49732176 0.38585331 186.67556208 0.39161227 188.85380363 0.39373016 C243.70813319 0.45895283 299.54742766 13.28326751 339.39892578 53.13476562 C363.05646969 78.09755333 369.91676566 110.47146738 369.08642578 143.86669922 C368.85418594 149.91011892 368.06048707 155.76014692 366.97705078 161.71289062 C366.705934 163.33654124 366.43512219 164.96024279 366.16455078 166.58398438 C357.05087435 219.3559028 332.21955117 271.03085627 287.85205078 302.77539062 C247.72027424 330.74847543 197.35134213 342.97485775 148.79467773 342.82641602 C147.52510727 342.82656204 146.2555368 342.82670807 144.94749451 342.82685852 C141.50196024 342.82714278 138.05646153 342.82130661 134.61093545 342.81428456 C130.99682567 342.8079887 127.38271488 342.80744233 123.76860046 342.80625916 C116.94076053 342.80316408 110.11293681 342.79497552 103.28510398 342.78490967 C95.50507172 342.77369158 87.72503864 342.76822379 79.94500029 342.76321423 C63.95567443 342.75279119 47.96636471 342.73522743 31.97705078 342.71289062 C31.82324951 343.96416748 31.66944824 345.21544434 31.51098633 346.50463867 C29.97948421 358.96443934 27.00079475 371.20510199 24.2421875 383.43554688 C22.48254629 391.28910343 20.90264673 399.15651287 19.44604492 407.07104492 C18.10619904 414.25723948 16.48888803 421.36478729 14.83227539 428.48364258 C13.39827673 434.70313735 12.13448474 440.93639918 10.97705078 447.21289062 C9.47623395 455.35146647 7.71710289 463.40437413 5.8347168 471.46264648 C4.35245001 477.87326512 3.09180799 484.30251881 1.91455078 490.77539062 C-2.49709077 514.56619429 -2.49709077 514.56619429 -9.02294922 520.71289062 C-16.07602627 525.38161333 -22.29822158 526.44163596 -30.61962891 526.35986328 C-31.73311203 526.36862488 -32.84659515 526.37738647 -33.99382019 526.38641357 C-37.64456064 526.4082759 -41.29407323 526.39390436 -44.94482422 526.37695312 C-47.49448884 526.38032405 -50.04415189 526.38517897 -52.59381104 526.39144897 C-57.92306385 526.39880172 -63.25188235 526.3886442 -68.58105469 526.36474609 C-74.73099748 526.33748483 -80.88011263 526.34639803 -87.03003573 526.37387812 C-92.96747365 526.39933973 -98.90465552 526.39659942 -104.8421402 526.38196945 C-107.36032477 526.37863662 -109.87853053 526.38271812 -112.39669037 526.39436722 C-115.91297931 526.40707012 -119.42767722 526.38770602 -122.94384766 526.35986328 C-123.98190048 526.36998444 -125.01995331 526.38010559 -126.08946228 526.39053345 C-130.65630654 526.32356145 -133.98025317 526.25840716 -137.63116455 523.32894897 C-142.12850874 518.40989628 -142.52857001 513.95057625 -142.39013672 507.49804688 C-141.87675248 502.20582002 -140.68066973 497.17457486 -139.43261719 492.01293945 C-137.10843879 482.34772022 -135.1368868 472.62233018 -133.17315674 462.87844849 C-130.2976743 448.61346949 -127.35014451 434.38811596 -123.98681641 420.22900391 C-122.22306749 412.75365222 -120.7379574 405.24882376 -119.34985352 397.69555664 C-118.3670161 392.38285204 -117.17312506 387.18076236 -115.79638672 381.95507812 C-114.75974802 377.60957247 -113.96019481 373.23007776 -113.14794922 368.83789062 C-111.86002833 361.9011939 -110.44736591 355.01879268 -108.83544922 348.15039062 C-106.18161029 336.80301503 -103.89623643 325.38376654 -101.58544922 313.96289062 C-98.87137005 300.55108342 -96.06931754 287.18259592 -92.91430664 273.86645508 C-91.31085919 267.07441323 -89.95604971 260.2770589 -88.72998047 253.40820312 C-87.96558441 249.41307235 -87.04666995 245.47661748 -86.08544922 241.52539062 C-84.28255667 234.11359494 -82.8415776 226.65865343 -81.45288086 219.15942383 C-80.60650521 214.63445731 -79.69831368 210.16656894 -78.52294922 205.71289062 C-77.13958343 200.4620506 -76.13475454 195.17400288 -75.14794922 189.83789062 C-73.86002833 182.9011939 -72.44736591 176.01879268 -70.83544922 169.15039062 C-68.18161029 157.80301503 -65.89623643 146.38376654 -63.58544922 134.96289062 C-60.87137005 121.55108342 -58.06931754 108.18259592 -54.91430664 94.86645508 C-53.31085919 88.07441323 -51.95604971 81.2770589 -50.72998047 74.40820312 C-49.96558164 70.41305789 -49.04647294 66.4766731 -48.08544922 62.52539062 C-46.53532645 56.14018521 -45.2251916 49.73486637 -44.02294922 43.27539062 C-43.52118856 40.62249818 -43.01795005 37.9698906 -42.51416016 35.31738281 C-42.18979901 33.59755941 -41.87004406 31.87686011 -41.55517578 30.15527344 C-38.28451371 12.47433704 -38.28451371 12.47433704 -32.02294922 6.71289062 C-31.44781019 6.18329994 -30.87267117 5.65370926 -30.28010368 5.10807037 C-21.37486802 -1.50701878 -10.55146278 -0.09568813 0 0 Z " fill="#FFFEFE" transform="translate(1164.02294921875,732.287109375)"/>
<path d="M0 0 C1.14210938 -0.01224609 2.28421875 -0.02449219 3.4609375 -0.03710938 C20.13218184 -0.06552627 34.75955168 3.70579911 48.625 13.1875 C49.23730469 13.59097656 49.84960938 13.99445312 50.48046875 14.41015625 C59.96688765 21.50868938 65.87535616 33.97624499 68.625 45.1875 C68.84800781 46.03570313 69.07101562 46.88390625 69.30078125 47.7578125 C79.03882442 93.20201395 59.0577865 149.91308016 48.60449219 194.02441406 C47.76849842 197.56025314 46.95895649 201.10164918 46.15516663 204.64492798 C37.16955523 244.16151671 24.18828987 284.69627763 -11.65600586 307.79052734 C-30.70529195 319.55390488 -50.67788341 324.36404705 -73 324.375 C-74.93552734 324.39336914 -74.93552734 324.39336914 -76.91015625 324.41210938 C-95.7112167 324.44050977 -113.5272215 320.96841693 -127.84765625 307.9375 C-142.04607961 293.14648802 -145.77965473 273.77792085 -145.74536133 253.94189453 C-145.21608378 228.35344647 -139.36033778 201.52387914 -133.01586914 176.77490234 C-132.23448981 173.62021354 -131.65858511 170.45532201 -131.125 167.25 C-129.07734855 155.72979757 -126.10596672 144.40498523 -123.31445312 133.04833984 C-122.39309112 129.2618485 -121.49684176 125.47034688 -120.609375 121.67578125 C-107.90832425 67.53371066 -107.90832425 67.53371066 -92.375 46.1875 C-91.9919873 45.66075684 -91.60897461 45.13401367 -91.21435547 44.59130859 C-74.47798518 21.75947246 -51.48208908 6.47828365 -23.375 1.1875 C-15.61421483 0.03950896 -7.83095155 0.00438955 0 0 Z " fill="#FF0420" transform="translate(792.375,832.8125)"/>
<path d="M0 0 C13.18770789 -0.06976424 26.37537128 -0.12294491 39.5632267 -0.15543652 C45.68805117 -0.17103733 51.81274861 -0.1921729 57.9375 -0.22631836 C63.85733652 -0.25911178 69.77705149 -0.27689493 75.69697189 -0.28463173 C77.94620042 -0.29013955 80.19542292 -0.30089414 82.44459915 -0.31719017 C101.91123221 -0.45251742 121.8864361 0.07669632 136.80078125 14.390625 C148.15964277 27.86792428 147.03147958 44.35987545 146 61 C143.56481298 80.38733563 133.06148026 101.4159221 118 114 C95.55630119 131.31371051 71.7728346 135.34150293 44.16796875 135.1953125 C42.079047 135.19157507 39.99012348 135.18873155 37.90119934 135.18673706 C32.44492621 135.17915805 26.98876222 135.15955978 21.53253174 135.1373291 C15.94813513 135.11674616 10.36372061 135.10770891 4.77929688 135.09765625 C-6.14718295 135.07630767 -17.07358235 135.04224223 -28 135 C-27.10992028 127.72928418 -25.82269754 120.62011 -24.375 113.4375 C-24.1810817 112.46947952 -24.1810817 112.46947952 -23.98324585 111.48190308 C-21.65630308 99.88548987 -19.10858364 88.3443446 -16.44873047 76.82006836 C-14.64210985 68.97325296 -12.99293844 61.10893456 -11.43765259 53.20870972 C-9.99964927 45.95151077 -8.51469361 38.70357228 -7.03833008 31.45410156 C-6.63490812 29.47059659 -6.23257948 27.48686897 -5.83129883 25.50292969 C-5.24302625 22.59516196 -4.65118017 19.68814126 -4.05859375 16.78125 C-3.88146347 15.90198853 -3.70433319 15.02272705 -3.52183533 14.11682129 C-3.3514827 13.28485229 -3.18113007 12.4528833 -3.00561523 11.59570312 C-2.85922104 10.87483521 -2.71282684 10.15396729 -2.56199646 9.41125488 C-1.8228011 6.23972528 -0.91174991 3.12569431 0 0 Z " fill="#FF0521" transform="translate(1245,837)"/>
</svg>
