<?xml version="1.0" encoding="UTF-8"?>
<svg version="1.1" xmlns="http://www.w3.org/2000/svg" width="192" height="192">
<path d="M0 0 C4.88867501 2.49045708 6.07822644 4.13037741 9 9 C9 12.96 9 16.92 9 21 C21.87 21 34.74 21 48 21 C48 16.71 48 12.42 48 8 C52.24528302 1.58490566 52.24528302 1.58490566 57 0 C61.73039335 -0.38773716 64.05546399 -0.48117872 68.3125 1.6875 C71.94244554 4.81094151 73.83695448 7.2673696 74.29296875 12.11328125 C74.25816406 13.16902344 74.22335938 14.22476563 74.1875 15.3125 C74.14689453 16.91544922 74.14689453 16.91544922 74.10546875 18.55078125 C74.07066406 19.35902344 74.03585938 20.16726562 74 21 C75.31355469 20.96519531 76.62710938 20.93039063 77.98046875 20.89453125 C79.71613301 20.86638534 81.45181115 20.83908604 83.1875 20.8125 C84.48397461 20.77479492 84.48397461 20.77479492 85.80664062 20.73632812 C90.7165831 20.679892 94.01970288 20.78155663 98 24 C101.32332789 27.78171795 101.62308726 31.62317335 101.4921875 36.48828125 C100.67369011 40.66521636 98.28161205 43.38908238 95 46 C88.35169194 48.21610269 81.00793201 47 74 47 C74 59.54 74 72.08 74 85 C79.61 85 85.22 85 91 85 C98.70588235 88.85294118 98.70588235 88.85294118 101 93 C101.81529751 97.97497868 101.52855107 101.83718764 99.4375 106.4375 C95.56250483 110.51121287 91.3503006 112.14799541 85.81640625 112.29296875 C84.39813727 112.27336134 82.98000243 112.23807877 81.5625 112.1875 C80.83095703 112.17396484 80.09941406 112.16042969 79.34570312 112.14648438 C77.56347578 112.11153874 75.78163427 112.05774805 74 112 C74.04640625 112.65226562 74.0928125 113.30453125 74.140625 113.9765625 C74.32417615 118.42112256 74.30462522 121.3556005 72.375 125.4375 C69.1903226 128.8735993 66.60866075 130.88938541 61.7890625 131.09375 C56.72911862 130.7575411 53.63158147 129.74162939 50 126 C48 123 48 123 48 112 C35.13 112 22.26 112 9 112 C9.15785497 122.59050454 9.15785497 122.59050454 9.36035156 133.18017578 C9.37204587 134.51854164 9.38223594 135.85692184 9.390625 137.1953125 C9.4213208 138.21806274 9.4213208 138.21806274 9.45263672 139.26147461 C9.4562858 144.31362512 8.14032735 147.09813964 5 151 C1.43914404 153.96737997 -1.57694377 154.47975619 -6.078125 154.28515625 C-10.24096768 153.6674987 -12.47374952 151.57010468 -15.25 148.5625 C-18.22683073 144.20356929 -18.12054252 140.48369402 -18.09765625 135.265625 C-18.09443359 133.97011719 -18.09121094 132.67460937 -18.08789062 131.33984375 C-18.07953598 129.97656183 -18.07107104 128.61328058 -18.0625 127.25 C-18.05748168 125.87109535 -18.05291935 124.49218896 -18.04882812 123.11328125 C-18.03704093 119.74214341 -18.02058635 116.37109372 -18 113 C-18.56396484 112.9906543 -19.12792969 112.98130859 -19.70898438 112.97167969 C-22.30681992 112.91742514 -24.90295919 112.83389317 -27.5 112.75 C-28.386875 112.73582031 -29.27375 112.72164063 -30.1875 112.70703125 C-37.15941632 112.4507108 -43.08314428 111.0991592 -48 105.875 C-49.51177289 101.52865293 -49.7774516 97.54118927 -49 93 C-47.3199462 89.619151 -45.07817008 87.51681618 -41.6418457 85.86962891 C-38.9465598 84.98240884 -36.74558455 84.69002152 -33.91796875 84.5859375 C-32.65762817 84.53252197 -32.65762817 84.53252197 -31.37182617 84.47802734 C-30.32099854 84.44402832 -29.2701709 84.4100293 -28.1875 84.375 C-24.825625 84.25125 -21.46375 84.1275 -18 84 C-18 72.12 -18 60.24 -18 48 C-25.01461087 47.79044292 -25.01461087 47.79044292 -32.0300293 47.61206055 C-38.66632914 47.36258472 -42.29133333 46.41583784 -47.3125 41.9375 C-49.77484759 37.65119123 -49.6528116 33.83239804 -49 29 C-47.2590975 24.69355698 -45.07008009 23.09051303 -41 21 C-38.32104492 20.56762695 -38.32104492 20.56762695 -35.48046875 20.48828125 C-34.45888672 20.45283203 -33.43730469 20.41738281 -32.38476562 20.38085938 C-31.32966797 20.35830078 -30.27457031 20.33574219 -29.1875 20.3125 C-28.11306641 20.27833984 -27.03863281 20.24417969 -25.93164062 20.20898438 C-23.28786467 20.12673357 -20.64441079 20.05750791 -18 20 C-18.02578125 18.75734375 -18.0515625 17.5146875 -18.078125 16.234375 C-18.19015055 10.83474362 -16.48491578 6.76333749 -13 2.625 C-9.1657611 -0.49031911 -4.75152117 -0.6479347 0 0 Z M9 47 C9 59.54 9 72.08 9 85 C21.87 85 34.74 85 48 85 C48 72.46 48 59.92 48 47 C35.13 47 22.26 47 9 47 Z " fill="#21C55E" transform="translate(70,19)"/>
</svg>
