<svg width="46" height="46" viewBox="0 0 46 46" fill="none" xmlns="http://www.w3.org/2000/svg">
<mask id="mask0_328_375" style="mask-type:luminance" maskUnits="userSpaceOnUse" x="0" y="0" width="46" height="46">
<path d="M0 0H46V46H0V0Z" fill="white"/>
</mask>
<g mask="url(#mask0_328_375)">
<path d="M43.8493 20.771C42.579 20.771 41.5382 21.8077 41.5382 23.078C41.5382 23.7869 41.5054 24.4794 41.4235 25.1678C41.276 26.4299 42.1938 27.5731 43.4559 27.7207C43.5502 27.7289 45.767 28.0198 46.0088 25.6841C46.103 24.8318 46.1563 23.959 46.1563 23.078C46.1563 21.8077 45.1196 20.771 43.8493 20.771Z" fill="#FFDE59"/>
<path d="M42.7143 30.2407C41.5669 29.6752 40.186 30.1382 39.6164 31.2733C39.2599 31.9822 38.8584 32.6747 38.424 33.3262C37.7151 34.3916 37.9896 35.8422 39.0591 36.5265C40.3499 37.3502 41.8128 36.5511 42.2594 35.8873C42.8044 35.0718 43.3043 34.2072 43.751 33.3262C44.3206 32.1912 43.8575 30.8103 42.7143 30.2407Z" fill="#FFDE59"/>
<path d="M33.3264 38.4319C32.0438 39.2883 30.6752 39.9767 29.2287 40.4849C28.0281 40.911 27.393 42.2305 27.8232 43.4311C28.1592 44.3736 29.3107 45.357 30.7654 44.8366C32.5642 44.1933 34.3017 43.3286 35.8998 42.2674C36.9529 41.5585 37.2438 40.1243 36.5349 39.0671C35.826 38.0058 34.3877 37.723 33.3264 38.4319Z" fill="#FFDE59"/>
<path d="M23.0781 41.5423C12.8995 41.5423 4.61399 33.2568 4.61399 23.0781C4.61399 12.9036 12.8995 4.61399 23.0781 4.61399C28.0855 4.61399 32.8634 6.67922 36.3341 10.2565L34.3344 12.2644C33.7526 12.8462 34.1623 13.8379 34.9901 13.8379H42.3208C42.833 13.8379 43.2469 13.4281 43.2469 12.9118V5.55235C43.2469 4.72462 42.2594 4.31486 41.6775 4.89673L39.5959 6.98654C35.2523 2.55285 29.3107 0 23.0781 0C10.3507 0 0 10.3466 0 23.0781C0 35.8096 10.3507 46.1562 23.0781 46.1562C24.3525 46.1562 25.3851 45.1195 25.3851 43.8493C25.3851 42.5749 24.3525 41.5423 23.0781 41.5423Z" fill="#FFDE59"/>
<path d="M23.0782 9.23193C21.8038 9.23193 20.7712 10.2645 20.7712 11.5389V23.078C20.7712 24.3524 21.8038 25.385 23.0782 25.385H29.9992C31.2735 25.385 32.3102 24.3524 32.3102 23.078C32.3102 21.8077 31.2735 20.771 29.9992 20.771H25.3852V11.5389C25.3852 10.2605 24.3526 9.23193 23.0782 9.23193Z" fill="#FFDE59"/>
</g>
</svg>
