<svg width="717" height="534" viewBox="0 0 717 534" fill="none" xmlns="http://www.w3.org/2000/svg">
<mask id="mask0_301_42" style="mask-type:luminance" maskUnits="userSpaceOnUse" x="0" y="0" width="717" height="534">
<path d="M0 0H717V534H0V0Z" fill="white"/>
</mask>
<g mask="url(#mask0_301_42)">
<mask id="mask1_301_42" style="mask-type:luminance" maskUnits="userSpaceOnUse" x="0" y="0" width="717" height="524">
<path d="M0 0H717V524H0V0Z" fill="white"/>
</mask>
<g mask="url(#mask1_301_42)">
<mask id="mask2_301_42" style="mask-type:luminance" maskUnits="userSpaceOnUse" x="0" y="0" width="717" height="524">
<path d="M0 0H717V524H0V0Z" fill="white"/>
</mask>
<g mask="url(#mask2_301_42)">
<mask id="mask3_301_42" style="mask-type:luminance" maskUnits="userSpaceOnUse" x="156" y="102" width="425" height="438">
<path d="M156.42 102.622H580.366V539.714H156.42V102.622Z" fill="white"/>
</mask>
<g mask="url(#mask3_301_42)">
<mask id="mask4_301_42" style="mask-type:luminance" maskUnits="userSpaceOnUse" x="157" y="102" width="414" height="422">
<path d="M360.177 102.622C469.17 102.622 560.107 185.884 569.692 294.456C579.277 403.027 504.334 500.933 397.026 520.029C289.718 539.124 185.601 473.082 157.143 367.869L258.66 340.41C272.889 393.017 324.947 426.038 378.601 416.49C432.255 406.943 469.727 357.989 464.934 303.704C460.142 249.418 414.674 207.787 360.177 207.787V102.622Z" fill="white"/>
</mask>
<g mask="url(#mask4_301_42)">
<path d="M149.847 102.622H570.507V523.282H149.847V102.622Z" fill="white"/>
</g>
</g>
</g>
</g>
</g>
<mask id="mask5_301_42" style="mask-type:luminance" maskUnits="userSpaceOnUse" x="0" y="0" width="717" height="534">
<path d="M0 0H717V534H0V0Z" fill="white"/>
</mask>
<g mask="url(#mask5_301_42)">
<mask id="mask6_301_42" style="mask-type:luminance" maskUnits="userSpaceOnUse" x="0" y="0" width="717" height="524">
<path d="M0 0H717V524H0V0Z" fill="white"/>
</mask>
<g mask="url(#mask6_301_42)">
<mask id="mask7_301_42" style="mask-type:luminance" maskUnits="userSpaceOnUse" x="0" y="0" width="717" height="524">
<path d="M0 0H717V524H0V0Z" fill="white"/>
</mask>
<g mask="url(#mask7_301_42)">
<mask id="mask8_301_42" style="mask-type:luminance" maskUnits="userSpaceOnUse" x="123" y="112" width="205" height="267">
<path d="M123.556 112.481H327.313V378.68H123.556V112.481Z" fill="white"/>
</mask>
<g mask="url(#mask8_301_42)">
<mask id="mask9_301_42" style="mask-type:luminance" maskUnits="userSpaceOnUse" x="149" y="113" width="178" height="265">
<path d="M160.141 377.947C124.57 268.472 183.61 150.739 292.62 113.767L326.398 213.359C271.893 231.846 242.374 290.712 260.159 345.45L160.141 377.947Z" fill="white"/>
</mask>
<g mask="url(#mask9_301_42)">
<path d="M149.847 102.622H570.507V523.282H149.847V102.622Z" fill="#D4D4D4"/>
</g>
</g>
</g>
</g>
</g>
<mask id="mask10_301_42" style="mask-type:luminance" maskUnits="userSpaceOnUse" x="0" y="0" width="717" height="534">
<path d="M0 0H717V534H0V0Z" fill="white"/>
</mask>
<g mask="url(#mask10_301_42)">
<mask id="mask11_301_42" style="mask-type:luminance" maskUnits="userSpaceOnUse" x="0" y="0" width="717" height="524">
<path d="M0 0H717V524H0V0Z" fill="white"/>
</mask>
<g mask="url(#mask11_301_42)">
<mask id="mask12_301_42" style="mask-type:luminance" maskUnits="userSpaceOnUse" x="0" y="0" width="717" height="524">
<path d="M0 0H717V524H0V0Z" fill="white"/>
</mask>
<g mask="url(#mask12_301_42)">
<mask id="mask13_301_42" style="mask-type:luminance" maskUnits="userSpaceOnUse" x="281" y="104" width="67" height="113">
<path d="M281.303 104.265H347.031V216.003H281.303V104.265Z" fill="white"/>
</mask>
<g mask="url(#mask13_301_42)">
<mask id="mask14_301_42" style="mask-type:luminance" maskUnits="userSpaceOnUse" x="282" y="104" width="64" height="112">
<path d="M282.749 117.392C298.314 111.229 314.56 106.947 331.14 104.636L345.659 208.794C337.368 209.949 329.246 212.091 321.463 215.172L282.749 117.392Z" fill="white"/>
</mask>
<g mask="url(#mask14_301_42)">
<path d="M149.847 102.622H570.507V523.282H149.847V102.622Z" fill="#ABABAB"/>
</g>
</g>
</g>
</g>
</g>
<mask id="mask15_301_42" style="mask-type:luminance" maskUnits="userSpaceOnUse" x="0" y="0" width="717" height="534">
<path d="M0 0H717V534H0V0Z" fill="white"/>
</mask>
<g mask="url(#mask15_301_42)">
<mask id="mask16_301_42" style="mask-type:luminance" maskUnits="userSpaceOnUse" x="0" y="0" width="717" height="524">
<path d="M0 0H717V524H0V0Z" fill="white"/>
</mask>
<g mask="url(#mask16_301_42)">
<mask id="mask17_301_42" style="mask-type:luminance" maskUnits="userSpaceOnUse" x="0" y="0" width="717" height="524">
<path d="M0 0H717V524H0V0Z" fill="white"/>
</mask>
<g mask="url(#mask17_301_42)">
<mask id="mask18_301_42" style="mask-type:luminance" maskUnits="userSpaceOnUse" x="320" y="102" width="41" height="110">
<path d="M320.74 102.622H360.177V211.073H320.74V102.622Z" fill="white"/>
</mask>
<g mask="url(#mask18_301_42)">
<mask id="mask19_301_42" style="mask-type:luminance" maskUnits="userSpaceOnUse" x="320" y="102" width="39" height="108">
<path d="M320.765 106.347C332.87 104.038 345.155 102.797 357.478 102.639L358.827 207.796C352.666 207.875 346.524 208.495 340.471 209.65L320.765 106.347Z" fill="white"/>
</mask>
<g mask="url(#mask19_301_42)">
<path d="M149.847 102.622H570.507V523.282H149.847V102.622Z" fill="#838383"/>
</g>
</g>
</g>
</g>
</g>
<mask id="mask20_301_42" style="mask-type:luminance" maskUnits="userSpaceOnUse" x="0" y="0" width="717" height="534">
<path d="M0 0H717V534H0V0Z" fill="white"/>
</mask>
<g mask="url(#mask20_301_42)">
<mask id="mask21_301_42" style="mask-type:luminance" maskUnits="userSpaceOnUse" x="0" y="0" width="717" height="524">
<path d="M0 0H717V524H0V0Z" fill="white"/>
</mask>
<g mask="url(#mask21_301_42)">
<mask id="mask22_301_42" style="mask-type:luminance" maskUnits="userSpaceOnUse" x="0" y="0" width="717" height="524">
<path d="M0 0H717V524H0V0Z" fill="white"/>
</mask>
<g mask="url(#mask22_301_42)">
<mask id="mask23_301_42" style="mask-type:luminance" maskUnits="userSpaceOnUse" x="345" y="102" width="16" height="108">
<path d="M345.388 102.622H360.177V209.43H345.388V102.622Z" fill="white"/>
</mask>
<g mask="url(#mask23_301_42)">
<mask id="mask24_301_42" style="mask-type:luminance" maskUnits="userSpaceOnUse" x="346" y="102" width="15" height="106">
<path d="M346.97 103.037C351.36 102.761 355.757 102.622 360.156 102.622L360.166 207.787C357.967 207.787 355.768 207.856 353.574 207.994L346.97 103.037Z" fill="white"/>
</mask>
<g mask="url(#mask24_301_42)">
<path d="M149.847 102.622H570.507V523.282H149.847V102.622Z" fill="#5E5E5E"/>
</g>
</g>
</g>
</g>
</g>
<mask id="mask25_301_42" style="mask-type:luminance" maskUnits="userSpaceOnUse" x="0" y="0" width="717" height="524">
<path d="M0 0H717V524H0V0Z" fill="white"/>
</mask>
<g mask="url(#mask25_301_42)">
<path d="M373.57 91.5139C373.769 91.5139 373.96 91.552 374.144 91.6281C374.328 91.7042 374.49 91.8126 374.631 91.9533C374.771 92.0939 374.88 92.2561 374.956 92.4399C375.032 92.6237 375.07 92.815 375.07 93.0139C375.07 93.2128 375.032 93.4042 374.956 93.5879C374.88 93.7717 374.771 93.9339 374.631 94.0746C374.49 94.2152 374.328 94.3236 374.144 94.3997C373.96 94.4759 373.769 94.5139 373.57 94.5139C373.371 94.5139 373.18 94.4759 372.996 94.3997C372.812 94.3236 372.65 94.2152 372.509 94.0746C372.369 93.9339 372.26 93.7717 372.184 93.5879C372.108 93.4042 372.07 93.2128 372.07 93.0139C372.07 92.815 372.108 92.6237 372.184 92.4399C372.26 92.2561 372.369 92.0939 372.509 91.9533C372.65 91.8126 372.812 91.7042 372.996 91.6281C373.18 91.552 373.371 91.5139 373.57 91.5139ZM379.57 91.5139C379.769 91.5139 379.961 91.552 380.144 91.6281C380.328 91.7042 380.49 91.8126 380.631 91.9533C380.772 92.0939 380.88 92.2561 380.956 92.4399C381.032 92.6237 381.07 92.815 381.07 93.0139C381.07 93.2128 381.032 93.4042 380.956 93.5879C380.88 93.7717 380.772 93.9339 380.631 94.0746C380.49 94.2152 380.328 94.3236 380.144 94.3997C379.961 94.4759 379.769 94.5139 379.57 94.5139C379.372 94.5139 379.18 94.4759 378.996 94.3997C378.812 94.3236 378.65 94.2152 378.509 94.0746C378.369 93.9339 378.26 93.7717 378.184 93.5879C378.108 93.4042 378.07 93.2128 378.07 93.0139C378.07 92.815 378.108 92.6237 378.184 92.4399C378.26 92.2561 378.369 92.0939 378.509 91.9533C378.65 91.8126 378.812 91.7042 378.996 91.6281C379.18 91.552 379.371 91.5139 379.57 91.5139ZM385.57 91.5139C385.769 91.5139 385.961 91.552 386.145 91.6281C386.329 91.7042 386.491 91.8126 386.631 91.9533C386.772 92.0939 386.88 92.2561 386.957 92.4399C387.033 92.6237 387.071 92.815 387.071 93.0139C387.071 93.2128 387.033 93.4042 386.957 93.5879C386.88 93.7717 386.772 93.9339 386.631 94.0746C386.491 94.2152 386.329 94.3236 386.145 94.3997C385.961 94.4759 385.77 94.5139 385.571 94.5139C385.372 94.5139 385.18 94.4759 384.996 94.3997C384.813 94.3236 384.65 94.2152 384.51 94.0746C384.369 93.9339 384.261 93.7717 384.185 93.5879C384.108 93.4042 384.07 93.2128 384.07 93.0139C384.07 92.815 384.108 92.6237 384.185 92.4399C384.261 92.2561 384.369 92.0939 384.51 91.9533C384.65 91.8126 384.813 91.7042 384.996 91.6281C385.18 91.552 385.372 91.5139 385.57 91.5139ZM391.571 91.5139C391.77 91.5139 391.961 91.552 392.145 91.6281C392.329 91.7042 392.491 91.8126 392.632 91.9533C392.772 92.0939 392.881 92.2561 392.957 92.4399C393.033 92.6237 393.071 92.815 393.071 93.0139C393.071 93.2128 393.033 93.4042 392.957 93.5879C392.881 93.7717 392.772 93.9339 392.632 94.0746C392.491 94.2152 392.329 94.3236 392.145 94.3997C391.961 94.4759 391.77 94.5139 391.571 94.5139C391.372 94.5139 391.18 94.4759 390.997 94.3997C390.813 94.3236 390.651 94.2152 390.51 94.0746C390.369 93.9339 390.261 93.7717 390.185 93.5879C390.109 93.4042 390.071 93.2128 390.071 93.0139C390.071 92.815 390.109 92.6237 390.185 92.4399C390.261 92.2561 390.369 92.0939 390.51 91.9533C390.651 91.8126 390.813 91.7042 390.997 91.6281C391.18 91.552 391.372 91.5139 391.571 91.5139ZM397.571 91.5139C397.77 91.5139 397.962 91.552 398.145 91.6281C398.329 91.7042 398.491 91.8126 398.632 91.9533C398.773 92.0939 398.881 92.2561 398.957 92.4399C399.033 92.6237 399.071 92.815 399.071 93.0139C399.071 93.2128 399.033 93.4042 398.957 93.5879C398.881 93.7717 398.773 93.9339 398.632 94.0746C398.491 94.2152 398.329 94.3236 398.145 94.3997C397.962 94.4759 397.77 94.5139 397.571 94.5139C397.372 94.5139 397.181 94.4759 396.997 94.3997C396.813 94.3236 396.651 94.2152 396.51 94.0746C396.37 93.9339 396.261 93.7717 396.185 93.5879C396.109 93.4042 396.071 93.2128 396.071 93.0139C396.071 92.815 396.109 92.6237 396.185 92.4399C396.261 92.2561 396.37 92.0939 396.51 91.9533C396.651 91.8126 396.813 91.7042 396.997 91.6281C397.181 91.552 397.372 91.5139 397.571 91.5139ZM403.571 91.5139C403.77 91.5139 403.962 91.552 404.146 91.6281C404.329 91.7042 404.492 91.8126 404.632 91.9533C404.773 92.0939 404.881 92.2561 404.957 92.4399C405.034 92.6237 405.072 92.815 405.072 93.0139C405.072 93.2128 405.034 93.4042 404.957 93.5879C404.881 93.7717 404.773 93.9339 404.632 94.0746C404.492 94.2152 404.329 94.3236 404.146 94.3997C403.962 94.4759 403.771 94.5139 403.572 94.5139C403.373 94.5139 403.181 94.4759 402.997 94.3997C402.814 94.3236 402.651 94.2152 402.511 94.0746C402.37 93.9339 402.262 93.7717 402.185 93.5879C402.109 93.4042 402.071 93.2128 402.071 93.0139C402.071 92.815 402.109 92.6237 402.185 92.4399C402.262 92.2561 402.37 92.0939 402.511 91.9533C402.651 91.8126 402.814 91.7042 402.997 91.6281C403.181 91.552 403.372 91.5139 403.571 91.5139ZM409.572 91.5139C409.771 91.5139 409.962 91.552 410.146 91.6281C410.33 91.7042 410.492 91.8126 410.633 91.9533C410.773 92.0939 410.882 92.2561 410.958 92.4399C411.034 92.6237 411.072 92.815 411.072 93.0139C411.072 93.2128 411.034 93.4042 410.958 93.5879C410.882 93.7717 410.773 93.9339 410.633 94.0746C410.492 94.2152 410.33 94.3236 410.146 94.3997C409.962 94.4759 409.771 94.5139 409.572 94.5139C409.373 94.5139 409.181 94.4759 408.998 94.3997C408.814 94.3236 408.652 94.2152 408.511 94.0746C408.37 93.9339 408.262 93.7717 408.186 93.5879C408.11 93.4042 408.072 93.2128 408.072 93.0139C408.072 92.815 408.11 92.6237 408.186 92.4399C408.262 92.2561 408.37 92.0939 408.511 91.9533C408.652 91.8126 408.814 91.7042 408.998 91.6281C409.181 91.552 409.373 91.5139 409.572 91.5139ZM415.572 91.5139C415.771 91.5139 415.962 91.552 416.146 91.6281C416.33 91.7042 416.492 91.8126 416.633 91.9533C416.774 92.0939 416.882 92.2561 416.958 92.4399C417.034 92.6237 417.072 92.815 417.072 93.0139C417.072 93.2128 417.034 93.4042 416.958 93.5879C416.882 93.7717 416.774 93.9339 416.633 94.0746C416.492 94.2152 416.33 94.3236 416.146 94.3997C415.962 94.4759 415.771 94.5139 415.572 94.5139C415.373 94.5139 415.182 94.4759 414.998 94.3997C414.814 94.3236 414.652 94.2152 414.511 94.0746C414.371 93.9339 414.262 93.7717 414.186 93.5879C414.11 93.4042 414.072 93.2128 414.072 93.0139C414.072 92.815 414.11 92.6237 414.186 92.4399C414.262 92.2561 414.371 92.0939 414.511 91.9533C414.652 91.8126 414.814 91.7042 414.998 91.6281C415.182 91.552 415.373 91.5139 415.572 91.5139ZM421.572 91.5139C421.771 91.5139 421.963 91.552 422.147 91.6281C422.33 91.7042 422.493 91.8126 422.633 91.9533C422.774 92.0939 422.882 92.2561 422.958 92.4399C423.034 92.6237 423.073 92.815 423.073 93.0139C423.073 93.2128 423.034 93.4042 422.958 93.5879C422.882 93.7717 422.774 93.9339 422.633 94.0746C422.493 94.2152 422.33 94.3236 422.147 94.3997C421.963 94.4759 421.771 94.5139 421.573 94.5139C421.374 94.5139 421.182 94.4759 420.998 94.3997C420.814 94.3236 420.652 94.2152 420.512 94.0746C420.371 93.9339 420.263 93.7717 420.186 93.5879C420.11 93.4042 420.072 93.2128 420.072 93.0139C420.072 92.815 420.11 92.6237 420.186 92.4399C420.263 92.2561 420.371 92.0939 420.512 91.9533C420.652 91.8126 420.814 91.7042 420.998 91.6281C421.182 91.552 421.373 91.5139 421.572 91.5139Z" fill="white"/>
<path d="M355.997 99.3242C356.155 99.2031 356.33 99.1167 356.522 99.0653C356.714 99.0139 356.909 99.0013 357.106 99.0273C357.303 99.0533 357.488 99.1161 357.66 99.2157C357.832 99.3152 357.979 99.4439 358.1 99.6017C358.221 99.7596 358.307 99.9346 358.359 100.127C358.41 100.319 358.423 100.514 358.397 100.711C358.371 100.908 358.308 101.093 358.208 101.265C358.109 101.437 357.98 101.584 357.822 101.705C357.664 101.826 357.489 101.912 357.297 101.964C357.105 102.015 356.91 102.028 356.713 102.002C356.516 101.976 356.331 101.913 356.159 101.813C355.987 101.714 355.84 101.585 355.719 101.427C355.598 101.269 355.512 101.094 355.46 100.902C355.409 100.71 355.396 100.515 355.422 100.318C355.448 100.121 355.511 99.9363 355.611 99.764C355.71 99.5918 355.839 99.4452 355.997 99.3242ZM360.759 95.6734C360.917 95.5523 361.092 95.4659 361.284 95.4145C361.476 95.3631 361.671 95.3505 361.868 95.3765C362.065 95.4026 362.25 95.4653 362.422 95.5649C362.594 95.6644 362.741 95.7931 362.862 95.9509C362.983 96.1088 363.069 96.2838 363.121 96.476C363.172 96.6681 363.185 96.8628 363.159 97.06C363.133 97.2572 363.07 97.4419 362.97 97.6141C362.871 97.7863 362.742 97.933 362.584 98.054C362.426 98.175 362.251 98.2614 362.059 98.3128C361.867 98.3642 361.672 98.3769 361.475 98.3509C361.278 98.3248 361.093 98.262 360.921 98.1625C360.749 98.063 360.602 97.9343 360.481 97.7764C360.36 97.6186 360.274 97.4436 360.222 97.2514C360.171 97.0593 360.158 96.8646 360.184 96.6674C360.21 96.4702 360.273 96.2855 360.373 96.1132C360.472 95.941 360.601 95.7944 360.759 95.6734ZM365.521 92.0226C365.678 91.9016 365.854 91.8152 366.046 91.7638C366.238 91.7123 366.433 91.6997 366.63 91.7257C366.827 91.7518 367.012 91.8145 367.184 91.9141C367.356 92.0136 367.503 92.1423 367.624 92.3001C367.745 92.458 367.831 92.633 367.882 92.8252C367.934 93.0173 367.947 93.212 367.92 93.4092C367.894 93.6064 367.832 93.7911 367.732 93.9633C367.633 94.1356 367.504 94.2822 367.346 94.4032C367.188 94.5242 367.013 94.6106 366.821 94.662C366.629 94.7134 366.434 94.7261 366.237 94.7001C366.04 94.674 365.855 94.6112 365.683 94.5117C365.51 94.4122 365.364 94.2835 365.243 94.1256C365.122 93.9678 365.036 93.7928 364.984 93.6006C364.933 93.4085 364.92 93.2138 364.946 93.0166C364.972 92.8194 365.035 92.6347 365.134 92.4624C365.234 92.2902 365.363 92.1436 365.521 92.0226Z" fill="white"/>
<path d="M334.26 101.119C334.26 100.92 334.298 100.728 334.374 100.545C334.451 100.361 334.559 100.199 334.7 100.058C334.84 99.9173 335.002 99.8089 335.186 99.7328C335.37 99.6567 335.561 99.6186 335.76 99.6186C335.959 99.6186 336.151 99.6567 336.334 99.7328C336.518 99.8089 336.68 99.9173 336.821 100.058C336.962 100.199 337.07 100.361 337.146 100.545C337.222 100.728 337.26 100.92 337.26 101.119C337.26 101.318 337.222 101.509 337.146 101.693C337.07 101.877 336.962 102.039 336.821 102.18C336.68 102.32 336.518 102.429 336.334 102.505C336.151 102.581 335.959 102.619 335.76 102.619C335.561 102.619 335.37 102.581 335.186 102.505C335.002 102.429 334.84 102.32 334.7 102.18C334.559 102.039 334.451 101.877 334.374 101.693C334.298 101.509 334.26 101.318 334.26 101.119ZM334.26 95.1186C334.26 94.9197 334.298 94.728 334.374 94.5443C334.451 94.3605 334.559 94.1983 334.7 94.0576C334.84 93.917 335.002 93.8086 335.186 93.7325C335.37 93.6564 335.561 93.6183 335.76 93.6183C335.959 93.6183 336.151 93.6564 336.334 93.7325C336.518 93.8086 336.68 93.917 336.821 94.0576C336.962 94.1983 337.07 94.3605 337.146 94.5443C337.222 94.728 337.26 94.9194 337.26 95.1183C337.26 95.3172 337.222 95.5089 337.146 95.6926C337.07 95.8764 336.962 96.0386 336.821 96.1793C336.68 96.3199 336.518 96.4283 336.334 96.5044C336.151 96.5805 335.959 96.6186 335.76 96.6186C335.561 96.6186 335.37 96.5805 335.186 96.5044C335.002 96.4283 334.84 96.3199 334.7 96.1793C334.559 96.0386 334.451 95.8764 334.374 95.6926C334.298 95.5089 334.26 95.3175 334.26 95.1186ZM334.26 89.1183C334.26 88.9194 334.298 88.7277 334.374 88.544C334.451 88.3602 334.559 88.198 334.7 88.0573C334.84 87.9167 335.002 87.8083 335.186 87.7322C335.37 87.6561 335.561 87.618 335.76 87.618C335.959 87.618 336.151 87.6561 336.334 87.7322C336.518 87.8083 336.68 87.9167 336.821 88.0573C336.962 88.198 337.07 88.3602 337.146 88.544C337.222 88.7277 337.26 88.9191 337.26 89.118C337.26 89.3169 337.222 89.5086 337.146 89.6923C337.07 89.8761 336.962 90.0383 336.821 90.179C336.68 90.3196 336.518 90.428 336.334 90.5041C336.151 90.5802 335.959 90.6183 335.76 90.6183C335.561 90.6183 335.37 90.5802 335.186 90.5041C335.002 90.428 334.84 90.3196 334.7 90.179C334.559 90.0383 334.451 89.8761 334.374 89.6923C334.298 89.5086 334.26 89.3172 334.26 89.1183ZM334.26 83.118C334.26 82.9191 334.298 82.7274 334.374 82.5437C334.451 82.3599 334.559 82.1977 334.7 82.057C334.84 81.9164 335.002 81.808 335.186 81.7319C335.37 81.6558 335.561 81.6177 335.76 81.6177C335.959 81.6177 336.151 81.6558 336.334 81.7319C336.518 81.808 336.68 81.9164 336.821 82.057C336.962 82.1977 337.07 82.3599 337.146 82.5437C337.222 82.7274 337.26 82.9188 337.26 83.1177C337.26 83.3166 337.222 83.5083 337.146 83.692C337.07 83.8758 336.962 84.038 336.821 84.1787C336.68 84.3193 336.518 84.4277 336.334 84.5038C336.151 84.5799 335.959 84.618 335.76 84.618C335.561 84.618 335.37 84.5799 335.186 84.5038C335.002 84.4277 334.84 84.3193 334.7 84.1787C334.559 84.038 334.451 83.8758 334.374 83.692C334.298 83.5083 334.26 83.3169 334.26 83.118ZM334.26 77.1177C334.26 76.9188 334.298 76.7271 334.374 76.5434C334.451 76.3596 334.559 76.1974 334.7 76.0567C334.84 75.9161 335.002 75.8077 335.186 75.7316C335.37 75.6555 335.561 75.6174 335.76 75.6174C335.959 75.6174 336.151 75.6555 336.334 75.7316C336.518 75.8077 336.68 75.9161 336.821 76.0567C336.962 76.1974 337.07 76.3596 337.146 76.5434C337.222 76.7271 337.26 76.9185 337.26 77.1174C337.26 77.3163 337.222 77.508 337.146 77.6917C337.07 77.8755 336.962 78.0377 336.821 78.1784C336.68 78.319 336.518 78.4274 336.334 78.5035C336.151 78.5796 335.959 78.6177 335.76 78.6177C335.561 78.6177 335.37 78.5796 335.186 78.5035C335.002 78.4274 334.84 78.319 334.7 78.1784C334.559 78.0377 334.451 77.8755 334.374 77.6917C334.298 77.508 334.26 77.3166 334.26 77.1177ZM334.26 71.1174C334.26 70.9185 334.298 70.7268 334.374 70.5431C334.451 70.3593 334.559 70.1971 334.7 70.0564C334.84 69.9158 335.002 69.8074 335.186 69.7313C335.37 69.6552 335.561 69.6171 335.76 69.6171C335.959 69.6171 336.151 69.6552 336.334 69.7313C336.518 69.8074 336.68 69.9158 336.821 70.0564C336.962 70.1971 337.07 70.3593 337.146 70.5431C337.222 70.7268 337.26 70.9182 337.26 71.1171C337.26 71.316 337.222 71.5077 337.146 71.6914C337.07 71.8752 336.962 72.0374 336.821 72.1781C336.68 72.3187 336.518 72.4271 336.334 72.5032C336.151 72.5793 335.959 72.6174 335.76 72.6174C335.561 72.6174 335.37 72.5793 335.186 72.5032C335.002 72.4271 334.84 72.3187 334.7 72.1781C334.559 72.0374 334.451 71.8752 334.374 71.6914C334.298 71.5077 334.26 71.3163 334.26 71.1174ZM334.26 65.1171C334.26 64.9182 334.298 64.7265 334.374 64.5428C334.451 64.359 334.559 64.1968 334.7 64.0561C334.84 63.9155 335.002 63.8071 335.186 63.731C335.37 63.6549 335.561 63.6168 335.76 63.6168C335.959 63.6168 336.151 63.6549 336.334 63.731C336.518 63.8071 336.68 63.9155 336.821 64.0561C336.962 64.1968 337.07 64.359 337.146 64.5428C337.222 64.7265 337.26 64.9179 337.26 65.1168C337.26 65.3157 337.222 65.5074 337.146 65.6911C337.07 65.8749 336.962 66.0371 336.821 66.1778C336.68 66.3184 336.518 66.4268 336.334 66.5029C336.151 66.579 335.959 66.6171 335.76 66.6171C335.561 66.6171 335.37 66.579 335.186 66.5029C335.002 66.4268 334.84 66.3184 334.7 66.1778C334.559 66.0371 334.451 65.8749 334.374 65.6911C334.298 65.5074 334.26 65.316 334.26 65.1171ZM334.26 59.1168C334.26 58.9179 334.298 58.7262 334.374 58.5425C334.451 58.3587 334.559 58.1965 334.7 58.0558C334.84 57.9152 335.002 57.8068 335.186 57.7307C335.37 57.6546 335.561 57.6165 335.76 57.6165C335.959 57.6165 336.151 57.6546 336.334 57.7307C336.518 57.8068 336.68 57.9152 336.821 58.0558C336.962 58.1965 337.07 58.3587 337.146 58.5425C337.222 58.7262 337.26 58.9176 337.26 59.1165C337.26 59.3154 337.222 59.5071 337.146 59.6908C337.07 59.8746 336.962 60.0368 336.821 60.1775C336.68 60.3181 336.518 60.4265 336.334 60.5026C336.151 60.5787 335.959 60.6168 335.76 60.6168C335.561 60.6168 335.37 60.5787 335.186 60.5026C335.002 60.4265 334.84 60.3181 334.7 60.1775C334.559 60.0368 334.451 59.8746 334.374 59.6908C334.298 59.5071 334.26 59.3157 334.26 59.1168ZM334.26 53.1165C334.26 52.9176 334.298 52.7259 334.374 52.5422C334.451 52.3584 334.559 52.1962 334.7 52.0555C334.84 51.9149 335.002 51.8065 335.186 51.7304C335.37 51.6543 335.561 51.6162 335.76 51.6162C335.959 51.6162 336.151 51.6543 336.334 51.7304C336.518 51.8065 336.68 51.9149 336.821 52.0555C336.962 52.1962 337.07 52.3584 337.146 52.5422C337.222 52.7259 337.26 52.9173 337.26 53.1162C337.26 53.3151 337.222 53.5068 337.146 53.6905C337.07 53.8743 336.962 54.0365 336.821 54.1772C336.68 54.3178 336.518 54.4262 336.334 54.5023C336.151 54.5784 335.959 54.6165 335.76 54.6165C335.561 54.6165 335.37 54.5784 335.186 54.5023C335.002 54.4262 334.84 54.3178 334.7 54.1772C334.559 54.0365 334.451 53.8743 334.374 53.6905C334.298 53.5068 334.26 53.3154 334.26 53.1165Z" fill="white"/>
<path d="M123.344 205.898C123.543 205.898 123.735 205.936 123.918 206.012C124.102 206.088 124.264 206.197 124.405 206.337C124.546 206.478 124.654 206.64 124.73 206.824C124.806 207.008 124.844 207.199 124.844 207.398C124.844 207.597 124.806 207.788 124.73 207.972C124.654 208.156 124.546 208.318 124.405 208.459C124.264 208.599 124.102 208.708 123.918 208.784C123.735 208.86 123.543 208.898 123.344 208.898C123.145 208.898 122.954 208.86 122.77 208.784C122.586 208.708 122.424 208.599 122.283 208.459C122.143 208.318 122.034 208.156 121.958 207.972C121.882 207.788 121.844 207.597 121.844 207.398C121.844 207.199 121.882 207.008 121.958 206.824C122.034 206.64 122.143 206.478 122.283 206.337C122.424 206.197 122.586 206.088 122.77 206.012C122.954 205.936 123.145 205.898 123.344 205.898ZM129.344 205.898C129.543 205.898 129.735 205.936 129.919 206.012C130.102 206.088 130.265 206.197 130.405 206.337C130.546 206.478 130.654 206.64 130.73 206.824C130.807 207.008 130.845 207.199 130.845 207.398C130.845 207.597 130.807 207.788 130.73 207.972C130.654 208.156 130.546 208.318 130.405 208.459C130.265 208.599 130.102 208.708 129.919 208.784C129.735 208.86 129.544 208.898 129.345 208.898C129.146 208.898 128.954 208.86 128.77 208.784C128.586 208.708 128.424 208.599 128.284 208.459C128.143 208.318 128.035 208.156 127.958 207.972C127.882 207.788 127.844 207.597 127.844 207.398C127.844 207.199 127.882 207.008 127.958 206.824C128.035 206.64 128.143 206.478 128.284 206.337C128.424 206.197 128.586 206.088 128.77 206.012C128.954 205.936 129.145 205.898 129.344 205.898ZM135.345 205.898C135.544 205.898 135.735 205.936 135.919 206.012C136.103 206.088 136.265 206.197 136.406 206.337C136.546 206.478 136.655 206.64 136.731 206.824C136.807 207.008 136.845 207.199 136.845 207.398C136.845 207.597 136.807 207.788 136.731 207.972C136.655 208.156 136.546 208.318 136.406 208.459C136.265 208.599 136.103 208.708 135.919 208.784C135.735 208.86 135.544 208.898 135.345 208.898C135.146 208.898 134.954 208.86 134.771 208.784C134.587 208.708 134.425 208.599 134.284 208.459C134.143 208.318 134.035 208.156 133.959 207.972C133.883 207.788 133.845 207.597 133.845 207.398C133.845 207.199 133.883 207.008 133.959 206.824C134.035 206.64 134.143 206.478 134.284 206.337C134.425 206.197 134.587 206.088 134.771 206.012C134.954 205.936 135.146 205.898 135.345 205.898ZM141.345 205.898C141.544 205.898 141.735 205.936 141.919 206.012C142.103 206.088 142.265 206.197 142.406 206.337C142.547 206.478 142.655 206.64 142.731 206.824C142.807 207.008 142.845 207.199 142.845 207.398C142.845 207.597 142.807 207.788 142.731 207.972C142.655 208.156 142.547 208.318 142.406 208.459C142.265 208.599 142.103 208.708 141.919 208.784C141.735 208.86 141.544 208.898 141.345 208.898C141.146 208.898 140.955 208.86 140.771 208.784C140.587 208.708 140.425 208.599 140.284 208.459C140.144 208.318 140.035 208.156 139.959 207.972C139.883 207.788 139.845 207.597 139.845 207.398C139.845 207.199 139.883 207.008 139.959 206.824C140.035 206.64 140.144 206.478 140.284 206.337C140.425 206.197 140.587 206.088 140.771 206.012C140.955 205.936 141.146 205.898 141.345 205.898ZM147.345 205.898C147.544 205.898 147.736 205.936 147.92 206.012C148.103 206.088 148.265 206.197 148.406 206.337C148.547 206.478 148.655 206.64 148.731 206.824C148.807 207.008 148.845 207.199 148.845 207.398C148.845 207.597 148.807 207.788 148.731 207.972C148.655 208.156 148.547 208.318 148.406 208.459C148.265 208.599 148.103 208.708 147.92 208.784C147.736 208.86 147.544 208.898 147.345 208.898C147.147 208.898 146.955 208.86 146.771 208.784C146.587 208.708 146.425 208.599 146.285 208.459C146.144 208.318 146.035 208.156 145.959 207.972C145.883 207.788 145.845 207.597 145.845 207.398C145.845 207.199 145.883 207.008 145.959 206.824C146.035 206.64 146.144 206.478 146.285 206.337C146.425 206.197 146.587 206.088 146.771 206.012C146.955 205.936 147.146 205.898 147.345 205.898ZM153.345 205.898C153.544 205.898 153.736 205.936 153.92 206.012C154.104 206.088 154.266 206.197 154.406 206.337C154.547 206.478 154.655 206.64 154.732 206.824C154.808 207.008 154.846 207.199 154.846 207.398C154.846 207.597 154.808 207.788 154.732 207.972C154.655 208.156 154.547 208.318 154.406 208.459C154.266 208.599 154.104 208.708 153.92 208.784C153.736 208.86 153.545 208.898 153.346 208.898C153.147 208.898 152.955 208.86 152.771 208.784C152.588 208.708 152.425 208.599 152.285 208.459C152.144 208.318 152.036 208.156 151.96 207.972C151.884 207.788 151.845 207.597 151.845 207.398C151.845 207.199 151.884 207.008 151.96 206.824C152.036 206.64 152.144 206.478 152.285 206.337C152.425 206.197 152.588 206.088 152.771 206.012C152.955 205.936 153.147 205.898 153.345 205.898ZM159.346 205.898C159.545 205.898 159.736 205.936 159.92 206.012C160.104 206.088 160.266 206.197 160.407 206.337C160.547 206.478 160.656 206.64 160.732 206.824C160.808 207.008 160.846 207.199 160.846 207.398C160.846 207.597 160.808 207.788 160.732 207.972C160.656 208.156 160.547 208.318 160.407 208.459C160.266 208.599 160.104 208.708 159.92 208.784C159.736 208.86 159.545 208.898 159.346 208.898C159.147 208.898 158.956 208.86 158.772 208.784C158.588 208.708 158.426 208.599 158.285 208.459C158.144 208.318 158.036 208.156 157.96 207.972C157.884 207.788 157.846 207.597 157.846 207.398C157.846 207.199 157.884 207.008 157.96 206.824C158.036 206.64 158.144 206.478 158.285 206.337C158.426 206.197 158.588 206.088 158.772 206.012C158.956 205.936 159.147 205.898 159.346 205.898ZM165.346 205.898C165.545 205.898 165.737 205.936 165.92 206.012C166.104 206.088 166.266 206.197 166.407 206.337C166.548 206.478 166.656 206.64 166.732 206.824C166.808 207.008 166.846 207.199 166.846 207.398C166.846 207.597 166.808 207.788 166.732 207.972C166.656 208.156 166.548 208.318 166.407 208.459C166.266 208.599 166.104 208.708 165.92 208.784C165.737 208.86 165.545 208.898 165.346 208.898C165.147 208.898 164.956 208.86 164.772 208.784C164.588 208.708 164.426 208.599 164.285 208.459C164.145 208.318 164.036 208.156 163.96 207.972C163.884 207.788 163.846 207.597 163.846 207.398C163.846 207.199 163.884 207.008 163.96 206.824C164.036 206.64 164.145 206.478 164.285 206.337C164.426 206.197 164.588 206.088 164.772 206.012C164.956 205.936 165.147 205.898 165.346 205.898ZM171.346 205.898C171.545 205.898 171.737 205.936 171.921 206.012C172.104 206.088 172.267 206.197 172.407 206.337C172.548 206.478 172.656 206.64 172.733 206.824C172.809 207.008 172.847 207.199 172.847 207.398C172.847 207.597 172.809 207.788 172.733 207.972C172.656 208.156 172.548 208.318 172.407 208.459C172.267 208.599 172.104 208.708 171.921 208.784C171.737 208.86 171.546 208.898 171.347 208.898C171.148 208.898 170.956 208.86 170.772 208.784C170.589 208.708 170.426 208.599 170.286 208.459C170.145 208.318 170.037 208.156 169.961 207.972C169.884 207.788 169.846 207.597 169.846 207.398C169.846 207.199 169.884 207.008 169.961 206.824C170.037 206.64 170.145 206.478 170.286 206.337C170.426 206.197 170.589 206.088 170.772 206.012C170.956 205.936 171.147 205.898 171.346 205.898Z" fill="white"/>
<path d="M188.513 95.5139C188.712 95.5139 188.903 95.552 189.087 95.6281C189.271 95.7042 189.433 95.8126 189.574 95.9533C189.714 96.0939 189.823 96.2561 189.899 96.4399C189.975 96.6237 190.013 96.815 190.013 97.0139C190.013 97.2128 189.975 97.4042 189.899 97.5879C189.823 97.7717 189.714 97.9339 189.574 98.0746C189.433 98.2152 189.271 98.3236 189.087 98.3997C188.903 98.4759 188.712 98.5139 188.513 98.5139C188.314 98.5139 188.122 98.4759 187.939 98.3997C187.755 98.3236 187.593 98.2152 187.452 98.0746C187.311 97.9339 187.203 97.7717 187.127 97.5879C187.051 97.4042 187.013 97.2128 187.013 97.0139C187.013 96.815 187.051 96.6237 187.127 96.4399C187.203 96.2561 187.311 96.0939 187.452 95.9533C187.593 95.8126 187.755 95.7042 187.939 95.6281C188.122 95.552 188.314 95.5139 188.513 95.5139ZM194.513 95.5139C194.712 95.5139 194.904 95.552 195.087 95.6281C195.271 95.7042 195.433 95.8126 195.574 95.9533C195.715 96.0939 195.823 96.2561 195.899 96.4399C195.975 96.6237 196.013 96.815 196.013 97.0139C196.013 97.2128 195.975 97.4042 195.899 97.5879C195.823 97.7717 195.715 97.9339 195.574 98.0746C195.433 98.2152 195.271 98.3236 195.087 98.3997C194.904 98.4759 194.712 98.5139 194.513 98.5139C194.314 98.5139 194.123 98.4759 193.939 98.3997C193.755 98.3236 193.593 98.2152 193.452 98.0746C193.312 97.9339 193.203 97.7717 193.127 97.5879C193.051 97.4042 193.013 97.2128 193.013 97.0139C193.013 96.815 193.051 96.6237 193.127 96.4399C193.203 96.2561 193.312 96.0939 193.452 95.9533C193.593 95.8126 193.755 95.7042 193.939 95.6281C194.123 95.552 194.314 95.5139 194.513 95.5139ZM200.513 95.5139C200.712 95.5139 200.904 95.552 201.088 95.6281C201.271 95.7042 201.434 95.8126 201.574 95.9533C201.715 96.0939 201.823 96.2561 201.899 96.4399C201.976 96.6237 202.014 96.815 202.014 97.0139C202.014 97.2128 201.976 97.4042 201.899 97.5879C201.823 97.7717 201.715 97.9339 201.574 98.0746C201.434 98.2152 201.271 98.3236 201.088 98.3997C200.904 98.4759 200.713 98.5139 200.514 98.5139C200.315 98.5139 200.123 98.4759 199.939 98.3997C199.755 98.3236 199.593 98.2152 199.453 98.0746C199.312 97.9339 199.204 97.7717 199.127 97.5879C199.051 97.4042 199.013 97.2128 199.013 97.0139C199.013 96.815 199.051 96.6237 199.127 96.4399C199.204 96.2561 199.312 96.0939 199.453 95.9533C199.593 95.8126 199.755 95.7042 199.939 95.6281C200.123 95.552 200.314 95.5139 200.513 95.5139ZM206.514 95.5139C206.713 95.5139 206.904 95.552 207.088 95.6281C207.272 95.7042 207.434 95.8126 207.575 95.9533C207.715 96.0939 207.824 96.2561 207.9 96.4399C207.976 96.6237 208.014 96.815 208.014 97.0139C208.014 97.2128 207.976 97.4042 207.9 97.5879C207.824 97.7717 207.715 97.9339 207.575 98.0746C207.434 98.2152 207.272 98.3236 207.088 98.3997C206.904 98.4759 206.713 98.5139 206.514 98.5139C206.315 98.5139 206.123 98.4759 205.94 98.3997C205.756 98.3236 205.594 98.2152 205.453 98.0746C205.312 97.9339 205.204 97.7717 205.128 97.5879C205.052 97.4042 205.014 97.2128 205.014 97.0139C205.014 96.815 205.052 96.6237 205.128 96.4399C205.204 96.2561 205.312 96.0939 205.453 95.9533C205.594 95.8126 205.756 95.7042 205.94 95.6281C206.123 95.552 206.315 95.5139 206.514 95.5139ZM212.514 95.5139C212.713 95.5139 212.904 95.552 213.088 95.6281C213.272 95.7042 213.434 95.8126 213.575 95.9533C213.716 96.0939 213.824 96.2561 213.9 96.4399C213.976 96.6237 214.014 96.815 214.014 97.0139C214.014 97.2128 213.976 97.4042 213.9 97.5879C213.824 97.7717 213.716 97.9339 213.575 98.0746C213.434 98.2152 213.272 98.3236 213.088 98.3997C212.904 98.4759 212.713 98.5139 212.514 98.5139C212.315 98.5139 212.124 98.4759 211.94 98.3997C211.756 98.3236 211.594 98.2152 211.453 98.0746C211.313 97.9339 211.204 97.7717 211.128 97.5879C211.052 97.4042 211.014 97.2128 211.014 97.0139C211.014 96.815 211.052 96.6237 211.128 96.4399C211.204 96.2561 211.313 96.0939 211.453 95.9533C211.594 95.8126 211.756 95.7042 211.94 95.6281C212.124 95.552 212.315 95.5139 212.514 95.5139ZM218.514 95.5139C218.713 95.5139 218.905 95.552 219.089 95.6281C219.272 95.7042 219.434 95.8126 219.575 95.9533C219.716 96.0939 219.824 96.2561 219.9 96.4399C219.976 96.6237 220.014 96.815 220.014 97.0139C220.014 97.2128 219.976 97.4042 219.9 97.5879C219.824 97.7717 219.716 97.9339 219.575 98.0746C219.434 98.2152 219.272 98.3236 219.089 98.3997C218.905 98.4759 218.713 98.5139 218.514 98.5139C218.316 98.5139 218.124 98.4759 217.94 98.3997C217.756 98.3236 217.594 98.2152 217.454 98.0746C217.313 97.9339 217.204 97.7717 217.128 97.5879C217.052 97.4042 217.014 97.2128 217.014 97.0139C217.014 96.815 217.052 96.6237 217.128 96.4399C217.204 96.2561 217.313 96.0939 217.454 95.9533C217.594 95.8126 217.756 95.7042 217.94 95.6281C218.124 95.552 218.315 95.5139 218.514 95.5139ZM224.514 95.5139C224.713 95.5139 224.905 95.552 225.089 95.6281C225.273 95.7042 225.435 95.8126 225.575 95.9533C225.716 96.0939 225.824 96.2561 225.901 96.4399C225.977 96.6237 226.015 96.815 226.015 97.0139C226.015 97.2128 225.977 97.4042 225.901 97.5879C225.824 97.7717 225.716 97.9339 225.575 98.0746C225.435 98.2152 225.273 98.3236 225.089 98.3997C224.905 98.4759 224.714 98.5139 224.515 98.5139C224.316 98.5139 224.124 98.4759 223.94 98.3997C223.757 98.3236 223.594 98.2152 223.454 98.0746C223.313 97.9339 223.205 97.7717 223.129 97.5879C223.053 97.4042 223.014 97.2128 223.014 97.0139C223.014 96.815 223.053 96.6237 223.129 96.4399C223.205 96.2561 223.313 96.0939 223.454 95.9533C223.594 95.8126 223.757 95.7042 223.94 95.6281C224.124 95.552 224.316 95.5139 224.514 95.5139ZM230.515 95.5139C230.714 95.5139 230.905 95.552 231.089 95.6281C231.273 95.7042 231.435 95.8126 231.576 95.9533C231.716 96.0939 231.825 96.2561 231.901 96.4399C231.977 96.6237 232.015 96.815 232.015 97.0139C232.015 97.2128 231.977 97.4042 231.901 97.5879C231.825 97.7717 231.716 97.9339 231.576 98.0746C231.435 98.2152 231.273 98.3236 231.089 98.3997C230.905 98.4759 230.714 98.5139 230.515 98.5139C230.316 98.5139 230.125 98.4759 229.941 98.3997C229.757 98.3236 229.595 98.2152 229.454 98.0746C229.313 97.9339 229.205 97.7717 229.129 97.5879C229.053 97.4042 229.015 97.2128 229.015 97.0139C229.015 96.815 229.053 96.6237 229.129 96.4399C229.205 96.2561 229.313 96.0939 229.454 95.9533C229.595 95.8126 229.757 95.7042 229.941 95.6281C230.125 95.552 230.316 95.5139 230.515 95.5139ZM236.515 95.5139C236.714 95.5139 236.906 95.552 237.089 95.6281C237.273 95.7042 237.435 95.8126 237.576 95.9533C237.717 96.0939 237.825 96.2561 237.901 96.4399C237.977 96.6237 238.015 96.815 238.015 97.0139C238.015 97.2128 237.977 97.4042 237.901 97.5879C237.825 97.7717 237.717 97.9339 237.576 98.0746C237.435 98.2152 237.273 98.3236 237.089 98.3997C236.906 98.4759 236.714 98.5139 236.515 98.5139C236.316 98.5139 236.125 98.4759 235.941 98.3997C235.757 98.3236 235.595 98.2152 235.454 98.0746C235.314 97.9339 235.205 97.7717 235.129 97.5879C235.053 97.4042 235.015 97.2128 235.015 97.0139C235.015 96.815 235.053 96.6237 235.129 96.4399C235.205 96.2561 235.314 96.0939 235.454 95.9533C235.595 95.8126 235.757 95.7042 235.941 95.6281C236.125 95.552 236.316 95.5139 236.515 95.5139ZM242.515 95.5139C242.714 95.5139 242.906 95.552 243.09 95.6281C243.273 95.7042 243.436 95.8126 243.576 95.9533C243.717 96.0939 243.825 96.2561 243.902 96.4399C243.978 96.6237 244.016 96.815 244.016 97.0139C244.016 97.2128 243.978 97.4042 243.902 97.5879C243.825 97.7717 243.717 97.9339 243.576 98.0746C243.436 98.2152 243.273 98.3236 243.09 98.3997C242.906 98.4759 242.715 98.5139 242.516 98.5139C242.317 98.5139 242.125 98.4759 241.941 98.3997C241.758 98.3236 241.595 98.2152 241.455 98.0746C241.314 97.9339 241.206 97.7717 241.13 97.5879C241.053 97.4042 241.015 97.2128 241.015 97.0139C241.015 96.815 241.053 96.6237 241.13 96.4399C241.206 96.2561 241.314 96.0939 241.455 95.9533C241.595 95.8126 241.758 95.7042 241.941 95.6281C242.125 95.552 242.316 95.5139 242.515 95.5139ZM248.516 95.5139C248.715 95.5139 248.906 95.552 249.09 95.6281C249.274 95.7042 249.436 95.8126 249.577 95.9533C249.717 96.0939 249.826 96.2561 249.902 96.4399C249.978 96.6237 250.016 96.815 250.016 97.0139C250.016 97.2128 249.978 97.4042 249.902 97.5879C249.826 97.7717 249.717 97.9339 249.577 98.0746C249.436 98.2152 249.274 98.3236 249.09 98.3997C248.906 98.4759 248.715 98.5139 248.516 98.5139C248.317 98.5139 248.125 98.4759 247.942 98.3997C247.758 98.3236 247.596 98.2152 247.455 98.0746C247.314 97.9339 247.206 97.7717 247.13 97.5879C247.054 97.4042 247.016 97.2128 247.016 97.0139C247.016 96.815 247.054 96.6237 247.13 96.4399C247.206 96.2561 247.314 96.0939 247.455 95.9533C247.596 95.8126 247.758 95.7042 247.942 95.6281C248.125 95.552 248.317 95.5139 248.516 95.5139ZM254.516 95.5139C254.715 95.5139 254.907 95.552 255.09 95.6281C255.274 95.7042 255.436 95.8126 255.577 95.9533C255.718 96.0939 255.826 96.2561 255.902 96.4399C255.978 96.6237 256.016 96.815 256.016 97.0139C256.016 97.2128 255.978 97.4042 255.902 97.5879C255.826 97.7717 255.718 97.9339 255.577 98.0746C255.436 98.2152 255.274 98.3236 255.09 98.3997C254.907 98.4759 254.715 98.5139 254.516 98.5139C254.317 98.5139 254.126 98.4759 253.942 98.3997C253.758 98.3236 253.596 98.2152 253.455 98.0746C253.315 97.9339 253.206 97.7717 253.13 97.5879C253.054 97.4042 253.016 97.2128 253.016 97.0139C253.016 96.815 253.054 96.6237 253.13 96.4399C253.206 96.2561 253.315 96.0939 253.455 95.9533C253.596 95.8126 253.758 95.7042 253.942 95.6281C254.126 95.552 254.317 95.5139 254.516 95.5139ZM260.516 95.5139C260.715 95.5139 260.907 95.552 261.091 95.6281C261.274 95.7042 261.437 95.8126 261.577 95.9533C261.718 96.0939 261.826 96.2561 261.902 96.4399C261.979 96.6237 262.017 96.815 262.017 97.0139C262.017 97.2128 261.979 97.4042 261.902 97.5879C261.826 97.7717 261.718 97.9339 261.577 98.0746C261.437 98.2152 261.274 98.3236 261.091 98.3997C260.907 98.4759 260.716 98.5139 260.517 98.5139C260.318 98.5139 260.126 98.4759 259.942 98.3997C259.758 98.3236 259.596 98.2152 259.456 98.0746C259.315 97.9339 259.207 97.7717 259.13 97.5879C259.054 97.4042 259.016 97.2128 259.016 97.0139C259.016 96.815 259.054 96.6237 259.13 96.4399C259.207 96.2561 259.315 96.0939 259.456 95.9533C259.596 95.8126 259.758 95.7042 259.942 95.6281C260.126 95.552 260.317 95.5139 260.516 95.5139ZM266.517 95.5139C266.716 95.5139 266.907 95.552 267.091 95.6281C267.275 95.7042 267.437 95.8126 267.578 95.9533C267.718 96.0939 267.827 96.2561 267.903 96.4399C267.979 96.6237 268.017 96.815 268.017 97.0139C268.017 97.2128 267.979 97.4042 267.903 97.5879C267.827 97.7717 267.718 97.9339 267.578 98.0746C267.437 98.2152 267.275 98.3236 267.091 98.3997C266.907 98.4759 266.716 98.5139 266.517 98.5139C266.318 98.5139 266.126 98.4759 265.943 98.3997C265.759 98.3236 265.597 98.2152 265.456 98.0746C265.315 97.9339 265.207 97.7717 265.131 97.5879C265.055 97.4042 265.017 97.2128 265.017 97.0139C265.017 96.815 265.055 96.6237 265.131 96.4399C265.207 96.2561 265.315 96.0939 265.456 95.9533C265.597 95.8126 265.759 95.7042 265.943 95.6281C266.126 95.552 266.318 95.5139 266.517 95.5139ZM272.517 95.5139C272.716 95.5139 272.907 95.552 273.091 95.6281C273.275 95.7042 273.437 95.8126 273.578 95.9533C273.718 96.0939 273.827 96.2561 273.903 96.4399C273.979 96.6237 274.017 96.815 274.017 97.0139C274.017 97.2128 273.979 97.4042 273.903 97.5879C273.827 97.7717 273.718 97.9339 273.578 98.0746C273.437 98.2152 273.275 98.3236 273.091 98.3997C272.907 98.4759 272.716 98.5139 272.517 98.5139C272.318 98.5139 272.127 98.4759 271.943 98.3997C271.759 98.3236 271.597 98.2152 271.456 98.0746C271.316 97.9339 271.207 97.7717 271.131 97.5879C271.055 97.4042 271.017 97.2128 271.017 97.0139C271.017 96.815 271.055 96.6237 271.131 96.4399C271.207 96.2561 271.316 96.0939 271.456 95.9533C271.597 95.8126 271.759 95.7042 271.943 95.6281C272.127 95.552 272.318 95.5139 272.517 95.5139ZM278.517 95.5139C278.716 95.5139 278.908 95.552 279.092 95.6281C279.275 95.7042 279.437 95.8126 279.578 95.9533C279.719 96.0939 279.827 96.2561 279.903 96.4399C279.979 96.6237 280.017 96.815 280.017 97.0139C280.017 97.2128 279.979 97.4042 279.903 97.5879C279.827 97.7717 279.719 97.9339 279.578 98.0746C279.437 98.2152 279.275 98.3236 279.092 98.3997C278.908 98.4759 278.716 98.5139 278.517 98.5139C278.319 98.5139 278.127 98.4759 277.943 98.3997C277.759 98.3236 277.597 98.2152 277.457 98.0746C277.316 97.9339 277.207 97.7717 277.131 97.5879C277.055 97.4042 277.017 97.2128 277.017 97.0139C277.017 96.815 277.055 96.6237 277.131 96.4399C277.207 96.2561 277.316 96.0939 277.457 95.9533C277.597 95.8126 277.759 95.7042 277.943 95.6281C278.127 95.552 278.318 95.5139 278.517 95.5139ZM284.517 95.5139C284.716 95.5139 284.908 95.552 285.092 95.6281C285.276 95.7042 285.438 95.8126 285.578 95.9533C285.719 96.0939 285.827 96.2561 285.904 96.4399C285.98 96.6237 286.018 96.815 286.018 97.0139C286.018 97.2128 285.98 97.4042 285.904 97.5879C285.827 97.7717 285.719 97.9339 285.578 98.0746C285.438 98.2152 285.276 98.3236 285.092 98.3997C284.908 98.4759 284.717 98.5139 284.518 98.5139C284.319 98.5139 284.127 98.4759 283.943 98.3997C283.76 98.3236 283.597 98.2152 283.457 98.0746C283.316 97.9339 283.208 97.7717 283.132 97.5879C283.056 97.4042 283.017 97.2128 283.017 97.0139C283.017 96.815 283.056 96.6237 283.132 96.4399C283.208 96.2561 283.316 96.0939 283.457 95.9533C283.597 95.8126 283.76 95.7042 283.943 95.6281C284.127 95.552 284.319 95.5139 284.517 95.5139ZM290.518 95.5139C290.717 95.5139 290.908 95.552 291.092 95.6281C291.276 95.7042 291.438 95.8126 291.579 95.9533C291.719 96.0939 291.828 96.2561 291.904 96.4399C291.98 96.6237 292.018 96.815 292.018 97.0139C292.018 97.2128 291.98 97.4042 291.904 97.5879C291.828 97.7717 291.719 97.9339 291.579 98.0746C291.438 98.2152 291.276 98.3236 291.092 98.3997C290.908 98.4759 290.717 98.5139 290.518 98.5139C290.319 98.5139 290.128 98.4759 289.944 98.3997C289.76 98.3236 289.598 98.2152 289.457 98.0746C289.316 97.9339 289.208 97.7717 289.132 97.5879C289.056 97.4042 289.018 97.2128 289.018 97.0139C289.018 96.815 289.056 96.6237 289.132 96.4399C289.208 96.2561 289.316 96.0939 289.457 95.9533C289.598 95.8126 289.76 95.7042 289.944 95.6281C290.128 95.552 290.319 95.5139 290.518 95.5139ZM296.518 95.5139C296.717 95.5139 296.909 95.552 297.092 95.6281C297.276 95.7042 297.438 95.8126 297.579 95.9533C297.72 96.0939 297.828 96.2561 297.904 96.4399C297.98 96.6237 298.018 96.815 298.018 97.0139C298.018 97.2128 297.98 97.4042 297.904 97.5879C297.828 97.7717 297.72 97.9339 297.579 98.0746C297.438 98.2152 297.276 98.3236 297.092 98.3997C296.909 98.4759 296.717 98.5139 296.518 98.5139C296.319 98.5139 296.128 98.4759 295.944 98.3997C295.76 98.3236 295.598 98.2152 295.457 98.0746C295.317 97.9339 295.208 97.7717 295.132 97.5879C295.056 97.4042 295.018 97.2128 295.018 97.0139C295.018 96.815 295.056 96.6237 295.132 96.4399C295.208 96.2561 295.317 96.0939 295.457 95.9533C295.598 95.8126 295.76 95.7042 295.944 95.6281C296.128 95.552 296.319 95.5139 296.518 95.5139Z" fill="white"/>
<path d="M301.734 99.0162C301.874 99.1569 301.983 99.3193 302.059 99.5031C302.135 99.6868 302.173 99.8782 302.173 100.077C302.173 100.276 302.135 100.467 302.059 100.651C301.983 100.835 301.874 100.997 301.734 101.138C301.593 101.278 301.431 101.387 301.247 101.463C301.063 101.539 300.872 101.577 300.673 101.577C300.474 101.577 300.283 101.539 300.099 101.463C299.915 101.387 299.753 101.278 299.612 101.138C299.472 100.997 299.363 100.835 299.287 100.651C299.211 100.467 299.173 100.276 299.173 100.077C299.173 99.878 299.211 99.6866 299.287 99.5029C299.363 99.3191 299.472 99.1569 299.612 99.0162C299.753 98.8756 299.915 98.7672 300.099 98.6911C300.283 98.6149 300.474 98.5769 300.673 98.5769C300.872 98.5769 301.063 98.6149 301.247 98.6911C301.431 98.7672 301.593 98.8756 301.734 99.0162ZM305.976 103.259C306.117 103.4 306.226 103.562 306.302 103.746C306.378 103.93 306.416 104.121 306.416 104.32C306.416 104.519 306.378 104.71 306.302 104.894C306.226 105.078 306.117 105.24 305.977 105.381C305.836 105.521 305.674 105.63 305.49 105.706C305.306 105.782 305.115 105.82 304.916 105.82C304.717 105.82 304.526 105.782 304.342 105.706C304.158 105.63 303.996 105.521 303.855 105.381C303.715 105.24 303.606 105.078 303.53 104.894C303.454 104.71 303.416 104.519 303.416 104.32C303.416 104.121 303.454 103.929 303.53 103.746C303.606 103.562 303.714 103.4 303.855 103.259C303.996 103.118 304.158 103.01 304.342 102.934C304.525 102.858 304.717 102.82 304.916 102.82C305.115 102.82 305.306 102.858 305.49 102.934C305.674 103.01 305.836 103.118 305.976 103.259Z" fill="white"/>
<path d="M626.175 214.568L634.414 198.269V198.125H624.916V196.146H636.717V198.233L628.514 214.568H626.175ZM645.683 214.82C644.328 214.82 643.173 214.451 642.22 213.713C641.266 212.97 640.538 211.893 640.034 210.484C639.53 209.069 639.279 207.36 639.279 205.357C639.279 203.366 639.53 201.666 640.034 200.257C640.544 198.842 641.275 197.762 642.229 197.019C643.188 196.269 644.34 195.894 645.683 195.894C647.026 195.894 648.175 196.269 649.128 197.019C650.088 197.762 650.819 198.842 651.323 200.257C651.833 201.666 652.087 203.366 652.087 205.357C652.087 207.36 651.836 209.069 651.332 210.484C650.828 211.893 650.1 212.97 649.146 213.713C648.193 214.451 647.038 214.82 645.683 214.82ZM645.683 212.841C647.026 212.841 648.07 212.193 648.813 210.898C649.557 209.603 649.929 207.756 649.929 205.357C649.929 203.762 649.758 202.404 649.416 201.282C649.08 200.161 648.594 199.306 647.959 198.719C647.329 198.131 646.57 197.837 645.683 197.837C644.352 197.837 643.311 198.494 642.562 199.807C641.812 201.114 641.437 202.964 641.437 205.357C641.437 206.952 641.605 208.307 641.941 209.423C642.277 210.538 642.76 211.387 643.389 211.968C644.025 212.55 644.789 212.841 645.683 212.841Z" fill="white"/>
<path d="M664.74 211.114V210.142C664.74 209.471 664.878 208.856 665.154 208.298C665.436 207.735 665.844 207.285 666.377 206.949C666.917 206.607 667.571 206.436 668.338 206.436C669.118 206.436 669.771 206.607 670.299 206.949C670.827 207.285 671.226 207.735 671.495 208.298C671.765 208.856 671.9 209.471 671.9 210.142V211.114C671.9 211.785 671.762 212.403 671.486 212.967C671.217 213.524 670.815 213.974 670.281 214.316C669.753 214.652 669.106 214.82 668.338 214.82C667.559 214.82 666.902 214.652 666.368 214.316C665.835 213.974 665.43 213.524 665.154 212.967C664.878 212.403 664.74 211.785 664.74 211.114ZM666.575 210.142V211.114C666.575 211.671 666.707 212.172 666.971 212.616C667.235 213.054 667.691 213.273 668.338 213.273C668.968 213.273 669.412 213.054 669.669 212.616C669.933 212.172 670.065 211.671 670.065 211.114V210.142C670.065 209.585 669.939 209.087 669.687 208.649C669.436 208.205 668.986 207.984 668.338 207.984C667.708 207.984 667.256 208.205 666.98 208.649C666.71 209.087 666.575 209.585 666.575 210.142ZM655.565 200.572V199.6C655.565 198.929 655.703 198.314 655.979 197.756C656.261 197.192 656.669 196.743 657.202 196.407C657.742 196.065 658.396 195.894 659.163 195.894C659.943 195.894 660.596 196.065 661.124 196.407C661.652 196.743 662.051 197.192 662.32 197.756C662.59 198.314 662.725 198.929 662.725 199.6V200.572C662.725 201.243 662.587 201.861 662.311 202.425C662.042 202.982 661.64 203.432 661.106 203.774C660.578 204.11 659.931 204.278 659.163 204.278C658.384 204.278 657.727 204.11 657.193 203.774C656.66 203.432 656.255 202.982 655.979 202.425C655.703 201.861 655.565 201.243 655.565 200.572ZM657.4 199.6V200.572C657.4 201.129 657.532 201.63 657.796 202.074C658.06 202.512 658.516 202.73 659.163 202.73C659.793 202.73 660.237 202.512 660.494 202.074C660.758 201.63 660.89 201.129 660.89 200.572V199.6C660.89 199.042 660.764 198.545 660.512 198.107C660.261 197.663 659.811 197.441 659.163 197.441C658.534 197.441 658.081 197.663 657.805 198.107C657.535 198.545 657.4 199.042 657.4 199.6ZM656.249 214.568L668.914 196.146H670.965L658.3 214.568H656.249Z" fill="white"/>
<path d="M457.126 85.762V104.184H454.896V88.1007H454.788L450.29 91.0871V88.8203L454.896 85.762H457.126Z" fill="white"/>
<path d="M470.963 100.73V99.7583C470.963 99.0867 471.1 98.472 471.376 97.9143C471.658 97.3506 472.066 96.9009 472.6 96.565C473.139 96.2232 473.793 96.0523 474.561 96.0523C475.34 96.0523 475.994 96.2232 476.521 96.565C477.049 96.9009 477.448 97.3506 477.718 97.9143C477.988 98.472 478.123 99.0867 478.123 99.7583V100.73C478.123 101.401 477.985 102.019 477.709 102.583C477.439 103.14 477.037 103.59 476.503 103.932C475.976 104.268 475.328 104.436 474.561 104.436C473.781 104.436 473.124 104.268 472.591 103.932C472.057 103.59 471.652 103.14 471.376 102.583C471.1 102.019 470.963 101.401 470.963 100.73ZM472.798 99.7583V100.73C472.798 101.287 472.929 101.788 473.193 102.232C473.457 102.67 473.913 102.889 474.561 102.889C475.19 102.889 475.634 102.67 475.892 102.232C476.156 101.788 476.288 101.287 476.288 100.73V99.7583C476.288 99.2006 476.162 98.7029 475.91 98.2651C475.658 97.8214 475.208 97.5995 474.561 97.5995C473.931 97.5995 473.478 97.8214 473.202 98.2651C472.932 98.7029 472.798 99.2006 472.798 99.7583ZM461.788 90.1876V89.2161C461.788 88.5445 461.926 87.9298 462.201 87.3721C462.483 86.8084 462.891 86.3587 463.425 86.0229C463.964 85.6811 464.618 85.5102 465.386 85.5102C466.165 85.5102 466.819 85.6811 467.347 86.0229C467.874 86.3587 468.273 86.8084 468.543 87.3721C468.813 87.9298 468.948 88.5445 468.948 89.2161V90.1876C468.948 90.8592 468.81 91.4769 468.534 92.0405C468.264 92.5982 467.862 93.048 467.329 93.3898C466.801 93.7256 466.153 93.8935 465.386 93.8935C464.606 93.8935 463.949 93.7256 463.416 93.3898C462.882 93.048 462.477 92.5982 462.201 92.0405C461.926 91.4769 461.788 90.8592 461.788 90.1876ZM463.623 89.2161V90.1876C463.623 90.7453 463.755 91.246 464.018 91.6897C464.282 92.1275 464.738 92.3464 465.386 92.3464C466.015 92.3464 466.459 92.1275 466.717 91.6897C466.981 91.246 467.113 90.7453 467.113 90.1876V89.2161C467.113 88.6584 466.987 88.1607 466.735 87.7229C466.483 87.2792 466.033 87.0573 465.386 87.0573C464.756 87.0573 464.303 87.2792 464.027 87.7229C463.758 88.1607 463.623 88.6584 463.623 89.2161ZM462.471 104.184L475.136 85.762H477.187L464.522 104.184H462.471Z" fill="white"/>
<path d="M135.303 104.436C134.116 104.436 133.058 104.232 132.128 103.824C131.205 103.416 130.47 102.85 129.924 102.124C129.385 101.392 129.091 100.544 129.043 99.5784H131.31C131.358 100.172 131.561 100.685 131.921 101.117C132.281 101.542 132.752 101.872 133.333 102.106C133.915 102.34 134.56 102.457 135.267 102.457C136.059 102.457 136.761 102.319 137.372 102.043C137.984 101.767 138.464 101.383 138.811 100.892C139.159 100.4 139.333 99.8302 139.333 99.1826C139.333 98.505 139.165 97.9083 138.829 97.3926C138.494 96.8709 138.002 96.4631 137.354 96.1693C136.707 95.8754 135.915 95.7285 134.98 95.7285H133.504V93.7496H134.98C135.711 93.7496 136.353 93.6177 136.904 93.3538C137.462 93.09 137.897 92.7182 138.209 92.2384C138.527 91.7587 138.686 91.195 138.686 90.5474C138.686 89.9237 138.548 89.381 138.272 88.9193C137.996 88.4575 137.606 88.0977 137.102 87.8399C136.605 87.582 136.017 87.4531 135.339 87.4531C134.704 87.4531 134.104 87.57 133.54 87.8039C132.983 88.0318 132.527 88.3646 132.173 88.8023C131.819 89.2341 131.627 89.7558 131.597 90.3675H129.439C129.475 89.402 129.765 88.5565 130.311 87.8309C130.857 87.0993 131.57 86.5296 132.452 86.1218C133.339 85.714 134.314 85.5102 135.375 85.5102C136.515 85.5102 137.492 85.741 138.308 86.2028C139.123 86.6585 139.75 87.2612 140.188 88.0108C140.625 88.7604 140.844 89.5699 140.844 90.4394C140.844 91.4769 140.571 92.3614 140.026 93.093C139.486 93.8246 138.751 94.3313 137.822 94.6131V94.757C138.985 94.9489 139.894 95.4437 140.547 96.2412C141.201 97.0328 141.528 98.0132 141.528 99.1826C141.528 100.184 141.255 101.084 140.709 101.881C140.17 102.673 139.432 103.296 138.497 103.752C137.561 104.208 136.497 104.436 135.303 104.436Z" fill="white"/>
<path d="M154.313 100.73V99.7583C154.313 99.0867 154.451 98.472 154.727 97.9143C155.009 97.3506 155.417 96.9009 155.95 96.565C156.49 96.2232 157.144 96.0523 157.911 96.0523C158.691 96.0523 159.345 96.2232 159.872 96.565C160.4 96.9009 160.799 97.3506 161.069 97.9143C161.338 98.472 161.473 99.0867 161.473 99.7583V100.73C161.473 101.401 161.335 102.019 161.06 102.583C160.79 103.14 160.388 103.59 159.854 103.932C159.327 104.268 158.679 104.436 157.911 104.436C157.132 104.436 156.475 104.268 155.941 103.932C155.408 103.59 155.003 103.14 154.727 102.583C154.451 102.019 154.313 101.401 154.313 100.73ZM156.148 99.7583V100.73C156.148 101.287 156.28 101.788 156.544 102.232C156.808 102.67 157.264 102.889 157.911 102.889C158.541 102.889 158.985 102.67 159.243 102.232C159.507 101.788 159.638 101.287 159.638 100.73V99.7583C159.638 99.2006 159.513 98.7029 159.261 98.2651C159.009 97.8214 158.559 97.5995 157.911 97.5995C157.282 97.5995 156.829 97.8214 156.553 98.2651C156.283 98.7029 156.148 99.2006 156.148 99.7583ZM145.138 90.1876V89.2161C145.138 88.5445 145.276 87.9298 145.552 87.3721C145.834 86.8084 146.242 86.3587 146.776 86.0229C147.315 85.6811 147.969 85.5102 148.736 85.5102C149.516 85.5102 150.17 85.6811 150.697 86.0229C151.225 86.3587 151.624 86.8084 151.894 87.3721C152.164 87.9298 152.298 88.5445 152.298 89.2161V90.1876C152.298 90.8592 152.161 91.4769 151.885 92.0405C151.615 92.5982 151.213 93.048 150.679 93.3898C150.152 93.7256 149.504 93.8935 148.736 93.8935C147.957 93.8935 147.3 93.7256 146.767 93.3898C146.233 93.048 145.828 92.5982 145.552 92.0405C145.276 91.4769 145.138 90.8592 145.138 90.1876ZM146.973 89.2161V90.1876C146.973 90.7453 147.105 91.246 147.369 91.6897C147.633 92.1275 148.089 92.3464 148.736 92.3464C149.366 92.3464 149.81 92.1275 150.068 91.6897C150.332 91.246 150.464 90.7453 150.464 90.1876V89.2161C150.464 88.6584 150.338 88.1607 150.086 87.7229C149.834 87.2792 149.384 87.0573 148.736 87.0573C148.107 87.0573 147.654 87.2792 147.378 87.7229C147.108 88.1607 146.973 88.6584 146.973 89.2161ZM145.822 104.184L158.487 85.762H160.538L147.873 104.184H145.822Z" fill="white"/>
<path d="M43.0312 216.068V214.449L49.1119 207.792C49.8255 207.013 50.4131 206.335 50.8749 205.76C51.3366 205.178 51.6784 204.632 51.9003 204.122C52.1282 203.607 52.2421 203.067 52.2421 202.503C52.2421 201.856 52.0862 201.295 51.7744 200.821C51.4686 200.348 51.0488 199.982 50.5151 199.724C49.9814 199.466 49.3817 199.337 48.7161 199.337C48.0085 199.337 47.3908 199.484 46.8631 199.778C46.3414 200.066 45.9366 200.47 45.6488 200.992C45.3669 201.514 45.226 202.126 45.226 202.827H43.1032C43.1032 201.748 43.352 200.8 43.8498 199.985C44.3475 199.169 45.0251 198.534 45.8826 198.078C46.7462 197.622 47.7146 197.394 48.788 197.394C49.8674 197.394 50.8239 197.622 51.6574 198.078C52.491 198.534 53.1446 199.148 53.6184 199.922C54.0921 200.695 54.329 201.556 54.329 202.503C54.329 203.181 54.206 203.844 53.9602 204.491C53.7203 205.133 53.3005 205.85 52.7009 206.641C52.1072 207.427 51.2827 208.386 50.2272 209.519L46.0895 213.945V214.089H54.6528V216.068H43.0312ZM57.5402 212.29V210.455L65.6357 197.646H66.967V200.488H66.0675L59.9509 210.167V210.311H70.8528V212.29H57.5402ZM66.2114 216.068V211.732V210.878V197.646H68.3342V216.068H66.2114Z" fill="white"/>
<path d="M83.4533 212.614V211.642C83.4533 210.971 83.5912 210.356 83.867 209.798C84.1489 209.235 84.5567 208.785 85.0904 208.449C85.6301 208.107 86.2837 207.936 87.0513 207.936C87.8309 207.936 88.4845 208.107 89.0122 208.449C89.5399 208.785 89.9387 209.235 90.2085 209.798C90.4784 210.356 90.6133 210.971 90.6133 211.642V212.614C90.6133 213.285 90.4754 213.903 90.1995 214.467C89.9297 215.024 89.5279 215.474 88.9942 215.816C88.4665 216.152 87.8189 216.32 87.0513 216.32C86.2717 216.32 85.6151 216.152 85.0814 215.816C84.5477 215.474 84.1429 215.024 83.867 214.467C83.5912 213.903 83.4533 213.285 83.4533 212.614ZM85.2883 211.642V212.614C85.2883 213.171 85.4202 213.672 85.684 214.116C85.9479 214.554 86.4036 214.773 87.0513 214.773C87.6809 214.773 88.1247 214.554 88.3825 214.116C88.6464 213.672 88.7783 213.171 88.7783 212.614V211.642C88.7783 211.085 88.6524 210.587 88.4005 210.149C88.1487 209.705 87.6989 209.484 87.0513 209.484C86.4216 209.484 85.9689 209.705 85.693 210.149C85.4232 210.587 85.2883 211.085 85.2883 211.642ZM74.2783 202.072V201.1C74.2783 200.429 74.4163 199.814 74.6921 199.256C74.974 198.692 75.3817 198.243 75.9154 197.907C76.4551 197.565 77.1088 197.394 77.8764 197.394C78.6559 197.394 79.3096 197.565 79.8373 197.907C80.365 198.243 80.7638 198.692 81.0336 199.256C81.3035 199.814 81.4384 200.429 81.4384 201.1V202.072C81.4384 202.743 81.3005 203.361 81.0246 203.925C80.7548 204.482 80.353 204.932 79.8193 205.274C79.2916 205.61 78.6439 205.778 77.8764 205.778C77.0968 205.778 76.4401 205.61 75.9064 205.274C75.3727 204.932 74.968 204.482 74.6921 203.925C74.4163 203.361 74.2783 202.743 74.2783 202.072ZM76.1133 201.1V202.072C76.1133 202.629 76.2453 203.13 76.5091 203.574C76.773 204.012 77.2287 204.23 77.8764 204.23C78.506 204.23 78.9498 204.012 79.2076 203.574C79.4715 203.13 79.6034 202.629 79.6034 202.072V201.1C79.6034 200.542 79.4775 200.045 79.2256 199.607C78.9737 199.163 78.524 198.941 77.8764 198.941C77.2467 198.941 76.794 199.163 76.5181 199.607C76.2483 200.045 76.1133 200.542 76.1133 201.1ZM74.962 216.068L87.627 197.646H89.6778L77.0128 216.068H74.962Z" fill="white"/>
<path d="M327.427 33.1726V31.5535L333.507 24.8972C334.221 24.1176 334.809 23.44 335.27 22.8643C335.732 22.2826 336.074 21.7369 336.296 21.2272C336.524 20.7115 336.638 20.1718 336.638 19.6081C336.638 18.9605 336.482 18.3998 336.17 17.926C335.864 17.4523 335.444 17.0865 334.911 16.8286C334.377 16.5708 333.777 16.4419 333.112 16.4419C332.404 16.4419 331.786 16.5888 331.259 16.8826C330.737 17.1705 330.332 17.5752 330.044 18.0969C329.762 18.6187 329.622 19.2303 329.622 19.9319H327.499C327.499 18.8525 327.748 17.905 328.245 17.0895C328.743 16.2739 329.421 15.6383 330.278 15.1825C331.142 14.7268 332.11 14.4989 333.184 14.4989C334.263 14.4989 335.219 14.7268 336.053 15.1825C336.886 15.6383 337.54 16.253 338.014 17.0265C338.488 17.8001 338.724 18.6606 338.724 19.6081C338.724 20.2857 338.602 20.9484 338.356 21.596C338.116 22.2377 337.696 22.9543 337.096 23.7458C336.503 24.5314 335.678 25.4909 334.623 26.6242L330.485 31.0498V31.1937H339.048V33.1726H327.427Z" fill="white"/>
<path d="M351.88 29.7185V28.7471C351.88 28.0754 352.018 27.4608 352.294 26.9031C352.576 26.3394 352.983 25.8896 353.517 25.5538C354.057 25.212 354.71 25.0411 355.478 25.0411C356.258 25.0411 356.911 25.212 357.439 25.5538C357.967 25.8896 358.365 26.3394 358.635 26.9031C358.905 27.4608 359.04 28.0754 359.04 28.7471V29.7185C359.04 30.3901 358.902 31.0078 358.626 31.5715C358.356 32.1292 357.955 32.5789 357.421 32.9207C356.893 33.2566 356.246 33.4245 355.478 33.4245C354.698 33.4245 354.042 33.2566 353.508 32.9207C352.974 32.5789 352.57 32.1292 352.294 31.5715C352.018 31.0078 351.88 30.3901 351.88 29.7185ZM353.715 28.7471V29.7185C353.715 30.2762 353.847 30.7769 354.111 31.2207C354.375 31.6584 354.83 31.8773 355.478 31.8773C356.108 31.8773 356.551 31.6584 356.809 31.2207C357.073 30.7769 357.205 30.2762 357.205 29.7185V28.7471C357.205 28.1894 357.079 27.6916 356.827 27.2539C356.575 26.8101 356.126 26.5882 355.478 26.5882C354.848 26.5882 354.396 26.8101 354.12 27.2539C353.85 27.6916 353.715 28.1894 353.715 28.7471ZM342.705 19.1763V18.2049C342.705 17.5333 342.843 16.9186 343.119 16.3609C343.401 15.7972 343.808 15.3475 344.342 15.0116C344.882 14.6698 345.536 14.4989 346.303 14.4989C347.083 14.4989 347.736 14.6698 348.264 15.0116C348.792 15.3475 349.191 15.7972 349.46 16.3609C349.73 16.9186 349.865 17.5333 349.865 18.2049V19.1763C349.865 19.848 349.727 20.4656 349.451 21.0293C349.182 21.587 348.78 22.0368 348.246 22.3786C347.718 22.7144 347.071 22.8823 346.303 22.8823C345.524 22.8823 344.867 22.7144 344.333 22.3786C343.799 22.0368 343.395 21.587 343.119 21.0293C342.843 20.4656 342.705 19.848 342.705 19.1763ZM344.54 18.2049V19.1763C344.54 19.734 344.672 20.2348 344.936 20.6785C345.2 21.1163 345.655 21.3351 346.303 21.3351C346.933 21.3351 347.377 21.1163 347.634 20.6785C347.898 20.2348 348.03 19.734 348.03 19.1763V18.2049C348.03 17.6472 347.904 17.1495 347.652 16.7117C347.401 16.268 346.951 16.0461 346.303 16.0461C345.673 16.0461 345.221 16.268 344.945 16.7117C344.675 17.1495 344.54 17.6472 344.54 18.2049ZM343.389 33.1726L356.054 14.7508H358.105L345.44 33.1726H343.389Z" fill="white"/>
<path d="M553.004 208.898C553.203 208.898 553.395 208.936 553.578 209.012C553.762 209.088 553.924 209.197 554.065 209.337C554.206 209.478 554.314 209.64 554.39 209.824C554.466 210.008 554.504 210.199 554.504 210.398C554.504 210.597 554.466 210.788 554.39 210.972C554.314 211.156 554.206 211.318 554.065 211.459C553.924 211.599 553.762 211.708 553.578 211.784C553.395 211.86 553.203 211.898 553.004 211.898C552.806 211.898 552.614 211.86 552.43 211.784C552.246 211.708 552.084 211.599 551.943 211.459C551.803 211.318 551.694 211.156 551.618 210.972C551.542 210.788 551.504 210.597 551.504 210.398C551.504 210.199 551.542 210.008 551.618 209.824C551.694 209.64 551.803 209.478 551.943 209.337C552.084 209.197 552.246 209.088 552.43 209.012C552.614 208.936 552.805 208.898 553.004 208.898ZM559.004 208.898C559.203 208.898 559.395 208.936 559.579 209.012C559.763 209.088 559.925 209.197 560.065 209.337C560.206 209.478 560.314 209.64 560.391 209.824C560.467 210.008 560.505 210.199 560.505 210.398C560.505 210.597 560.467 210.788 560.391 210.972C560.314 211.156 560.206 211.318 560.065 211.459C559.925 211.599 559.763 211.708 559.579 211.784C559.395 211.86 559.204 211.898 559.005 211.898C558.806 211.898 558.614 211.86 558.43 211.784C558.247 211.708 558.084 211.599 557.944 211.459C557.803 211.318 557.695 211.156 557.619 210.972C557.543 210.788 557.504 210.597 557.504 210.398C557.504 210.199 557.543 210.008 557.619 209.824C557.695 209.64 557.803 209.478 557.944 209.337C558.084 209.197 558.247 209.088 558.43 209.012C558.614 208.936 558.806 208.898 559.004 208.898ZM565.005 208.898C565.204 208.898 565.395 208.936 565.579 209.012C565.763 209.088 565.925 209.197 566.066 209.337C566.206 209.478 566.315 209.64 566.391 209.824C566.467 210.008 566.505 210.199 566.505 210.398C566.505 210.597 566.467 210.788 566.391 210.972C566.315 211.156 566.206 211.318 566.066 211.459C565.925 211.599 565.763 211.708 565.579 211.784C565.395 211.86 565.204 211.898 565.005 211.898C564.806 211.898 564.614 211.86 564.431 211.784C564.247 211.708 564.085 211.599 563.944 211.459C563.803 211.318 563.695 211.156 563.619 210.972C563.543 210.788 563.505 210.597 563.505 210.398C563.505 210.199 563.543 210.008 563.619 209.824C563.695 209.64 563.803 209.478 563.944 209.337C564.085 209.197 564.247 209.088 564.431 209.012C564.614 208.936 564.806 208.898 565.005 208.898ZM571.005 208.898C571.204 208.898 571.396 208.936 571.579 209.012C571.763 209.088 571.925 209.197 572.066 209.337C572.207 209.478 572.315 209.64 572.391 209.824C572.467 210.008 572.505 210.199 572.505 210.398C572.505 210.597 572.467 210.788 572.391 210.972C572.315 211.156 572.207 211.318 572.066 211.459C571.925 211.599 571.763 211.708 571.579 211.784C571.396 211.86 571.204 211.898 571.005 211.898C570.806 211.898 570.615 211.86 570.431 211.784C570.247 211.708 570.085 211.599 569.944 211.459C569.804 211.318 569.695 211.156 569.619 210.972C569.543 210.788 569.505 210.597 569.505 210.398C569.505 210.199 569.543 210.008 569.619 209.824C569.695 209.64 569.804 209.478 569.944 209.337C570.085 209.197 570.247 209.088 570.431 209.012C570.615 208.936 570.806 208.898 571.005 208.898ZM577.005 208.898C577.204 208.898 577.396 208.936 577.58 209.012C577.763 209.088 577.926 209.197 578.066 209.337C578.207 209.478 578.315 209.64 578.391 209.824C578.468 210.008 578.506 210.199 578.506 210.398C578.506 210.597 578.468 210.788 578.391 210.972C578.315 211.156 578.207 211.318 578.066 211.459C577.926 211.599 577.763 211.708 577.58 211.784C577.396 211.86 577.205 211.898 577.006 211.898C576.807 211.898 576.615 211.86 576.431 211.784C576.248 211.708 576.085 211.599 575.945 211.459C575.804 211.318 575.696 211.156 575.62 210.972C575.543 210.788 575.505 210.597 575.505 210.398C575.505 210.199 575.543 210.008 575.62 209.824C575.696 209.64 575.804 209.478 575.945 209.337C576.085 209.197 576.248 209.088 576.431 209.012C576.615 208.936 576.806 208.898 577.005 208.898ZM583.006 208.898C583.205 208.898 583.396 208.936 583.58 209.012C583.764 209.088 583.926 209.197 584.067 209.337C584.207 209.478 584.316 209.64 584.392 209.824C584.468 210.008 584.506 210.199 584.506 210.398C584.506 210.597 584.468 210.788 584.392 210.972C584.316 211.156 584.207 211.318 584.067 211.459C583.926 211.599 583.764 211.708 583.58 211.784C583.396 211.86 583.205 211.898 583.006 211.898C582.807 211.898 582.615 211.86 582.432 211.784C582.248 211.708 582.086 211.599 581.945 211.459C581.804 211.318 581.696 211.156 581.62 210.972C581.544 210.788 581.506 210.597 581.506 210.398C581.506 210.199 581.544 210.008 581.62 209.824C581.696 209.64 581.804 209.478 581.945 209.337C582.086 209.197 582.248 209.088 582.432 209.012C582.615 208.936 582.807 208.898 583.006 208.898ZM589.006 208.898C589.205 208.898 589.396 208.936 589.58 209.012C589.764 209.088 589.926 209.197 590.067 209.337C590.208 209.478 590.316 209.64 590.392 209.824C590.468 210.008 590.506 210.199 590.506 210.398C590.506 210.597 590.468 210.788 590.392 210.972C590.316 211.156 590.208 211.318 590.067 211.459C589.926 211.599 589.764 211.708 589.58 211.784C589.396 211.86 589.205 211.898 589.006 211.898C588.807 211.898 588.616 211.86 588.432 211.784C588.248 211.708 588.086 211.599 587.945 211.459C587.805 211.318 587.696 211.156 587.62 210.972C587.544 210.788 587.506 210.597 587.506 210.398C587.506 210.199 587.544 210.008 587.62 209.824C587.696 209.64 587.805 209.478 587.945 209.337C588.086 209.197 588.248 209.088 588.432 209.012C588.616 208.936 588.807 208.898 589.006 208.898ZM595.006 208.898C595.205 208.898 595.397 208.936 595.581 209.012C595.764 209.088 595.927 209.197 596.067 209.337C596.208 209.478 596.316 209.64 596.392 209.824C596.468 210.008 596.507 210.199 596.507 210.398C596.507 210.597 596.468 210.788 596.392 210.972C596.316 211.156 596.208 211.318 596.067 211.459C595.927 211.599 595.764 211.708 595.581 211.784C595.397 211.86 595.205 211.898 595.007 211.898C594.808 211.898 594.616 211.86 594.432 211.784C594.248 211.708 594.086 211.599 593.946 211.459C593.805 211.318 593.697 211.156 593.62 210.972C593.544 210.788 593.506 210.597 593.506 210.398C593.506 210.199 593.544 210.008 593.62 209.824C593.697 209.64 593.805 209.478 593.946 209.337C594.086 209.197 594.248 209.088 594.432 209.012C594.616 208.936 594.807 208.898 595.006 208.898ZM601.007 208.898C601.205 208.898 601.397 208.936 601.581 209.012C601.765 209.088 601.927 209.197 602.068 209.337C602.208 209.478 602.317 209.64 602.393 209.824C602.469 210.008 602.507 210.199 602.507 210.398C602.507 210.597 602.469 210.788 602.393 210.972C602.317 211.156 602.208 211.318 602.068 211.459C601.927 211.599 601.765 211.708 601.581 211.784C601.397 211.86 601.206 211.898 601.007 211.898C600.808 211.898 600.616 211.86 600.433 211.784C600.249 211.708 600.087 211.599 599.946 211.459C599.805 211.318 599.697 211.156 599.621 210.972C599.545 210.788 599.507 210.597 599.507 210.398C599.507 210.199 599.545 210.008 599.621 209.824C599.697 209.64 599.805 209.478 599.946 209.337C600.087 209.197 600.249 209.088 600.433 209.012C600.616 208.936 600.808 208.898 601.007 208.898Z" fill="white"/>
</g>
</svg>
