<svg xmlns="http://www.w3.org/2000/svg" width="28" height="28" viewBox="0 0 28 28" fill="none">
    <g clip-path="url(#clip0_1651_4523)">
        <path opacity="0.3" fill-rule="evenodd" clip-rule="evenodd"
            d="M18.7645 26.2068C17.565 27.1407 16.1968 27.9049 14.4851 28.0084C14.177 28.027 13.8682 28.027 13.5601 28.0084C11.8484 27.9049 10.4802 27.1407 9.28073 26.2068C8.16668 25.3394 6.94374 24.1163 5.55238 22.7248C5.51382 22.6862 5.47512 22.6475 5.4363 22.6087C5.39748 22.5699 5.35878 22.5312 5.32021 22.4926C3.92866 21.1013 2.70555 19.8783 1.83816 18.7643C0.904257 17.5648 0.140116 16.1966 0.0365755 14.4849C0.0179435 14.1769 0.0179435 13.868 0.0365755 13.56C0.140116 11.8483 0.904257 10.4801 1.83816 9.28062C2.70555 8.16657 3.92866 6.94364 5.32021 5.55229C5.35878 5.51373 5.39748 5.47503 5.4363 5.43621C5.47512 5.39739 5.51382 5.35869 5.55238 5.32012C6.94374 3.92858 8.16668 2.70548 9.28073 1.83809C10.4802 0.904195 11.8484 0.140059 13.5601 0.0365194C13.8682 0.0178877 14.177 0.0178875 14.4851 0.0365199C16.1968 0.140059 17.565 0.904195 18.7645 1.83809C19.8785 2.70548 21.1015 3.92859 22.4928 5.32013C22.5314 5.3587 22.5701 5.39739 22.6089 5.43621C22.6477 5.47503 22.6864 5.51372 22.725 5.55228C24.1165 6.94364 25.3396 8.16657 26.207 9.28062C27.1409 10.4801 27.9051 11.8483 28.0086 13.56C28.0273 13.868 28.0273 14.1769 28.0086 14.4849C27.9051 16.1966 27.1409 17.5648 26.207 18.7643C25.3396 19.8783 24.1165 21.1013 22.725 22.4926C22.6864 22.5312 22.6477 22.5699 22.6089 22.6087C22.5701 22.6475 22.5314 22.6862 22.4928 22.7248C21.1015 24.1163 19.8785 25.3394 18.7645 26.2068ZM2.83366 14.3157C2.94488 16.1544 4.43584 17.6454 7.41775 20.6273C10.3997 23.6092 11.8906 25.1001 13.7293 25.2113C13.9247 25.2231 14.1205 25.2231 14.3159 25.2113C16.1546 25.1001 17.6455 23.6092 20.6275 20.6273C23.6094 17.6454 25.1003 16.1544 25.2115 14.3157C25.2234 14.1204 25.2234 13.9245 25.2115 13.7292C25.1003 11.8905 23.6094 10.3995 20.6275 7.41765C17.6455 4.43576 16.1546 2.94481 14.3159 2.83359C14.1205 2.82177 13.9247 2.82177 13.7293 2.83359C11.8906 2.94481 10.3997 4.43576 7.41775 7.41765C4.43584 10.3995 2.94488 11.8905 2.83366 13.7292C2.82185 13.9245 2.82185 14.1204 2.83366 14.3157Z"
            fill="#626073" />
        <path
            d="M6.54968 14.0233C6.54968 13.718 6.76566 13.4569 7.06254 13.3859C8.56832 13.0258 9.75412 12.4622 10.7497 11.5802C11.0426 11.3207 11.3196 11.0437 11.5792 10.7508C12.4612 9.7552 13.0247 8.56941 13.3849 7.06364C13.4559 6.76676 13.717 6.55078 14.0222 6.55078C14.3275 6.55078 14.5886 6.76676 14.6596 7.06363C15.0197 8.56941 15.5833 9.7552 16.4653 10.7508C16.7248 11.0437 17.0018 11.3207 17.2947 11.5802C18.2903 12.4622 19.4761 13.0258 20.9819 13.3859C21.2788 13.4569 21.4947 13.718 21.4947 14.0233C21.4947 14.3285 21.2788 14.5896 20.9819 14.6606C19.4761 15.0207 18.2903 15.5843 17.2947 16.4663C17.0018 16.7258 16.7248 17.0028 16.4653 17.2958C15.5833 18.2913 15.0197 19.4771 14.6596 20.9829C14.5886 21.2798 14.3275 21.4958 14.0222 21.4958C13.717 21.4958 13.4559 21.2798 13.3849 20.9829C13.0247 19.4771 12.4612 18.2913 11.5792 17.2958C11.3196 17.0028 11.0426 16.7258 10.7497 16.4663C9.75412 15.5843 8.56832 15.0207 7.06254 14.6606C6.76566 14.5896 6.54968 14.3285 6.54968 14.0233Z"
            fill="#626073" />
    </g>
    <defs>
        <clipPath id="clip0_1651_4523">
            <rect width="28" height="28" fill="white" />
        </clipPath>
    </defs>
</svg>