<svg width="125" height="131" viewBox="0 0 125 131" fill="none" xmlns="http://www.w3.org/2000/svg">
<mask id="mask0_301_187" style="mask-type:luminance" maskUnits="userSpaceOnUse" x="0" y="0" width="125" height="131">
<path d="M0.780029 0H124.78V131H0.780029V0Z" fill="white"/>
</mask>
<g mask="url(#mask0_301_187)">
<path d="M125.111 55.6237C124.227 52.8341 115.759 28.7303 87.8335 24.6105C87.7343 24.6006 87.635 24.6006 87.5357 24.6105C87.0204 24.6062 86.5671 24.7717 86.1756 25.1068C85.6944 25.5229 85.4528 26.0491 85.4509 26.6853V34.8556C83.3269 34.951 81.2189 35.1892 79.1272 35.5703C78.6382 35.6632 78.2349 35.9012 77.9172 36.2843C77.5995 36.6674 77.4403 37.1078 77.4395 37.6055V44.4455C74.8286 44.7334 72.1978 45.0907 69.5671 45.597C69.0871 45.688 68.689 45.9196 68.3727 46.2918C68.0563 46.664 67.8919 47.0942 67.8794 47.5825V120.122C67.8794 120.397 67.932 120.662 68.0373 120.916C68.1426 121.17 68.2925 121.395 68.4871 121.589C68.6816 121.784 68.906 121.934 69.1602 122.039C69.4144 122.144 69.6791 122.197 69.9542 122.197C70.0833 122.207 70.2123 122.207 70.3414 122.197C71.6419 121.949 72.9027 121.74 74.1535 121.552V128.878C74.1522 129.154 74.2039 129.419 74.3088 129.674C74.4136 129.929 74.5635 130.153 74.7583 130.348C74.9531 130.543 75.178 130.693 75.4328 130.798C75.6876 130.903 75.9528 130.954 76.2283 130.953H123.215H123.483C123.558 130.936 123.63 130.913 123.701 130.884C123.789 130.869 123.875 130.85 123.959 130.824H124.029C124.029 130.824 124.079 130.824 124.098 130.824C124.199 130.773 124.291 130.71 124.376 130.635C124.439 130.605 124.499 130.568 124.555 130.526H124.615C124.617 130.506 124.617 130.486 124.615 130.467C124.682 130.381 124.745 130.291 124.803 130.199C124.803 130.129 124.912 130.069 124.952 129.99V129.901V129.831C124.977 129.746 124.997 129.66 125.012 129.573C125.045 129.483 125.069 129.39 125.081 129.295C125.087 129.262 125.087 129.229 125.081 129.196V129.146C125.081 129.146 125.081 129.087 125.081 129.057V56.5867C125.152 56.2676 125.162 55.9466 125.111 55.6237ZM77.4594 48.5951V110.145C77.4615 110.796 77.713 111.328 78.2139 111.743C78.5931 112.061 79.0299 112.22 79.5243 112.22C79.6566 112.23 79.789 112.23 79.9214 112.22C80.6858 112.071 81.4403 111.952 82.1848 111.853L82.9095 111.763C83.4059 111.704 83.9023 111.654 84.3986 111.614L85.2127 111.555C85.676 111.555 86.1426 111.535 86.6125 111.495H87.357H87.496H88.5979C88.9156 111.495 89.2432 111.495 89.5907 111.495C89.9382 111.495 90.4147 111.495 90.8217 111.585L91.6953 111.654C92.152 111.704 92.5987 111.763 93.0454 111.833L93.7304 111.922C94.3956 112.031 95.0408 112.16 95.7159 112.289L96.3711 112.448L97.622 112.756L98.3864 112.984C98.7438 113.094 99.1012 113.193 99.4486 113.312L100.243 113.59L101.236 113.937L102.02 114.245L102.933 114.632L103.688 114.97L104.561 115.387L105.276 115.754C105.564 115.893 105.842 116.042 106.11 116.191L106.805 116.568L107.599 117.035L108.254 117.432L109.009 117.918L109.624 118.325L110.349 118.832L110.935 119.239L111.62 119.755L112.156 120.162L112.831 120.698L113.317 121.095L113.397 121.165C104.928 117.917 96.1587 116.339 87.089 116.429C82.0705 116.441 77.0869 116.865 72.1383 117.7V49.3595C73.8723 49.0551 75.6393 48.8003 77.4395 48.5951H77.4594ZM110.22 106.68C110.071 106.551 109.912 106.432 109.753 106.313C109.307 105.966 108.86 105.618 108.393 105.32C108.175 105.152 107.946 104.993 107.718 104.834C107.291 104.536 106.854 104.248 106.408 103.96L105.673 103.484C105.187 103.186 104.68 102.888 104.184 102.6L103.529 102.233C102.804 101.836 102.05 101.449 101.285 101.091L100.858 100.893C100.203 100.605 99.5479 100.317 98.8728 100.039L97.9694 99.6419C97.4036 99.4335 96.8278 99.225 96.2321 99.0264L95.2394 98.7187C94.6239 98.5301 93.9885 98.3514 93.3532 98.1826C93.0554 98.1032 92.7675 98.0138 92.4696 97.9443C91.4769 97.7061 90.5636 97.4976 89.5609 97.3189V29.1572C113.248 33.8628 120.256 54.1148 121.09 56.7852V119.497L120.892 119.189L120.306 118.196L119.969 117.67L119.323 116.677L118.966 116.161C118.678 115.754 118.38 115.347 118.072 114.93L117.874 114.662C117.507 114.176 117.11 113.669 116.693 113.173L116.295 112.706C116.008 112.359 115.7 112.002 115.382 111.654L114.876 111.098C114.568 110.771 114.26 110.443 113.883 110.105L113.337 109.55C112.97 109.182 112.583 108.825 112.195 108.458L111.759 108.06C111.312 107.584 110.756 107.147 110.17 106.68H110.22ZM113.079 115.764L112.692 115.486L111.61 114.742L111.183 114.454L110.071 113.759L109.585 113.461C109.217 113.233 108.83 113.024 108.453 112.806L107.907 112.498L106.755 111.902L106.14 111.595C105.762 111.406 105.365 111.227 104.968 111.049C104.75 110.949 104.531 110.84 104.303 110.751L103.112 110.254L102.387 109.966C101.99 109.818 101.583 109.688 101.186 109.55L100.382 109.272C99.9847 109.139 99.5777 109.02 99.1607 108.914L98.307 108.666C97.8999 108.557 97.483 108.467 97.0561 108.368C96.6292 108.269 96.4604 108.219 96.1527 108.16C95.8449 108.1 95.3089 108.001 94.882 107.921L93.8892 107.753L92.5689 107.584C92.2314 107.584 91.9038 107.495 91.5762 107.465C91.2486 107.435 90.6628 107.395 90.2062 107.375L89.2134 107.306H86.7514C86.1955 107.306 85.6396 107.356 85.0737 107.395H84.2199C83.3563 107.465 82.4926 107.554 81.609 107.673V39.3428C82.8996 39.1442 84.1902 39.0151 85.4708 38.9357V99.1059C85.4716 99.355 85.5157 99.5963 85.6031 99.8297C85.6904 100.063 85.8156 100.274 85.9786 100.463C86.1416 100.651 86.3323 100.805 86.5506 100.925C86.7689 101.046 87.0013 101.124 87.2478 101.161C89.8911 101.512 92.4756 102.115 95.0015 102.97C97.5273 103.824 99.9469 104.915 102.26 106.241C104.574 107.567 106.737 109.104 108.751 110.851C110.765 112.599 112.592 114.524 114.231 116.628L114.082 116.528C113.724 116.27 113.387 116.012 113.029 115.764H113.079ZM78.333 121.055C81.1285 120.769 83.9313 120.623 86.7415 120.619C91.7418 120.547 96.6868 121.034 101.577 122.082C106.467 123.129 111.178 124.71 115.71 126.823H78.3032L78.333 121.055Z" fill="white"/>
<path d="M97.7609 59.1777C106.289 61.3121 112.285 71.1601 113.407 73.0761L113.516 73.2647C113.663 73.497 113.849 73.6923 114.075 73.8506C114.3 74.0088 114.547 74.118 114.815 74.178C115.084 74.238 115.354 74.2444 115.625 74.1971C115.896 74.1498 116.147 74.0524 116.38 73.905C116.612 73.7576 116.807 73.5713 116.966 73.3461C117.124 73.121 117.233 72.8741 117.293 72.6056C117.353 72.337 117.36 72.0672 117.312 71.7961C117.265 71.525 117.168 71.2733 117.02 71.0409C115.72 68.7676 108.919 57.6488 98.7636 55.1074C98.5972 55.0679 98.4284 55.0481 98.2573 55.0479C98.0036 55.0475 97.758 55.0922 97.5207 55.1819C97.2833 55.2717 97.0697 55.4006 96.8796 55.5688C96.6896 55.7369 96.5356 55.9333 96.4176 56.1579C96.2996 56.3826 96.2253 56.6208 96.1948 56.8727C96.1642 57.1246 96.1793 57.3737 96.2402 57.6201C96.301 57.8664 96.4036 58.0939 96.5479 58.3026C96.6921 58.5113 96.8688 58.6876 97.0778 58.8315C97.2868 58.9755 97.5145 59.0776 97.7609 59.138V59.1777Z" fill="white"/>
<path d="M113.555 99.7117C113.703 99.944 113.889 100.139 114.114 100.298C114.339 100.456 114.586 100.565 114.855 100.625C115.123 100.685 115.393 100.691 115.664 100.644C115.935 100.597 116.187 100.499 116.42 100.352C116.652 100.205 116.847 100.018 117.005 99.7931C117.164 99.568 117.273 99.3211 117.333 99.0526C117.393 98.784 117.399 98.5142 117.352 98.2431C117.305 97.972 117.207 97.7203 117.06 97.4879C115.759 95.2145 108.959 84.0958 98.8033 81.604C98.6401 81.5651 98.4747 81.5453 98.307 81.5445C98.0528 81.5429 97.8066 81.5866 97.5685 81.6754C97.3304 81.7643 97.1158 81.8926 96.9248 82.0604C96.7339 82.2281 96.5789 82.4243 96.4601 82.649C96.3412 82.8737 96.2662 83.1121 96.2349 83.3644C96.2037 83.6166 96.2183 83.8662 96.2788 84.1131C96.3393 84.36 96.4417 84.588 96.586 84.7973C96.7304 85.0065 96.9071 85.1833 97.1164 85.3275C97.3257 85.4718 97.5538 85.5741 97.8006 85.6346C106.328 87.759 112.324 97.617 113.446 99.533C113.426 99.5627 113.496 99.6422 113.555 99.7117Z" fill="white"/>
<path d="M97.7609 72.3813C106.289 74.5157 112.285 84.3637 113.407 86.2797C113.407 86.3293 113.496 86.4385 113.516 86.4782C113.663 86.7106 113.849 86.9059 114.075 87.0641C114.3 87.2224 114.547 87.3315 114.815 87.3915C115.084 87.4516 115.354 87.4579 115.625 87.4106C115.896 87.3633 116.147 87.266 116.38 87.1185C116.612 86.9711 116.807 86.7848 116.966 86.5597C117.124 86.3345 117.233 86.0877 117.293 85.8191C117.353 85.5505 117.36 85.2807 117.312 85.0096C117.265 84.7386 117.168 84.4868 117.02 84.2545C115.72 81.9811 108.919 70.8624 98.7636 68.3706C98.5972 68.3311 98.4284 68.3112 98.2573 68.311C98.0036 68.3107 97.758 68.3554 97.5207 68.4451C97.2834 68.5349 97.0697 68.6638 96.8796 68.8319C96.6896 69.0001 96.5356 69.1965 96.4176 69.4211C96.2996 69.6457 96.2253 69.884 96.1948 70.1359C96.1642 70.3878 96.1793 70.6369 96.2402 70.8833C96.301 71.1296 96.4036 71.3571 96.5478 71.5658C96.6922 71.7745 96.8688 71.9509 97.0778 72.0948C97.2868 72.2387 97.5145 72.3408 97.7609 72.4011V72.3813Z" fill="white"/>
<path d="M97.7609 45.9742C106.289 48.1086 112.285 57.9566 113.407 59.8726L113.516 60.0612C113.663 60.2932 113.85 60.4882 114.075 60.6461C114.3 60.804 114.547 60.9128 114.815 60.9727C115.083 61.0325 115.353 61.0387 115.624 60.9914C115.895 60.944 116.146 60.8467 116.378 60.6994C116.611 60.552 116.806 60.3659 116.964 60.141C117.122 59.9161 117.231 59.6695 117.291 59.4012C117.352 59.1329 117.358 58.8633 117.311 58.5924C117.264 58.3215 117.167 58.0698 117.02 57.8375C115.72 55.5641 108.919 44.4454 98.7636 41.9536C98.5971 41.9141 98.4284 41.8943 98.2573 41.894C98.0035 41.8937 97.758 41.9384 97.5207 42.0281C97.2833 42.1179 97.0697 42.2468 96.8796 42.415C96.6896 42.5831 96.5356 42.7795 96.4176 43.0041C96.2996 43.2288 96.2254 43.467 96.1948 43.7189C96.1642 43.9708 96.1793 44.2199 96.2402 44.4663C96.301 44.7126 96.4036 44.9401 96.5478 45.1488C96.6921 45.3575 96.8688 45.5338 97.0778 45.6777C97.2868 45.8216 97.5145 45.9238 97.7609 45.9841V45.9742Z" fill="white"/>
<path d="M49.1959 21.4139H54.0703L49.7817 25.7025C49.5803 25.8979 49.4249 26.1248 49.3156 26.3832C49.2063 26.6416 49.1516 26.9111 49.1516 27.1916C49.1516 27.4722 49.2063 27.7417 49.3156 28.0001C49.4249 28.2585 49.5803 28.4854 49.7817 28.6807C50.1831 29.0875 50.6695 29.2893 51.241 29.2863C51.8154 29.2898 52.3051 29.0879 52.7103 28.6807L60.543 20.848C60.8631 20.5548 61.0707 20.1964 61.1658 19.7729C61.261 19.3494 61.2266 18.9367 61.0628 18.5347C60.8989 18.1328 60.6349 17.8137 60.2707 17.5775C59.9066 17.3412 59.5076 17.2302 59.0737 17.2443H54.1994L57.3265 14.1172C57.6206 13.82 57.8077 13.4663 57.8879 13.0559C57.9681 12.6456 57.928 12.2474 57.7675 11.8614C57.607 11.4753 57.353 11.166 57.0056 10.9335C56.6581 10.701 56.2753 10.5842 55.8572 10.583C55.2858 10.58 54.7993 10.7819 54.3979 11.1886L47.7267 17.8499C47.4291 18.1467 47.2392 18.5011 47.1569 18.9132C47.0747 19.3254 47.1141 19.7255 47.275 20.1138C47.436 20.502 47.6913 20.8126 48.041 21.0457C48.3907 21.2788 48.7757 21.3949 49.1959 21.394V21.4139Z" fill="white"/>
<path d="M54.1398 39.4817C55.4239 39.4817 56.6957 39.3565 57.9552 39.1059C59.2146 38.8554 60.4375 38.4844 61.6239 37.993C62.8103 37.5016 63.9374 36.8992 65.0051 36.1858C66.0728 35.4723 67.0607 34.6616 67.9687 33.7536C68.8767 32.8456 69.6874 31.8577 70.4009 30.79C71.1143 29.7223 71.7167 28.5952 72.2081 27.4088C72.6995 26.2225 73.0705 24.9995 73.321 23.7401C73.5715 22.4806 73.6968 21.2088 73.6968 19.9247C73.6968 18.6406 73.5715 17.3688 73.321 16.1093C73.0705 14.8499 72.6995 13.6269 72.2081 12.4406C71.7167 11.2542 71.1143 10.1271 70.4009 9.0594C69.6874 7.99168 68.8767 7.00382 67.9687 6.0958C67.0607 5.18778 66.0728 4.37705 65.0051 3.66363C63.9374 2.9502 62.8103 2.34778 61.6239 1.85637C60.4376 1.36495 59.2146 0.99398 57.9552 0.743458C56.6957 0.492937 55.4239 0.367676 54.1398 0.367676C52.8557 0.367676 51.5839 0.492937 50.3244 0.743458C49.0649 0.99398 47.842 1.36495 46.6556 1.85637C45.4693 2.34778 44.3422 2.9502 43.2745 3.66363C42.2068 4.37705 41.2189 5.18778 40.3109 6.0958C39.4029 7.00382 38.5921 7.99168 37.8787 9.0594C37.1653 10.1271 36.5629 11.2542 36.0714 12.4406C35.58 13.6269 35.2091 14.8499 34.9585 16.1093C34.708 17.3688 34.5828 18.6406 34.5828 19.9247C34.5841 21.2085 34.7104 22.4798 34.9618 23.7387C35.2132 24.9976 35.5849 26.22 36.0768 27.4058C36.5686 28.5916 37.1713 29.7181 37.8848 30.7853C38.5983 31.8525 39.4089 32.84 40.3167 33.7478C41.2244 34.6556 42.2119 35.4662 43.2792 36.1797C44.3464 36.8932 45.4729 37.4959 46.6587 37.9877C47.8445 38.4796 49.0669 38.8513 50.3258 39.1027C51.5847 39.3541 52.856 39.4804 54.1398 39.4817ZM54.1398 4.51734C55.1515 4.51734 56.1534 4.61602 57.1456 4.81339C58.1378 5.01075 59.1013 5.30301 60.0359 5.69015C60.9706 6.0773 61.8585 6.5519 62.6997 7.11395C63.5408 7.676 64.3191 8.3147 65.0344 9.03005C65.7498 9.7454 66.3885 10.5237 66.9505 11.3648C67.5126 12.206 67.9872 13.0939 68.3743 14.0286C68.7615 14.9632 69.0537 15.9266 69.2511 16.9189C69.4485 17.9111 69.5472 18.913 69.5472 19.9247C69.5472 20.9364 69.4485 21.9383 69.2511 22.9305C69.0537 23.9228 68.7615 24.8862 68.3743 25.8208C67.9872 26.7555 67.5126 27.6434 66.9505 28.4846C66.3885 29.3257 65.7498 30.104 65.0344 30.8194C64.3191 31.5347 63.5408 32.1734 62.6997 32.7355C61.8585 33.2975 60.9706 33.7721 60.0359 34.1592C59.1013 34.5464 58.1378 34.8386 57.1456 35.036C56.1534 35.2334 55.1515 35.3321 54.1398 35.3321C53.1281 35.3321 52.1262 35.2334 51.134 35.036C50.1417 34.8386 49.1783 34.5464 48.2436 34.1592C47.309 33.7721 46.4211 33.2975 45.5799 32.7355C44.7387 32.1734 43.9605 31.5347 43.2451 30.8194C42.5298 30.104 41.8911 29.3257 41.329 28.4846C40.767 27.6434 40.2924 26.7555 39.9052 25.8208C39.5181 24.8862 39.2258 23.9228 39.0285 22.9305C38.8311 21.9383 38.7324 20.9364 38.7324 19.9247C38.7331 18.9132 38.8323 17.9115 39.0301 16.9196C39.2279 15.9276 39.5205 14.9645 39.9079 14.0301C40.2953 13.0957 40.77 12.2081 41.3321 11.3672C41.8942 10.5263 42.5328 9.74818 43.248 9.03295C43.9633 8.31773 44.7413 7.67908 45.5823 7.11699C46.4232 6.55491 47.3108 6.08018 48.2452 5.69281C49.1795 5.30543 50.1427 5.01284 51.1347 4.81503C52.1266 4.61722 53.1283 4.51799 54.1398 4.51734Z" fill="white"/>
<path d="M41.4725 58.9394C41.4725 57.6551 41.3472 56.3832 41.0966 55.1236C40.846 53.864 40.475 52.6409 39.9834 51.4544C39.4919 50.268 38.8894 49.1408 38.1758 48.073C37.4622 47.0052 36.6514 46.0173 35.7432 45.1093C34.835 44.2012 33.8469 43.3905 32.779 42.6771C31.7111 41.9637 30.5839 41.3614 29.3973 40.8701C28.2107 40.3787 26.9876 40.0079 25.728 39.7575C24.4683 39.5072 23.1964 39.3821 21.9121 39.3823C20.6278 39.3825 19.3559 39.508 18.0964 39.7588C16.8368 40.0096 15.6139 40.3809 14.4275 40.8726C13.241 41.3643 12.114 41.9671 11.0463 42.6808C9.97867 43.3946 8.9909 44.2056 8.08301 45.114C7.17512 46.0223 6.36457 47.0105 5.65136 48.0785C4.93815 49.1466 4.33599 50.2739 3.84487 51.4606C3.35375 52.6472 2.98312 53.8704 2.73297 55.1301C2.48282 56.3897 2.35796 57.6617 2.3584 58.946C2.35883 60.2302 2.48455 61.5021 2.73556 62.7616C2.98656 64.0211 3.35802 65.2441 3.84994 66.4304C4.34186 67.6167 4.94479 68.7436 5.65872 69.8112C6.37266 70.8787 7.18387 71.8664 8.09238 72.7741C9.00088 73.6818 9.9892 74.4922 11.0574 75.2053C12.1255 75.9183 13.2529 76.5203 14.4397 77.0112C15.6264 77.5021 16.8497 77.8725 18.1094 78.1225C19.3691 78.3724 20.6411 78.497 21.9254 78.4964C23.2087 78.4944 24.4796 78.3675 25.738 78.1156C26.9963 77.8637 28.2182 77.4917 29.4034 76.9995C30.5886 76.5074 31.7145 75.9045 32.7812 75.1909C33.8479 74.4773 34.8348 73.6666 35.742 72.759C36.6493 71.8513 37.4594 70.8639 38.1725 69.7969C38.8855 68.7299 39.4878 67.6036 39.9794 66.4181C40.471 65.2327 40.8424 64.0107 41.0936 62.7521C41.3449 61.4936 41.4711 60.2227 41.4725 58.9394ZM37.3228 58.9394C37.3234 59.9513 37.2253 60.9536 37.0285 61.9462C36.8317 62.9388 36.5399 63.9027 36.1531 64.8378C35.7664 65.7729 35.2921 66.6613 34.7303 67.503C34.1685 68.3446 33.53 69.1234 32.8148 69.8392C32.0995 70.5551 31.3213 71.1943 30.4801 71.7568C29.6389 72.3193 28.7509 72.7944 27.8162 73.1819C26.8814 73.5695 25.9178 73.8621 24.9253 74.0598C23.9329 74.2575 22.9307 74.3564 21.9187 74.3567C20.9068 74.3569 19.9046 74.2583 18.912 74.0611C17.9195 73.8638 16.9558 73.5716 16.0208 73.1845C15.0859 72.7973 14.1977 72.3227 13.3562 71.7605C12.5148 71.1983 11.7363 70.5595 11.0208 69.8439C10.3052 69.1284 9.66637 68.3499 9.10421 67.5085C8.54205 66.667 8.0674 65.7788 7.68025 64.8439C7.29309 63.9089 7.00089 62.9452 6.80363 61.9527C6.60637 60.9601 6.50785 59.9579 6.50806 58.946C6.50828 57.934 6.60723 56.9318 6.80492 55.9394C7.00261 54.9469 7.29523 53.9833 7.68278 53.0485C8.07034 52.1138 8.54537 51.2258 9.10789 50.3846C9.67041 49.5434 10.3096 48.7652 11.0255 48.0499C11.7413 47.3347 12.5201 46.6962 13.3617 46.1344C14.2034 45.5726 15.0918 45.0983 16.0269 44.7116C16.962 44.3248 17.9259 44.033 18.9185 43.8362C19.9111 43.6394 20.9134 43.5413 21.9254 43.5419C22.936 43.5432 23.9368 43.6429 24.9279 43.8411C25.9189 44.0392 26.8812 44.3319 27.8146 44.7193C28.7481 45.1066 29.6349 45.5812 30.475 46.1429C31.3152 46.7047 32.0926 47.3429 32.8072 48.0575C33.5218 48.7722 34.16 49.5495 34.7218 50.3897C35.2835 51.2298 35.7581 52.1166 36.1454 53.0501C36.5328 53.9836 36.8255 54.9458 37.0237 55.9368C37.2218 56.9279 37.3215 57.9287 37.3228 58.9394Z" fill="white"/>
<path d="M20.3767 48.9523C20.1484 49.2104 14.8273 55.2562 14.5592 61.4013C14.5561 61.885 14.6003 62.3644 14.6916 62.8395C14.783 63.3146 14.9198 63.7762 15.1021 64.2243C15.2844 64.6725 15.5087 65.0985 15.7749 65.5024C16.0412 65.9063 16.3443 66.2804 16.6842 66.6246C17.0242 66.9688 17.3944 67.2766 17.795 67.5478C18.1956 67.8191 18.6188 68.0487 19.0646 68.2366C19.5104 68.4244 19.9703 68.567 20.4442 68.6643C20.9181 68.7616 21.3969 68.8117 21.8807 68.8146C22.3645 68.8176 22.8439 68.7733 23.3189 68.6817C23.794 68.5902 24.2555 68.4532 24.7036 68.2708C25.1516 68.0883 25.5776 67.8639 25.9814 67.5975C26.3853 67.3311 26.7592 67.0279 27.1033 66.6878C27.4474 66.3478 27.755 65.9774 28.0262 65.5767C28.2973 65.176 28.5267 64.7528 28.7144 64.3069C28.9022 63.861 29.0446 63.4011 29.1417 62.9272C29.2388 62.4532 29.2888 61.9744 29.2915 61.4906C29.0235 55.2562 23.7024 49.2104 23.4741 48.9523C23.2725 48.7398 23.0373 48.5757 22.7682 48.4601C22.4992 48.3444 22.2182 48.2866 21.9254 48.2866C21.6325 48.2866 21.3516 48.3444 21.0825 48.4601C20.8135 48.5757 20.5782 48.7398 20.3767 48.9523ZM21.9254 53.7373C23.2656 55.7228 25.0128 58.701 25.1419 61.5799C25.1357 62.0063 25.0483 62.4153 24.8795 62.8069C24.7107 63.1986 24.4734 63.543 24.1677 63.8402C23.8619 64.1375 23.5109 64.3649 23.1147 64.5226C22.7184 64.6802 22.3071 64.7561 21.8807 64.7502C21.4543 64.7443 21.0453 64.657 20.6536 64.4884C20.2619 64.3198 19.9174 64.0827 19.62 63.7771C19.3226 63.4714 19.0949 63.1206 18.9371 62.7244C18.7793 62.3283 18.7032 61.917 18.7089 61.4906C18.828 58.6911 20.5753 55.6632 21.9254 53.7373Z" fill="white"/>
<path d="M48.7592 48.8135C48.484 48.8135 48.2193 48.8661 47.9651 48.9714C47.7109 49.0767 47.4866 49.2266 47.292 49.4212C47.0975 49.6157 46.9476 49.8401 46.8423 50.0943C46.737 50.3485 46.6843 50.6132 46.6843 50.8883C46.6843 51.1634 46.737 51.4281 46.8423 51.6823C46.9476 51.9365 47.0975 52.1609 47.292 52.3554C47.4866 52.55 47.7109 52.6999 47.9651 52.8052C48.2193 52.9105 48.484 52.9631 48.7592 52.9631H56.7011C56.9762 52.9631 57.2409 52.9105 57.4951 52.8052C57.7493 52.6999 57.9737 52.55 58.1682 52.3554C58.3628 52.1609 58.5127 51.9365 58.618 51.6823C58.7233 51.4281 58.7759 51.1634 58.7759 50.8883C58.7759 50.6132 58.7233 50.3485 58.618 50.0943C58.5127 49.8401 58.3628 49.6157 58.1682 49.4212C57.9737 49.2266 57.7493 49.0767 57.4951 48.9714C57.2409 48.8661 56.9762 48.8135 56.7011 48.8135H48.7592Z" fill="white"/>
<path d="M40.8172 85.5249C39.5329 85.5242 38.2609 85.6489 37.0012 85.8988C35.7415 86.1488 34.5183 86.5192 33.3315 87.0101C32.1448 87.501 31.0173 88.103 29.9492 88.816C28.881 89.5291 27.8927 90.3395 26.9842 91.2472C26.0757 92.1549 25.2645 93.1426 24.5506 94.2101C23.8366 95.2776 23.2337 96.4046 22.7418 97.5909C22.2499 98.7772 21.8784 100 21.6274 101.26C21.3764 102.519 21.2507 103.791 21.2502 105.075C21.2498 106.36 21.3747 107.632 21.6248 108.891C21.875 110.151 22.2456 111.374 22.7367 112.561C23.2278 113.747 23.83 114.875 24.5432 115.943C25.2564 117.011 26.067 117.999 26.9749 118.907C27.8827 119.816 28.8705 120.627 29.9382 121.34C31.0059 122.054 32.1329 122.657 33.3193 123.149C34.5057 123.64 35.7287 124.012 36.9882 124.262C38.2478 124.513 39.5197 124.639 40.804 124.639C42.0882 124.639 43.3602 124.514 44.6198 124.264C45.8795 124.013 47.1026 123.643 48.2891 123.151C49.4757 122.66 50.6029 122.058 51.6709 121.344C52.7388 120.631 53.7268 119.82 54.635 118.912C55.5432 118.004 56.3541 117.016 57.0677 115.948C57.7812 114.88 58.3838 113.753 58.8753 112.567C59.3668 111.38 59.7379 110.157 59.9884 108.898C60.239 107.638 60.3643 106.366 60.3643 105.082C60.3624 103.799 60.2355 102.528 59.9838 101.27C59.7322 100.012 59.3604 98.7899 58.8686 97.6047C58.3768 96.4195 57.7744 95.2935 57.0613 94.2267C56.3482 93.16 55.5381 92.1728 54.631 91.2652C53.7239 90.3577 52.7371 89.5471 51.6707 88.8334C50.6043 88.1198 49.4786 87.5168 48.2937 87.0244C47.1088 86.532 45.8872 86.1596 44.6291 85.9073C43.371 85.655 42.1004 85.5275 40.8172 85.5249ZM25.4098 105.082C25.4098 104.07 25.5085 103.068 25.7059 102.076C25.9032 101.084 26.1955 100.12 26.5827 99.1858C26.9698 98.2511 27.4444 97.3632 28.0064 96.5221C28.5685 95.6809 29.2072 94.9026 29.9226 94.1873C30.6379 93.4719 31.4162 92.8332 32.2573 92.2712C33.0985 91.7091 33.9864 91.2345 34.9211 90.8474C35.8557 90.4602 36.8191 90.168 37.8114 89.9706C38.8036 89.7732 39.8055 89.6746 40.8172 89.6746C41.8289 89.6746 42.8308 89.7732 43.823 89.9706C44.8152 90.168 45.7787 90.4602 46.7133 90.8474C47.648 91.2345 48.5359 91.7091 49.3771 92.2712C50.2182 92.8332 50.9965 93.4719 51.7119 94.1873C52.4272 94.9026 53.0659 95.6809 53.628 96.5221C54.19 97.3632 54.6646 98.2511 55.0517 99.1858C55.4389 100.12 55.7311 101.084 55.9285 102.076C56.1259 103.068 56.2246 104.07 56.2246 105.082C56.2246 106.094 56.1259 107.096 55.9285 108.088C55.7311 109.08 55.4389 110.043 55.0517 110.978C54.6646 111.913 54.19 112.801 53.628 113.642C53.0659 114.483 52.4272 115.261 51.7119 115.977C50.9965 116.692 50.2182 117.331 49.3771 117.893C48.5359 118.455 47.648 118.929 46.7133 119.316C45.7787 119.704 44.8152 119.996 43.823 120.193C42.8308 120.391 41.8289 120.489 40.8172 120.489C39.8057 120.489 38.804 120.389 37.8121 120.192C36.8201 119.994 35.857 119.701 34.9226 119.314C33.9882 118.926 33.1006 118.452 32.2597 117.89C31.4188 117.328 30.6407 116.689 29.9255 115.974C29.2102 115.258 28.5716 114.48 28.0095 113.639C27.4474 112.799 26.9727 111.911 26.5853 110.977C26.1979 110.042 25.9053 109.079 25.7075 108.087C25.5097 107.095 25.4105 106.093 25.4098 105.082Z" fill="white"/>
<path d="M42.8921 116.36V115.992C43.5929 115.806 44.2461 115.514 44.8516 115.115C45.4572 114.716 45.9838 114.231 46.4315 113.661C46.8792 113.09 47.2249 112.464 47.4686 111.781C47.7123 111.098 47.8414 110.394 47.8558 109.669C47.8442 109.223 47.7895 108.782 47.6916 108.346C47.5937 107.911 47.4545 107.489 47.274 107.081C47.0935 106.672 46.8752 106.286 46.619 105.92C46.3628 105.555 46.0736 105.218 45.7514 104.909C45.4292 104.6 45.0801 104.325 44.7041 104.085C44.3281 103.844 43.9324 103.642 43.5169 103.479C43.1014 103.316 42.6741 103.195 42.2348 103.116C41.7956 103.036 41.3529 103 40.9066 103.007C40.5822 102.968 40.2769 102.869 39.9908 102.711C39.7047 102.553 39.4584 102.347 39.252 102.094C39.0455 101.84 38.8938 101.558 38.7968 101.246C38.6999 100.934 38.6647 100.615 38.6913 100.289C38.7178 99.9631 38.8042 99.6541 38.9505 99.3618C39.0967 99.0696 39.2923 98.8151 39.5371 98.5986C39.7819 98.382 40.0582 98.219 40.3662 98.1095C40.6741 98 40.9913 97.9519 41.3179 97.9653C41.6444 97.9787 41.9567 98.0525 42.2547 98.1868C42.5526 98.3211 42.8147 98.5062 43.041 98.742C43.2673 98.9778 43.4414 99.2474 43.5632 99.5506C43.6851 99.8539 43.746 100.169 43.7459 100.496C43.7459 100.771 43.7985 101.036 43.9038 101.29C44.0091 101.544 44.159 101.768 44.3536 101.963C44.5481 102.157 44.7725 102.307 45.0267 102.413C45.2809 102.518 45.5456 102.571 45.8207 102.571C46.0958 102.571 46.3605 102.518 46.6147 102.413C46.8689 102.307 47.0933 102.157 47.2878 101.963C47.4824 101.768 47.6323 101.544 47.7376 101.29C47.8429 101.036 47.8955 100.771 47.8955 100.496C47.8813 99.7701 47.7525 99.0655 47.509 98.3818C47.2655 97.6981 46.9199 97.0706 46.4722 96.4993C46.0245 95.9281 45.4978 95.4426 44.8921 95.0427C44.2865 94.6429 43.633 94.3493 42.9318 94.1621V94.0529C42.9318 93.7777 42.8792 93.513 42.7739 93.2588C42.6686 93.0046 42.5186 92.7803 42.3241 92.5857C42.1296 92.3912 41.9052 92.2413 41.651 92.136C41.3968 92.0307 41.1321 91.978 40.857 91.978C40.5818 91.978 40.3172 92.0307 40.063 92.136C39.8088 92.2413 39.5844 92.3912 39.3898 92.5857C39.1953 92.7803 39.0454 93.0046 38.9401 93.2588C38.8348 93.513 38.7821 93.7777 38.7821 94.0529V94.1621C38.0814 94.35 37.4283 94.644 36.823 95.0441C36.2177 95.4442 35.6913 95.9298 35.2437 96.5009C34.7962 97.072 34.4505 97.6992 34.2067 98.3826C33.9628 99.066 33.8334 99.7704 33.8184 100.496C33.83 100.942 33.8848 101.383 33.9827 101.818C34.0806 102.254 34.2198 102.676 34.4002 103.084C34.5807 103.492 34.7991 103.879 35.0553 104.244C35.3115 104.61 35.6007 104.947 35.9229 105.256C36.2451 105.565 36.5942 105.839 36.9702 106.08C37.3461 106.32 37.7419 106.522 38.1574 106.685C38.5728 106.848 39.0002 106.969 39.4394 107.049C39.8786 107.128 40.3214 107.164 40.7676 107.157C41.0916 107.198 41.3962 107.298 41.6814 107.457C41.9667 107.616 42.212 107.822 42.4175 108.076C42.6229 108.329 42.7736 108.612 42.8696 108.924C42.9656 109.237 42.9999 109.555 42.9726 109.881C42.9452 110.206 42.8582 110.514 42.7114 110.806C42.5647 111.098 42.3689 111.352 42.124 111.568C41.879 111.783 41.6027 111.946 41.2949 112.055C40.9871 112.164 40.6701 112.211 40.3439 112.198C40.0177 112.184 39.7058 112.11 39.4082 111.976C39.1106 111.841 38.8489 111.656 38.6229 111.421C38.3969 111.185 38.223 110.916 38.1012 110.613C37.9794 110.31 37.9185 109.995 37.9185 109.669C37.9185 109.394 37.8658 109.129 37.7605 108.875C37.6552 108.62 37.5053 108.396 37.3108 108.202C37.1162 108.007 36.8918 107.857 36.6376 107.752C36.3834 107.646 36.1188 107.594 35.8436 107.594C35.5685 107.594 35.3038 107.646 35.0496 107.752C34.7954 107.857 34.5711 108.007 34.3765 108.202C34.1819 108.396 34.032 108.62 33.9267 108.875C33.8214 109.129 33.7688 109.394 33.7688 109.669C33.7841 110.393 33.9137 111.097 34.1577 111.78C34.4017 112.462 34.7475 113.089 35.1951 113.659C35.6427 114.229 36.169 114.714 36.7742 115.113C37.3793 115.512 38.0321 115.805 38.7325 115.992V116.36C38.7325 116.635 38.7852 116.9 38.8904 117.154C38.9957 117.408 39.1457 117.632 39.3402 117.827C39.5348 118.021 39.7591 118.171 40.0133 118.277C40.2675 118.382 40.5322 118.435 40.8073 118.435C41.0825 118.435 41.3471 118.382 41.6013 118.277C41.8555 118.171 42.0799 118.021 42.2745 117.827C42.469 117.632 42.6189 117.408 42.7242 117.154C42.8295 116.9 42.8822 116.635 42.8822 116.36H42.8921Z" fill="white"/>
<path d="M58.7164 72.0039H50.556C50.2809 72.0039 50.0162 72.0565 49.762 72.1618C49.5078 72.2671 49.2835 72.4171 49.0889 72.6116C48.8943 72.8062 48.7444 73.0305 48.6391 73.2847C48.5338 73.5389 48.4812 73.8036 48.4812 74.0787C48.4812 74.3539 48.5338 74.6185 48.6391 74.8727C48.7444 75.1269 48.8943 75.3513 49.0889 75.5459C49.2835 75.7404 49.5078 75.8903 49.762 75.9956C50.0162 76.1009 50.2809 76.1536 50.556 76.1536H58.7164C58.9915 76.1536 59.2562 76.1009 59.5104 75.9956C59.7646 75.8903 59.9889 75.7404 60.1835 75.5459C60.3781 75.3513 60.528 75.1269 60.6333 74.8727C60.7386 74.6185 60.7912 74.3539 60.7912 74.0787C60.7912 73.8036 60.7386 73.5389 60.6333 73.2847C60.528 73.0305 60.3781 72.8062 60.1835 72.6116C59.9889 72.4171 59.7646 72.2671 59.5104 72.1618C59.2562 72.0565 58.9915 72.0039 58.7164 72.0039Z" fill="white"/>
</g>
</svg>
