<svg width="56" height="71" viewBox="0 0 56 71" fill="none" xmlns="http://www.w3.org/2000/svg">
<mask id="mask0_301_8" style="mask-type:luminance" maskUnits="userSpaceOnUse" x="0" y="0" width="56" height="71">
<path d="M0 0H56V71H0V0Z" fill="white"/>
</mask>
<g mask="url(#mask0_301_8)">
<path d="M23.4937 42.9217V37.8985C23.4937 35.9187 24.9583 34.3069 26.7578 34.3069C28.561 34.3069 30.0256 35.9187 30.0256 37.8985V42.4359C30.0256 47.9007 31.8582 53.1483 35.1812 57.211L39.7665 62.8119C40.1492 63.2793 40.1161 64.0079 39.6892 64.4274C39.2586 64.8506 38.5999 64.8138 38.2172 64.3428L33.632 58.7419C29.963 54.2597 27.9391 48.4674 27.9391 42.4359V37.8985C27.9391 37.1809 27.4091 36.5995 26.7578 36.5995C26.1064 36.5995 25.5765 37.1809 25.5765 37.8985V42.9217C25.5765 49.6487 27.8434 56.0923 31.9576 61.0676L36.4251 66.4735C36.8151 66.9445 36.782 67.6658 36.3551 68.0927C36.1564 68.295 35.9062 68.3907 35.6559 68.3907C35.3726 68.3907 35.0892 68.2656 34.8831 68.0154L30.4157 62.6095C25.9519 57.211 23.4937 50.2191 23.4937 42.9217Z" fill="white"/>
<path d="M19.0444 37.8983C19.0444 33.2211 22.5036 29.416 26.7576 29.416C31.0117 29.416 34.4745 33.2211 34.4745 37.8983V42.4357C34.4745 46.6898 35.8987 50.7745 38.4857 53.9356L41.7461 57.9173C42.1289 58.3884 42.0957 59.1133 41.6689 59.5365C41.2383 59.9597 40.5796 59.9229 40.1969 59.4519L36.9364 55.4702C34.0035 51.8859 32.388 47.2565 32.388 42.4357V37.8983C32.388 34.487 29.8635 31.7086 26.7576 31.7086C23.6554 31.7086 21.131 34.487 21.131 37.8983V42.9215C21.131 50.8665 23.8063 58.4804 28.6675 64.3573L32.4358 68.9204C32.8222 69.3878 32.7928 70.1128 32.3659 70.5396C32.1672 70.7384 31.917 70.8377 31.6667 70.8377C31.3834 70.8377 31.1 70.7089 30.8939 70.4624L27.122 65.8992C21.9148 59.5991 19.0444 51.4369 19.0444 42.9215V37.8983Z" fill="white"/>
<path d="M14.5955 37.8984C14.5955 30.5237 20.0528 24.5254 26.7577 24.5254C33.4626 24.5254 38.92 30.5237 38.92 37.8984V42.4358C38.92 45.4791 39.9394 48.401 41.7941 50.6642L44.727 54.2485C45.1134 54.7195 45.0766 55.4445 44.6497 55.8713C44.2229 56.2945 43.5642 56.2541 43.1778 55.783L40.2448 52.1987C38.0479 49.5124 36.8372 46.0458 36.8372 42.4358V37.8984C36.8372 31.7896 32.3145 26.818 26.7577 26.818C21.201 26.818 16.682 31.7896 16.682 37.8984V42.9215C16.682 52.0883 19.7695 60.8687 25.3741 67.6472L26.4192 68.9095C26.8056 69.3768 26.7725 70.1054 26.3493 70.5323C26.1469 70.731 25.8966 70.8304 25.6464 70.8304C25.363 70.8304 25.0834 70.7016 24.8773 70.4514L23.8322 69.1891C17.878 61.9874 14.5955 52.6587 14.5955 42.9215V37.8984Z" fill="white"/>
<path d="M43.369 37.8983C43.369 38.5313 42.9016 39.0428 42.3276 39.0428C41.7498 39.0428 41.2824 38.5313 41.2824 37.8983C41.2824 34.0381 40.0092 30.3103 37.6945 27.3994C35.4019 24.5143 32.2555 22.6302 28.8331 22.0892C28.2664 22.0009 27.869 21.4195 27.9499 20.7902C28.0346 20.1646 28.5608 19.7304 29.1312 19.8224C33.0467 20.4369 36.6457 22.5934 39.2658 25.8906C41.9117 29.2173 43.369 33.4824 43.369 37.8983Z" fill="white"/>
<path d="M41.2825 42.4357C41.2825 41.7991 41.7498 41.2876 42.3276 41.2876C42.9017 41.2876 43.369 41.7991 43.369 42.4357C43.369 44.2684 43.9836 46.0311 45.0986 47.3927L47.7077 50.5832C48.0941 51.0542 48.061 51.7755 47.6304 52.1987C47.4317 52.3974 47.1815 52.4931 46.9349 52.4931C46.6479 52.4931 46.3645 52.368 46.1584 52.1141L43.5493 48.9272C42.0884 47.1424 41.2825 44.8351 41.2825 42.4357Z" fill="white"/>
<path d="M12.6965 55.8787C13.2522 55.7057 13.83 56.0553 13.9882 56.6625C14.4114 58.267 14.9266 59.8604 15.5227 61.3986C15.7509 61.9801 15.5043 62.6535 14.9744 62.9001C14.8493 62.9589 14.7205 62.9884 14.5917 62.9921C14.1759 63.0031 13.7784 62.7418 13.6055 62.2966C12.9762 60.6737 12.4316 58.9919 11.9863 57.2992C11.8281 56.692 12.1445 56.0553 12.6965 55.8787Z" fill="white"/>
<path d="M15.6662 24.3158C16.093 23.8926 16.7518 23.9294 17.1382 24.4004C17.5209 24.8715 17.4878 25.5964 17.0572 26.0196C13.9918 29.0519 12.2328 33.3832 12.2328 37.8986V42.9217C12.2328 44.8279 12.3542 46.7489 12.5897 48.633C12.667 49.2586 12.2696 49.8364 11.6992 49.9247C11.6513 49.932 11.6035 49.9357 11.5556 49.9357C11.0441 49.9357 10.5952 49.5199 10.5216 48.9458C10.275 46.9586 10.1499 44.931 10.1499 42.9217V37.8986C10.1499 32.7319 12.1592 27.7823 15.6662 24.3158Z" fill="white"/>
<path d="M20.5386 23.4656C20.395 23.5429 20.2405 23.576 20.0896 23.576C19.6995 23.576 19.3279 23.3368 19.1475 22.9247C18.901 22.3543 19.1218 21.6698 19.6407 21.3975C21.1458 20.61 22.7392 20.0801 24.3878 19.8188C24.9582 19.7305 25.4844 20.1647 25.5654 20.7903C25.6464 21.4196 25.2526 21.9973 24.6822 22.0893C23.2433 22.3175 21.8523 22.7811 20.5386 23.4656Z" fill="white"/>
<path d="M26.7577 14.7441C27.1478 14.7441 27.5415 14.7552 27.9316 14.7773C28.5057 14.8141 28.9473 15.355 28.9142 15.9843C28.881 16.6172 28.3916 17.103 27.8175 17.0662C27.4679 17.0441 27.111 17.0368 26.7577 17.0368C16.2955 17.0368 7.78747 26.3949 7.78747 37.8985V42.9216C7.78747 43.5546 7.32011 44.0661 6.74236 44.0661C6.16828 44.0661 5.70093 43.5546 5.70093 42.9216V37.8985C5.70093 25.1327 15.1474 14.7441 26.7577 14.7441Z" fill="white"/>
<path d="M38.1582 20.9632C37.9521 20.9632 37.7424 20.897 37.5621 20.7571C35.8288 19.4323 33.9226 18.4387 31.9023 17.8131C31.3466 17.6439 31.0228 17.0109 31.181 16.4C31.3356 15.7892 31.9133 15.4359 32.4653 15.6089C34.7138 16.3044 36.8261 17.401 38.7544 18.873C39.2254 19.2373 39.3432 19.9512 39.012 20.4701C38.8133 20.7902 38.4857 20.9632 38.1582 20.9632Z" fill="white"/>
<path d="M45.7315 42.436V37.8986C45.7315 32.5663 43.8952 27.4879 40.5612 23.5982C40.1637 23.1382 40.1821 22.4133 40.6017 21.979C41.0212 21.5448 41.6836 21.5632 42.0773 22.0269C45.7794 26.3398 47.8144 31.9775 47.8144 37.8986V42.436C47.8144 43.0579 48.0241 43.6577 48.4032 44.1214L49.6912 45.6927C50.0739 46.1638 50.0408 46.885 49.6139 47.3082C49.4152 47.5069 49.1649 47.6026 48.9147 47.6026C48.6313 47.6026 48.348 47.4775 48.1419 47.2236L46.8539 45.6559C46.129 44.7691 45.7315 43.6246 45.7315 42.436Z" fill="white"/>
<path d="M8.68535 62.3702C7.114 58.8301 6.24921 55.025 6.12041 51.058C6.09833 50.425 6.54729 49.8951 7.12504 49.873C7.69911 49.851 8.18119 50.3441 8.20327 50.977C8.32103 54.6202 9.1159 58.1161 10.5584 61.3656C10.7608 61.8219 10.6652 62.3481 10.3561 62.6867C10.2788 62.7713 10.1868 62.8412 10.0801 62.9001C9.56118 63.1761 8.93926 62.9406 8.68535 62.3702Z" fill="white"/>
<path d="M18.5182 11.355C19.0629 11.1489 19.659 11.4691 19.843 12.0689C20.0307 12.6651 19.74 13.3164 19.1953 13.5225C16.8954 14.3873 14.7389 15.6422 12.7812 17.2466C12.5935 17.4012 12.3764 17.4748 12.1592 17.4748C11.8391 17.4748 11.5263 17.3165 11.3202 17.0148C10.978 16.5069 11.0737 15.7894 11.5336 15.4103C13.6643 13.6623 16.0158 12.2971 18.5182 11.355Z" fill="white"/>
<path d="M42.9568 19.3147C38.5703 14.689 32.8185 12.1425 26.7576 12.1425C25.6315 12.1425 24.5018 12.2345 23.3941 12.4111C22.8237 12.4994 22.2975 12.0652 22.2165 11.4396C22.1319 10.8103 22.5256 10.2289 23.096 10.1406C24.3031 9.94921 25.5322 9.84985 26.7576 9.84985C33.3595 9.84985 39.6228 12.6245 44.3994 17.6587C49.1576 22.6782 51.9433 29.4126 52.2377 36.6253C52.2634 37.2582 51.8182 37.7918 51.2441 37.8213C51.2294 37.8213 51.211 37.8213 51.1963 37.8213C50.6406 37.8213 50.1806 37.3429 50.1548 36.7283C49.8862 30.1081 47.3286 23.922 42.9568 19.3147Z" fill="white"/>
<path d="M26.7578 4.95898C29.0909 4.95898 31.4129 5.25706 33.6614 5.84218C34.2244 5.98937 34.5703 6.60761 34.4379 7.22216C34.3054 7.8404 33.7424 8.22311 33.183 8.07592C31.0891 7.53128 28.929 7.2516 26.7578 7.2516C19.1145 7.2516 11.979 10.6041 6.66884 16.6834C6.46276 16.9189 6.19045 17.0366 5.91445 17.0366C5.65685 17.0366 5.39558 16.9299 5.19318 16.7165C4.77734 16.2786 4.7663 15.5499 5.16374 15.0936C7.93107 11.9252 11.1805 9.43382 14.8273 7.68584C18.5993 5.87898 22.6178 4.95898 26.7578 4.95898Z" fill="white"/>
<path d="M36.837 8.07603C37.0578 7.49091 37.665 7.21492 38.1986 7.45779C41.5989 9.00706 44.7122 11.2445 47.3801 14.0302C47.3949 14.0486 47.4133 14.067 47.428 14.0817C50.8688 17.5041 53.5662 21.7913 55.2663 26.5752C55.4761 27.164 55.2111 27.8301 54.6738 28.0619C54.4494 28.1576 54.2102 28.1613 53.9967 28.0914C53.6986 27.992 53.4447 27.7528 53.3233 27.4106C52.2892 24.5034 50.8614 21.7949 49.1061 19.3772C48.175 18.0966 47.152 16.9006 46.048 15.8003C46.048 15.7966 46.048 15.7966 46.0443 15.7966L44.7527 14.516C42.552 12.4662 40.0717 10.7918 37.4001 9.57746C36.8702 9.3309 36.6163 8.66114 36.837 8.07603Z" fill="white"/>
<path d="M2.38525 48.2834C1.82222 48.4195 1.26654 48.0294 1.14143 47.4075C0.357592 43.4552 0.250873 39.3631 0.810228 35.3667C0.813908 35.3446 0.817588 35.3188 0.821268 35.2931C1.41374 30.2331 3.07341 25.3498 5.67514 21.0847C5.9953 20.5585 6.64297 20.4187 7.12137 20.7719C7.32377 20.9191 7.45993 21.1326 7.53353 21.3681C7.62552 21.6883 7.59241 22.0599 7.40473 22.3617C5.82602 24.9561 4.61899 27.7896 3.81676 30.7557C3.39356 32.327 3.08077 33.9315 2.89309 35.5617C2.88941 35.5617 2.88941 35.5617 2.89309 35.5654L2.67229 37.4606C2.39629 40.618 2.56557 43.8122 3.18013 46.9218C3.30156 47.5363 2.94829 48.1509 2.38525 48.2834Z" fill="white"/>
<path d="M41.9817 6.18452C41.8271 6.18084 41.6726 6.14036 41.5291 6.06308C37.172 3.6527 32.48 2.39047 27.5783 2.30215C25.0244 2.25799 22.4779 2.54503 20.0049 3.15222C19.4419 3.29206 18.8862 2.90199 18.7611 2.28743C18.6323 1.6692 18.9856 1.05464 19.5486 0.914804C22.1798 0.26713 24.8919 -0.0346276 27.6114 0.0132118C32.8296 0.105212 37.827 1.4484 42.4638 4.01334C42.979 4.29669 43.185 4.98485 42.9274 5.55156C42.7434 5.95636 42.3681 6.18819 41.9817 6.18452Z" fill="white"/>
<path d="M14.8419 4.86709C13.7636 5.33813 12.7001 5.87908 11.6771 6.47524C11.5225 6.56355 11.3569 6.60771 11.1913 6.60771C10.816 6.60771 10.4553 6.38692 10.2677 6.00052C9.99902 5.43748 10.1941 4.74565 10.7019 4.44757C11.7912 3.81462 12.9246 3.23687 14.0691 2.73639C14.6027 2.50087 15.2098 2.78791 15.4233 3.3767C15.6367 3.9655 15.3754 4.63157 14.8419 4.86709Z" fill="white"/>
</g>
</svg>
