<svg width="82" height="82" viewBox="0 0 82 82" fill="none" xmlns="http://www.w3.org/2000/svg">
<mask id="mask0_301_37" style="mask-type:luminance" maskUnits="userSpaceOnUse" x="0" y="0" width="82" height="82">
<path d="M0 0H82V82H0V0Z" fill="white"/>
</mask>
<g mask="url(#mask0_301_37)">
<path d="M0.193115 73.3644C0.193115 72.8524 0.29109 72.3598 0.487038 71.8868C0.682987 71.4137 0.961994 70.9961 1.32406 70.6341C1.68613 70.272 2.10369 69.993 2.57675 69.7971C3.04982 69.6011 3.54237 69.5031 4.05441 69.5031C6.47558 69.5113 8.8856 69.3513 11.2845 69.0233C13.6833 68.6953 16.0478 68.2025 18.378 67.5447C20.7081 66.887 22.9813 66.0707 25.1976 65.0959C27.4139 64.1212 29.5518 62.9973 31.6114 61.7244C33.6709 60.4514 35.6322 59.0417 37.4951 57.4953C39.3581 55.9488 41.1047 54.2806 42.735 52.4905C44.3653 50.7005 45.8635 48.806 47.2296 46.807C48.5957 44.808 49.8164 42.7239 50.8919 40.5546L70.1022 2.1348C70.3308 1.67613 70.6385 1.27871 71.0254 0.942562C71.4123 0.606413 71.8487 0.357154 72.3348 0.194785C72.8209 0.0324173 73.3196 -0.030681 73.8308 0.00549044C74.342 0.0416619 74.8268 0.174346 75.2852 0.403541C75.7436 0.632737 76.1406 0.940971 76.4763 1.32824C76.812 1.71552 77.0607 2.1523 77.2225 2.6386C77.3842 3.1249 77.4467 3.62364 77.4099 4.13481C77.3731 4.64598 77.2398 5.13062 77.01 5.58873L57.7997 44.0086C56.5657 46.4977 55.1649 48.8892 53.5974 51.1831C52.0299 53.4769 50.3107 55.6508 48.44 57.7049C46.5692 59.7589 44.565 61.6732 42.4273 63.4477C40.2896 65.2222 38.039 66.8398 35.6757 68.3005C33.3124 69.7611 30.8591 71.0507 28.316 72.1692C25.7728 73.2877 23.1643 74.2243 20.4905 74.979C17.8167 75.7337 15.1035 76.2991 12.3508 76.6754C9.59812 77.0517 6.83266 77.2351 4.05441 77.2257C3.54237 77.2257 3.04982 77.1277 2.57675 76.9318C2.10369 76.7358 1.68613 76.4568 1.32406 76.0948C0.961994 75.7327 0.682987 75.3151 0.487038 74.8421C0.291088 74.369 0.193115 73.8765 0.193115 73.3644ZM73.5577 65.6418C72.6988 65.6432 71.8636 65.7842 71.0519 66.0649C70.2403 66.3455 69.4963 66.7505 68.82 67.2799C68.1437 67.8092 67.5719 68.4342 67.1046 69.1547C66.6373 69.8752 66.2998 70.6522 66.0922 71.4855C66.0078 71.462 65.922 71.4448 65.8351 71.4338H58.1125C57.8565 71.4338 57.6102 71.4828 57.3737 71.5807C57.1371 71.6787 56.9283 71.8182 56.7473 71.9993C56.5663 72.1803 56.4268 72.3891 56.3288 72.6256C56.2308 72.8621 56.1818 73.1084 56.1818 73.3644C56.1818 73.6204 56.2308 73.8667 56.3288 74.1032C56.4268 74.3398 56.5663 74.5486 56.7473 74.7296C56.9283 74.9106 57.1371 75.0501 57.3737 75.1481C57.6102 75.2461 57.8565 75.2951 58.1125 75.2951H65.8351C65.9221 75.2839 66.0078 75.2666 66.0922 75.2429C66.2098 75.7081 66.3694 76.1583 66.571 76.5936C66.7725 77.0289 67.0127 77.4418 67.2913 77.8323C67.5699 78.2228 67.8823 78.5842 68.2284 78.9164C68.5745 79.2486 68.9483 79.5459 69.3499 79.8084C69.7515 80.0708 70.1739 80.2938 70.6171 80.4775C71.0603 80.6611 71.5166 80.8021 71.9862 80.9005C72.4557 80.999 72.9302 81.0531 73.4099 81.063C73.8895 81.0729 74.3659 81.0383 74.8391 80.9592C75.3122 80.8802 75.774 80.758 76.2244 80.5928C76.6748 80.4276 77.106 80.2221 77.518 79.9764C77.9301 79.7307 78.3158 79.449 78.6753 79.1313C79.0347 78.8136 79.3617 78.4654 79.6562 78.0867C79.9506 77.708 80.2075 77.3053 80.4268 76.8787C80.6462 76.452 80.8241 76.0087 80.9607 75.5489C81.0973 75.089 81.1902 74.6204 81.2393 74.1432C81.2885 73.666 81.293 73.1884 81.253 72.7104C81.213 72.2323 81.1292 71.7621 81.0014 71.2997C80.8737 70.8372 80.7042 70.3907 80.4931 69.9599C80.2821 69.5291 80.0329 69.1216 79.7458 68.7373C79.4586 68.353 79.1384 67.9986 78.785 67.674C78.4317 67.3495 78.0515 67.0605 77.6442 66.8069C77.237 66.5534 76.8098 66.3397 76.3627 66.1659C75.9155 65.992 75.4562 65.8611 74.9846 65.773C74.513 65.6849 74.0374 65.6412 73.5577 65.6418ZM46.5286 71.4338H38.806C38.55 71.4338 38.3037 71.4828 38.0672 71.5807C37.8307 71.6787 37.6219 71.8182 37.4409 71.9993C37.2598 72.1803 37.1203 72.3891 37.0223 72.6256C36.9244 72.8621 36.8754 73.1084 36.8754 73.3644C36.8754 73.6204 36.9244 73.8667 37.0223 74.1032C37.1203 74.3398 37.2598 74.5486 37.4409 74.7296C37.6219 74.9106 37.8307 75.0501 38.0672 75.1481C38.3037 75.2461 38.55 75.2951 38.806 75.2951H46.5286C46.7846 75.2951 47.0309 75.2461 47.2674 75.1481C47.504 75.0501 47.7127 74.9106 47.8938 74.7296C48.0748 74.5486 48.2143 74.3398 48.3123 74.1032C48.4103 73.8667 48.4593 73.6204 48.4593 73.3644C48.4593 73.1084 48.4103 72.8621 48.3123 72.6256C48.2143 72.3891 48.0748 72.1803 47.8938 71.9993C47.7127 71.8182 47.504 71.6787 47.2674 71.5807C47.0309 71.4828 46.7846 71.4338 46.5286 71.4338Z" fill="white"/>
</g>
</svg>
