<?xml version="1.0" encoding="UTF-8"?>
<svg version="1.1" xmlns="http://www.w3.org/2000/svg" width="512" height="512">
<path d="M0 0 C9.59241646 8.11334625 14.77709015 17.57537877 16.234375 30.01953125 C16.36208597 33.38375554 16.35124098 36.74313745 16.33203125 40.109375 C16.32990883 41.52616295 16.32990883 41.52616295 16.32774353 42.97157288 C16.3221786 45.96675888 16.30963267 48.96186812 16.296875 51.95703125 C16.29185546 53.99674371 16.28729335 56.03645734 16.28320312 58.07617188 C16.27222067 63.05732091 16.2549804 68.0384131 16.234375 73.01953125 C17.35295898 73.0038208 18.47154297 72.98811035 19.62402344 72.97192383 C23.82853818 72.91706075 28.03302221 72.88297901 32.23779297 72.85473633 C34.04741765 72.83977676 35.8570069 72.81940168 37.66650391 72.79321289 C56.67489981 72.52526701 72.730894 75.12932643 87.06835938 88.64086914 C97.68752132 99.18756344 103.29206098 112.80484701 103.3774426 127.75864989 C103.37657612 128.47936735 103.37570963 129.20008482 103.37481689 129.94264221 C103.37927358 131.11263658 103.37927358 131.11263658 103.3838203 132.3062672 C103.3924671 134.91065072 103.39401214 137.51498805 103.39550781 140.11938477 C103.40013892 141.99077959 103.40516398 143.86217348 103.41055298 145.73356628 C103.42365287 150.81243393 103.43011752 155.89128837 103.43456364 160.97017026 C103.43749894 164.14729504 103.44160467 167.32441625 103.44606781 170.50153923 C103.45973791 180.453578 103.46940631 190.40560856 103.4732697 200.35765606 C103.47774595 211.82383062 103.49527584 223.2898857 103.5242703 234.75602394 C103.54593299 243.63271023 103.55597647 252.50936302 103.55731082 261.38607544 C103.55835579 266.68103537 103.56419748 271.97588293 103.58213043 277.2708149 C103.59869002 282.25720747 103.60072854 287.24340414 103.59199142 292.22981453 C103.59122519 294.05139188 103.59550863 295.8729801 103.60544968 297.69453049 C103.7053995 317.16403893 100.60310062 333.26100228 86.6015625 347.8046875 C75.37857076 358.30540749 61.79939642 363.17072369 46.49867249 363.16670227 C45.73894416 363.17037896 44.97921583 363.17405565 44.19646543 363.17784375 C41.66099928 363.18882149 39.12557419 363.19271425 36.59008789 363.1965332 C34.76807019 363.20280207 32.94605375 363.20944924 31.1240387 363.21644592 C25.15171184 363.23742943 19.17938489 363.24783945 13.20703125 363.2578125 C11.14863001 363.26186147 9.0902289 363.26597844 7.03182793 363.27016258 C-2.63507431 363.28919765 -12.30196896 363.3034351 -21.96888632 363.31177455 C-33.12273551 363.32155648 -44.27638676 363.347908 -55.43016618 363.38827544 C-64.05707847 363.41842584 -72.68393394 363.4332422 -81.31089789 363.43655556 C-86.46150959 363.43890624 -91.61190939 363.44786992 -96.76246452 363.47301674 C-101.60606745 363.49628515 -106.44931871 363.50053563 -111.29296303 363.49025536 C-113.06869043 363.48975967 -114.8444351 363.49608968 -116.62010956 363.5098114 C-119.04814001 363.52752237 -121.47490706 363.52042907 -123.90293884 363.50727844 C-124.9517895 363.52373231 -124.9517895 363.52373231 -126.02182907 363.54051858 C-131.40582965 363.47032239 -134.40564464 361.94651566 -138.765625 359.01953125 C-142.78041338 354.60326404 -143.10954389 350.2860826 -143.05078125 344.52734375 C-142.52483999 339.90194252 -140.09138238 337.18459077 -136.703125 334.20703125 C-132.72259885 331.76735393 -128.98646643 331.87697798 -124.48007202 331.88822937 C-123.7324852 331.88611366 -122.98489839 331.88399794 -122.21465743 331.88181812 C-119.70217237 331.87581258 -117.18973747 331.87681867 -114.67724609 331.87768555 C-112.87862055 331.87465434 -111.07999577 331.87113299 -109.28137207 331.86715698 C-105.40340464 331.85926339 -101.52544642 331.85412128 -97.64747238 331.85086632 C-91.51182997 331.84495793 -85.37624562 331.82841823 -79.2406311 331.80952454 C-77.14005855 331.80318692 -75.03948597 331.7968613 -72.93891335 331.79054737 C-71.36078232 331.78579865 -71.36078232 331.78579865 -69.75076985 331.780954 C-55.46487908 331.73888363 -41.17901499 331.70591254 -26.89306641 331.69360352 C-17.25946396 331.6852177 -7.62600491 331.66270603 2.0075258 331.62424785 C7.10455857 331.60450171 12.20137702 331.59207779 17.29845047 331.59708214 C22.09693628 331.60173576 26.89501636 331.58788404 31.69342041 331.56007004 C33.45054162 331.55316981 35.20770488 331.55301909 36.96482468 331.56027031 C47.24029837 331.59837778 55.77998817 331.50424931 64.046875 324.70703125 C69.58715604 317.90040025 71.38548599 312.22994429 71.37481689 303.53779602 C71.37778802 302.78118767 71.38075914 302.02457933 71.3838203 301.24504346 C71.39249653 298.70802884 71.39401464 296.17106148 71.39550781 293.6340332 C71.4001368 291.81555582 71.40516157 289.99707941 71.41055298 288.17860413 C71.42367245 283.23624592 71.43012123 278.2939013 71.43456364 273.35152841 C71.4374955 270.26255565 71.44160056 267.1735866 71.44606781 264.08461571 C71.45974245 254.41663229 71.46940889 244.74865735 71.4732697 235.08066493 C71.47774848 223.92685166 71.49528821 212.77316105 71.5242703 201.61938506 C71.54590267 192.99417951 71.55597484 184.36900842 71.55731082 175.74377602 C71.55835786 170.59423016 71.56424414 165.44479962 71.58213043 160.29528236 C71.59863764 155.44845885 71.60075373 150.601837 71.59199142 145.75499535 C71.59122243 143.98011611 71.59554554 142.20522591 71.60544968 140.43037415 C71.91212844 125.7968816 71.91212844 125.7968816 65.984375 112.70703125 C60.37230765 107.22251088 54.76008028 104.89856815 46.95438004 104.88810349 C45.87846359 104.88426234 44.80254715 104.8804212 43.69402719 104.87646365 C42.51272343 104.87733013 41.33141968 104.87819662 40.11431885 104.87908936 C38.85881155 104.87611823 37.60330425 104.87314711 36.30975127 104.87008595 C32.82254475 104.86201854 29.33535881 104.86022653 25.84814405 104.85948849 C22.08796607 104.85763748 18.32779876 104.85008991 14.56762695 104.84335327 C6.3444499 104.8297713 -1.87872228 104.82374545 -10.10190868 104.81934261 C-15.23650147 104.81657998 -20.37109238 104.81234259 -25.5056839 104.80783844 C-39.72188575 104.79564598 -53.93808609 104.7853466 -68.15429306 104.78196335 C-69.06416435 104.78174378 -69.97403563 104.78152422 -70.91147877 104.781298 C-71.82352668 104.78107972 -72.73557458 104.78086144 -73.67526031 104.78063655 C-75.52341573 104.78019308 -77.37157114 104.77974652 -79.21972656 104.77929688 C-80.59484985 104.77896473 -80.59484985 104.77896473 -81.99775341 104.77862588 C-96.85219505 104.7746779 -111.70658764 104.7572238 -126.56101033 104.73393735 C-141.81182491 104.71022248 -157.06261487 104.69776144 -172.31344819 104.69659543 C-180.87622642 104.69567875 -189.43894073 104.68992819 -198.00170135 104.67177582 C-205.29314522 104.656373 -212.58450542 104.65125543 -219.87596247 104.65951392 C-223.59543383 104.66341979 -227.3147367 104.66249405 -231.03418732 104.64845657 C-235.06879126 104.63336908 -239.10301576 104.64158599 -243.13763428 104.65203857 C-244.31001514 104.64398217 -245.48239601 104.63592577 -246.69030356 104.62762523 C-254.31556242 104.67388047 -259.83926874 105.64545537 -266.453125 109.64453125 C-272.12809433 115.47287813 -274.88588561 122.18458995 -274.89692688 130.24362183 C-274.90093506 131.30063293 -274.90494324 132.35764404 -274.90907288 133.44668579 C-274.90854416 134.60107147 -274.90801544 135.75545715 -274.9074707 136.94482422 C-274.91094513 138.16472046 -274.91441956 139.3846167 -274.91799927 140.64147949 C-274.92535426 143.29225077 -274.93102838 145.94297196 -274.93428993 148.59374619 C-274.94021085 152.78797248 -274.95676118 156.98211442 -274.97563171 161.17630005 C-274.98196872 162.61347003 -274.98829435 164.05064006 -274.99460888 165.48781013 C-274.99777469 166.20744635 -275.0009405 166.92708256 -275.00420225 167.66852593 C-275.04624578 177.43020687 -275.07925613 187.1918478 -275.09155273 196.95361328 C-275.09993753 203.54235684 -275.12244161 210.13089065 -275.1609084 216.71952927 C-275.18065156 220.20401271 -275.19307948 223.68818274 -275.18807411 227.17272568 C-275.18255721 231.06050596 -275.20784933 234.94775697 -275.2355957 238.83544922 C-275.22899429 239.98578644 -275.22239288 241.13612366 -275.21559143 242.32131958 C-275.28848138 248.53392152 -275.56580013 252.31516683 -279.765625 257.01953125 C-284.0967256 260.93814608 -287.64030384 261.66691513 -293.30078125 261.39453125 C-297.82782774 260.70578884 -301.15288644 259.19094617 -303.92760468 255.45502472 C-307.28744779 249.31943969 -307.33279478 243.68485121 -307.28320312 236.79882812 C-307.2902124 235.59441071 -307.29722168 234.38999329 -307.30444336 233.14907837 C-307.31897681 229.86323834 -307.31564414 226.57804874 -307.30292702 223.29221916 C-307.29273243 219.83237311 -307.30221219 216.37256766 -307.30847168 212.91271973 C-307.31573724 207.09570637 -307.30619745 201.27889647 -307.28710938 195.46191406 C-307.26542449 188.77723604 -307.27233476 182.09304774 -307.294415 175.40838194 C-307.31269893 169.63812492 -307.31506216 163.86801354 -307.30466032 158.09773684 C-307.29848544 154.66553545 -307.29741908 151.23356224 -307.31080627 147.80137634 C-307.37118907 125.23306925 -306.59437925 105.47555673 -290.1484375 88.296875 C-283.96558067 82.38768561 -277.8074307 78.83285145 -269.75 75.953125 C-268.52644302 75.50921417 -268.52644302 75.50921417 -267.27816772 75.05633545 C-256.03454833 70.9996612 -244.73505739 67.09849537 -233.44360352 63.17749023 C-212.01119155 55.73405962 -190.60988357 48.21276882 -169.265625 40.51953125 C-147.73585942 32.76086416 -126.14711125 25.18118229 -104.53105736 17.66717911 C-101.24569011 16.52500343 -97.9606195 15.38197739 -94.67578125 14.23828125 C-94.03686825 14.01583488 -93.39795525 13.79338852 -92.73968124 13.56420135 C-84.08266527 10.54803478 -75.44441043 7.48322181 -66.82421875 4.36328125 C-65.8414949 4.00832581 -64.85877106 3.65337036 -63.8462677 3.28765869 C-59.37985867 1.67316905 -54.91707282 0.04982264 -50.46020508 -1.59082031 C-32.96916021 -7.97391211 -16.30997295 -11.67959927 0 0 Z M-29.76318359 24.27856445 C-30.57498077 24.55833633 -31.38677795 24.83810822 -32.22317505 25.12635803 C-33.55516434 25.59361549 -33.55516434 25.59361549 -34.9140625 26.0703125 C-36.32254959 26.55865822 -36.32254959 26.55865822 -37.75949097 27.05686951 C-40.88829207 28.14361383 -44.01450863 29.23759001 -47.140625 30.33203125 C-49.34078009 31.09874823 -51.54097611 31.8653478 -53.74121094 32.63183594 C-72.09363033 39.03735523 -90.39376332 45.58742299 -108.68383789 52.16845703 C-127.34427584 58.88188646 -146.04188072 65.48491409 -164.765625 72.01953125 C-164.765625 72.34953125 -164.765625 72.67953125 -164.765625 73.01953125 C-115.265625 73.01953125 -65.765625 73.01953125 -14.765625 73.01953125 C-12.31264175 47.67127641 -12.31264175 47.67127641 -18.765625 25.01953125 C-22.62028749 22.44975626 -25.52910559 22.80680424 -29.76318359 24.27856445 Z " fill="#FFFFFF" transform="translate(363.765625,57.98046875)"/>
<path d="M0 0 C3.59719369 2.40645597 5.7748061 5.36128948 7.1875 9.4375 C7.49450129 11.3069186 7.7619699 13.18305397 8 15.0625 C9.7445009 27.10857948 17.24321988 36.60590063 25.1875 45.4375 C26.12529297 46.49904297 26.12529297 46.49904297 27.08203125 47.58203125 C37.83385708 59.05819061 50.5548627 65.93065459 65.953125 68.53125 C69.58136298 69.54785774 71.48996247 70.83613137 74.1875 73.4375 C76.81278873 78.23544146 77.7818773 81.98904139 77.1875 87.4375 C75.43410604 92.30803877 72.88344544 96.11892944 68.1875 98.4375 C65.13743039 99.13669724 62.08623015 99.69022273 59.00219727 100.21484375 C42.62606525 103.19778957 27.02371718 117.6938545 17.53125 131.0390625 C12.34887432 138.71008594 8.70387954 145.74798963 7.375 155 C6.44847058 160.51323291 4.557169 163.92709445 0.1875 167.4375 C-4.64596407 170.0153475 -9.62467419 169.98664243 -14.8125 168.4375 C-19.50874218 165.62687021 -22.10399159 162.65664213 -23.8125 157.4375 C-24.09941109 155.75588224 -24.34807969 154.0673889 -24.5625 152.375 C-26.50302732 141.26921288 -32.62486433 132.83277486 -39.8125 124.4375 C-40.44800781 123.60863281 -41.08351562 122.77976562 -41.73828125 121.92578125 C-51.00059785 110.81448996 -64.98823037 101.66067897 -79.375 99.625 C-84.90038289 98.70410285 -88.23726566 96.74062636 -91.8125 92.4375 C-94.14003712 88.49080663 -94.27274243 84.96321724 -93.8125 80.4375 C-92.40563472 75.93890086 -90.62605483 73.09188106 -86.9375 70.125 C-83.45330636 68.3978568 -79.86509343 67.79056767 -76.0625 67.0625 C-64.1643149 64.69545365 -55.75447892 58.38289196 -46.8125 50.4375 C-46.10222656 49.81101562 -45.39195313 49.18453125 -44.66015625 48.5390625 C-35.48825132 39.9301854 -26.64114349 28.06857976 -24.875 15.4375 C-24.0607564 9.83692008 -22.63758963 5.67697434 -18.8125 1.4375 C-13.22061197 -2.62932766 -6.19762857 -3.08551466 0 0 Z M-8.8125 54.4375 C-10.09426592 55.95285878 -11.33729549 57.50105515 -12.5625 59.0625 C-13.28953125 59.97902344 -14.0165625 60.89554687 -14.765625 61.83984375 C-15.90570557 63.28670172 -17.04343115 64.73545427 -18.171875 66.19140625 C-23.37750204 72.73409503 -29.96724962 77.73139036 -36.8125 82.4375 C-35.33502167 86.0948644 -33.38369038 87.78576634 -30.25 90.125 C-21.90811 96.61580778 -15.06592413 103.93203889 -8.8125 112.4375 C-6.16792544 109.84092135 -3.58838337 107.22300689 -1.12109375 104.45703125 C4.83965716 97.78582999 10.93706986 91.88367028 17.984375 86.36328125 C18.71140625 85.72777344 19.4384375 85.09226562 20.1875 84.4375 C20.1875 83.7775 20.1875 83.1175 20.1875 82.4375 C18.63683863 81.1069691 18.63683863 81.1069691 16.5625 79.6875 C12.01203315 76.24936949 7.97057269 72.45464009 3.9375 68.4375 C3.34759277 67.85645508 2.75768555 67.27541016 2.14990234 66.67675781 C-1.6503895 62.85176783 -4.72570871 58.85363937 -7.8125 54.4375 C-8.1425 54.4375 -8.4725 54.4375 -8.8125 54.4375 Z " fill="#FFFFFF" transform="translate(138.8125,292.5625)"/>
<path d="M0 0 C1.16170715 -0.01283524 2.32341431 -0.02567047 3.52032471 -0.03889465 C5.41243683 -0.04997505 5.41243683 -0.04997505 7.34277344 -0.0612793 C9.28153351 -0.07338692 9.28153351 -0.07338692 11.25946045 -0.08573914 C13.99995798 -0.10076802 16.74042958 -0.11060428 19.48095703 -0.11816406 C22.98260941 -0.12921028 26.48362309 -0.16358784 29.9850502 -0.20333576 C33.33343192 -0.23585527 36.68174601 -0.24028584 40.03027344 -0.2487793 C41.91024017 -0.27504143 41.91024017 -0.27504143 43.82818604 -0.30183411 C54.6761321 -0.27480867 54.6761321 -0.27480867 59.45214844 4.17700195 C63.50845242 9.39960053 63.22612387 14.83040337 62.45214844 21.17700195 C60.26605349 25.79209128 57.95614486 27.90654484 53.45214844 30.17700195 C50.65138245 30.56468201 50.65138245 30.56468201 47.5637207 30.58105469 C46.40224014 30.59373886 45.24075958 30.60642303 44.04408264 30.61949158 C42.79815842 30.61655594 41.55223419 30.6136203 40.26855469 30.6105957 C38.98029282 30.61583755 37.69203094 30.62107941 36.36473083 30.6264801 C33.6420612 30.63539709 30.91968509 30.63300476 28.19702148 30.62304688 C24.71890125 30.61156156 21.24179697 30.6317672 17.76381016 30.66096401 C14.43200553 30.68379104 11.10043554 30.67685663 7.76855469 30.6730957 C5.9027047 30.68994667 5.9027047 30.68994667 3.99916077 30.70713806 C-6.74324265 30.62060953 -6.74324265 30.62060953 -11.54785156 26.17700195 C-14.65936186 22.31443745 -15.69782387 18.09796826 -15.54785156 13.17700195 C-13.94768435 7.93200943 -11.66433149 4.76572805 -7.54785156 1.17700195 C-4.92174688 -0.13605039 -2.94100178 0.02822944 0 0 Z " fill="#FFFFFF" transform="translate(339.5478515625,260.822998046875)"/>
</svg>
