<?xml version="1.0" encoding="UTF-8"?>
<svg version="1.1" xmlns="http://www.w3.org/2000/svg" width="512" height="512">
<path d="M0 0 C1.19496094 0.32871094 2.38992188 0.65742187 3.62109375 0.99609375 C32.14892317 9.57522247 53.83609039 28.39768981 68.109375 54.3671875 C72.29494738 62.2396439 75.67078878 70.3906258 78 79 C76.8140625 79.268125 75.628125 79.53625 74.40625 79.8125 C58.52904977 83.58178857 45.33781768 89.10950324 33 100 C31.453125 101.175625 31.453125 101.175625 29.875 102.375 C25.29856237 106.55348653 20.32568522 111.59411155 18.05132103 117.43730164 C16.69025033 120.55308654 15.44339085 122.6166453 13 125 C7.62318885 126.52175125 2.28275253 126.30358174 -3.25146484 126.1953125 C-4.92409263 126.1990821 -6.59671542 126.20727777 -8.26930237 126.21955872 C-12.80534751 126.24060619 -17.33905082 126.20051032 -21.8747859 126.15000534 C-26.62632378 126.10811272 -31.3776439 126.12441707 -36.12930298 126.13500977 C-45.13331364 126.14661453 -54.13638899 126.10909608 -63.14020312 126.05248928 C-76.3422227 125.9715105 -89.54433845 125.96029724 -102.74657631 125.95379639 C-104.69747544 125.95276298 -106.64837456 125.95172541 -108.59927368 125.95068359 C-109.55211734 125.95029083 -110.50496101 125.94989807 -111.48667872 125.94949341 C-117.13958262 125.94545881 -122.79216699 125.92594001 -128.44497275 125.89264774 C-131.96671924 125.87303777 -135.4884685 125.86104001 -139.010252 125.850317 C-140.63882412 125.843438 -142.26738592 125.83304145 -143.89591026 125.81879616 C-146.12618042 125.79958536 -148.35617543 125.79283824 -150.58651733 125.78881836 C-151.83236288 125.78136093 -153.07820843 125.7739035 -154.36180687 125.76622009 C-159.75639945 126.11286122 -164.43945602 126.84655445 -168.875 130.125 C-173.20701206 135.98595749 -173.14373314 142.24622158 -173.546875 149.29296875 C-173.59118652 150.03494507 -173.63549805 150.77692139 -173.68115234 151.54138184 C-173.78951198 153.36079871 -173.89504007 155.18038384 -174 157 C-172.78133082 156.99723462 -171.56266165 156.99446924 -170.3070631 156.99162006 C-141.3967263 156.92668627 -112.48639076 156.87719839 -83.57599793 156.84680401 C-80.01982206 156.84305176 -76.46364634 156.83916881 -72.9074707 156.83520508 C-72.19948193 156.83441815 -71.49149316 156.83363122 -70.76205019 156.83282044 C-59.2892018 156.81975643 -47.81639838 156.79609713 -36.34357669 156.76854161 C-24.57674589 156.74051505 -12.80993868 156.72382958 -1.04307586 156.71773452 C5.56845304 156.71381487 12.17987985 156.70456801 18.79137611 156.68280983 C25.00880055 156.66251346 31.22608043 156.6561523 37.44353485 156.66067696 C39.73050152 156.65984868 42.01747282 156.65384249 44.30441093 156.64238358 C47.41705407 156.62754676 50.52914509 156.6310142 53.64179993 156.63923645 C54.55521615 156.63049793 55.46863237 156.6217594 56.40972787 156.61275607 C57.65703472 156.62171579 57.65703472 156.62171579 58.92953968 156.63085651 C59.64835027 156.62971735 60.36716085 156.62857819 61.10775357 156.62740451 C63.576011 157.11342027 64.46831152 158.04049019 66 160 C66.3984375 162.375 66.3984375 162.375 66.375 165 C66.38273437 165.86625 66.39046875 166.7325 66.3984375 167.625 C65.91688733 170.49541672 65.2492705 171.21224569 63 173 C61.10775357 173.37259549 61.10775357 173.37259549 58.92953968 173.36914349 C58.09800178 173.37511663 57.26646389 173.38108978 56.40972787 173.38724393 C55.49631165 173.3785054 54.58289543 173.36976688 53.64179993 173.36076355 C52.67143474 173.36332682 51.70106956 173.3658901 50.70129937 173.36853105 C47.43522107 173.37349005 44.16960048 173.35694094 40.90356445 173.34057617 C38.56817638 173.33973036 36.23278751 173.34020415 33.8973999 173.34190369 C27.54440497 173.34276685 21.19157887 173.32508914 14.83862329 173.30418181 C8.87592585 173.28736311 2.91323515 173.28431479 -3.0494828 173.2812262 C-14.86090134 173.27465805 -26.67225777 173.25468705 -38.48364258 173.22631836 C-49.95824879 173.19878718 -61.43283814 173.177549 -72.9074707 173.16479492 C-73.61460048 173.16400675 -74.32173027 173.16321858 -75.05028822 173.16240653 C-78.5977011 173.15849145 -82.1451141 173.15470032 -85.69252717 173.15097082 C-115.1283915 173.11986359 -144.56419509 173.06679512 -174 173 C-173.91601089 189.55104545 -173.82084482 206.10198338 -173.71247292 222.65288544 C-173.66240976 230.33823163 -173.61596626 238.02356749 -173.578125 245.70898438 C-173.54512272 252.40973817 -173.50524635 259.11041029 -173.45720994 265.81107378 C-173.43202658 269.35707251 -173.41022151 272.90301763 -173.39665604 276.44908142 C-173.38136139 280.41341798 -173.35071582 284.37755725 -173.31884766 288.34179688 C-173.31668747 289.5099292 -173.31452728 290.67806152 -173.31230164 291.8815918 C-173.26983821 302.48058622 -173.26983821 302.48058622 -168.875 311.875 C-162.99275988 316.22274269 -156.07343724 316.29964307 -149.01367188 316.31884766 C-148.15418945 316.32889328 -147.29470703 316.3389389 -146.40917969 316.34928894 C-143.59570933 316.3799405 -140.78233333 316.39710555 -137.96875 316.4140625 C-136.00719399 316.43278868 -134.04564592 316.45236316 -132.08410645 316.4727478 C-126.94186087 316.52392186 -121.79958923 316.56362617 -116.65722656 316.60089111 C-111.40162789 316.64102337 -106.1461363 316.69207353 -100.890625 316.7421875 C-90.59382539 316.8387723 -80.2969651 316.9232326 -70 317 C-69.98198735 318.9159809 -69.96915268 320.83201094 -69.95849609 322.74804688 C-69.95079193 323.81502808 -69.94308777 324.88200928 -69.93515015 325.98132324 C-70.32949081 344.33737058 -81.54623959 360.27257284 -94.21484375 372.578125 C-111.44252216 387.55871492 -131.97157684 390.34605916 -154 389 C-172.48916786 386.68036756 -188.03138303 375.76390952 -200 362 C-208.57043003 350.47786592 -214.28476038 336.581889 -213.9921875 322.08984375 C-213.97542969 320.77048828 -213.95867187 319.45113281 -213.94140625 318.09179688 C-213.91040615 316.00913171 -213.87476441 313.92687007 -213.82861328 311.84448242 C-213.7862224 309.82234197 -213.7639451 307.79981145 -213.7421875 305.77734375 C-213.7201123 304.57327881 -213.69803711 303.36921387 -213.67529297 302.12866211 C-214.02901752 298.72040633 -214.52385784 297.3380264 -217 295 C-220.5 294.33333333 -220.5 294.33333333 -224 295 C-229.17378806 299.82886885 -228.3004362 307.31956651 -228.62109375 313.8828125 C-229 317 -229 317 -231 319 C-243.23294869 309.4042844 -250.87400728 296.17547528 -254 281 C-254.4111505 277.05103513 -254.47757834 273.15557659 -254.4375 269.1875 C-254.43065186 268.14013672 -254.42380371 267.09277344 -254.41674805 266.01367188 C-254.17637959 254.36795497 -251.90387728 244.58871844 -245 235 C-241.28938649 236.4126015 -237.8266951 238.09360324 -234.3125 239.9375 C-224.66085788 244.75744308 -214.94014577 247.63381197 -204 247 C-201.56253279 245.90886548 -201.56253279 245.90886548 -200 244 C-199.27491571 241.11679083 -199.66361924 239.02742688 -200 236 C-203.60168586 233.59887609 -206.8839455 233.24783689 -211.0625 232.625 C-224.86965806 230.33033828 -235.61434298 225.20780244 -244.625 214.046875 C-252.70184897 202.02338392 -255.48465004 190.33331861 -253.60546875 175.98828125 C-251.0748605 164.02095319 -245.47032618 150.89783292 -235 144 C-234.071875 143.34 -233.14375 142.68 -232.1875 142 C-230 141 -230 141 -227 142 C-225.97684927 144.71029309 -225.11906791 147.35033858 -224.3125 150.125 C-222.32491126 156.51212601 -220.04442558 162.47801495 -216.875 168.375 C-216.55055908 168.98617676 -216.22611816 169.59735352 -215.8918457 170.22705078 C-213.65811642 174.2524112 -211.32797876 177.98150929 -207 179.875 C-204.28639933 180.04460004 -203.16695153 179.66132951 -201 178 C-199.3044462 175.33217693 -199.3044462 175.33217693 -199 172 C-200.21600265 169.42207438 -201.42772973 167.33911374 -203 165 C-214.09399344 146.78437852 -217.54589894 125.76991191 -212.5 104.875 C-206.2110851 85.43852783 -193.42453085 69.42703497 -175.25 59.75 C-165.57475347 55.19840587 -155.76151798 52.10733952 -145 53 C-146.67081227 58.77313183 -148.50933063 64.45369722 -150.5 70.125 C-154.32441756 81.4535837 -156.24373036 92.43839451 -156.3125 104.375 C-156.31805908 105.20225586 -156.32361816 106.02951172 -156.3293457 106.88183594 C-156.45351717 111.41721981 -156.45351717 111.41721981 -154 115 C-152.08993694 115.3176246 -152.08993694 115.3176246 -150 115.25 C-149.29875 115.25515625 -148.5975 115.2603125 -147.875 115.265625 C-145.7564331 115.15705515 -145.7564331 115.15705515 -144 113 C-143.06889152 110.15762913 -142.81745342 107.4046733 -142.640625 104.4296875 C-140.60453331 74.65624053 -130.58016754 50.85937357 -110 29 C-109.44957031 28.38511719 -108.89914063 27.77023438 -108.33203125 27.13671875 C-95.82299785 13.70109029 -77.42876103 4.86898721 -60 0 C-58.93652344 -0.3196875 -57.87304688 -0.639375 -56.77734375 -0.96875 C-39.419319 -5.3539352 -17.13300903 -5.14198448 0 0 Z " fill="#FFFFFF" transform="translate(286,35)"/>
<path d="M0 0 C21.36457619 2.62530809 38.95291666 13.13558232 54 28 C54.65355469 28.58136719 55.30710937 29.16273437 55.98046875 29.76171875 C65.3500486 38.27367116 73.86380527 52.51661205 76 65 C75.44054687 64.90460938 74.88109375 64.80921875 74.3046875 64.7109375 C64.46306826 63.35019915 53.83353016 64.18171082 45 69 C44.34 69.66 43.68 70.32 43 71 C43.35263785 75.50317123 43.35263785 75.50317123 46 79 C48.91502793 79.21247002 48.91502793 79.21247002 52.3359375 79.0546875 C53.62886719 79.03019531 54.92179687 79.00570312 56.25390625 78.98046875 C58.29873868 78.93140054 60.34291235 78.87606673 62.38720703 78.80810547 C76.80059632 78.35934341 89.54543747 81.31526186 100.4453125 91.22265625 C111.71472286 102.95697628 114.62694609 116.26957923 114.3125 132.03515625 C114.03363592 138.19921433 112.67682936 143.43721399 110 149 C109.5875 149.86753906 109.175 150.73507813 108.75 151.62890625 C102.7540419 162.78615782 92.98384278 170.17799253 81 174 C76.78556198 174.88842134 72.54543872 175.5358596 68.27172852 176.06396484 C63.66927037 176.46018775 63.66927037 176.46018775 60 179 C59.6823754 180.91006306 59.6823754 180.91006306 59.75 183 C59.74484375 183.70125 59.7396875 184.4025 59.734375 185.125 C59.84294485 187.2435669 59.84294485 187.2435669 62 189 C70.63850408 190.15538313 78.39674399 188.41744217 86.58984375 185.97265625 C89.72678363 185.07792769 92.77522294 184.46771576 96 184 C105.03100264 198.40011928 108.61592597 211.59522679 105.30859375 228.54296875 C101.50914346 240.83156739 94.52738998 251.19748641 83.15625 257.6015625 C74.60379404 261.61933714 66.35976272 263.32487415 57.01171875 264.4375 C53.8976805 264.72547581 53.8976805 264.72547581 52 267 C51.6823754 268.91006306 51.6823754 268.91006306 51.75 271 C51.74484375 271.70125 51.7396875 272.4025 51.734375 273.125 C51.84294485 275.2435669 51.84294485 275.2435669 54 277 C60.76954759 278.37898192 67.17003004 277.73991341 74 277 C74.21429692 282.66626268 73.66143753 287.40044878 71.875 292.8125 C71.6490918 293.50754639 71.42318359 294.20259277 71.19042969 294.91870117 C64.92347757 313.46450714 52.22731094 327.19085186 35.125 336.375 C17.49371566 344.4350157 -3.12271702 346.19745598 -21.7421875 340.26171875 C-40.09260437 333.15478272 -55.11218043 320.79538985 -64 303 C-67.50748526 294.49360782 -70.16416277 285.93881238 -70.0625 276.6875 C-70.05347656 275.61886719 -70.04445313 274.55023438 -70.03515625 273.44921875 C-70.02355469 272.64097656 -70.01195312 271.83273437 -70 271 C-69.31619263 270.99191315 -68.63238525 270.98382629 -67.92785645 270.97549438 C-60.78961065 270.8892175 -53.65163517 270.78970419 -46.51367188 270.68261719 C-43.85222447 270.64335922 -41.19086667 270.6095454 -38.52929688 270.578125 C-34.69643269 270.53229105 -30.8639112 270.47432585 -27.03125 270.4140625 C-25.84760864 270.40251129 -24.66396729 270.39096008 -23.44445801 270.37905884 C-12.67516656 270.30184578 -12.67516656 270.30184578 -3.125 265.875 C0.95845561 260.35032477 1.25215101 253.91109144 1.4140625 247.21875 C1.43342865 246.51979614 1.4527948 245.82084229 1.4727478 245.10070801 C1.5318215 242.90059036 1.57863473 240.70041828 1.625 238.5 C1.66324657 236.99477071 1.70230201 235.48956175 1.7421875 233.984375 C1.83746125 230.3231043 1.92175356 226.66167878 2 223 C3.14621826 222.94408691 4.29243652 222.88817383 5.47338867 222.83056641 C17.84081226 222.65091502 17.84081226 222.65091502 28.875 217.875 C34.30104624 210.53387861 33.29530569 201.21864443 33.265625 192.5 C33.26697505 191.09570244 33.2689184 189.69140535 33.27142334 188.28710938 C33.27435863 185.35542312 33.27012868 182.42385941 33.26074219 179.4921875 C33.24934853 175.75344078 33.2559166 172.01498132 33.26788712 168.27624512 C33.27514904 165.3798612 33.27279801 162.48354425 33.26763153 159.5871582 C33.26630699 158.20939092 33.26790036 156.83161736 33.27259064 155.45385742 C33.61583959 143.1273546 33.61583959 143.1273546 28.875 132.125 C21.36126139 126.57136711 10.98710254 127.43839525 2 127 C1.970271 125.6087793 1.970271 125.6087793 1.93994141 124.18945312 C1.86137684 120.71524973 1.77467001 117.24144044 1.68261719 113.76757812 C1.64457165 112.27026052 1.60967833 110.77285911 1.578125 109.27539062 C1.53193799 107.11037433 1.47403983 104.94592314 1.4140625 102.78125 C1.3826416 101.48251953 1.3512207 100.18378906 1.31884766 98.84570312 C0.86681405 93.39361024 0.19417979 88.61565501 -3.125 84.125 C-8.88103307 79.87054077 -15.73123955 79.69314188 -22.65625 79.5859375 C-23.44398804 79.56657135 -24.23172607 79.5472052 -25.04333496 79.5272522 C-27.52878412 79.46806454 -30.01428115 79.42131774 -32.5 79.375 C-34.19793548 79.33676405 -35.89585273 79.29770916 -37.59375 79.2578125 C-41.7290164 79.1624142 -45.86437338 79.07816258 -50 79 C-38.73269804 63.62991766 -24.44396922 51.71893352 -5.19140625 48.26171875 C-3 48 -3 48 1 48 C1.8308524 50.4925572 2.23095101 52.4043821 2.5 54.9765625 C2.5825 55.729375 2.665 56.4821875 2.75 57.2578125 C2.91748267 58.84366403 3.08414147 60.42960278 3.25 62.015625 C3.33729219 65.82411369 3.33729219 65.82411369 5 69 C6.51928038 69.07179964 8.04167482 69.08392007 9.5625 69.0625 C10.38878906 69.05347656 11.21507812 69.04445313 12.06640625 69.03515625 C12.70449219 69.02355469 13.34257812 69.01195312 14 69 C19.8332396 48.67774591 10.31619245 23.04187506 1.35546875 4.9140625 C0 2 0 2 0 0 Z " fill="#FFFFFF" transform="translate(366,81)"/>
<path d="M0 0 C16.5 0 33 0 50 0 C50.99 8.91 50.99 8.91 52 18 C58.07768858 41.41697658 70.42326375 61.58561273 91.671875 74.25390625 C99.13331559 78.48278828 106.72842191 81.6586967 115 84 C112.83943961 88.75323285 109.50282332 92.18725609 106 96 C105.49726563 96.56847656 104.99453125 97.13695312 104.4765625 97.72265625 C88.04642441 115.36211922 61.65717905 126.89773645 37.68286133 128.17700195 C2.83103955 128.77011384 -27.86269536 123.02045042 -54.15625 98.0546875 C-62.25160873 90.14953192 -62.25160873 90.14953192 -65 86 C-65 85.34 -65 84.68 -65 84 C-63.98421875 83.64808594 -62.9684375 83.29617188 -61.921875 82.93359375 C-37.61452248 74.30725625 -19.83426042 59.82391546 -8.26953125 36.51171875 C-2.73011504 24.21558253 -1.04011942 13.52155247 0 0 Z " fill="#FFFFFF" transform="translate(231,352)"/>
<path d="M0 0 C1.13622803 0.0002417 2.27245605 0.0004834 3.44311523 0.00073242 C5.21078247 0.01608032 5.21078247 0.01608032 7.01416016 0.03173828 C8.10897705 0.03375244 9.20379395 0.0357666 10.33178711 0.0378418 C14.40564182 0.04827384 18.47943663 0.07619637 22.55322266 0.10205078 C31.66947266 0.14330078 40.78572266 0.18455078 50.17822266 0.22705078 C50.17822266 21.34705078 50.17822266 42.46705078 50.17822266 64.22705078 C36.59666016 64.35080078 36.59666016 64.35080078 22.74072266 64.47705078 C18.47823608 64.5316748 18.47823608 64.5316748 14.12963867 64.58740234 C11.85547642 64.59909429 9.58130574 64.60928491 7.30712891 64.61767578 C6.14403198 64.63813965 4.98093506 64.65860352 3.78259277 64.6796875 C-6.01801776 64.68385842 -14.57254413 62.09474541 -21.82177734 55.22705078 C-29.46460492 45.71754181 -31.03370179 36.11905939 -29.82177734 24.22705078 C-27.86939646 15.65210519 -23.12387863 9.20829666 -15.82177734 4.41455078 C-10.79171697 1.3441181 -5.88539529 -0.02663075 0 0 Z M-9.82177734 21.22705078 C-13.71115631 26.66844154 -13.61220343 31.74555688 -12.82177734 38.22705078 C-10.63534035 42.84286221 -8.3257793 44.95569163 -3.82177734 47.22705078 C1.7263087 48.05590347 6.64963148 47.95112028 11.74072266 45.53955078 C15.01024255 42.43769857 16.93672789 39.8435428 17.61181641 35.32470703 C17.61972937 29.17633277 17.62472806 24.91390783 13.17822266 20.22705078 C6.19836404 15.23801094 -3.45862719 15.19021602 -9.82177734 21.22705078 Z " fill="#FFFFFF" transform="translate(333.82177734375,223.77294921875)"/>
</svg>
