<svg width="84" height="89" viewBox="0 0 84 89" fill="none" xmlns="http://www.w3.org/2000/svg">
<mask id="mask0_301_31" style="mask-type:luminance" maskUnits="userSpaceOnUse" x="0" y="0" width="84" height="89">
<path d="M0 0H84V89H0V0Z" fill="white"/>
</mask>
<g mask="url(#mask0_301_31)">
<path d="M44.0869 73.1551L28.098 76.2807C27.3622 76.4246 26.8823 77.1376 27.0262 77.8733C27.1528 78.5211 27.7206 78.9706 28.3569 78.9706C28.4432 78.9706 28.5308 78.9623 28.6187 78.9451L44.6076 75.8196C45.3434 75.6757 45.8232 74.9627 45.6793 74.2269C45.5357 73.4913 44.823 73.0116 44.0869 73.1551Z" fill="white"/>
<path d="M83.4784 75.3042C83.1626 72.3458 81.5922 69.658 79.1705 67.9299L70.5571 61.7839C70.5936 55.8212 68.7236 51.5338 64.9922 49.0277C64.9024 48.9374 64.7997 48.8593 64.6862 48.7966L52.15 41.8629L45.8482 6.5285C45.4915 4.52969 44.3773 2.79034 42.7108 1.63081C41.0439 0.471094 39.0251 0.0309997 37.0283 0.391736L9.33076 5.38929C5.22038 6.13091 2.47305 10.0795 3.20637 14.1914L6.89477 34.8726L5.1092 34.738C2.65987 34.5696 0.529212 36.426 0.360951 38.8757L0.161229 41.7809C-0.00703186 44.2307 1.84914 46.3609 4.28999 46.5287L9.03745 46.8865L9.09838 47.2282C8.41279 47.394 7.77244 47.7223 7.22537 48.199C6.32839 48.9806 5.78949 50.0646 5.70802 51.2512L5.50829 54.1564C5.37998 56.0245 6.42953 57.7056 8.02108 58.4739C7.64465 59.0817 7.41908 59.7758 7.36871 60.5093L7.16899 63.4145C7.03983 65.2948 8.10388 66.9855 9.71279 67.7468C9.32307 68.3631 9.08976 69.0699 9.03842 69.8177L8.8387 72.7228C8.67044 75.1727 10.5266 77.3028 12.9915 77.4722L14.508 77.5594L14.7001 78.6365C15.0566 80.6352 16.1706 82.3746 17.8373 83.5342C19.1242 84.4296 20.6207 84.896 22.1557 84.896C22.6085 84.896 23.0649 84.8554 23.52 84.7733L43.4313 81.1807C43.4768 81.1911 43.5232 81.1994 43.5705 81.2052L55.3534 82.6554L60.0507 85.8608C62.7104 87.6758 65.8439 88.6345 69.0352 88.6344C69.6534 88.6344 70.2743 88.5983 70.8938 88.5256C74.7114 88.0774 78.2383 86.2649 80.8251 83.422C82.8273 81.2214 83.7945 78.2626 83.4784 75.3042ZM4.48512 43.8209C3.52857 43.7551 2.80392 42.9235 2.86967 41.967L3.06939 39.0618C3.13496 38.1054 3.96425 37.3796 4.91425 37.4459L7.38696 37.6322L8.54526 44.1268L4.48512 43.8209ZM8.21673 54.3426L8.41645 51.4374C8.44827 50.9741 8.65859 50.5509 9.00873 50.2458C9.35886 49.9407 9.80832 49.7903 10.2702 49.8221L16.1632 50.2271C17.1197 50.2928 17.8444 51.1245 17.7786 52.081L17.5789 54.986C17.5132 55.9425 16.6823 56.6691 15.725 56.6015L9.83218 56.1964C8.87564 56.1306 8.15098 55.299 8.21673 54.3426ZM9.87743 63.6006L10.0771 60.6954C10.109 60.2321 10.3193 59.809 10.6694 59.5038C11.0197 59.1987 11.4671 59.0483 11.9309 59.0801L16.447 59.3912C16.9105 59.423 17.3336 59.6334 17.6388 59.9836C17.9439 60.3338 18.0943 60.7818 18.0625 61.2452L17.8629 64.1502C17.7974 65.1065 16.9679 65.8327 16.0092 65.7656L11.4929 65.4545C10.5363 65.3887 9.81168 64.557 9.87743 63.6006ZM11.5471 72.9089L11.7469 70.0038C11.7787 69.5404 11.989 69.1172 12.3391 68.8122C12.6578 68.5345 13.0574 68.385 13.4873 68.385C13.5299 68.385 13.5728 68.3864 13.6159 68.3894L15.7657 68.5129C16.7222 68.5787 17.4469 69.4104 17.3811 70.3668L17.1814 73.2719C17.1157 74.2282 16.2835 74.9543 15.3275 74.8873C15.3224 74.887 15.3175 74.8867 15.3123 74.8864L13.1626 74.7628C12.206 74.6971 11.4814 73.8654 11.5471 72.9089ZM23.0379 82.1016C21.7545 82.333 20.4583 82.0505 19.3877 81.3057C18.3174 80.5609 17.6017 79.4437 17.3728 78.1598L17.2089 77.2409C18.6892 76.5999 19.7717 75.1754 19.8899 73.4581L20.0896 70.5529C20.1717 69.3572 19.7706 68.2383 19.0527 67.3857C19.9121 66.6365 20.4872 65.5609 20.5714 64.3364L20.7709 61.4314C20.8526 60.2446 20.4671 59.097 19.6855 58.2001C19.5446 58.0384 19.3936 57.8887 19.2341 57.7508C19.8319 57.05 20.2194 56.1597 20.2874 55.1722L20.4871 52.2671C20.6553 49.8172 18.7992 47.6871 16.3495 47.5186L11.8528 47.2096L5.8791 13.7147C5.4079 11.0735 7.1727 8.53729 9.81292 8.06096L9.86766 8.05106L10.9003 9.64601C11.8422 11.1007 13.5649 11.8481 15.2706 11.5423L33.5568 8.26303C35.2625 7.95712 36.6181 6.65761 36.9958 4.96634L37.417 3.08029L37.5104 3.06341C38.7931 2.8317 40.0897 3.11449 41.1604 3.85929C42.2308 4.6041 42.9466 5.7213 43.1755 7.00518L49.2045 40.8098C48.4683 40.7075 47.7167 40.7123 46.9778 40.8311L36.1186 42.5767C35.1378 42.7342 34.3048 43.3261 33.8331 44.2004C33.3614 45.0747 33.3242 46.0959 33.7311 47.0025L34.4006 48.4935C35.5935 51.1504 38.4435 52.7399 41.3304 52.3585L44.799 51.9006C45.0352 51.8692 45.277 51.9531 45.4435 52.1248L52.5262 59.4339L54.6692 71.4504C55.1404 74.0915 53.3756 76.6277 50.7354 77.1041L23.0379 82.1016ZM78.8168 81.595C76.6708 83.9537 73.7446 85.4575 70.5773 85.8293C67.41 86.2011 64.2152 85.4159 61.581 83.6184L56.6114 80.2272C56.4326 80.1051 56.227 80.0276 56.0121 80.0012L52.1908 79.5309C55.7506 78.3889 58.0156 74.7512 57.3419 70.9738L55.7592 62.0988C56.0748 62.082 56.3861 61.9567 56.6309 61.7195C57.1694 61.1977 57.1829 60.3384 56.6611 59.8L54.7665 57.8448C54.7651 57.8434 54.7638 57.842 54.7624 57.8406L47.393 50.2355C46.6312 49.4496 45.5283 49.066 44.4438 49.2091L40.9752 49.6671C39.2655 49.8928 37.5825 48.9527 36.8772 47.3815L36.2078 45.8906C36.1279 45.7129 36.1827 45.563 36.2223 45.4894C36.2621 45.4159 36.3574 45.2879 36.5495 45.257L47.4087 43.5114C48.2603 43.3749 49.137 43.4767 49.9357 43.7912C50.1682 44.0559 50.4984 44.2248 50.8582 44.2507L63.1243 51.0351C63.1743 51.0785 63.2279 51.1184 63.2844 51.1544C66.516 53.2115 68.0028 56.9002 67.83 62.4311C67.8158 62.8844 68.029 63.315 68.3982 63.5784L77.5935 70.1398C79.3843 71.4176 80.5454 73.4051 80.779 75.5925C81.0127 77.78 80.2974 79.9678 78.8168 81.595Z" fill="white"/>
</g>
</svg>
