<?xml version="1.0" encoding="UTF-8"?>
<svg version="1.1" xmlns="http://www.w3.org/2000/svg" width="1364" height="1364">
<path d="M0 0 C0.65381653 0.15770874 1.30763306 0.31541748 1.98126221 0.47790527 C32.66972349 7.91193137 62.78488152 18.04152583 92 30 C93.12374023 30.45890625 94.24748047 30.9178125 95.40527344 31.390625 C126.00120565 44.00540669 155.74865566 58.75538819 184 76 C185.6059592 76.96229332 187.21270567 77.92327424 188.8203125 78.8828125 C209.45880948 91.26416407 229.46206815 104.87114361 248.39208984 119.73925781 C250.07547502 121.05917901 251.76577453 122.36987117 253.45703125 123.6796875 C260.91458797 129.47302505 268.1914262 135.44505404 275.35693359 141.59521484 C277.01870437 143.01599182 278.68983978 144.42502753 280.36328125 145.83203125 C294.7828475 157.99506909 308.21397281 171.12213204 321.5625 184.4375 C322.48159149 185.35257324 322.48159149 185.35257324 323.41925049 186.28613281 C329.83647419 192.68206826 336.12843157 199.09293979 342 206 C343.61967817 207.77570221 345.24411718 209.54708307 346.875 211.3125 C350.91402153 215.74631311 354.77506878 220.28054584 358.5390625 224.94921875 C360.33280236 227.17288674 362.13872383 229.38198478 363.9609375 231.58203125 C372.37255518 241.77138861 380.28996049 252.27159833 388 263 C388.86842529 264.2068042 388.86842529 264.2068042 389.75439453 265.43798828 C428.20142473 319.07926765 458.6110944 378.22633626 479.87060547 440.68457031 C480.60590099 442.84309024 481.34931004 444.99886884 482.10205078 447.15136719 C499.43339459 496.82264119 508.7516157 548.7881085 514 601 C514.19916016 602.92730957 514.19916016 602.92730957 514.40234375 604.89355469 C518.20629465 643.58486429 517.86308777 684.33192612 514 723 C513.87641113 724.31307129 513.75282227 725.62614258 513.62548828 726.97900391 C509.17431044 773.81267245 500.0689424 820.1065502 486 865 C485.79117187 865.66666687 485.58234375 866.33333374 485.3671875 867.02020264 C476.65699653 894.71877488 466.34268431 921.70229874 454 948 C453.5678418 948.92989746 453.13568359 949.85979492 452.69042969 950.81787109 C430.2559043 998.98332677 402.37701839 1044.60518455 369 1086 C368.24203125 1086.94101563 367.4840625 1087.88203125 366.703125 1088.8515625 C364.48468326 1091.5813472 362.24813279 1094.29461986 360 1097 C359.57750977 1097.50885742 359.15501953 1098.01771484 358.71972656 1098.54199219 C352.88944193 1105.54770308 346.9106601 1112.37672894 340.703125 1119.05078125 C338.69555692 1121.21633131 336.76020635 1123.43363849 334.8347168 1125.67236328 C331.03631228 1130.01855687 327.0275848 1134.11697085 322.94140625 1138.19140625 C322.1934227 1138.94034653 321.44543915 1139.6892868 320.67478943 1140.46092224 C319.10367536 1142.03271225 317.53131608 1143.60325849 315.95776367 1145.17260742 C313.56900154 1147.55601304 311.18562554 1149.94471068 308.80273438 1152.33398438 C307.2659455 1153.87011237 305.7288464 1155.40593009 304.19140625 1156.94140625 C303.48907364 1157.64576309 302.78674103 1158.35011993 302.06312561 1159.07582092 C298.07175662 1163.0486203 293.98206298 1166.84921682 289.71417236 1170.52394104 C287.49898594 1172.43141886 285.34496114 1174.40268001 283.1875 1176.375 C277.93824117 1181.10571502 272.50441004 1185.57083694 267 1190 C265.87864698 1190.91374442 264.75756489 1191.82782139 263.63671875 1192.7421875 C253.67185989 1200.83463809 243.40348776 1208.48229297 233 1216 C231.89688477 1216.79736572 231.89688477 1216.79736572 230.77148438 1217.61083984 C206.95870748 1234.76055654 181.87266763 1250.1570429 156 1264 C155.03465332 1264.51884766 154.06930664 1265.03769531 153.07470703 1265.57226562 C79.66998213 1304.85132533 -0.19813242 1328.77665165 -364.94314575 1315.08956909 C-403.31830713 1303.44649292 -440.13105227 1287.86673762 -476 1270 C-477.51303711 1269.25049072 -477.51303711 1269.25049072 -479.05664062 1268.48583984 C-494.53082535 1260.77744203 -509.27361078 1251.99046241 -523.95263672 1242.88720703 C-526.50423695 1241.30702198 -529.06308999 1239.74051827 -531.62890625 1238.18359375 C-554.92810304 1223.97148276 -577.05703993 1207.47288982 -598 1190 C-598.59039063 1189.50870605 -599.18078125 1189.01741211 -599.7890625 1188.51123047 C-606.13476536 1183.22018058 -612.38283205 1177.83397005 -618.48828125 1172.265625 C-620.5823357 1170.37674229 -622.6965841 1168.51863473 -624.82421875 1166.66796875 C-634.74248122 1158.00408497 -644.23406567 1148.85470101 -653.5625 1139.5625 C-654.52542969 1138.60645874 -654.52542969 1138.60645874 -655.5078125 1137.63110352 C-659.27656719 1133.85005513 -662.84744179 1129.94827099 -666.33666992 1125.90844727 C-668.78128071 1123.1035856 -671.32994567 1120.40085424 -673.875 1117.6875 C-678.36189457 1112.86417577 -682.62289013 1107.91844022 -686.74609375 1102.77734375 C-688.7142408 1100.35212269 -690.73302157 1097.98220324 -692.77856445 1095.62231445 C-700.68447208 1086.46350324 -707.83850084 1076.74473415 -715 1067 C-715.5863623 1066.20303711 -716.17272461 1065.40607422 -716.77685547 1064.58496094 C-724.12762099 1054.56821201 -731.24971631 1044.43132576 -738 1034 C-738.46229004 1033.2879541 -738.92458008 1032.5759082 -739.40087891 1031.84228516 C-747.39667428 1019.48417605 -754.84386822 1006.86065582 -762 994 C-762.52207031 993.06559082 -763.04414062 992.13118164 -763.58203125 991.16845703 C-804.6193719 917.4684885 -831.17366616 836.041581 -821.33532715 471.65118408 C-806.96834753 421.76796446 -786.70047851 373.10479493 -761 328 C-760.41798828 326.97745117 -759.83597656 325.95490234 -759.23632812 324.90136719 C-742.03356795 294.8739038 -722.70674675 265.96517842 -701 239 C-700.48969238 238.36352539 -699.97938477 237.72705078 -699.45361328 237.07128906 C-688.06185801 222.87748757 -676.30413931 209.15566942 -663.80859375 195.921875 C-661.95799475 193.95536376 -660.11811216 191.97934413 -658.28125 190 C-650.45136554 181.56294661 -642.67216584 173.22694958 -633.93359375 165.71484375 C-632.04505403 164.03995701 -630.26844352 162.30052413 -628.5 160.5 C-624.83712494 156.78795884 -620.95850906 153.39208825 -617 150 C-615.98018849 149.1162087 -614.96068012 148.23206755 -613.94140625 147.34765625 C-582.85850103 120.44733967 -549.54593798 95.80632402 -513.96875 75.14404297 C-512.57578088 74.33458695 -511.18540216 73.5206655 -509.796875 72.70361328 C-444.81293926 34.49596398 -373.58700848 7.59746938 0 0 Z " fill="#000000" transform="translate(848,20)"/>
<path d="M0 0 C1.4727769 -0.00706891 2.94554653 -0.01581799 4.41830444 -0.02610779 C8.39570911 -0.04850301 12.372714 -0.04568537 16.3501575 -0.03678632 C19.68003349 -0.03165581 23.00983571 -0.03898566 26.3397041 -0.04625839 C34.19968025 -0.06322609 42.05946212 -0.05972328 49.91943359 -0.04296875 C58.00790413 -0.02604929 66.09583488 -0.0418864 74.18424648 -0.07419163 C81.1484736 -0.10094534 88.11253329 -0.10814802 95.0768066 -0.09967655 C99.22760539 -0.09476427 103.37807959 -0.09687023 107.5288372 -0.11746407 C111.43368924 -0.13591264 115.33776906 -0.12975208 119.24258041 -0.10526466 C120.66872212 -0.10028568 122.09492361 -0.10367027 123.52101707 -0.11641312 C133.66411555 -0.19981971 140.72930755 1.33600023 148.86157227 7.49047852 C154.79907509 13.648369 157.55251494 19.58841822 160.56860352 27.51782227 C163.0861748 34.08350509 165.72639897 40.59283677 168.40063477 47.09594727 C172.86778374 58.000078 177.20129991 68.94903195 181.48535156 79.92602539 C184.17934446 86.80746813 186.94080959 93.63460605 189.95922852 100.38110352 C191.08458592 103.07595047 192.09319903 105.76938664 193.07641602 108.51782227 C195.29056901 114.66686805 197.73996082 120.70919271 200.21972656 126.75521851 C201.64479828 130.23117824 203.06176403 133.71043909 204.47875977 137.18969727 C204.78031982 137.92995651 205.08187988 138.67021576 205.39257812 139.4329071 C209.22348417 148.84757359 213.0003261 158.28388184 216.77563477 167.72094727 C217.2836261 168.98918839 217.2836261 168.98918839 217.80187988 170.28305054 C220.86991002 177.94370732 223.93481836 185.6031778 226.87329102 193.31469727 C229.97742226 201.43531488 233.36337673 209.43755619 236.72680664 217.45336914 C239.34097317 223.72399569 241.85652241 230.00629503 244.21313477 236.37719727 C247.37337489 244.91556977 250.83797128 253.31733765 254.33813477 261.72094727 C256.39544984 266.66768148 258.4466587 271.61674632 260.4744873 276.57565308 C261.24620436 278.46152709 262.02302648 280.34530959 262.80004883 282.22900391 C266.91571188 292.48369322 268.39698106 301.21342542 264.02563477 311.72094727 C263.11149569 313.6596411 262.1949 315.59717883 261.27563477 317.53344727 C260.58587649 319.35821823 259.91855086 321.19165074 259.27563477 323.03344727 C257.1581583 328.96068058 254.73015199 334.73929903 252.27563477 340.53344727 C246.86320438 353.4063265 246.86320438 353.4063265 241.83422852 366.43188477 C237.30231468 378.73054152 237.30231468 378.73054152 235.21313477 382.59594727 C233.2751095 386.20772162 232.07970003 390.0171593 230.83813477 393.90844727 C229.14827461 399.19889485 227.12817882 404.04724706 224.52563477 408.95141602 C222.48085188 413.17517065 221.05293491 417.60841051 219.51782227 422.03735352 C218.04529886 426.18171971 216.37999161 430.21635873 214.66235352 434.26391602 C211.80725736 440.99550891 209.04753987 447.76725505 206.27563477 454.53344727 C205.90438477 455.4396582 205.53313477 456.34586914 205.15063477 457.27954102 C204.84125977 458.04395508 204.53188477 458.80836914 204.21313477 459.59594727 C203.90762695 460.35004883 203.60211914 461.10415039 203.28735352 461.88110352 C202.46958108 464.02499342 201.71526799 466.16863747 200.98266602 468.34204102 C197.22028541 479.30286048 192.74660069 488.51605943 182.33032227 494.59594727 C173.90282854 498.44119155 164.76193338 499.13960272 155.96313477 495.97094727 C145.91931657 491.2664684 141.60054027 484.49490994 137.27563477 474.53344727 C136.78321289 473.43645508 136.29079102 472.33946289 135.78344727 471.20922852 C133.16237819 465.25410526 130.7700211 459.24863472 128.52563477 453.14282227 C125.32125798 444.51658738 121.81970697 436.02453411 118.27563477 427.53344727 C114.51977802 418.53495516 110.85708696 409.5263566 107.47460938 400.38024902 C104.92540442 393.51977643 102.11070328 386.78081873 99.27563477 380.03344727 C95.63161067 371.30868105 92.08994392 362.57194909 88.83422852 353.69360352 C86.72531399 347.99794211 84.46255986 342.36220582 82.21313477 336.72094727 C81.80111816 335.68228516 81.38910156 334.64362305 80.96459961 333.57348633 C78.58223161 327.61899176 76.03635273 321.7726559 73.35400391 315.94775391 C72.06772616 313.06797111 71.01569421 310.15219843 70.02563477 307.15844727 C67.89576398 301.03086948 65.42690303 295.10561761 62.83813477 289.15844727 C59.97748451 282.57586945 57.25338275 275.99783223 54.79101562 269.25561523 C52.13601676 262.04246886 49.26307089 254.91608038 46.40063477 247.78344727 C46.13732361 247.12724396 45.87401245 246.47104065 45.60272217 245.79495239 C44.55404242 243.18233564 43.50487286 240.56991677 42.45477295 237.95787048 C40.97702843 234.28202408 39.50392146 230.60439165 38.03735352 226.92407227 C34.7236141 218.60844671 31.36874886 210.31189274 27.96313477 202.03344727 C23.91527407 192.19381392 20.0322843 182.29281377 16.16235352 172.38208008 C13.46404433 165.49298333 10.67223683 158.67321867 7.69604492 151.8996582 C6.21311524 148.38528308 4.87185882 144.83140462 3.55688477 141.25219727 C0.54409093 133.14018858 -2.68248169 125.12388722 -5.95837402 117.11517334 C-11.33392435 103.96947182 -16.61983924 90.79391822 -21.77929688 77.56176758 C-24.08109273 71.67270676 -26.41667308 65.79973142 -28.81030273 59.94750977 C-29.06581909 59.3227475 -29.32133545 58.69798523 -29.58459473 58.05429077 C-30.8133848 55.05356897 -32.04715234 52.05497996 -33.28588867 49.05834961 C-33.72191406 47.99825684 -34.15793945 46.93816406 -34.60717773 45.84594727 C-34.99276855 44.91395508 -35.37835937 43.98196289 -35.77563477 43.02172852 C-38.56486065 35.70629099 -39.09041333 27.75761073 -36.66577148 20.26000977 C-32.42563743 11.13625248 -26.72854449 5.40933043 -17.54748344 1.40663338 C-11.84349597 -0.35760116 -5.91744041 -0.03002019 0 0 Z " fill="#B00CAE" transform="translate(821.724365234375,449.466552734375)"/>
<path d="M0 0 C1.46953358 -0.00870895 2.93905809 -0.01908013 4.40856934 -0.03097534 C8.37782726 -0.05762351 12.34670278 -0.05892748 16.31603265 -0.05384874 C19.64075308 -0.05169988 22.96539763 -0.06150024 26.29010171 -0.07105958 C34.14056245 -0.09320521 41.99083177 -0.09415062 49.84130859 -0.08203125 C57.91390702 -0.06995966 65.98580757 -0.09456248 74.05828696 -0.13717139 C81.01235881 -0.17251416 87.96620965 -0.18438867 94.9203679 -0.1778959 C99.06347699 -0.17428672 103.20608841 -0.17937443 107.34911537 -0.20732498 C111.24914278 -0.23265435 115.14809066 -0.22843546 119.04810333 -0.2025032 C120.47018756 -0.19780916 121.89234983 -0.20310537 123.31434441 -0.21974945 C134.54196916 -0.34157458 143.84864064 1.93791229 152.11987305 9.92431641 C158.76201834 18.40433686 162.10947111 29.83962443 165.78100586 39.83105469 C168.09295655 46.08442828 170.59426206 52.25455672 173.11987305 58.42431641 C173.57281738 59.530896 174.02576172 60.63747559 174.49243164 61.77758789 C175.23881535 63.60082569 175.98520661 65.42406041 176.73181152 67.24720764 C180.19045716 75.69842207 183.61998115 84.16146295 187.04818726 92.62506104 C188.15808677 95.36437607 189.2694545 98.10309233 190.38085938 100.84179688 C193.68502119 108.99383408 196.9449321 117.15576521 200.07788086 125.37548828 C202.80662955 132.41951786 205.70661678 139.39652586 208.57519531 146.38452148 C211.60479454 153.7704539 214.56923726 161.16836472 217.3425293 168.65478516 C220.1402315 176.20364908 223.18835281 183.62665291 226.30737305 191.04931641 C229.96257861 199.79623145 233.49393932 208.55844581 236.7487793 217.46337891 C239.17334957 223.94997804 241.92169002 230.31231946 244.6184082 236.68920898 C247.20191701 242.81615418 249.64187145 248.98264845 252.01074219 255.19555664 C254.71682919 262.19490086 257.60884198 269.12021505 260.46557617 276.05908203 C260.93286133 277.19925781 261.40014648 278.33943359 261.8815918 279.51416016 C262.30013428 280.5311499 262.71867676 281.54813965 263.14990234 282.59594727 C265.26135195 287.98346168 266.6165368 292.47939241 266.68237305 298.29931641 C266.71073242 299.42853516 266.7390918 300.55775391 266.76831055 301.72119141 C266.1583301 306.78713075 264.32467817 310.89489166 262.30737305 315.54931641 C261.50121354 317.53151256 260.70063347 319.51598508 259.9050293 321.50244141 C259.49220703 322.52692383 259.07938477 323.55140625 258.65405273 324.60693359 C253.90924802 336.3789961 253.90924802 336.3789961 249.55737305 348.29931641 C247.6590353 353.77452211 245.3178375 358.92707833 242.8347168 364.15869141 C240.91136165 368.42844146 239.30261831 372.7901859 237.69824219 377.18554688 C235.72538394 382.54435087 233.55174644 387.79901956 231.30737305 393.04931641 C228.49425429 399.63721861 225.85871597 406.26049337 223.38549805 412.98291016 C221.58702133 417.85747 219.61838761 422.63875326 217.58862305 427.42041016 C216.07349883 431.12045436 214.68863274 434.86024145 213.30737305 438.61181641 C211.63148516 443.15936372 209.88571755 447.60364114 207.80737305 451.98681641 C205.64040248 456.57691699 203.99622466 461.25037482 202.36987305 466.04931641 C198.63487407 476.87224364 194.69674339 485.5548057 185.30737305 492.54931641 C184.65124023 493.08169922 183.99510742 493.61408203 183.3190918 494.16259766 C177.29920639 498.3122274 168.32916451 498.35039402 161.30737305 497.54931641 C152.00676493 495.07004767 145.82240394 490.14030242 140.68237305 482.06884766 C138.32942319 477.75733442 136.8699718 473.19076441 135.30737305 468.54931641 C134.37287583 466.12199947 133.39767196 463.71370252 132.4206543 461.30322266 C131.61684927 459.31486286 130.82392173 457.32209383 130.0378418 455.32666016 C127.08950101 447.86240345 123.99785086 440.47593841 120.80737305 433.11181641 C117.96188645 426.5321399 115.27365971 419.94813128 112.8269043 413.2097168 C110.19792257 406.07100668 107.23583734 399.06878173 104.30737305 392.04931641 C100.66663206 383.31725352 97.11577811 374.57899946 93.86206055 365.69384766 C90.58138912 356.83063452 86.95221997 348.09462308 83.42358398 339.328125 C82.52776201 337.09797503 81.63689043 334.86611788 80.75268555 332.63134766 C78.13449154 326.02389355 75.44056601 319.4522403 72.71072388 312.89016724 C71.90949598 310.96409641 71.10836344 309.03798602 70.30737305 307.11181641 C69.90594086 306.14653015 69.90594086 306.14653015 69.49639893 305.16174316 C66.16366841 297.13905471 62.96878437 289.09607815 59.98706055 280.93603516 C57.39743869 274.03093813 54.47432271 267.25319593 51.63363647 260.44848633 C47.98484172 251.70066487 44.49470827 242.91057025 41.17944336 234.03027344 C38.54776161 227.04029669 35.64950711 220.18163842 32.62695312 213.35205078 C30.0899379 207.56872179 27.84148442 201.69740259 25.64709473 195.777771 C23.22708415 189.27420623 20.6244091 182.85249917 17.98388672 176.43563843 C12.59365647 163.32968681 7.38916519 150.16060032 2.35375977 136.91430664 C-0.10527412 130.48514656 -2.7095488 124.18617783 -5.60717773 117.94262695 C-7.03503242 114.79434546 -8.21421161 111.61681666 -9.38012695 108.36181641 C-11.94470649 101.33528548 -14.78981543 94.44221543 -17.69262695 87.54931641 C-20.52488927 80.82027523 -23.31188299 74.09478115 -25.81762695 67.23681641 C-28.33248812 60.36238215 -31.13999839 53.63839397 -34.06616211 46.92895508 C-38.05713982 37.66425571 -39.20231355 29.23375699 -35.59887695 19.60791016 C-31.9401413 11.29690288 -25.79932348 5.00067278 -17.51900673 1.41606522 C-11.8198523 -0.33166004 -5.9092508 -0.02325569 0 0 Z " fill="#B00CAE" transform="translate(565.692626953125,449.45068359375)"/>
<path d="M0 0 C1.48115826 -0.0084286 2.96230581 -0.01896051 4.44343567 -0.03141785 C8.43951502 -0.05832254 12.43496637 -0.05380358 16.43109584 -0.04171729 C19.77833878 -0.0345526 23.12546802 -0.04310785 26.47270209 -0.05162269 C34.37448502 -0.07153006 42.27596508 -0.06605685 50.17773438 -0.04394531 C58.30549073 -0.02158659 66.43245256 -0.03918385 74.56013387 -0.0769946 C81.56178457 -0.10831197 88.5631904 -0.11611942 95.56490237 -0.10504085 C99.73644661 -0.09858025 103.90753286 -0.10042819 108.07902336 -0.12436485 C112.0037135 -0.14574166 115.92729025 -0.13747974 119.85191154 -0.10727119 C121.28408032 -0.10098646 122.71633711 -0.10470058 124.14844131 -0.11968231 C134.52896501 -0.21939489 142.46868829 1.45783019 150.25227261 8.66988087 C158.51815061 17.38629637 161.99259069 29.53105796 166.18261719 40.54492188 C169.3111448 48.75473253 172.63287885 56.87081141 176.02368164 64.9753418 C179.6683962 73.72072211 183.20739725 82.47819789 186.46118164 91.37768555 C189.13987443 98.56682427 192.12275465 105.64157691 195.04150391 112.7355957 C197.25181782 118.11726407 199.42339599 123.5063877 201.49243164 128.9440918 C204.79200262 137.58359531 208.37125112 146.10707051 211.92675781 154.64355469 C215.42207149 163.04274128 218.80087365 171.46354336 221.95848083 179.99580383 C224.17245764 185.95646776 226.59825529 191.81249042 229.08618164 197.6628418 C231.83353389 204.18589902 234.53183353 210.70197788 236.96118164 217.3503418 C240.02203739 225.70210533 243.46925567 233.88972129 246.89312744 242.09719849 C250.31780975 250.31233882 253.629488 258.54078073 256.64086914 266.91674805 C257.70407795 269.78369756 258.92911772 272.54302331 260.21899414 275.31518555 C267.32121095 290.71973379 267.76259515 301.38201279 262.08618164 317.6628418 C260.37597462 322.02168048 258.5274672 326.31189333 256.64868164 330.6003418 C253.19875981 338.5980944 249.93321593 346.55151008 247.12133789 354.7956543 C246.10474264 357.61143133 244.92887083 360.27049067 243.64868164 362.9753418 C241.11778051 368.33957879 239.18723405 373.85325388 237.31689453 379.47460938 C235.86806552 383.74868012 234.12661626 387.68349753 232.05664062 391.69140625 C230.5057588 394.84193977 229.33441934 398.11138407 228.14868164 401.4128418 C225.21746083 409.40020853 222.042342 417.261481 218.58618164 425.0378418 C217.1425876 428.5265274 215.89220345 432.03608324 214.64868164 435.6003418 C213.3122574 439.39818025 212.00444532 443.05893193 210.08618164 446.6003418 C208.12780931 450.25754313 206.90448692 454.09891551 205.64868164 458.0378418 C203.93612526 463.37644737 201.97543128 468.37804898 199.32836914 473.3269043 C198.46986631 474.94132157 197.66539933 476.58521892 196.90649414 478.2487793 C192.81115391 487.16216685 187.39292645 493.17041385 178.08618164 496.6628418 C175.21118164 497.4128418 175.21118164 497.4128418 172.08618164 497.6628418 C171.36946289 497.73760742 170.65274414 497.81237305 169.91430664 497.8894043 C161.63364923 498.39046318 154.28119507 495.86717616 147.68774414 490.83081055 C140.32466142 483.89199467 137.71021473 475.82763293 134.43774414 466.4519043 C131.50304251 458.12322972 128.17571355 449.92301338 124.46118164 441.9128418 C122.44713726 437.56945535 120.74599416 433.180735 119.17602539 428.65893555 C116.33596943 420.85132651 113.07263654 413.20556956 109.87451172 405.53979492 C105.39726685 394.80179706 101.02542744 384.04495697 96.95874023 373.14306641 C94.64107526 366.98251283 92.09515698 360.94422393 89.46118164 354.9128418 C86.8061851 348.83132552 84.32903516 342.76435238 82.21118164 336.4753418 C79.73328514 329.13052951 76.76635853 322.03504869 73.71118164 314.9128418 C70.3467709 307.0696932 67.07482978 299.2197033 64.08618164 291.2253418 C61.13432863 283.33577476 58.02978817 275.52024077 54.83618164 267.7253418 C50.75438468 257.76188344 46.71057165 247.78458997 42.71118164 237.7878418 C42.22359375 236.57104736 41.73600586 235.35425293 41.23364258 234.10058594 C38.96508219 228.42489731 36.72582428 222.7408519 34.54711914 217.0300293 C32.59093597 211.92009434 30.52374379 206.86750066 28.40307617 201.82397461 C25.87531561 195.75622456 23.45787906 189.64357578 21.02368164 183.5378418 C20.50227998 182.23181919 19.98079589 180.92582949 19.45922852 179.61987305 C18.4540875 177.10278789 17.44944206 174.58550688 16.44506836 172.06811523 C14.66149254 167.59860113 12.87413533 163.13060591 11.08618164 158.6628418 C10.44813236 157.06780109 9.81011229 155.4727487 9.17211914 153.87768555 C8.84050781 153.04865723 8.50889648 152.21962891 8.16723633 151.36547852 C-6.54858398 114.57592773 -6.54858398 114.57592773 -7.36206055 112.54199219 C-7.91066457 111.170646 -8.45949569 109.79939065 -9.00854492 108.42822266 C-10.42693648 104.88514013 -11.8411611 101.34048975 -13.24780273 97.79272461 C-16.2761721 90.16877527 -19.3573184 82.57226016 -22.5395813 75.0110321 C-24.22620347 70.99436298 -25.89080413 66.96872994 -27.5536499 62.94216919 C-28.36610024 60.99069454 -29.18847639 59.04331759 -30.02154541 57.10055542 C-35.25407205 44.88553185 -40.2025525 32.94125836 -35.93017578 19.58862305 C-32.30205788 11.22071681 -26.02288393 5.6212638 -17.92278862 1.70793724 C-12.0961785 -0.31579951 -6.10006778 -0.04031076 0 0 Z " fill="#B00CAE" transform="translate(304.913818359375,449.337158203125)"/>
</svg>
