<svg width="125" height="33" viewBox="0 0 125 33" fill="none" xmlns="http://www.w3.org/2000/svg">
<g clip-path="url(#clip0_12453_4998)">
<path fill-rule="evenodd" clip-rule="evenodd" d="M0.515272 14.5962L8.86997 2.4457C9.04769 2.18719 9.45268 2.31299 9.45268 2.62672V11.3165H14.1975C14.4547 11.3165 14.6065 11.605 14.4608 11.817L6.10604 23.9675C5.92829 24.226 5.52331 24.1003 5.52331 23.7865L5.52332 15.0968H0.778524C0.521276 15.0968 0.36952 14.8082 0.515272 14.5962Z" fill="#76EC00"/>
<path d="M18.2564 7.56641C17.9941 7.56641 17.8239 7.84284 17.9419 8.07704L25.8059 23.6796C25.9361 23.9379 26.3047 23.9379 26.4348 23.6796L34.2988 8.07704C34.4169 7.84284 34.2466 7.56641 33.9843 7.56641H30.4453C30.3082 7.56641 30.1837 7.64584 30.126 7.77004L26.5069 15.551C26.3806 15.8225 25.9946 15.8225 25.8683 15.551L22.2493 7.77004C22.1915 7.64584 22.067 7.56641 21.93 7.56641H18.2564Z" fill="white"/>
<path d="M42.5475 7.16357C37.8086 7.16357 34.0444 10.8269 34.0444 15.5322C34.0444 20.2038 37.8086 23.9007 42.5475 23.9007C47.2863 23.9007 51.0504 20.2038 51.0504 15.5322C51.0504 10.8269 47.2863 7.16357 42.5475 7.16357ZM42.5475 20.1365C39.8251 20.1365 38.1446 18.0192 38.1446 15.5322C38.1446 13.0451 39.8251 10.9278 42.5475 10.9278C45.2697 10.9278 46.9502 13.0451 46.9502 15.5322C46.9502 18.0192 45.2697 20.1365 42.5475 20.1365Z" fill="white"/>
<path d="M53.5327 23.1453C53.5327 23.3398 53.6904 23.4975 53.8849 23.4975H57.2137C57.4081 23.4975 57.5657 23.3398 57.5657 23.1453V0.603119C57.5657 0.408636 57.4081 0.250977 57.2137 0.250977H53.8849C53.6904 0.250977 53.5327 0.408637 53.5327 0.603119V23.1453Z" fill="white"/>
<path d="M59.8491 10.844C59.8491 11.0385 60.0068 11.1962 60.2013 11.1962H62.6226C62.8171 11.1962 62.9747 11.3538 62.9747 11.5482V18.2539C62.9747 21.6484 65.3274 23.9002 68.4193 23.9002C70.1829 23.9002 71.4799 23.2977 72.0001 23.0091C72.1487 22.9266 72.2002 22.7457 72.1305 22.5907L70.951 19.9635C70.859 19.7585 70.5974 19.6863 70.3975 19.7889C70.0859 19.949 69.6107 20.136 69.0915 20.136C68.016 20.136 67.0078 19.5647 67.0078 17.6154V11.5482C67.0078 11.3538 67.1654 11.1962 67.3599 11.1962H71.4617C71.6562 11.1962 71.8138 11.0385 71.8138 10.844V7.91852C71.8138 7.72404 71.6562 7.56638 71.4617 7.56638H67.3599C67.1654 7.56638 67.0078 7.40872 67.0078 7.21424V6.35992C67.0078 6.25553 66.9615 6.15652 66.8813 6.08962L63.5525 3.31006C63.3232 3.11859 62.9747 3.28163 62.9747 3.58036V7.21424C62.9747 7.40872 62.8171 7.56638 62.6226 7.56638H60.2013C60.0068 7.56638 59.8491 7.72404 59.8491 7.91852V10.844Z" fill="white"/>
<path d="M80.714 20.8077C79.523 20.8077 77.9452 20.4511 77.9452 18.8295C77.9452 17.1755 79.587 16.6566 80.7788 16.6566C82.2859 16.6566 83.4262 17.0605 83.946 17.2863C84.1411 17.3711 84.2558 17.5666 84.2558 17.7792V18.8417C84.2558 18.9605 84.2207 19.0758 84.145 19.1675C83.7969 19.5913 82.6285 20.8077 80.714 20.8077ZM81.1651 7.90039C78.776 7.90039 76.5857 8.6838 75.6383 9.07623C75.3559 9.1933 75.2296 9.51377 75.341 9.79849L76.1682 11.9135C76.2931 12.2328 76.6642 12.3817 76.9825 12.2543C77.8178 11.9199 79.4262 11.3705 80.9715 11.3705C82.3241 11.3705 84.2558 12.0191 84.2558 14.0297C84.2558 14.3888 83.8196 14.6296 83.4917 14.4831C82.7948 14.172 81.6272 13.8028 80.0061 13.8028C76.6895 13.8028 74.0171 15.9432 74.0171 18.8944C74.0171 22.1698 76.6573 24.0508 79.523 24.0508C81.3657 24.0508 82.6738 23.3829 83.4925 22.7615C83.8508 22.4895 84.5454 22.7558 84.5454 23.2056C84.5454 23.4575 84.7499 23.6617 85.002 23.6617H87.5315C87.8562 23.6617 88.12 23.3982 88.12 23.0732V13.6406C88.12 10.1381 85.5436 7.90039 81.1651 7.90039Z" fill="white"/>
<path d="M100.565 23.1889C101.035 22.8895 101.82 23.2024 101.82 23.7596V23.9211C101.82 26.2237 100.467 27.8776 97.4731 27.8776C95.4087 27.8776 93.7432 26.7505 92.9401 26.0846C92.6567 25.8495 92.2166 25.8821 91.9988 26.1791L90.5245 28.1877C90.3535 28.4203 90.3777 28.7394 90.5978 28.9257C91.504 29.6923 94.0171 31.5099 97.4731 31.5099C101.755 31.5099 105.683 29.1424 105.683 23.7914V8.87806C105.683 8.55299 105.42 8.28957 105.095 8.28957H102.541C102.303 8.28957 102.109 8.48267 102.109 8.72095C102.109 9.16005 101.39 9.41605 101.05 9.13859C100.299 8.52614 99.1332 7.90039 97.5051 7.90039C93.5449 7.90039 90.0679 11.2408 90.0679 15.9756C90.0679 20.7105 93.5449 24.0508 97.5051 24.0508C98.8234 24.0508 99.8349 23.6544 100.565 23.1889ZM101.82 18.1328C101.82 18.2282 101.797 18.3215 101.746 18.4024C101.46 18.8591 100.325 20.4186 98.181 20.4186C95.5734 20.4186 93.9953 18.5052 93.9953 15.9756C93.9953 13.446 95.5734 11.5327 98.181 11.5327C100.356 11.5327 101.472 13.0978 101.749 13.5513C101.799 13.6308 101.82 13.7216 101.82 13.8148V18.1328Z" fill="white"/>
<path d="M115.301 7.90039C110.89 7.90039 107.638 11.4677 107.638 15.9756C107.638 20.4834 111.212 24.0508 115.849 24.0508C118.673 24.0508 120.749 22.7671 121.574 22.1585C121.807 21.9864 121.849 21.6674 121.689 21.4257L120.437 19.5362C120.231 19.223 119.776 19.1709 119.466 19.3839C118.8 19.8432 117.562 20.4834 115.849 20.4834C113.825 20.4834 112.39 19.2539 111.807 18.0539C111.643 17.7172 111.919 17.3702 112.293 17.3702H122.407C122.72 17.3702 122.978 17.1259 122.986 16.8136C122.997 16.4393 122.997 16.1083 122.997 15.9107C122.997 11.1759 119.487 7.90039 115.301 7.90039ZM112.213 14.5487C111.866 14.5487 111.592 14.2475 111.693 13.9157C112.064 12.7 113.194 11.4353 115.301 11.4353C117.472 11.4353 118.681 12.7341 119.029 13.9414C119.122 14.2644 118.851 14.5487 118.515 14.5487H112.213Z" fill="white"/>
</g>
<defs>
<clipPath id="clip0_12453_4998">
<rect width="122.537" height="32" fill="white" transform="translate(0.458008 0.250488)"/>
</clipPath>
</defs>
</svg>
