<?xml version="1.0" encoding="UTF-8"?>
<svg version="1.1" xmlns="http://www.w3.org/2000/svg" width="512" height="512">
<path d="M0 0 C2.31027554 1.86312544 2.86428756 3.18572533 3.34765625 6.0859375 C3.73859527 12.12043204 3.73859527 12.12043204 0.94189453 15.45092773 C-2.37482293 18.32477396 -5.58048481 19.70808903 -9.6640625 21.1015625 C-10.42748962 21.37543289 -11.19091675 21.64930328 -11.97747803 21.93147278 C-13.64284737 22.5272019 -15.31052043 23.11652107 -16.98016357 23.70016479 C-20.63562357 24.97839057 -24.27952851 26.28822582 -27.92459106 27.5957489 C-29.88322822 28.29795603 -31.84245087 28.99853193 -33.80221558 29.69758606 C-44.28908963 33.44235464 -54.72114188 37.33104572 -65.15081787 41.23175049 C-69.46002956 42.84326922 -73.77062694 44.45106494 -78.08114624 46.05908203 C-81.2883025 47.25560584 -84.49523915 48.45271677 -87.70214844 49.64990234 C-96.72153697 53.01629874 -105.74370048 56.37523574 -114.76641846 59.73269653 C-117.38916267 60.70875184 -120.01173135 61.68527749 -122.63427734 62.66186523 C-123.45125092 62.96587753 -124.26822449 63.26988983 -125.10995483 63.58311462 C-126.70314163 64.17613449 -128.29610458 64.76975616 -129.88882446 65.36402893 C-134.03920419 66.91011042 -138.19610963 68.43525999 -142.36328125 69.93554688 C-143.23915894 70.25267639 -144.11503662 70.56980591 -145.01745605 70.89654541 C-146.69715584 71.50391944 -148.3784883 72.10680278 -150.06164551 72.70452881 C-154.4031527 74.22711578 -154.4031527 74.22711578 -158 77 C-157.94290068 79.06631005 -157.94290068 79.06631005 -157 81 C-154.26588691 82.33962983 -151.70523453 83.37825672 -148.84375 84.37109375 C-147.97818481 84.68598251 -147.11261963 85.00087128 -146.2208252 85.32530212 C-143.31894806 86.37735543 -140.40958709 87.40698199 -137.5 88.4375 C-135.4655212 89.17161106 -133.43167825 89.90748642 -131.3984375 90.64501953 C-126.99201777 92.24171065 -122.58286577 93.83053305 -118.171875 95.41455078 C-107.34272662 99.31020664 -96.54250596 103.28483951 -85.74311066 107.26207638 C-81.31981668 108.89082629 -76.89375089 110.51183886 -72.46679688 112.13061523 C-70.12363838 112.99056045 -67.78053664 113.85066033 -65.4375 114.7109375 C-64.36753784 115.10087387 -63.29757568 115.49081024 -62.19519043 115.89256287 C-47.63665859 121.25316937 -47.63665859 121.25316937 -45 125 C-44.09010598 128.21962499 -43.84822635 130.36255066 -44.625 133.625 C-46.44365919 136.76632042 -47.79758318 138.22845027 -51 140 C-57.95969115 140.26880595 -64.40724321 137.67537693 -70.79296875 135.23046875 C-71.83325729 134.84187683 -72.87354584 134.45328491 -73.94535828 134.05291748 C-77.36304333 132.77391472 -80.77516241 131.48069411 -84.1875 130.1875 C-86.57332519 129.29196967 -88.95956246 128.39753648 -91.34619141 127.50415039 C-95.06919613 126.10983496 -98.79193186 124.71484447 -102.51269531 123.31455994 C-111.42955821 119.9588109 -120.35707476 116.63285274 -129.29296875 113.328125 C-130.52405869 112.87282913 -131.75514862 112.41753326 -133.02354431 111.94844055 C-135.45424421 111.0498233 -137.88500388 110.15136773 -140.31582642 109.25308228 C-145.97971657 107.15953069 -151.642254 105.06233129 -157.3046875 102.96484375 C-158.27323166 102.6063031 -159.24177582 102.24776245 -160.2396698 101.87835693 C-161.14783951 101.54201233 -162.05600922 101.20566772 -162.99169922 100.85913086 C-163.84423279 100.54628143 -164.69676636 100.23343201 -165.57513428 99.91110229 C-167.15889767 99.31602998 -168.73410909 98.69753115 -170.29840088 98.05300903 C-174.26432837 96.43803677 -175.70230469 95.92557617 -180 97 C-180 169.6 -180 242.2 -180 317 C-168.62416076 322.72034395 -168.62416076 322.72034395 -157.0703125 327.98828125 C-155.89827522 328.4992334 -155.89827522 328.4992334 -154.70256042 329.02050781 C-153.03866498 329.74570864 -151.37409873 330.46937218 -149.70889282 331.19155884 C-145.19402849 333.15019165 -140.68480065 335.12170613 -136.17578125 337.09375 C-134.78642616 337.7011779 -134.78642616 337.7011779 -133.3690033 338.32087708 C-123.65019693 342.57776317 -113.98001755 346.94070312 -104.3125 351.3125 C-91.73517077 356.99734385 -79.12402456 362.57950602 -66.44262695 368.02856445 C-56.77998905 372.19476067 -47.18173497 376.49639712 -37.59265137 380.82894897 C-30.06596196 384.22861059 -22.53340511 387.61525188 -15 391 C-14.22551514 391.348349 -13.45103027 391.696698 -12.65307617 392.05560303 C-8.34408091 393.99231378 -4.03014392 395.9170188 0.29296875 397.82202148 C1.58580595 398.39376648 2.87686863 398.96954296 4.16601562 399.54956055 C5.92354429 400.3394741 7.68816727 401.11354693 9.453125 401.88671875 C10.43442383 402.32201904 11.41572266 402.75731934 12.42675781 403.20581055 C15.16736291 404.05165385 16.3733605 404.06328819 19 403 C20.20960099 402.0102028 20.20960099 402.0102028 20.12469864 400.09492111 C20.1246571 399.25428745 20.12461555 398.41365379 20.12457275 397.54754639 C20.12713577 396.58576981 20.12969879 395.62399323 20.13233948 394.6330719 C20.13023972 393.56918747 20.12813995 392.50530304 20.12597656 391.40917969 C20.1278447 390.29540451 20.12971283 389.18162933 20.13163757 388.03410339 C20.13565271 385.60592633 20.13771743 383.17774547 20.13809967 380.74956512 C20.14193944 374.92955447 20.16801791 369.1096557 20.19131613 363.28969622 C20.22644257 354.34497168 20.25297995 345.40036559 20.25048828 336.45556641 C20.24872927 329.78229395 20.27301172 323.10955459 20.3123703 316.43637848 C20.32285517 313.88947887 20.32433619 311.34252595 20.31671906 308.79561615 C20.30712779 305.23269828 20.32822547 301.67118901 20.35644531 298.10839844 C20.34624863 297.05261093 20.33605194 295.99682343 20.32554626 294.90904236 C20.42734212 287.75322714 20.42734212 287.75322714 23.38397217 283.86431885 C26.14353981 281.89770599 27.62498686 281.08437533 31 281 C34.43875483 281.98250138 36.75642915 283.19553644 39 286 C39.95731201 288.87193602 40.13523636 290.70426499 40.15821838 293.68864441 C40.17290161 295.13365074 40.17290161 295.13365074 40.18788147 296.60784912 C40.19363693 297.66304749 40.1993924 298.71824585 40.20532227 299.80541992 C40.21522186 300.91776505 40.22512146 302.03011017 40.23532104 303.17616272 C40.26696386 306.86090958 40.29170457 310.54566935 40.31640625 314.23046875 C40.33697337 316.78209269 40.35796977 319.33371319 40.37937927 321.8853302 C40.42897516 327.92008922 40.47423401 333.95486577 40.51740164 339.98967296 C40.56678897 346.86025979 40.62170155 353.73079896 40.67708123 360.6013397 C40.79087441 374.73418199 40.89771925 388.86707004 41 403 C46.1239289 404.30214583 49.15755192 402.9981453 53.796875 400.79296875 C54.56553894 400.441241 55.33420288 400.08951324 56.12615967 399.72712708 C57.79506763 398.96174146 59.46117271 398.19022134 61.12475586 397.41333008 C64.70935401 395.73953976 68.30719141 394.095167 71.90454102 392.44900513 C73.78461674 391.58841084 75.6640021 390.72630689 77.54272461 389.86276245 C86.30562789 385.83960358 95.12717899 381.95769477 103.9659729 378.10476685 C118.54234161 371.74986682 133.07093419 365.29586555 147.5625 358.75 C158.74713083 353.69805442 169.94302978 348.67868318 181.19491577 343.77813721 C186.39720243 341.51231084 191.59617979 339.23888472 196.7947998 336.96466064 C198.34294025 336.28742954 199.89121008 335.61049415 201.4395752 334.93377686 C206.68809859 332.63868736 211.93162197 330.3326601 217.16986084 328.01419067 C218.87561824 327.26105962 220.58283467 326.51122359 222.29156494 325.76486206 C224.67229392 324.72435378 227.04754735 323.67220519 229.421875 322.6171875 C230.48518539 322.15710548 230.48518539 322.15710548 231.56997681 321.68772888 C235.47184258 319.93717933 238.43092791 318.44258776 241 315 C241.36371022 311.99413835 241.48653424 309.36396034 241.42236328 306.36352539 C241.4197348 305.4931514 241.41710632 304.6227774 241.41439819 303.72602844 C241.40141815 300.84946168 241.36055413 297.97395946 241.3203125 295.09765625 C241.30776965 293.09754082 241.29729014 291.09741147 241.28878784 289.09727478 C241.26217463 283.83001973 241.21331248 278.56322796 241.15808105 273.29620361 C241.07187295 264.86928218 241.01236903 256.44223814 240.9659996 248.01501274 C240.94556667 245.07176787 240.91146208 242.1289036 240.87600708 239.18580627 C240.86234822 237.37916402 240.84913081 235.57251835 240.83642578 233.76586914 C240.82295105 232.94856323 240.80947632 232.13125732 240.79559326 231.28918457 C240.77878578 227.08432632 240.99838434 223.74082558 243 220 C245.76076065 217.33443799 248.17304361 216.2800212 252 216 C256.51214399 217.10052293 258.54987342 219.11021922 261 223 C261.58057324 226.04481161 261.54687573 229.03726529 261.51757812 232.12963867 C261.52809204 233.49652328 261.52809204 233.49652328 261.53881836 234.89102173 C261.55640612 237.90031524 261.54476776 240.90866581 261.53125 243.91796875 C261.53394585 246.01679158 261.53782905 248.1156132 261.54284668 250.21443176 C261.54874378 254.61516195 261.54017609 259.01556735 261.52148438 263.41625977 C261.49876521 269.03722545 261.51177216 274.65742416 261.53577423 280.27836132 C261.55028644 284.61517524 261.54560018 288.95180997 261.53526306 293.28862953 C261.53260709 295.35972498 261.53582549 297.43083705 261.54518127 299.50191307 C261.55542832 302.40950389 261.53972931 305.31588694 261.51757812 308.22338867 C261.52567505 309.06790085 261.53377197 309.91241302 261.54211426 310.78251648 C261.41669008 319.74362593 258.3870124 327.67009948 252 334 C240.99547556 341.61608095 227.63912176 346.15163323 215.3828125 351.39453125 C206.7800029 355.07482187 198.23197103 358.87414244 189.6875 362.6875 C176.78914704 368.43797068 163.87160739 374.14291447 150.9375 379.8125 C137.71892242 385.60774218 124.50681084 391.41719767 111.30587769 397.25253296 C108.63843436 398.43156192 105.97072486 399.60998694 103.30297852 400.78833008 C94.88331832 404.50834966 86.46666866 408.23494052 78.05691528 411.97731018 C74.11332885 413.73171896 70.1683925 415.48308008 66.22332764 417.23416138 C64.34638465 418.0683024 62.47010584 418.90393975 60.59454346 419.74118042 C57.98916096 420.90412837 55.38154925 422.06193857 52.7734375 423.21875 C52.01593201 423.55850357 51.25842651 423.89825714 50.47796631 424.24830627 C32.28232085 432.29008421 32.28232085 432.29008421 22.33789062 429.1628418 C13.10816836 425.53874615 4.04606657 421.56897363 -5.01000977 417.53344727 C-8.7998127 415.84470054 -12.59274647 414.16303801 -16.38549805 412.48092651 C-18.35326155 411.60816308 -20.32087135 410.73505304 -22.28833008 409.86160278 C-31.17656241 405.91682861 -40.07909773 402.00511186 -48.98565674 398.10192871 C-68.27878133 389.64658046 -87.54919279 381.14029091 -106.81365967 372.61988831 C-114.25572572 369.32850837 -121.69920799 366.04034173 -129.14331055 362.75357056 C-133.73795578 360.72475514 -138.33206023 358.69473619 -142.92480469 356.66162109 C-153.65376434 351.91167205 -153.65376434 351.91167205 -164.40447998 347.21125793 C-166.31962259 346.37902203 -168.23328966 345.54348979 -170.14648438 344.70678711 C-172.36087134 343.73962469 -174.57804152 342.77879181 -176.79882812 341.82641602 C-193.35071733 334.57047192 -193.35071733 334.57047192 -197.5 326.875 C-197.9640625 326.04742187 -198.428125 325.21984375 -198.90625 324.3671875 C-200.53513142 320.8418227 -201.12457881 317.74906315 -201.13142776 313.87848377 C-201.13526891 313.0609553 -201.13911005 312.24342683 -201.1430676 311.40112478 C-201.14220112 310.50843332 -201.14133463 309.61574186 -201.14044189 308.69599915 C-201.14341302 307.74338029 -201.14638414 306.79076143 -201.1494453 305.80927533 C-201.15813478 302.60892536 -201.15964077 299.40861279 -201.16113281 296.20825195 C-201.16576084 293.91687439 -201.17078547 291.6254976 -201.17617798 289.3341217 C-201.18930615 283.10254834 -201.19574785 276.87098575 -201.20018864 270.63940072 C-201.2031189 266.74638171 -201.20722364 262.85336565 -201.21169281 258.96034813 C-201.22380217 248.17634953 -201.23418385 237.39235478 -201.2375679 226.6083498 C-201.23778747 225.91833331 -201.23800703 225.22831682 -201.23823325 224.51739074 C-201.23845153 223.82574444 -201.23866981 223.13409815 -201.2388947 222.42149287 C-201.23933816 221.02000892 -201.23978473 219.61852497 -201.24023438 218.21704102 C-201.2404558 217.52185996 -201.24067723 216.8266789 -201.24090537 216.11043175 C-201.24485137 204.85204711 -201.26229959 193.59372728 -201.2855939 182.33536766 C-201.30933071 170.76951528 -201.32151306 159.20370462 -201.32293582 147.63782662 C-201.32398391 141.14689821 -201.32989268 134.65606119 -201.34775543 128.16515541 C-201.36423585 122.05763281 -201.36639164 115.9502703 -201.35761642 109.84273338 C-201.35684602 107.60343878 -201.36118918 105.36413558 -201.37107468 103.12486267 C-201.38379801 100.06269139 -201.37791494 97.00108674 -201.36749268 93.93891907 C-201.37554908 93.05738122 -201.38360548 92.17584337 -201.39190602 91.26759225 C-201.32780121 83.18798405 -199.61649246 75.65352004 -193.97113037 69.60845947 C-186.68583392 63.66359441 -176.79537802 60.59867911 -168.046875 57.453125 C-166.92987717 57.04471375 -165.81287933 56.63630249 -164.66203308 56.21551514 C-162.27033828 55.34179808 -159.87749915 54.47120805 -157.48361206 53.60351562 C-153.67099182 52.22135782 -149.86142775 50.83109563 -146.05297852 49.4375 C-145.08883892 49.08472866 -145.08883892 49.08472866 -144.10522175 48.72483063 C-142.80256678 48.24817249 -141.49992429 47.77148024 -140.19729424 47.29475403 C-138.23479338 46.5768491 -136.27197944 45.85980601 -134.30909729 45.14294434 C-122.49432501 40.82629487 -110.71088078 36.42817675 -98.9375 32 C-97.02280738 31.28070603 -95.10809375 30.56146797 -93.19335938 29.84228516 C-85.93396117 27.11472064 -78.67597691 24.38340051 -71.41802979 21.65197754 C-64.41211527 19.01550132 -57.40572387 16.38030235 -50.3982954 13.74785233 C-46.10568104 12.135103 -41.81432847 10.51902599 -37.52319336 8.90234375 C-35.26030442 8.05194891 -32.99736731 7.20168224 -30.734375 6.3515625 C-29.72389603 5.97005035 -28.71341705 5.58853821 -27.6723175 5.19546509 C-22.64108962 3.30856801 -17.59348621 1.46849014 -12.52050781 -0.30322266 C-11.55977356 -0.64100739 -10.59903931 -0.97879211 -9.60919189 -1.32681274 C-5.60211561 -2.36066261 -3.66660249 -1.87230765 0 0 Z " fill="#FFFEFE" transform="translate(226,57)"/>
<path d="M0 0 C1.56234375 0.5559082 1.56234375 0.5559082 3.15625 1.12304688 C11.07576681 4.09786537 17.46239852 7.76273628 21.9375 15.125 C25.74496815 25.20359216 23.0817597 36.30063527 21.40234375 46.68359375 C20.42294487 53.53444271 20.42294487 53.53444271 22.73046875 59.84375 C27.57855893 65.07473489 27.57855893 65.07473489 34.1015625 67.421875 C37.48965827 67.17456874 40.67670068 66.63856897 44 65.9375 C69.27940244 61.62225092 69.27940244 61.62225092 77.25390625 67.2578125 C86.39811149 76.05425155 93.41985776 91.05162734 93.8125 103.8125 C92.98522051 112.30428068 89.33927586 117.25003825 82.921875 122.64453125 C77.17533891 127.15417922 71.32580566 131.52433181 65.43945312 135.84936523 C64.02463252 136.86697747 64.02463252 136.86697747 63 137.9375 C62.84417697 139.27765221 62.74955858 140.62508903 62.68359375 141.97265625 C62.64169922 142.78154297 62.59980469 143.59042969 62.55664062 144.42382812 C62.49766602 145.6990332 62.49766602 145.6990332 62.4375 147 C62.39431641 147.85400391 62.35113281 148.70800781 62.30664062 149.58789062 C62.20023298 151.70422037 62.09958269 153.82083813 62 155.9375 C62.56984619 156.20771973 63.13969238 156.47793945 63.72680664 156.75634766 C66.07188634 157.97485218 68.19069901 159.34357844 70.37109375 160.8359375 C71.19287109 161.39796875 72.01464844 161.96 72.86132812 162.5390625 C73.71146484 163.12429687 74.56160156 163.70953125 75.4375 164.3125 C76.28376953 164.89 77.13003906 165.4675 78.00195312 166.0625 C91.41712704 175.26507819 91.41712704 175.26507819 94.75 183.875 C95.56941449 190.63516956 94.81142872 195.60059715 92.25 201.8125 C91.97341553 202.50722412 91.69683105 203.20194824 91.41186523 203.91772461 C90.86174162 205.29808433 90.30710854 206.67665707 89.74755859 208.05322266 C89.10673784 209.6684593 88.52567442 211.30718172 87.95703125 212.94921875 C85.59161403 219.69427309 82.32433117 224.49184108 76.00390625 228.06640625 C67.27750112 231.63702707 57.690797 229.20525159 48.6875 227.875 C47.52089844 227.71386719 46.35429687 227.55273438 45.15234375 227.38671875 C43.32430862 227.12621808 41.49917276 226.83326692 39.69140625 226.45703125 C36.23102198 225.97661573 34.12719232 226.85494293 31.26171875 228.71484375 C27.3398742 232.06170141 24.33045487 234.80431978 23.51953125 240.0390625 C23.76279883 243.42831595 24.29954112 246.61322275 25 249.9375 C25.3655489 252.10227539 25.71982766 254.26898573 26.0625 256.4375 C26.23136719 257.50355469 26.40023437 258.56960938 26.57421875 259.66796875 C27.71228329 268.40705153 28.40924848 276.57434047 23 283.9375 C17.96877267 289.32130107 12.05175241 292.02142463 5.3125 294.75 C3.90774414 295.34071289 3.90774414 295.34071289 2.47460938 295.94335938 C-6.16076604 299.53680967 -12.9035865 301.38429342 -22.0078125 297.984375 C-28.58594859 294.52762898 -32.33675853 288.80033013 -36.625 282.9375 C-37.29273438 282.03515625 -37.96046875 281.1328125 -38.6484375 280.203125 C-39.88919247 278.52562429 -41.12729794 276.84615812 -42.36181641 275.1640625 C-42.90241699 274.42929687 -43.44301758 273.69453125 -44 272.9375 C-44.73657837 271.83390137 -44.73657837 271.83390137 -45.48803711 270.70800781 C-47.54635926 268.29771358 -49.62816738 268.08175572 -52.69946289 267.77075195 C-59.68122776 267.45130865 -59.68122776 267.45130865 -65.84082031 270.34814453 C-69.9255988 274.71170257 -72.94277646 279.83047857 -76 284.9375 C-80.80604596 292.35949502 -85.01625434 298.65691379 -94 300.9375 C-101.69400743 301.97361311 -108.03936113 299.52704231 -115.125 296.75 C-116.17042969 296.36263672 -117.21585937 295.97527344 -118.29296875 295.57617188 C-125.9247732 292.65756145 -133.41024775 289.64164652 -137.29272461 281.92626953 C-140.02990169 274.22967151 -138.77632518 266.11662023 -137.5625 258.25 C-135.96358452 249.11785071 -135.96358452 249.11785071 -136 239.9375 C-137.90366446 237.26610342 -137.90366446 237.26610342 -140.5 235.125 C-142.02557329 233.75716345 -143.53234241 232.36730134 -145 230.9375 C-145 230.2775 -145 229.6175 -145 228.9375 C-147.56289092 229.22601706 -150.1253523 229.51749444 -152.6875 229.8125 C-153.45900391 229.90128418 -154.23050781 229.99006836 -155.02539062 230.08154297 C-159.70588774 230.63224662 -164.34978681 231.2902226 -169 232.0625 C-178.9343863 233.61087692 -185.28961845 233.55019037 -194.0625 228 C-198.52978152 224.03172333 -200.61178903 218.28529501 -203 212.9375 C-203.47953125 211.91527344 -203.9590625 210.89304688 -204.453125 209.83984375 C-208.41045797 201.02681773 -210.34887831 193.59828302 -207.27734375 184.23828125 C-203.47215856 177.38429325 -197.84284304 173.05192908 -191.4375 168.75 C-189.25435158 167.25726515 -187.07412873 165.76148443 -184.90527344 164.24804688 C-183.31178037 163.15195887 -181.68123102 162.11000295 -180.04296875 161.08203125 C-176.55120993 157.41668595 -176.88229618 153.27443965 -176.86816406 148.50585938 C-177.13003753 144.20234439 -177.68048681 142.32512258 -180.4921875 138.9140625 C-183.21022765 136.6789272 -186.15379879 134.83629238 -189.17773438 133.04492188 C-192.09495946 131.27207448 -194.77048744 129.23802934 -197.5 127.1875 C-198.47710937 126.45402344 -199.45421875 125.72054687 -200.4609375 124.96484375 C-205.37659871 121.03987734 -208.61408389 117.2371187 -210 110.9375 C-210.75281504 103.18529752 -208.23134813 97.03549932 -205.4375 89.875 C-205.01919922 88.72966797 -204.60089844 87.58433594 -204.16992188 86.40429688 C-201.17663936 78.62176233 -197.9717265 72.7286447 -190.55078125 68.5625 C-181.3893771 66.00434177 -173.0110507 67.63458868 -163.75 69 C-162.574375 69.16113281 -161.39875 69.32226562 -160.1875 69.48828125 C-158.34635385 69.7477565 -156.5079622 70.03973083 -154.6875 70.41796875 C-152.43839695 70.83926074 -152.43839695 70.83926074 -149 69.9375 C-144.50223875 66.34851042 -139.85188252 62.49314755 -138 56.9375 C-138.18614896 55.04089472 -138.45786417 53.15218597 -138.77734375 51.2734375 C-138.96103516 50.15066406 -139.14472656 49.02789062 -139.33398438 47.87109375 C-139.73235519 45.52212411 -140.13079134 43.17316554 -140.52929688 40.82421875 C-143.3456801 23.6118976 -143.3456801 23.6118976 -140.375 17.1875 C-140.07335937 16.49140625 -139.77171875 15.7953125 -139.4609375 15.078125 C-134.94796818 8.46553894 -127.96464782 5.79911941 -120.875 2.6875 C-119.39193359 2.01847656 -119.39193359 2.01847656 -117.87890625 1.3359375 C-109.09913621 -2.58466347 -102.37032508 -4.61158406 -92.9921875 -1.109375 C-86.41405141 2.34737102 -82.66324147 8.07466987 -78.375 13.9375 C-77.70726562 14.83984375 -77.03953125 15.7421875 -76.3515625 16.671875 C-75.11080753 18.34937571 -73.87270206 20.02884188 -72.63818359 21.7109375 C-72.09758301 22.44570313 -71.55698242 23.18046875 -71 23.9375 C-70.50749756 24.67105713 -70.01499512 25.40461426 -69.50756836 26.16040039 C-67.48530419 28.54421592 -65.43559541 28.8764785 -62.40234375 29.25634766 C-57.29258832 29.53008455 -53.04916698 29.68268328 -48.97900391 26.21630859 C-44.95294485 21.60369885 -41.72428813 16.44789382 -38.49121094 11.26269531 C-34.40533333 4.8917231 -29.60902381 -1.30985266 -22.21484375 -3.7578125 C-13.8617575 -4.90691431 -7.78672537 -2.97302572 0 0 Z M-17 15.9375 C-18.74533459 17.78081829 -20.15861291 19.51417156 -21.625 21.5625 C-22.27251221 22.42862915 -22.27251221 22.42862915 -22.93310547 23.31225586 C-25.23504946 26.41416915 -27.44103984 29.57036178 -29.59375 32.77734375 C-30.01833496 33.3997998 -30.44291992 34.02225586 -30.88037109 34.66357422 C-31.68661395 35.85316989 -32.47718192 37.05360365 -33.24853516 38.26611328 C-36.39167513 42.90843495 -39.71975996 45.31793058 -45 46.9375 C-49.12580069 47.6141941 -53.19982785 47.81294236 -57.375 47.9375 C-58.4475 48.00066406 -59.52 48.06382813 -60.625 48.12890625 C-69.01784611 48.44542478 -76.15557353 47.35348135 -82.59375 41.6328125 C-83.53734375 40.36050781 -83.53734375 40.36050781 -84.5 39.0625 C-85.22316406 38.10730469 -85.94632812 37.15210937 -86.69140625 36.16796875 C-87.45324219 35.10191406 -88.21507812 34.03585938 -89 32.9375 C-89.90487904 31.68354404 -90.80982953 30.42963964 -91.71484375 29.17578125 C-93.47183464 26.73184187 -95.2080293 24.27478275 -96.93359375 21.80859375 C-98.85848847 18.97177652 -98.85848847 18.97177652 -101 16.9375 C-105.69111044 17.30236415 -109.98287884 19.45522784 -114.25 21.3125 C-114.9821875 21.61671875 -115.714375 21.9209375 -116.46875 22.234375 C-118.35170519 23.05032225 -120.18141631 23.98668798 -122 24.9375 C-123.14910991 28.38482973 -122.82663199 30.04979093 -122.22265625 33.6015625 C-122.03896484 34.72433594 -121.85527344 35.84710938 -121.66601562 37.00390625 C-121.26764481 39.35287589 -120.86920866 41.70183446 -120.47070312 44.05078125 C-117.39756604 62.83225321 -117.39756604 62.83225321 -123 71.9375 C-125.12262884 74.61682955 -127.45709721 76.96539599 -129.9375 79.3125 C-130.54529297 79.91449219 -131.15308594 80.51648438 -131.77929688 81.13671875 C-138.02001219 87.20912999 -142.82358326 90.07711925 -151.63500977 90.04223633 C-155.98793382 89.84946205 -160.2636256 89.11869209 -164.5625 88.4375 C-173.25791297 86.85033015 -173.25791297 86.85033015 -182 86.9375 C-183.92758636 89.01001863 -183.92758636 89.01001863 -185 91.9375 C-185.46921875 92.99066406 -185.9384375 94.04382813 -186.421875 95.12890625 C-187.07929688 96.79759766 -187.07929688 96.79759766 -187.75 98.5 C-188.19859375 99.61503906 -188.6471875 100.73007813 -189.109375 101.87890625 C-190.26004383 105.55076885 -190.26004383 105.55076885 -189 108.9375 C-187.07351856 110.66956588 -185.21105995 112.17498828 -183.125 113.6875 C-182.25294922 114.34057129 -182.25294922 114.34057129 -181.36328125 115.00683594 C-178.55920278 117.09767658 -175.72168402 119.13461157 -172.8671875 121.15625 C-161.16319857 129.44790428 -161.16319857 129.44790428 -159 135.9375 C-158.59285285 139.8022539 -158.44009583 143.68176321 -158.25 147.5625 C-158.18167969 148.61824219 -158.11335938 149.67398438 -158.04296875 150.76171875 C-157.64270848 159.04402744 -158.43693175 165.22059497 -163.1953125 172.12109375 C-166.52738778 175.46709135 -170.05737766 178.23489971 -173.875 181 C-174.55691406 181.50337891 -175.23882812 182.00675781 -175.94140625 182.52539062 C-180.26277266 185.70673942 -184.62770952 188.82666669 -189 191.9375 C-188.4070053 196.71074126 -186.99326822 200.81664819 -185.0625 205.1875 C-184.66514648 206.12335938 -184.66514648 206.12335938 -184.25976562 207.078125 C-183.07776118 209.79996154 -182.11695677 211.82054323 -180 213.9375 C-177.75762285 213.95103627 -177.75762285 213.95103627 -175.203125 213.51171875 C-174.2440625 213.37443359 -173.285 213.23714844 -172.296875 213.09570312 C-170.78867188 212.86270508 -170.78867188 212.86270508 -169.25 212.625 C-167.765 212.4094043 -167.765 212.4094043 -166.25 212.18945312 C-162.34966545 211.61848169 -158.45902275 211.01653356 -154.57421875 210.34765625 C-147.71571022 209.25487416 -142.18130925 209.45348933 -136 212.9375 C-133.16588316 215.10611572 -130.58019954 217.4750282 -128 219.9375 C-127.28070313 220.60523438 -126.56140625 221.27296875 -125.8203125 221.9609375 C-119.13568023 228.35173978 -116.34309746 233.69831306 -116 242.9375 C-116.28350951 246.63813493 -116.84315608 250.27532983 -117.4375 253.9375 C-118.50612869 260.6945932 -119.17542335 267.0889723 -119 273.9375 C-117.1893314 274.71262547 -115.37634709 275.48234187 -113.5625 276.25 C-112.55316406 276.67925781 -111.54382813 277.10851562 -110.50390625 277.55078125 C-106.38554874 279.18067748 -102.21317591 280.57571916 -98 281.9375 C-97.64284912 281.43935791 -97.28569824 280.94121582 -96.91772461 280.42797852 C-76.61960486 252.14403495 -76.61960486 252.14403495 -70 249.9375 C-66.1352461 249.53035285 -62.25573679 249.37759583 -58.375 249.1875 C-57.31925781 249.11917969 -56.26351562 249.05085937 -55.17578125 248.98046875 C-47.25417449 248.59764017 -41.0772891 249.35738672 -34.30859375 253.640625 C-31.1907348 256.74265725 -28.64224311 260.13333408 -26.0625 263.6875 C-25.31323242 264.70457031 -25.31323242 264.70457031 -24.54882812 265.7421875 C-23.54338505 267.10699539 -22.54027238 268.47352328 -21.53955078 269.84179688 C-19.05281862 273.22684428 -16.52660388 276.58216107 -14 279.9375 C-8.52638111 279.3935915 -4.41682999 277.38356199 0.375 274.875 C1.11105469 274.49794922 1.84710938 274.12089844 2.60546875 273.73242188 C4.40739646 272.80805636 6.20423099 271.87377386 8 270.9375 C6.70076668 260.55144132 6.70076668 260.55144132 4.875 250.25 C3.15184422 240.91160737 2.76136044 233.10488179 8 224.9375 C10.12775955 222.31765822 12.45065052 219.96956728 14.875 217.625 C15.47441406 217.01849609 16.07382812 216.41199219 16.69140625 215.78710938 C22.3156276 210.24218833 26.88776981 207.51093921 35 207.5625 C36.0048645 207.56793823 36.0048645 207.56793823 37.0300293 207.57348633 C44.33514134 207.73381237 51.53632745 208.8786057 58.72460938 210.13330078 C59.62630859 210.27880371 60.52800781 210.42430664 61.45703125 210.57421875 C62.6632312 210.78630981 62.6632312 210.78630981 63.89379883 211.00268555 C66.06985509 211.13778352 66.06985509 211.13778352 67.68139648 209.67260742 C69.78454598 206.9051415 70.97574533 203.76669379 72.25 200.5625 C72.67152344 199.5725 72.67152344 199.5725 73.1015625 198.5625 C74.23301926 195.75066192 74.99466325 193.3030672 75.0390625 190.26171875 C73.5392168 186.90680074 71.03906471 185.19491104 68.125 183.125 C67.54363281 182.69413086 66.96226562 182.26326172 66.36328125 181.81933594 C63.55785509 179.74888253 60.71424489 177.73547612 57.8671875 175.72265625 C46.1579417 167.4113251 46.1579417 167.4113251 44 160.9375 C43.59139654 156.88498982 43.44006675 152.8178921 43.25 148.75 C43.18167969 147.63818359 43.11335937 146.52636719 43.04296875 145.38085938 C42.67672645 137.45030491 42.89144988 131.60134278 48.23046875 125.30859375 C51.54282937 122.47276456 54.88990701 119.70161718 58.3125 117 C59.30455444 116.21157715 59.30455444 116.21157715 60.31665039 115.40722656 C64.8207068 111.83849612 69.36869963 108.34008803 74 104.9375 C73.4070053 100.16425874 71.99326822 96.05835181 70.0625 91.6875 C69.66514648 90.75164062 69.66514648 90.75164062 69.25976562 89.796875 C68.07776118 87.07503846 67.11695677 85.05445677 65 82.9375 C62.00101772 83.06865188 62.00101772 83.06865188 58.5625 83.6875 C57.29664063 83.88601562 56.03078125 84.08453125 54.7265625 84.2890625 C51.61642577 84.83023933 48.53039381 85.43297294 45.4375 86.0625 C37.35401771 87.54089499 28.26188334 88.76284849 20.90234375 84.40625 C16.88431202 81.30403248 13.46949665 77.62591326 10 73.9375 C9.05125 73.050625 8.1025 72.16375 7.125 71.25 C2.06595749 65.74457138 1.23249807 60.15828015 1 52.9375 C1.27491875 49.35663384 1.82973136 45.85048934 2.4375 42.3125 C3.46859449 36.09891749 4.18375 30.24380016 4 23.9375 C-6.03473147 18.25339396 -6.03473147 18.25339396 -17 15.9375 Z " fill="#FFFEFE" transform="translate(392,29.0625)"/>
<path d="M0 0 C17.74787191 12.26590376 28.47932809 29.87228507 32.55078125 50.8359375 C35.32847795 70.40058385 30.24003127 90.90632201 19.16015625 107.24609375 C7.88018064 121.62653282 -5.35340835 130.76745722 -23 136 C-24.22396484 136.36931641 -24.22396484 136.36931641 -25.47265625 136.74609375 C-43.37996706 141.1998846 -62.92733356 137.39476123 -79 129 C-82.85809192 126.54707608 -86.44118158 123.86569339 -90 121 C-90.63292969 120.53078125 -91.26585937 120.0615625 -91.91796875 119.578125 C-105.20489058 109.24047415 -113.6934804 91.44023937 -116 75 C-117.43583761 58.8791794 -116.4519953 40.80761695 -107 27 C-102.97417418 24.31611612 -99.72915204 24.20490614 -95 25 C-91.9375 27.0625 -91.9375 27.0625 -90 30 C-89.55329844 35.25975357 -90.51462125 38.85089677 -92.5 43.6875 C-97.33897797 56.848041 -96.70115189 72.21667185 -91 85 C-83.96440567 99.3626038 -72.94800742 109.02763425 -57.875 114.5 C-43.0789136 118.51249801 -27.93555036 116.63587131 -14.3125 109.8125 C-0.33755658 101.40189185 7.56853446 89.45519386 12 74 C15.22075214 57.97777732 11.19717689 43.78841021 3 30 C-4.83773872 18.79849603 -18.02439812 10.96303599 -31.4140625 8.30859375 C-38.35800822 7.47993557 -45.54283744 7.48026337 -52.4375 8.6875 C-57.06092364 9.09306348 -59.00665221 8.31614172 -63 6 C-65.0249888 3.53479624 -65.03001022 1.76420542 -65.4375 -1.4375 C-65 -5 -65 -5 -62.9375 -7.8125 C-45.79572304 -20.57765305 -15.91183142 -10.19685851 0 0 Z " fill="#FFFEFE" transform="translate(376,115)"/>
<path d="M0 0 C0.84097733 0.35495544 1.68195465 0.70991089 2.54841614 1.07562256 C5.29435689 2.23725982 8.03396034 3.41305354 10.7734375 4.58984375 C12.68072054 5.40210913 14.58835871 6.21354111 16.49633789 7.02416992 C19.43503074 8.27297468 22.37331269 9.52267276 25.30989075 10.77644348 C31.94894275 13.60798729 38.61205496 16.37435201 45.29296875 19.10546875 C47.89298114 20.17482772 50.49246631 21.24545665 53.09173584 22.31661987 C54.74580605 22.99518735 56.40176433 23.66917176 58.05963135 24.33840942 C60.36432677 25.2699648 62.66114485 26.21885648 64.95703125 27.171875 C65.63111526 27.4389325 66.30519928 27.70598999 66.99971008 27.98114014 C71.23209281 29.76369272 73.63109301 31.68738584 76.1484375 35.52734375 C76.91395437 38.31488103 76.78372875 40.71391105 76.1484375 43.52734375 C74.2109375 46.52734375 74.2109375 46.52734375 71.1484375 48.52734375 C64.35347496 49.66100719 58.81083204 47.63248108 52.69140625 44.8984375 C51.80193802 44.51713684 50.91246979 44.13583618 49.99604797 43.74298096 C47.10250363 42.49879436 44.21932296 41.23237366 41.3359375 39.96484375 C38.31873811 38.65695335 35.2995049 37.35383677 32.28018188 36.05085754 C30.23714061 35.16857261 28.19496734 34.28427507 26.15365601 33.397995 C19.58912865 30.55361602 12.99276131 27.80653873 6.35546875 25.13671875 C4.69439294 24.46433431 3.03334085 23.79189126 1.37231445 23.11938477 C-0.96737882 22.17300709 -3.3084503 21.23181503 -5.65689087 20.30734253 C-7.80108966 19.46208374 -9.93605332 18.59655242 -12.0703125 17.7265625 C-13.26591797 17.25049561 -14.46152344 16.77442871 -15.69335938 16.28393555 C-19.57967851 14.1223658 -21.29993552 12.14934159 -23.8515625 8.52734375 C-24.44233772 4.9088455 -24.11432927 3.10543065 -22.6015625 -0.22265625 C-16.702519 -7.80714075 -7.36855949 -3.19626806 0 0 Z " fill="#FFFEFE" transform="translate(87.8515625,339.47265625)"/>
</svg>
