<svg width="101" height="135" viewBox="0 0 101 135" fill="none" xmlns="http://www.w3.org/2000/svg">
<mask id="mask0_301_169" style="mask-type:luminance" maskUnits="userSpaceOnUse" x="0" y="0" width="101" height="135">
<path d="M0.571289 0H100.571V135H0.571289V0Z" fill="white"/>
</mask>
<g mask="url(#mask0_301_169)">
<path fill-rule="evenodd" clip-rule="evenodd" d="M9.52755 25.4747C9.54027 25.4747 9.553 25.4751 9.56608 25.4751C10.4533 25.4751 11.2901 25.1342 11.9251 24.5126L11.9349 24.5028C12.3289 24.112 21.7472 14.8842 35.9075 10.2811C44.167 7.59598 52.389 7.0224 60.3447 8.57594C70.3002 10.5199 79.9031 15.8264 88.8841 24.3461C89.5362 24.9666 90.39 25.2934 91.2911 25.2737C92.1911 25.2512 93.0282 24.8797 93.649 24.2276C94.2695 23.5755 94.5988 22.7206 94.5763 21.8206C94.5537 20.921 94.1822 20.0835 93.5287 19.4616C83.5161 9.96373 72.7642 4.04036 61.5711 1.85655C52.5784 0.102365 43.3015 0.746825 33.9963 3.77284C18.1999 8.90999 7.64397 19.2515 7.20451 19.687C6.56005 20.3173 6.19947 21.1609 6.18966 22.0623C6.17984 22.9638 6.52116 23.8154 7.15181 24.4599C7.78209 25.1044 8.62574 25.4649 9.52755 25.4747Z" fill="white"/>
<path fill-rule="evenodd" clip-rule="evenodd" d="M100.456 62.7605C97.478 43.5612 89.8877 29.7964 77.8967 21.8473C60.5039 10.3175 39.9455 15.2817 39.031 15.511C38.159 15.7237 37.4211 16.2623 36.9533 17.0289C36.4844 17.797 36.343 18.7017 36.5545 19.5762C36.7661 20.4508 37.3055 21.1905 38.0735 21.6594C38.8416 22.1283 39.7463 22.27 40.6205 22.0581L40.6361 22.0545C40.8277 22.0065 45.3974 20.8757 51.757 20.9993C55.4809 21.0709 59.0863 21.5532 62.4732 22.4336C66.6784 23.5266 70.5608 25.2404 74.0121 27.5279C84.487 34.4704 91.1446 46.6712 93.7999 63.7914C93.9373 64.6804 94.4131 65.4623 95.139 65.9937C95.7224 66.4208 96.4112 66.6447 97.1207 66.6444C97.2937 66.6444 97.4682 66.6309 97.6426 66.604C98.5317 66.4666 99.3136 65.9908 99.845 65.2649C100.377 64.5391 100.593 63.65 100.456 62.7605Z" fill="white"/>
<path fill-rule="evenodd" clip-rule="evenodd" d="M7.45827 62.8989C8.05839 55.9055 9.66027 49.5943 12.2196 44.1402C14.2584 39.7954 16.9074 35.9785 20.0938 32.7961C25.4937 27.4024 30.5432 25.6969 30.7635 25.6242C32.5253 25.0346 33.4788 23.122 32.8892 21.3602C32.2996 19.5987 30.3862 18.6449 28.6251 19.2345L28.6277 19.2338C28.4478 19.2934 26.8331 19.8415 24.481 21.1421C21.366 22.8646 18.2996 25.1673 15.6134 27.8011C11.823 31.5185 8.67922 35.953 6.26895 40.9818C3.27564 47.228 1.41314 54.4126 0.732697 62.341C0.580033 64.1955 1.96455 65.8283 3.81869 65.9806C3.91247 65.9882 4.00552 65.9922 4.09785 65.9922C5.83422 65.9922 7.3136 64.6553 7.45827 62.8989Z" fill="white"/>
<path fill-rule="evenodd" clip-rule="evenodd" d="M19.5441 62.7148C20.0039 59.0236 20.9693 55.4403 22.4138 52.0639C23.8379 48.7355 25.6924 45.6891 27.9253 43.0091C31.1149 39.1809 35.062 36.1829 39.3391 34.3393C43.8918 32.3768 48.7534 31.6996 53.788 32.3266C60.8328 33.2041 67.9247 36.5823 74.8684 42.3683C75.5597 42.9433 76.4328 43.2141 77.3292 43.1323C78.2248 43.0498 79.0346 42.6238 79.6093 41.9325C80.1844 41.2411 80.4555 40.3669 80.3734 39.4717C80.2909 38.576 79.8649 37.7662 79.1746 37.1923C71.2124 30.5575 62.9486 26.6672 54.6121 25.6287C48.3779 24.8523 42.3415 25.6977 36.6719 28.1418C31.442 30.3962 26.6277 34.0477 22.7496 38.7018C20.1009 41.8805 17.9047 45.4804 16.2218 49.4025C14.5196 53.3692 13.3837 57.5711 12.8457 61.8911C12.097 67.9031 11.1533 72.9912 10.0404 77.0128C9.0604 80.5546 7.42362 85.1687 5.19364 87.0349C4.50302 87.6128 4.07847 88.4252 3.99886 89.3223C3.91926 90.2193 4.19333 91.0939 4.77127 91.7845C5.34921 92.4755 6.1616 92.8997 7.05868 92.9797C7.16046 92.9887 7.26187 92.9931 7.36292 92.9931C8.15169 92.9931 8.90846 92.7194 9.52094 92.2069C12.3758 89.8184 14.7355 85.3105 16.5348 78.8092C17.7477 74.4255 18.76 69.0111 19.5441 62.7148Z" fill="white"/>
<path fill-rule="evenodd" clip-rule="evenodd" d="M77.8428 73.2024C77.5648 70.5435 77.2773 67.7937 76.9974 65.4434C76.8836 64.4878 76.8175 63.8928 76.7589 63.3683C76.3486 59.6858 75.9611 56.2076 74.8739 52.8399C73.6377 49.0102 71.6189 45.8817 68.7019 43.2755C65.0939 40.0521 60.3541 37.8229 55.3551 36.9985C51.2375 36.3195 47.0262 36.6077 43.1758 37.8323C38.8983 39.1928 35.1758 41.6213 32.112 45.0508C28.0526 49.5943 25.3559 55.6751 24.096 63.124C24.0615 63.2756 24.0372 63.4308 24.0241 63.5856L24.011 63.7379C23.3971 70.6467 21.5 79.7982 19.0487 87.6691C16.838 94.7654 14.4855 99.8662 12.7557 101.313C12.065 101.891 11.6405 102.704 11.5609 103.601C11.4813 104.498 11.7553 105.372 12.3333 106.063C12.9112 106.754 13.7236 107.178 14.6207 107.258C15.5192 107.338 16.3923 107.063 17.0833 106.485C19.0374 104.85 22.082 100.606 25.4871 89.6744C28.0867 81.3288 30.0986 71.5899 30.7427 64.2406C31.7874 58.061 33.9367 53.1154 37.1321 49.5391C39.3842 47.0183 42.1027 45.239 45.2127 44.25C48.0486 43.3478 51.1793 43.1406 54.2675 43.6499C58.0216 44.2689 61.5536 45.9188 64.2136 48.2952C68.7459 52.3448 69.3536 57.7971 70.0573 64.1105C70.1558 64.9945 70.242 65.7647 70.2983 66.238C70.6306 69.0259 70.8894 71.5009 71.1394 73.8948C72.4527 86.4536 73.8111 99.4398 79.3604 111.695C79.7304 112.517 80.3978 113.144 81.2403 113.463C81.6289 113.611 82.0327 113.684 82.4362 113.684C82.9073 113.684 83.3776 113.584 83.82 113.385C84.6411 113.015 85.2689 112.347 85.588 111.505C85.9068 110.662 85.8788 109.746 85.5077 108.923C80.3981 97.6406 79.099 85.217 77.8428 73.2024Z" fill="white"/>
<path fill-rule="evenodd" clip-rule="evenodd" d="M65.3865 67.8432C65.9434 62.3971 64.8973 57.614 62.3612 54.0111C60.7823 51.7677 58.6551 50.0502 56.2103 49.0444C53.8419 48.0703 51.2764 47.798 48.792 48.2586C45.5119 48.866 42.5931 50.7248 40.5739 53.492C39.361 55.1543 38.2956 57.2127 37.4072 59.6106C36.5607 61.8955 35.8399 64.5751 35.2641 67.5753C34.8207 69.8863 34.5521 71.8848 34.2922 73.8174C33.8225 77.3087 33.4173 80.3238 31.992 84.4497C30.5704 88.5648 28.5385 93.1171 25.952 97.9809C22.5603 104.359 19.3889 109.044 18.0847 110.637C16.9066 112.076 17.1197 114.206 18.5594 115.385C19.9992 116.563 22.1288 116.35 23.3073 114.91C25.1309 112.683 28.672 107.24 31.9121 101.147C34.6298 96.0366 36.798 91.1572 38.357 86.6445C40.0109 81.857 40.4772 78.3879 40.9712 74.7149C41.2137 72.9131 41.4641 71.0495 41.8876 68.8431C42.3921 66.2133 43.0144 63.8907 43.737 61.9409C44.4178 60.1042 45.184 58.5954 46.0149 57.457C47.0112 56.0913 48.431 55.1779 50.0118 54.8849C51.2237 54.6603 52.4817 54.7955 53.6492 55.2757C54.8989 55.7897 56.0046 56.694 56.8472 57.891C58.4367 60.1489 59.0713 63.3531 58.6824 67.1569C57.9583 74.2384 55.1094 84.545 50.661 96.178C45.939 108.527 40.0065 120.698 36.5552 125.118C35.4121 126.582 35.6727 128.702 37.1361 129.845C37.734 130.313 38.4555 130.56 39.2025 130.56C39.341 130.56 39.4802 130.551 39.6201 130.534C40.5129 130.424 41.3096 129.973 41.8636 129.264C45.7503 124.286 51.9601 111.669 56.9646 98.5821C61.611 86.43 64.6021 75.5135 65.3865 67.8432Z" fill="white"/>
<path fill-rule="evenodd" clip-rule="evenodd" d="M90.2099 74.8333C89.6192 65.9323 89.0089 56.7277 85.9026 49.7677C85.5358 48.9462 84.871 48.3167 84.0306 47.995C83.1902 47.6733 82.2746 47.698 81.4535 48.0648C80.632 48.4315 80.0025 49.0964 79.6808 49.9364C79.3591 50.7768 79.3838 51.692 79.7506 52.5135C82.3593 58.3587 82.9296 66.953 83.481 75.2648C84.095 84.5198 84.6751 93.262 87.9428 99.2603C88.5531 100.381 89.7119 101.017 90.9059 101.017C91.4497 101.017 92.0011 100.885 92.5111 100.607C94.1421 99.7186 94.7462 97.6693 93.8578 96.0383C91.3058 91.3545 90.7736 83.3298 90.2099 74.8333Z" fill="white"/>
<path fill-rule="evenodd" clip-rule="evenodd" d="M53.879 63.3784C53.9735 61.5225 52.5406 59.9358 50.6847 59.8413C48.8266 59.7468 47.2425 61.1793 47.1476 63.0346C46.5944 73.7723 44.3059 84.7078 40.5293 94.6593C36.8155 104.446 31.8125 112.912 25.6591 119.822C24.4225 121.212 24.5468 123.348 25.936 124.585C26.5776 125.156 27.3787 125.437 28.1769 125.437C29.1067 125.437 30.0329 125.055 30.6981 124.308C37.3942 116.788 42.8236 107.615 46.8357 97.0415C50.8541 86.4514 53.2898 74.8111 53.879 63.3784Z" fill="white"/>
<path fill-rule="evenodd" clip-rule="evenodd" d="M70.5884 97.5571L70.2856 96.1297C70.085 94.9113 69.2413 93.9037 68.0752 93.4934C67.2247 93.1942 66.3087 93.244 65.4956 93.6337C64.6825 94.0233 64.07 94.7063 63.7705 95.5569L63.5924 96.0814C61.6099 101.706 59.6166 107.219 57.1907 112.746C54.4231 119.052 51.4185 124.574 48.0039 129.628C47.5002 130.375 47.3173 131.274 47.4892 132.158C47.6612 133.043 48.1672 133.807 48.9141 134.311C49.4779 134.691 50.1278 134.889 50.7933 134.889C51.0092 134.889 51.227 134.868 51.444 134.826C52.3283 134.654 53.0924 134.148 53.5962 133.402C57.2238 128.031 60.4192 122.158 63.3652 115.445C64.3117 113.289 65.2401 111.034 66.2106 108.53C67.4475 113.066 69.1842 117.96 72.1932 123.333C72.6334 124.118 73.3538 124.685 74.2211 124.93C75.0884 125.174 75.9985 125.066 76.7844 124.626C78.4066 123.716 78.9867 121.657 78.0777 120.035C73.6878 112.195 72.2517 105.412 70.5884 97.5571Z" fill="white"/>
</g>
</svg>
